700 173 1 0         
16 Autodesk AutoCAD 20 ASM 228.0.0.65535 NT 24 Sun Aug  6 18:14:34 2023 
1 9.999999999999999547e-07 1.000000000000000036e-10 
body $-1 -1 $-1 $1 $-1 $2 #
lump $-1 -1 $-1 $-1 $3 $0 #
transform $-1 -1 -1.000000000000000222 0 1.779758311459931724e-16 0 1 0 -1.779758311459931724e-16 0 -1.000000000000000222 576.000041072885324 202 2.459498591600249195 1 rotate no_reflect no_shear #
shell $-1 -1 $-1 $-1 $-1 $4 $-1 $1 #
face $5 -1 $-1 $6 $7 $3 $-1 $8 forward single #
color-adesk-attrib $-1 -1 $-1 $-1 $4 256 #
face $9 -1 $-1 $10 $11 $3 $-1 $12 forward single #
loop $-1 -1 $-1 $-1 $13 $4 #
plane-surface $-1 -1 $-1 175.6939340466294937 35.99999999999999289 -6.143970201435880796 0 1 0 -1.224646799147353207e-16 0 -1 forward_v I I I I #
color-adesk-attrib $-1 -1 $-1 $-1 $6 256 #
face $14 -1 $-1 $15 $16 $3 $-1 $17 forward single #
loop $-1 -1 $-1 $-1 $18 $6 #
cone-surface $-1 -1 $-1 148.9998929737439255 17.99951319931134464 163.0157889406663685 1 1.836970198721029688e-16 -1.836970198721029688e-16 -2.608497682183831519e-14 -18.49999999999999289 -160.4999999999982947 1 I I 0 -1 161.5626813345193682 forward I I I I #
coedge $-1 -1 $-1 $19 $20 $21 $22 forward $7 $-1 #
color-adesk-attrib $-1 -1 $-1 $-1 $10 256 #
face $23 -1 $-1 $24 $25 $3 $-1 $26 forward single #
loop $-1 -1 $-1 $-1 $27 $10 #
plane-surface $-1 -1 $-1 175.9998929737438971 4.959819536546779811e-15 2.45889084971769778 1.836970198721029688e-16 0 1 -1 -1.836970198721029688e-16 1.836970198721029688e-16 forward_v I I I I #
coedge $-1 -1 $-1 $28 $29 $30 $31 forward $11 $-1 #
coedge $-1 -1 $-1 $32 $13 $29 $33 reversed $7 $-1 #
coedge $-1 -1 $-1 $13 $34 $35 $36 reversed $7 $-1 #
coedge $-1 -1 $-1 $37 $30 $13 $22 reversed $38 $-1 #
edge $39 -1 $-1 $40 -16.30084743358392529 $41 -13.84234602518424317 $13 $42 forward @7 unknown #
color-adesk-attrib $-1 -1 $-1 $-1 $15 256 #
face $43 -1 $-1 $44 $45 $3 $-1 $46 forward single #
loop $-1 -1 $-1 $-1 $47 $15 #
plane-surface $-1 -1 $-1 175.9998929737438971 0 0.9133263496935835057 1 0 -1.836970198721029688e-16 1.836970198721029688e-16 -0 1 forward_v I I I I #
coedge $-1 -1 $-1 $48 $49 $28 $50 reversed $16 $-1 #
coedge $-1 -1 $-1 $51 $18 $27 $50 forward $11 $-1 #
coedge $-1 -1 $-1 $18 $51 $19 $33 forward $11 $-1 #
coedge $-1 -1 $-1 $21 $52 $18 $31 reversed $38 $-1 #
edge $53 -1 $-1 $41 -0.2264050415885710266 $54 -0.00311774266964469967 $18 $55 forward @7 unknown #
coedge $-1 -1 $-1 $56 $19 $57 $58 reversed $7 $-1 #
edge $59 -1 $-1 $60 -27 $41 -1.000107026256117138 $29 $61 forward @7 unknown #
coedge $-1 -1 $-1 $20 $56 $62 $63 reversed $7 $-1 #
coedge $-1 -1 $-1 $64 $65 $20 $36 forward $66 $-1 #
edge $67 -1 $-1 $40 -16.26483295001814611 $68 9.735208122867419434 $35 $69 forward @7 unknown #
coedge $-1 -1 $-1 $70 $21 $65 $71 forward $38 $-1 #
loop $-1 -1 $-1 $-1 $37 $72 #
color-adesk-attrib $-1 -1 $-1 $-1 $22 256 #
vertex $-1 -1 $-1 $36 $73 #
vertex $-1 -1 $-1 $22 $74 #
straight-curve $-1 -1 $-1 150 36 16.30134602518424458 0 0 1 I I #
color-adesk-attrib $-1 -1 $-1 $-1 $24 256 #
face $75 -1 $-1 $76 $77 $3 $-1 $78 forward single #
loop $-1 -1 $-1 $-1 $79 $24 #
plane-surface $-1 -1 $-1 176.0000410728855798 0 0.9133263496935841719 1.836970198721029688e-16 0 1 -1 -0 1.836970198721029688e-16 forward_v I I I I #
coedge $-1 -1 $-1 $80 $81 $49 $82 forward $25 $-1 #
coedge $-1 -1 $-1 $83 $27 $52 $84 forward $16 $-1 #
coedge $-1 -1 $-1 $27 $83 $47 $82 reversed $16 $-1 #
edge $85 -1 $-1 $54 1.000107026256110032 $86 27 $27 $87 forward @7 unknown #
coedge $-1 -1 $-1 $29 $28 $81 $88 reversed $11 $-1 #
coedge $-1 -1 $-1 $30 $70 $48 $84 reversed $38 $-1 #
color-adesk-attrib $-1 -1 $-1 $-1 $31 256 #
vertex $-1 -1 $-1 $31 $89 #
ellipse-curve $-1 -1 $-1 150.0000000000000284 17.99951319931134464 163.0157889406663685 -1 0 0 -2.608497682183831519e-14 -18.49999999999999289 -160.4999999999982947 1 I I #
coedge $-1 -1 $-1 $34 $32 $90 $91 reversed $7 $-1 #
coedge $-1 -1 $-1 $81 $92 $32 $58 forward $25 $-1 #
edge $93 -1 $-1 $94 4.53509103188141971 $60 6.080764682187833614 $57 $95 forward @7 unknown #
color-adesk-attrib $-1 -1 $-1 $-1 $33 256 #
vertex $-1 -1 $-1 $88 $96 #
straight-curve $-1 -1 $-1 148.9998929737438971 36 2.459000000000001407 -1 -1.836970198721029688e-16 1.836970198721029688e-16 I I #
coedge $-1 -1 $-1 $97 $98 $34 $63 forward $77 $-1 #
edge $99 -1 $-1 $68 3.072234396518097377 $100 3.985062154611367369 $62 $101 forward @7 unknown #
coedge $-1 -1 $-1 $102 $35 $98 $103 forward $66 $-1 #
coedge $-1 -1 $-1 $35 $102 $37 $71 reversed $66 $-1 #
loop $-1 -1 $-1 $-1 $64 $76 #
color-adesk-attrib $-1 -1 $-1 $-1 $36 256 #
vertex $-1 -1 $-1 $36 $104 #
straight-curve $-1 -1 $-1 166.2648329500181603 35.99999999999999289 0.000498591600315290151 1 0 -1.224646799147353207e-16 I I #
coedge $-1 -1 $-1 $52 $37 $105 $106 reversed $38 $-1 #
edge $107 -1 $-1 $40 -35.99999999999999289 $108 2 $37 $109 forward @7 unknown #
face $110 -1 $-1 $111 $38 $3 $-1 $112 forward single #
point $-1 -1 $-1 150 35.99999999999999289 0.0004985916003170665078 #
point $-1 -1 $-1 150 36 2.459000000000000963 #
color-adesk-attrib $-1 -1 $-1 $-1 $44 256 #
face $113 -1 $-1 $72 $66 $3 $-1 $114 forward single #
loop $-1 -1 $-1 $-1 $97 $44 #
plane-surface $-1 -1 $-1 176.0000410728855798 0 0.0004985916003144019726 1 0 -1.224646799147353207e-16 1.224646799147353207e-16 -0 1 forward_v I I I I #
coedge $-1 -1 $-1 $115 $90 $92 $116 forward $45 $-1 #
coedge $-1 -1 $-1 $92 $47 $117 $118 reversed $25 $-1 #
coedge $-1 -1 $-1 $47 $57 $51 $88 forward $25 $-1 #
edge $119 -1 $-1 $86 0 $120 2 $47 $121 forward @7 unknown #
coedge $-1 -1 $-1 $49 $48 $122 $123 reversed $16 $-1 #
edge $124 -1 $-1 $54 0 $125 2 $52 $126 forward @7 unknown #
color-adesk-attrib $-1 -1 $-1 $-1 $50 256 #
vertex $-1 -1 $-1 $82 $127 #
straight-curve $-1 -1 $-1 148.9998929737438971 0 2.458890849717702665 1 1.836970198721029688e-16 -1.836970198721029688e-16 I I #
edge $128 -1 $-1 $60 -0.2264050415885709711 $86 -0.003117742669644647194 $51 $129 forward @7 unknown #
point $-1 -1 $-1 150 0 2.458890849717694671 #
coedge $-1 -1 $-1 $79 $130 $56 $91 forward $45 $-1 #
edge $131 -1 $-1 $100 -13.15312756269888439 $94 -13.15297946355720171 $90 $132 forward @7 unknown #
coedge $-1 -1 $-1 $57 $80 $79 $116 reversed $25 $-1 #
color-adesk-attrib $-1 -1 $-1 $-1 $58 256 #
vertex $-1 -1 $-1 $116 $133 #
straight-curve $-1 -1 $-1 175.9998929737438971 35.99999999999999289 -3.621764682187836204 1.836970198721029688e-16 0 1 I I #
point $-1 -1 $-1 175.9998929737438971 35.99999999999999289 2.458999999999997854 #
coedge $-1 -1 $-1 $134 $62 $130 $135 forward $77 $-1 #
coedge $-1 -1 $-1 $62 $134 $64 $103 reversed $77 $-1 #
color-adesk-attrib $-1 -1 $-1 $-1 $63 256 #
vertex $-1 -1 $-1 $135 $136 #
straight-curve $-1 -1 $-1 176.0000410728855798 35.99999999999999289 -3.071735804917782975 1.224646799147353207e-16 -0 1 I I #
coedge $-1 -1 $-1 $65 $64 $137 $138 reversed $66 $-1 #
edge $139 -1 $-1 $68 -36 $140 2 $64 $141 forward @7 unknown #
point $-1 -1 $-1 176.0000410728855798 35.99999999999999289 0.0004985916003139578834 #
coedge $-1 -1 $-1 $137 $122 $70 $106 forward $142 $-1 #
edge $143 -1 $-1 $125 13.84245517546654902 $108 16.30084743358392529 $70 $144 forward @7 unknown #
color-adesk-attrib $-1 -1 $-1 $-1 $71 256 #
vertex $-1 -1 $-1 $71 $145 #
straight-curve $-1 -1 $-1 150 0 0.0004985916003166224186 0 -1 0 I I #
color-adesk-attrib $-1 -1 $-1 $-1 $72 256 #
face $146 -1 $-1 $-1 $142 $3 $-1 $147 forward single #
plane-surface $-1 -1 $-1 150 0 2.458890849717695559 -1 -0 -0 0 0 -1 forward_v I I I I #
color-adesk-attrib $-1 -1 $-1 $-1 $76 256 #
plane-surface $-1 -1 $-1 150 0 0.0004985916003172820472 -1.224646799147353207e-16 -0 -1 1 -0 -1.224646799147353207e-16 forward_v I I I I #
coedge $-1 -1 $-1 $130 $79 $148 $149 reversed $45 $-1 #
edge $150 -1 $-1 $94 -36 $151 2 $79 $152 forward @7 unknown #
coedge $-1 -1 $-1 $122 $148 $80 $118 forward $142 $-1 #
edge $153 -1 $-1 $151 4.53509103188141971 $120 6.080655531905534872 $80 $154 forward @7 unknown #
color-adesk-attrib $-1 -1 $-1 $-1 $82 256 #
vertex $-1 -1 $-1 $82 $155 #
straight-curve $-1 -1 $-1 175.9998929737438971 0 2.458890849717699112 0 -1 0 I I #
coedge $-1 -1 $-1 $105 $117 $83 $123 forward $142 $-1 #
edge $156 -1 $-1 $120 -27 $125 -1.000107026256110032 $83 $157 forward @7 unknown #
color-adesk-attrib $-1 -1 $-1 $-1 $84 256 #
vertex $-1 -1 $-1 $84 $158 #
straight-curve $-1 -1 $-1 150 0 2.458890849717694671 0 -1 0 I I #
point $-1 -1 $-1 175.9998929737438971 0 2.458890849717699112 #
color-adesk-attrib $-1 -1 $-1 $-1 $88 256 #
ellipse-curve $-1 -1 $-1 175.9998929737439255 17.99951319931134464 163.0157889406663685 -1 -1.836970198721029688e-16 1.836970198721029688e-16 -2.608497682183831519e-14 -18.49999999999999289 -160.4999999999982947 1 I I #
coedge $-1 -1 $-1 $90 $115 $97 $135 reversed $45 $-1 #
color-adesk-attrib $-1 -1 $-1 $-1 $91 256 #
straight-curve $-1 -1 $-1 162.8469135101866812 36 0.9133263496935866144 -1 0 1.836970198721029688e-16 I I #
point $-1 -1 $-1 175.9998929737438971 35.99999999999999289 0.913326349693584616 #
coedge $-1 -1 $-1 $98 $97 $159 $160 reversed $77 $-1 #
edge $161 -1 $-1 $100 -36 $162 2 $97 $163 forward @7 unknown #
point $-1 -1 $-1 176.0000410728855798 35.99999999999999289 0.9133263496935843939 #
coedge $-1 -1 $-1 $159 $105 $102 $138 forward $142 $-1 #
edge $164 -1 $-1 $108 -16.26483295001814611 $140 9.735208122867426539 $102 $165 forward @7 unknown #
color-adesk-attrib $-1 -1 $-1 $-1 $103 256 #
vertex $-1 -1 $-1 $103 $166 #
straight-curve $-1 -1 $-1 176.0000410728855798 0 0.0004985916003139578834 0 -1 0 I I #
loop $-1 -1 $-1 $-1 $105 $111 #
color-adesk-attrib $-1 -1 $-1 $-1 $106 256 #
straight-curve $-1 -1 $-1 150 -2 16.30134602518424458 0 0 -1 I I #
point $-1 -1 $-1 150 -2 0.0004985916003166224186 #
color-adesk-attrib $-1 -1 $-1 $-1 $111 256 #
plane-surface $-1 -1 $-1 163.0000165148444466 -2 1.229690699060678405 0 -1 0 0 0 -1 forward_v I I I I #
coedge $-1 -1 $-1 $117 $159 $115 $149 forward $142 $-1 #
edge $167 -1 $-1 $162 -13.1531275626988915 $151 -13.15297946355720882 $115 $168 forward @7 unknown #
color-adesk-attrib $-1 -1 $-1 $-1 $116 256 #
vertex $-1 -1 $-1 $116 $169 #
straight-curve $-1 -1 $-1 175.9998929737438971 0 0.913326349693584616 0 -1 0 I I #
color-adesk-attrib $-1 -1 $-1 $-1 $118 256 #
straight-curve $-1 -1 $-1 175.9998929737438971 -2 -3.621764682187836204 1.836970198721029688e-16 0 1 I I #
point $-1 -1 $-1 175.9998929737438971 -2 2.458890849717699112 #
color-adesk-attrib $-1 -1 $-1 $-1 $123 256 #
straight-curve $-1 -1 $-1 148.9998929737438971 -2 2.458890849717702665 -1 -1.836970198721029688e-16 1.836970198721029688e-16 I I #
point $-1 -1 $-1 150 -2 2.458890849717694671 #
coedge $-1 -1 $-1 $148 $137 $134 $160 forward $142 $-1 #
edge $170 -1 $-1 $140 3.072234396518097377 $162 3.985062154611367369 $134 $171 forward @7 unknown #
color-adesk-attrib $-1 -1 $-1 $-1 $135 256 #
vertex $-1 -1 $-1 $135 $172 #
straight-curve $-1 -1 $-1 176.0000410728855798 0 0.9133263496935843939 0 -1 0 I I #
color-adesk-attrib $-1 -1 $-1 $-1 $138 256 #
straight-curve $-1 -1 $-1 166.2648329500181603 -2 0.000498591600315290151 1 0 -1.224646799147353207e-16 I I #
point $-1 -1 $-1 176.0000410728855798 -2 0.0004985916003139578834 #
color-adesk-attrib $-1 -1 $-1 $-1 $149 256 #
straight-curve $-1 -1 $-1 162.8469135101866812 -2 0.9133263496935866144 -1 0 1.836970198721029688e-16 I I #
point $-1 -1 $-1 175.9998929737438971 -2 0.913326349693584616 #
color-adesk-attrib $-1 -1 $-1 $-1 $160 256 #
straight-curve $-1 -1 $-1 176.0000410728855798 -2 -3.071735804917782975 1.224646799147353207e-16 0 1 I I #
point $-1 -1 $-1 176.0000410728855798 -2 0.9133263496935843939 #
