700 699 1 0         
16 Autodesk AutoCAD 20 ASM 228.0.0.65535 NT 24 Wed Mar 20 15:13:01 2024 
1 9.999999999999999547e-07 1.000000000000000036e-10 
body $-1 -1 $-1 $1 $-1 $2 #
lump $-1 -1 $-1 $-1 $3 $0 #
transform $-1 -1 1 0 0 0 1 0 0 0 1 0.005543263991825142512 -1.795325113321013077 3.268829482684717291 1 no_rotate no_reflect no_shear #
shell $-1 -1 $-1 $-1 $-1 $4 $-1 $1 #
face $5 -1 $-1 $6 $7 $3 $-1 $8 forward single #
color-adesk-attrib $-1 -1 $-1 $-1 $4 256 #
face $9 -1 $-1 $10 $11 $3 $-1 $12 forward single #
loop $-1 -1 $-1 $-1 $13 $4 #
plane-surface $-1 -1 $-1 6.744876265827855377 19.54548064599892854 -4.768829482684717291 -0.7071067811865470176 -0.7071067811865480168 0 0.7071067811865480168 -0.7071067811865470176 0 forward_v I I I I #
color-adesk-attrib $-1 -1 $-1 $-1 $6 256 #
face $14 -1 $-1 $15 $16 $3 $-1 $17 forward single #
loop $-1 -1 $-1 $-1 $18 $6 #
plane-surface $-1 -1 $-1 11.74487626582784117 19.54548064599894275 -4.768829482684717291 0 1 0 -1 -0 -0 forward_v I I I I #
coedge $-1 -1 $-1 $19 $20 $21 $22 reversed $7 $-1 #
color-adesk-attrib $-1 -1 $-1 $-1 $10 256 #
face $23 -1 $-1 $24 $25 $3 $-1 $26 reversed single #
loop $-1 -1 $-1 $-1 $27 $10 #
plane-surface $-1 -1 $-1 11.74487626582784827 14.54548064599897117 -4.768829482684717291 1 0 0 0 1 0 forward_v I I I I #
coedge $-1 -1 $-1 $28 $29 $30 $31 reversed $11 $-1 #
coedge $-1 -1 $-1 $32 $13 $29 $33 reversed $7 $-1 #
coedge $-1 -1 $-1 $13 $32 $34 $35 forward $7 $-1 #
coedge $-1 -1 $-1 $36 $30 $13 $22 forward $37 $-1 #
edge $38 -1 $-1 $39 -6.012305665564653623 $40 1.05876214630079124 $21 $41 forward @7 unknown #
color-adesk-attrib $-1 -1 $-1 $-1 $15 256 #
face $42 -1 $-1 $43 $44 $3 $-1 $45 forward single #
loop $-1 -1 $-1 $-1 $46 $15 #
plane-surface $-1 -1 $-1 9.977109312861479395 17.77771369303257387 -4.768829482684717291 0 0 1 1 0 0 forward_v I I I I #
coedge $-1 -1 $-1 $34 $47 $36 $48 reversed $16 $-1 #
coedge $-1 -1 $-1 $49 $18 $47 $50 reversed $11 $-1 #
coedge $-1 -1 $-1 $18 $49 $19 $33 forward $11 $-1 #
coedge $-1 -1 $-1 $21 $36 $18 $31 forward $37 $-1 #
edge $51 -1 $-1 $52 -3.997189885780034757 $39 1.002810114219951032 $30 $53 forward @7 unknown #
coedge $-1 -1 $-1 $20 $19 $46 $54 forward $7 $-1 #
edge $55 -1 $-1 $56 0 $39 1.499885400733671936 $19 $57 forward @7 unknown #
coedge $-1 -1 $-1 $58 $27 $20 $35 reversed $16 $-1 #
edge $59 -1 $-1 $60 0 $40 1.499885400733671936 $20 $61 forward @7 unknown #
coedge $-1 -1 $-1 $30 $21 $27 $48 forward $37 $-1 #
loop $-1 -1 $-1 $62 $30 $63 #
color-adesk-attrib $-1 -1 $-1 $-1 $22 256 #
vertex $-1 -1 $-1 $31 $64 #
vertex $-1 -1 $-1 $48 $65 #
straight-curve $-1 -1 $-1 10.99621837251492096 15.29413853931187006 -3.268944081951045355 0.7071067811865480168 -0.7071067811865470176 0 I I #
color-adesk-attrib $-1 -1 $-1 $-1 $24 256 #
face $66 -1 $-1 $67 $68 $3 $-1 $69 forward single #
loop $-1 -1 $-1 $-1 $70 $24 #
plane-surface $-1 -1 $-1 -6.755123734172151728 -15.95451935400105725 -4.768829482684717291 0.7071067811865475727 0.7071067811865475727 0 -0.7071067811865475727 0.7071067811865475727 0 forward_v I I I I #
coedge $-1 -1 $-1 $71 $72 $32 $54 reversed $25 $-1 #
coedge $-1 -1 $-1 $27 $58 $28 $50 forward $16 $-1 #
edge $73 -1 $-1 $40 7.499874099154187235 $52 12.49987409915415881 $36 $74 forward @7 unknown #
coedge $-1 -1 $-1 $29 $28 $71 $75 forward $11 $-1 #
edge $76 -1 $-1 $77 0 $52 1.499885400733671936 $47 $78 forward @7 unknown #
color-adesk-attrib $-1 -1 $-1 $-1 $31 256 #
vertex $-1 -1 $-1 $31 $79 #
straight-curve $-1 -1 $-1 7.747686380047813515 19.54548064599894275 -3.268944081951045355 -1 0 0 I I #
edge $80 -1 $-1 $56 -7.071067811865460406 $60 -0 $32 $81 forward @7 unknown #
color-adesk-attrib $-1 -1 $-1 $-1 $33 256 #
vertex $-1 -1 $-1 $54 $82 #
straight-curve $-1 -1 $-1 6.744876265827862483 19.54548064599894275 -4.768829482684717291 0 0 1 I I #
coedge $-1 -1 $-1 $47 $34 $72 $83 forward $16 $-1 #
color-adesk-attrib $-1 -1 $-1 $-1 $35 256 #
vertex $-1 -1 $-1 $54 $84 #
straight-curve $-1 -1 $-1 11.74487626582784827 14.54548064599897117 -4.768829482684717291 0 0 1 I I #
loop $-1 -1 $-1 $85 $86 $63 #
face $87 -1 $-1 $88 $37 $3 $-1 $89 reversed single #
point $-1 -1 $-1 6.744876265827862483 19.54548064599894275 -3.268944081951045355 #
point $-1 -1 $-1 11.74487626582784827 14.54548064599897117 -3.268944081951045355 #
color-adesk-attrib $-1 -1 $-1 $-1 $43 256 #
face $90 -1 $-1 $91 $92 $3 $-1 $93 forward single #
loop $-1 -1 $-1 $-1 $94 $43 #
plane-surface $-1 -1 $-1 -11.75512373417214462 -15.95451935400105725 -4.768829482684717291 0 -1 0 1 0 0 forward_v I I I I #
coedge $-1 -1 $-1 $95 $96 $97 $98 reversed $44 $-1 #
coedge $-1 -1 $-1 $72 $46 $49 $75 reversed $25 $-1 #
coedge $-1 -1 $-1 $46 $71 $58 $83 reversed $25 $-1 #
color-adesk-attrib $-1 -1 $-1 $-1 $48 256 #
straight-curve $-1 -1 $-1 11.74487626582784827 7.045606546844783935 -3.268944081951045355 0 1 0 I I #
edge $99 -1 $-1 $77 -14.13388347648318444 $56 -9.133883476483198649 $49 $100 forward @7 unknown #
color-adesk-attrib $-1 -1 $-1 $-1 $50 256 #
vertex $-1 -1 $-1 $83 $101 #
straight-curve $-1 -1 $-1 11.74487626582784827 19.54548064599894275 -4.768829482684717291 0 0 1 I I #
point $-1 -1 $-1 11.74487626582784827 19.54548064599894275 -3.268944081951045355 #
color-adesk-attrib $-1 -1 $-1 $-1 $54 256 #
straight-curve $-1 -1 $-1 11.74487626582784827 14.54548064599894275 -4.768829482684717291 0.7071067811865480168 -0.7071067811865470176 0 I I #
point $-1 -1 $-1 6.744876265827862483 19.54548064599894275 -4.768829482684717291 #
edge $102 -1 $-1 $60 -4.116116523516808456 $77 0.8838834764831631219 $58 $103 forward @7 unknown #
point $-1 -1 $-1 11.74487626582784827 14.54548064599897117 -4.768829482684717291 #
loop $-1 -1 $-1 $104 $105 $63 #
coedge $-1 -1 $-1 $97 $106 $94 $107 forward $62 $-1 #
color-adesk-attrib $-1 -1 $-1 $-1 $63 256 #
face $108 -1 $-1 $109 $110 $3 $-1 $111 forward single #
plane-surface $-1 -1 $-1 3.750496494267785863 -0.4542675523094032997 -3.268944081951045355 0 0 1 1 0 0 forward_v I I I I #
color-adesk-attrib $-1 -1 $-1 $-1 $67 256 #
face $112 -1 $-1 $113 $114 $3 $-1 $115 reversed single #
loop $-1 -1 $-1 $-1 $116 $67 #
plane-surface $-1 -1 $-1 -11.75512373417215173 -10.95451935400105725 -4.768829482684717291 -1 0 0 -0 -1 -0 forward_v I I I I #
coedge $-1 -1 $-1 $117 $118 $86 $107 reversed $68 $-1 #
coedge $-1 -1 $-1 $119 $70 $118 $120 reversed $44 $-1 #
coedge $-1 -1 $-1 $70 $119 $121 $122 forward $44 $-1 #
coedge $-1 -1 $-1 $106 $86 $70 $98 forward $62 $-1 #
edge $123 -1 $-1 $124 -1.765868927487361795 $125 5.305198884378114599 $97 $126 forward @7 unknown #
color-adesk-attrib $-1 -1 $-1 $-1 $75 256 #
straight-curve $-1 -1 $-1 -2.389007210655343272 19.54548064599894275 -4.768829482684717291 -1 -0 -0 I I #
point $-1 -1 $-1 11.74487626582784827 19.54548064599894275 -4.768829482684717291 #
color-adesk-attrib $-1 -1 $-1 $-1 $83 256 #
straight-curve $-1 -1 $-1 11.74487626582784827 18.66159716951577963 -4.768829482684717291 0 1 0 I I #
loop $-1 -1 $-1 $127 $128 $63 #
coedge $-1 -1 $-1 $129 $130 $131 $132 forward $85 $-1 #
coedge $-1 -1 $-1 $86 $97 $116 $133 forward $62 $-1 #
edge $134 -1 $-1 $135 -7.752810114219972348 $124 -2.752810114219972348 $86 $136 forward @7 unknown #
color-adesk-attrib $-1 -1 $-1 $-1 $88 256 #
face $137 -1 $-1 $138 $139 $3 $-1 $140 forward single #
loop $-1 -1 $-1 $-1 $141 $88 #
plane-surface $-1 -1 $-1 -7.505486504531296177 -8.204870692246004182 -1.795529482684717237 0 1 -0 -1 0 0 forward_v I I I I #
color-adesk-attrib $-1 -1 $-1 $-1 $91 256 #
face $142 -1 $-1 $143 $144 $3 $-1 $145 forward single #
loop $-1 -1 $-1 $-1 $146 $91 #
plane-surface $-1 -1 $-1 -9.987356781205782852 -14.18675240103468838 -4.768829482684717291 0 0 1 1 0 0 forward_v I I I I #
coedge $-1 -1 $-1 $121 $147 $106 $133 reversed $92 $-1 #
coedge $-1 -1 $-1 $148 $94 $147 $149 reversed $68 $-1 #
coedge $-1 -1 $-1 $94 $148 $95 $120 forward $68 $-1 #
coedge $-1 -1 $-1 $96 $95 $146 $150 forward $44 $-1 #
edge $151 -1 $-1 $152 0 $124 1.499885400733671936 $95 $153 forward @7 unknown #
coedge $-1 -1 $-1 $154 $116 $96 $122 reversed $92 $-1 #
edge $155 -1 $-1 $156 0 $125 1.499885400733671936 $96 $157 forward @7 unknown #
color-adesk-attrib $-1 -1 $-1 $-1 $98 256 #
vertex $-1 -1 $-1 $107 $158 #
vertex $-1 -1 $-1 $133 $159 #
straight-curve $-1 -1 $-1 -8.003781627485082595 -14.70586146068812994 -3.268944081951045355 -0.7071067811865475727 0.7071067811865475727 0 I I #
loop $-1 -1 $-1 $160 $161 $63 #
coedge $-1 -1 $-1 $162 $163 $164 $165 forward $104 $-1 #
coedge $-1 -1 $-1 $130 $105 $166 $167 forward $85 $-1 #
coedge $-1 -1 $-1 $105 $129 $168 $169 forward $85 $-1 #
coedge $-1 -1 $-1 $170 $171 $105 $132 reversed $172 $-1 #
edge $173 -1 $-1 $174 -9.999874099154173024 $175 -4.999874099154173024 $105 $176 forward @7 unknown #
edge $177 -1 $-1 $125 5.250125900845826976 $135 10.25012590084582698 $106 $178 forward @7 unknown #
color-adesk-attrib $-1 -1 $-1 $-1 $107 256 #
vertex $-1 -1 $-1 $107 $179 #
straight-curve $-1 -1 $-1 -4.00231361995217938 -15.95451935400105725 -3.268944081951045355 1 0 -0 I I #
color-adesk-attrib $-1 -1 $-1 $-1 $109 256 #
face $180 -1 $-1 $181 $182 $3 $-1 $183 forward single #
loop $-1 -1 $-1 $-1 $184 $109 #
plane-surface $-1 -1 $-1 -7.505486504531296177 11.79512930775399582 -1.795529482684717237 -1 0 0 0 -1 0 forward_v I I I I #
coedge $-1 -1 $-1 $185 $186 $187 $188 reversed $110 $-1 #
color-adesk-attrib $-1 -1 $-1 $-1 $113 256 #
face $189 -1 $-1 $190 $172 $3 $-1 $191 forward single #
loop $-1 -1 $-1 $-1 $166 $113 #
plane-surface $-1 -1 $-1 -11.75512373417215173 14.54548064599894275 -4.768829482684717291 0.7071067811865474617 -0.7071067811865476838 0 0.7071067811865476838 0.7071067811865474617 0 forward_v I I I I #
coedge $-1 -1 $-1 $192 $193 $119 $150 reversed $114 $-1 #
coedge $-1 -1 $-1 $116 $154 $117 $149 forward $92 $-1 #
coedge $-1 -1 $-1 $118 $117 $192 $194 forward $68 $-1 #
edge $195 -1 $-1 $196 0 $135 1.499885400733671936 $147 $197 forward @7 unknown #
edge $198 -1 $-1 $152 0 $156 7.071067811865475505 $119 $199 forward @7 unknown #
color-adesk-attrib $-1 -1 $-1 $-1 $120 256 #
vertex $-1 -1 $-1 $150 $200 #
straight-curve $-1 -1 $-1 -6.755123734172151728 -15.95451935400105725 -4.768829482684717291 0 0 1 I I #
coedge $-1 -1 $-1 $147 $121 $193 $201 forward $92 $-1 #
color-adesk-attrib $-1 -1 $-1 $-1 $122 256 #
vertex $-1 -1 $-1 $150 $202 #
straight-curve $-1 -1 $-1 -11.75512373417215173 -10.95451935400105725 -4.768829482684717291 0 0 1 I I #
point $-1 -1 $-1 -6.755123734172151728 -15.95451935400105725 -3.268944081951045355 #
point $-1 -1 $-1 -11.75512373417215173 -10.95451935400105725 -3.268944081951045355 #
loop $-1 -1 $-1 $203 $204 $63 #
coedge $-1 -1 $-1 $161 $161 $205 $206 forward $127 $-1 #
coedge $-1 -1 $-1 $163 $128 $207 $208 forward $104 $-1 #
coedge $-1 -1 $-1 $128 $162 $209 $210 forward $104 $-1 #
coedge $-1 -1 $-1 $211 $212 $128 $165 reversed $213 $-1 #
edge $214 -1 $-1 $215 -7.750125900845826976 $216 -2.750125900845826976 $128 $217 forward @7 unknown #
coedge $-1 -1 $-1 $218 $219 $129 $167 reversed $144 $-1 #
edge $220 -1 $-1 $175 -0.1788527714593282081 $221 6.892215040406147963 $129 $222 forward @7 unknown #
coedge $-1 -1 $-1 $223 $224 $130 $169 reversed $225 $-1 #
edge $226 -1 $-1 $221 5.252810114219968796 $174 10.2528101142199688 $130 $227 forward @7 unknown #
coedge $-1 -1 $-1 $228 $131 $224 $229 reversed $172 $-1 #
coedge $-1 -1 $-1 $131 $228 $218 $230 forward $172 $-1 #
loop $-1 -1 $-1 $-1 $131 $143 #
color-adesk-attrib $-1 -1 $-1 $-1 $132 256 #
vertex $-1 -1 $-1 $132 $231 #
vertex $-1 -1 $-1 $132 $232 #
straight-curve $-1 -1 $-1 -11.75512373417215173 9.545606546844769724 -3.268944081951045355 0 -1 0 I I #
color-adesk-attrib $-1 -1 $-1 $-1 $133 256 #
straight-curve $-1 -1 $-1 -11.75512373417215173 -5.704393453155230276 -3.268944081951045355 0 -1 0 I I #
point $-1 -1 $-1 -11.75512373417215173 -15.95451935400105725 -3.268944081951045355 #
color-adesk-attrib $-1 -1 $-1 $-1 $138 256 #
face $233 -1 $-1 $234 $235 $3 $-1 $236 forward single #
loop $-1 -1 $-1 $-1 $237 $138 #
plane-surface $-1 -1 $-1 -13.50548650453129618 11.79512930775399582 -1.795529482684717237 0 -1 0 1 0 -0 forward_v I I I I #
coedge $-1 -1 $-1 $238 $239 $240 $241 forward $139 $-1 #
coedge $-1 -1 $-1 $240 $141 $242 $243 reversed $110 $-1 #
coedge $-1 -1 $-1 $141 $240 $244 $245 reversed $110 $-1 #
coedge $-1 -1 $-1 $246 $247 $141 $188 forward $235 $-1 #
edge $248 -1 $-1 $249 0.6878216209449148355 $250 2.188236220211242866 $141 $251 forward @7 unknown #
color-adesk-attrib $-1 -1 $-1 $-1 $143 256 #
face $252 -1 $-1 $253 $225 $3 $-1 $254 forward single #
plane-surface $-1 -1 $-1 -11.75512373417215173 19.54548064599894275 -4.768829482684717291 -1 0 0 -0 -1 -0 forward_v I I I I #
coedge $-1 -1 $-1 $193 $146 $148 $194 reversed $114 $-1 #
coedge $-1 -1 $-1 $146 $192 $154 $201 reversed $114 $-1 #
edge $255 -1 $-1 $196 -14.13388347648318444 $152 -9.133883476483184438 $148 $256 forward @7 unknown #
color-adesk-attrib $-1 -1 $-1 $-1 $149 256 #
vertex $-1 -1 $-1 $201 $257 #
straight-curve $-1 -1 $-1 -11.75512373417215173 -15.95451935400105725 -4.768829482684717291 0 0 1 I I #
color-adesk-attrib $-1 -1 $-1 $-1 $150 256 #
straight-curve $-1 -1 $-1 -6.755123734172151728 -15.95451935400105725 -4.768829482684717291 -0.7071067811865474617 0.7071067811865474617 0 I I #
point $-1 -1 $-1 -6.755123734172151728 -15.95451935400105725 -4.768829482684717291 #
edge $258 -1 $-1 $156 7.383883476483191544 $196 12.38388347648319154 $154 $259 forward @7 unknown #
point $-1 -1 $-1 -11.75512373417215173 -10.95451935400105725 -4.768829482684717291 #
loop $-1 -1 $-1 $260 $261 $63 #
coedge $-1 -1 $-1 $204 $204 $262 $263 forward $160 $-1 #
coedge $-1 -1 $-1 $205 $205 $161 $206 reversed $264 $-1 #
edge $265 -1 $-1 $266 -3.141592653589793116 $266 3.141592653589793116 $161 $267 forward @7 unknown #
coedge $-1 -1 $-1 $268 $269 $162 $208 reversed $270 $-1 #
edge $271 -1 $-1 $216 0.8859595526458819981 $272 7.95702736451135717 $162 $273 forward @7 unknown #
coedge $-1 -1 $-1 $274 $275 $163 $210 reversed $276 $-1 #
edge $277 -1 $-1 $272 1.497189885780034757 $215 6.497189885780034757 $163 $278 forward @7 unknown #
coedge $-1 -1 $-1 $279 $164 $275 $280 reversed $213 $-1 #
coedge $-1 -1 $-1 $164 $279 $268 $281 forward $213 $-1 #
loop $-1 -1 $-1 $-1 $164 $282 #
color-adesk-attrib $-1 -1 $-1 $-1 $165 256 #
vertex $-1 -1 $-1 $165 $283 #
vertex $-1 -1 $-1 $165 $284 #
straight-curve $-1 -1 $-1 11.74487626582784827 -8.204393453155230276 -3.268944081951045355 0 1 0 I I #
coedge $-1 -1 $-1 $285 $166 $171 $230 reversed $144 $-1 #
coedge $-1 -1 $-1 $166 $285 $223 $286 forward $144 $-1 #
color-adesk-attrib $-1 -1 $-1 $-1 $167 256 #
vertex $-1 -1 $-1 $169 $287 #
straight-curve $-1 -1 $-1 -11.62865572663925384 14.67194865353184241 -3.268944081951045355 0.7071067811865476838 0.7071067811865474617 -0 I I #
coedge $-1 -1 $-1 $288 $168 $219 $286 reversed $225 $-1 #
coedge $-1 -1 $-1 $168 $288 $170 $229 forward $225 $-1 #
loop $-1 -1 $-1 $-1 $168 $190 #
color-adesk-attrib $-1 -1 $-1 $-1 $169 256 #
straight-curve $-1 -1 $-1 -1.502313619952182933 19.54548064599894275 -3.268944081951045355 -1 0 0 I I #
coedge $-1 -1 $-1 $171 $170 $289 $290 forward $172 $-1 #
edge $291 -1 $-1 $292 0 $174 1.499885400733671936 $224 $293 forward @7 unknown #
edge $294 -1 $-1 $295 0 $175 1.499885400733671936 $218 $296 forward @7 unknown #
point $-1 -1 $-1 -11.75512373417215173 19.54548064599894275 -3.268944081951045355 #
point $-1 -1 $-1 -11.75512373417215173 14.54548064599894275 -3.268944081951045355 #
color-adesk-attrib $-1 -1 $-1 $-1 $181 256 #
face $297 -1 $-1 $298 $299 $3 $-1 $300 forward single #
loop $-1 -1 $-1 $-1 $301 $181 #
plane-surface $-1 -1 $-1 -13.50548650453130506 -8.204870692246004182 -1.795529482684717237 1 -1.224646799147353207e-16 0 1.224646799147353207e-16 1 0 forward_v I I I I #
coedge $-1 -1 $-1 $302 $303 $304 $305 forward $182 $-1 #
coedge $-1 -1 $-1 $304 $184 $306 $307 reversed $139 $-1 #
coedge $-1 -1 $-1 $184 $304 $308 $309 reversed $139 $-1 #
coedge $-1 -1 $-1 $186 $185 $184 $241 reversed $110 $-1 #
edge $310 -1 $-1 $311 -1.473414599266328118 $312 0.02699999999999991296 $184 $313 forward @7 unknown #
coedge $-1 -1 $-1 $314 $306 $185 $243 forward $315 $-1 #
edge $316 -1 $-1 $312 2.009927893384499953 $249 8.009927893384499953 $185 $317 forward @7 unknown #
coedge $-1 -1 $-1 $308 $318 $186 $245 forward $319 $-1 #
edge $320 -1 $-1 $250 -10.12799149939954724 $311 -4.127991499399541908 $244 $321 forward @7 unknown #
coedge $-1 -1 $-1 $301 $187 $318 $322 reversed $235 $-1 #
coedge $-1 -1 $-1 $187 $301 $314 $323 reversed $235 $-1 #
color-adesk-attrib $-1 -1 $-1 $-1 $188 256 #
vertex $-1 -1 $-1 $188 $324 #
vertex $-1 -1 $-1 $245 $325 #
straight-curve $-1 -1 $-1 -13.50548650453130328 -8.204870692246004182 -1.080707861739802489 0 0 -1 I I #
color-adesk-attrib $-1 -1 $-1 $-1 $190 256 #
face $326 -1 $-1 $327 $328 $3 $-1 $329 reversed single #
plane-surface $-1 -1 $-1 -6.755123734172151728 19.54548064599894275 -4.768829482684717291 0 1 0 -1 -0 -0 forward_v I I I I #
color-adesk-attrib $-1 -1 $-1 $-1 $194 256 #
straight-curve $-1 -1 $-1 2.378759742311039815 -15.95451935400105725 -4.768829482684717291 1 0 0 I I #
point $-1 -1 $-1 -11.75512373417215173 -15.95451935400105725 -4.768829482684717291 #
color-adesk-attrib $-1 -1 $-1 $-1 $201 256 #
straight-curve $-1 -1 $-1 -11.75512373417215173 -3.570635877517865708 -4.768829482684717291 -0 -1 -0 I I #
loop $-1 -1 $-1 $319 $330 $63 #
coedge $-1 -1 $-1 $261 $261 $331 $332 forward $203 $-1 #
coedge $-1 -1 $-1 $262 $262 $204 $263 reversed $333 $-1 #
edge $334 -1 $-1 $335 -3.141592653589793116 $335 3.141592653589793116 $204 $336 forward @7 unknown #
loop $-1 -1 $-1 $337 $205 $338 #
color-adesk-attrib $-1 -1 $-1 $-1 $206 256 #
vertex $-1 -1 $-1 $206 $339 #
ellipse-curve $-1 -1 $-1 -17.50548650453129795 1.795129307753995818 -3.268944081951045355 0 0 1 1.100000000000000089 0 0 1 I I #
coedge $-1 -1 $-1 $340 $207 $212 $281 reversed $270 $-1 #
coedge $-1 -1 $-1 $207 $340 $274 $341 forward $270 $-1 #
loop $-1 -1 $-1 $-1 $207 $327 #
color-adesk-attrib $-1 -1 $-1 $-1 $208 256 #
vertex $-1 -1 $-1 $210 $342 #
straight-curve $-1 -1 $-1 12.37134427336074793 -10.32805134646815048 -3.268944081951045355 -0.7071067811865470176 -0.7071067811865480168 0 I I #
coedge $-1 -1 $-1 $343 $209 $269 $341 reversed $276 $-1 #
coedge $-1 -1 $-1 $209 $343 $211 $280 forward $276 $-1 #
loop $-1 -1 $-1 $-1 $209 $344 #
color-adesk-attrib $-1 -1 $-1 $-1 $210 256 #
straight-curve $-1 -1 $-1 5.247686380047813515 -15.95451935400105725 -3.268944081951045355 1 0 -0 I I #
coedge $-1 -1 $-1 $212 $211 $345 $346 forward $213 $-1 #
edge $347 -1 $-1 $348 0 $215 1.499885400733671936 $275 $349 forward @7 unknown #
edge $350 -1 $-1 $351 0 $216 1.499885400733671936 $268 $352 forward @7 unknown #
face $353 -1 $-1 $344 $213 $3 $-1 $354 forward single #
point $-1 -1 $-1 11.74487626582784827 -15.95451935400105725 -3.268944081951045355 #
point $-1 -1 $-1 11.74487626582784827 -10.95451935400105725 -3.268944081951045355 #
coedge $-1 -1 $-1 $219 $218 $355 $356 forward $144 $-1 #
edge $357 -1 $-1 $358 0 $221 1.499885400733671936 $219 $359 forward @7 unknown #
point $-1 -1 $-1 -6.755123734172151728 19.54548064599894275 -3.268944081951045355 #
coedge $-1 -1 $-1 $224 $223 $360 $361 forward $225 $-1 #
coedge $-1 -1 $-1 $360 $355 $228 $290 reversed $328 $-1 #
edge $362 -1 $-1 $292 -8.633883476483191544 $295 -3.633883476483191544 $228 $363 forward @7 unknown #
color-adesk-attrib $-1 -1 $-1 $-1 $229 256 #
vertex $-1 -1 $-1 $361 $364 #
straight-curve $-1 -1 $-1 -11.75512373417215173 19.54548064599894275 -4.768829482684717291 0 0 1 I I #
color-adesk-attrib $-1 -1 $-1 $-1 $230 256 #
vertex $-1 -1 $-1 $356 $365 #
straight-curve $-1 -1 $-1 -11.75512373417215173 14.54548064599894275 -4.768829482684717291 0 0 1 I I #
color-adesk-attrib $-1 -1 $-1 $-1 $234 256 #
face $366 -1 $-1 $367 $368 $3 $-1 $369 forward single #
loop $-1 -1 $-1 $-1 $370 $234 #
plane-surface $-1 -1 $-1 13.49451349546870915 11.79512930775399582 -1.795529482684717237 -1 1.224646799147353207e-16 0 -1.224646799147353207e-16 -1 0 forward_v I I I I #
coedge $-1 -1 $-1 $247 $246 $371 $372 forward $235 $-1 #
coedge $-1 -1 $-1 $371 $237 $373 $374 reversed $182 $-1 #
coedge $-1 -1 $-1 $237 $371 $375 $376 reversed $182 $-1 #
coedge $-1 -1 $-1 $239 $238 $237 $305 reversed $139 $-1 #
edge $377 -1 $-1 $378 -1.473414599266328118 $379 0.02699999999999991296 $237 $380 forward @7 unknown #
coedge $-1 -1 $-1 $242 $373 $238 $307 forward $315 $-1 #
edge $381 -1 $-1 $379 -8.580715671855557503 $312 11.4192843281444425 $238 $382 forward @7 unknown #
coedge $-1 -1 $-1 $375 $244 $239 $309 forward $319 $-1 #
edge $383 -1 $-1 $311 -8.875301569968300441 $378 11.12469843003169956 $308 $384 forward @7 unknown #
color-adesk-attrib $-1 -1 $-1 $-1 $241 256 #
vertex $-1 -1 $-1 $245 $385 #
vertex $-1 -1 $-1 $241 $386 #
straight-curve $-1 -1 $-1 -7.505486504531296177 -8.204870692246004182 -1.795529482684717237 0 0 1 I I #
coedge $-1 -1 $-1 $373 $242 $247 $323 forward $315 $-1 #
loop $-1 -1 $-1 $-1 $314 $387 #
color-adesk-attrib $-1 -1 $-1 $-1 $243 256 #
straight-curve $-1 -1 $-1 -5.495558611146796224 -8.204870692246004182 -1.768529482684717324 -1 0 0 I I #
coedge $-1 -1 $-1 $244 $375 $246 $322 forward $319 $-1 #
loop $-1 -1 $-1 $388 $244 $63 #
color-adesk-attrib $-1 -1 $-1 $-1 $245 256 #
straight-curve $-1 -1 $-1 -3.377495005131756045 -8.204870692246004182 -3.268944081951045355 1 0 0 I I #
edge $389 -1 $-1 $390 -20.87469843003171377 $250 -0.8746984300317137695 $318 $391 forward @7 unknown #
edge $392 -1 $-1 $249 -1.669284328144428287 $393 18.33071567185557171 $247 $394 forward @7 unknown #
point $-1 -1 $-1 -13.50548650453129795 -8.204870692246004182 -1.768529482684717324 #
point $-1 -1 $-1 -13.50548650453130328 -8.204870692246004182 -3.268944081951045355 #
color-adesk-attrib $-1 -1 $-1 $-1 $253 256 #
face $395 -1 $-1 $282 $270 $3 $-1 $396 forward single #
loop $-1 -1 $-1 $-1 $355 $253 #
plane-surface $-1 -1 $-1 -9.987356781205782852 17.77771369303257387 -4.768829482684717291 0 0 1 1 0 0 forward_v I I I I #
coedge $-1 -1 $-1 $397 $398 $399 $400 forward $260 $-1 #
coedge $-1 -1 $-1 $331 $331 $261 $332 reversed $401 $-1 #
edge $402 -1 $-1 $403 -3.141592653589793116 $403 3.141592653589793116 $261 $404 forward @7 unknown #
loop $-1 -1 $-1 $405 $262 $406 #
color-adesk-attrib $-1 -1 $-1 $-1 $263 256 #
vertex $-1 -1 $-1 $263 $407 #
ellipse-curve $-1 -1 $-1 17.49451349546870205 1.795129307753995818 -3.268944081951045355 0 0 1 1.100000000000000089 0 0 1 I I #
loop $-1 -1 $-1 $-1 $408 $338 #
face $409 -1 $-1 $406 $264 $3 $-1 $410 reversed single #
point $-1 -1 $-1 -18.60548650453129937 1.795129307753995596 -3.268944081951045355 #
coedge $-1 -1 $-1 $269 $268 $411 $412 forward $270 $-1 #
edge $413 -1 $-1 $414 0 $272 1.499885400733671936 $269 $415 forward @7 unknown #
point $-1 -1 $-1 6.744876265827848272 -15.95451935400105725 -3.268944081951045355 #
coedge $-1 -1 $-1 $275 $274 $416 $417 forward $276 $-1 #
face $418 -1 $-1 $419 $276 $3 $-1 $420 forward single #
coedge $-1 -1 $-1 $416 $411 $279 $346 reversed $421 $-1 #
edge $422 -1 $-1 $348 -20.13388347648319154 $351 -15.13388347648319154 $279 $423 forward @7 unknown #
color-adesk-attrib $-1 -1 $-1 $-1 $280 256 #
vertex $-1 -1 $-1 $417 $424 #
straight-curve $-1 -1 $-1 11.74487626582784827 -15.95451935400105725 -4.768829482684717291 0 0 1 I I #
color-adesk-attrib $-1 -1 $-1 $-1 $281 256 #
vertex $-1 -1 $-1 $412 $425 #
straight-curve $-1 -1 $-1 11.74487626582784827 -10.95451935400105725 -4.768829482684717291 0 0 1 I I #
color-adesk-attrib $-1 -1 $-1 $-1 $282 256 #
plane-surface $-1 -1 $-1 11.74487626582784827 -15.95451935400105725 -4.768829482684717291 1 0 0 0 1 0 forward_v I I I I #
coedge $-1 -1 $-1 $289 $360 $285 $356 reversed $328 $-1 #
edge $426 -1 $-1 $295 0 $358 7.071067811865476394 $285 $427 forward @7 unknown #
color-adesk-attrib $-1 -1 $-1 $-1 $286 256 #
vertex $-1 -1 $-1 $356 $428 #
straight-curve $-1 -1 $-1 -6.755123734172151728 19.54548064599894275 -4.768829482684717291 0 0 1 I I #
coedge $-1 -1 $-1 $355 $289 $288 $361 reversed $328 $-1 #
edge $429 -1 $-1 $358 -4.116116523516815562 $292 0.8838834764831844382 $288 $430 forward @7 unknown #
color-adesk-attrib $-1 -1 $-1 $-1 $290 256 #
straight-curve $-1 -1 $-1 -11.75512373417215173 10.9115971695157512 -4.768829482684717291 -0 -1 -0 I I #
point $-1 -1 $-1 -11.75512373417215173 19.54548064599894275 -4.768829482684717291 #
point $-1 -1 $-1 -11.75512373417215173 14.54548064599894275 -4.768829482684717291 #
color-adesk-attrib $-1 -1 $-1 $-1 $298 256 #
face $431 -1 $-1 $432 $433 $3 $-1 $434 forward single #
loop $-1 -1 $-1 $-1 $435 $298 #
plane-surface $-1 -1 $-1 7.494513495468703823 11.79512930775399582 -1.795529482684717237 0 -1 0 1 0 -0 forward_v I I I I #
coedge $-1 -1 $-1 $436 $437 $438 $439 forward $299 $-1 #
coedge $-1 -1 $-1 $303 $302 $301 $372 reversed $182 $-1 #
edge $440 -1 $-1 $390 -1.473414599266328118 $393 0.02699999999999991296 $301 $441 forward @7 unknown #
coedge $-1 -1 $-1 $306 $314 $302 $374 forward $315 $-1 #
edge $442 -1 $-1 $393 -8.009927893384499953 $379 -2.009927893384499953 $302 $443 forward @7 unknown #
coedge $-1 -1 $-1 $318 $308 $303 $376 forward $319 $-1 #
edge $444 -1 $-1 $378 4.127991499399541908 $390 10.12799149939954191 $375 $445 forward @7 unknown #
color-adesk-attrib $-1 -1 $-1 $-1 $305 256 #
vertex $-1 -1 $-1 $376 $446 #
vertex $-1 -1 $-1 $305 $447 #
straight-curve $-1 -1 $-1 -7.505486504531296177 11.79512930775399582 -1.795529482684717237 0 0 1 I I #
color-adesk-attrib $-1 -1 $-1 $-1 $307 256 #
straight-curve $-1 -1 $-1 -7.505486504531296177 3.214413635898438315 -1.768529482684717324 0 -1 0 I I #
color-adesk-attrib $-1 -1 $-1 $-1 $309 256 #
straight-curve $-1 -1 $-1 -7.505486504531297953 0.670430877722296259 -3.268944081951045355 0 1 0 I I #
point $-1 -1 $-1 -7.505486504531297953 -8.204870692246004182 -3.268944081951045355 #
point $-1 -1 $-1 -7.505486504531297953 -8.204870692246004182 -1.768529482684717324 #
face $448 -1 $-1 $-1 $449 $3 $-1 $450 forward single #
loop $-1 -1 $-1 $-1 $451 $63 #
color-adesk-attrib $-1 -1 $-1 $-1 $322 256 #
vertex $-1 -1 $-1 $372 $452 #
straight-curve $-1 -1 $-1 -13.50548650453130684 -9.079569122277717952 -3.268944081951045355 -1.224646799147353207e-16 -1 0 I I #
color-adesk-attrib $-1 -1 $-1 $-1 $323 256 #
vertex $-1 -1 $-1 $372 $453 #
straight-curve $-1 -1 $-1 -13.50548650453130506 -6.535586364101575896 -1.768529482684717324 1.224646799147353207e-16 1 0 I I #
color-adesk-attrib $-1 -1 $-1 $-1 $327 256 #
plane-surface $-1 -1 $-1 11.74487626582784827 -10.95451935400105015 -4.768829482684717291 -0.7071067811865480168 0.7071067811865470176 0 -0.7071067811865470176 -0.7071067811865480168 -0 forward_v I I I I #
coedge $-1 -1 $-1 $454 $330 $455 $456 reversed $260 $-1 #
coedge $-1 -1 $-1 $330 $454 $457 $458 reversed $260 $-1 #
coedge $-1 -1 $-1 $459 $460 $330 $400 reversed $461 $-1 #
edge $462 -1 $-1 $463 -19.62200850060045454 $464 23.37799149939955967 $330 $465 forward @7 unknown #
loop $-1 -1 $-1 $-1 $331 $466 #
color-adesk-attrib $-1 -1 $-1 $-1 $332 256 #
vertex $-1 -1 $-1 $332 $467 #
ellipse-curve $-1 -1 $-1 -0.005486504531297953235 1.795129307753995818 -3.268944081951045355 0 0 1 4 0 0 1 I I #
loop $-1 -1 $-1 $-1 $468 $406 #
face $469 -1 $-1 $470 $333 $3 $-1 $471 reversed single #
point $-1 -1 $-1 16.39451349546870063 1.795129307753995596 -3.268944081951045355 #
coedge $-1 -1 $-1 $408 $408 $472 $473 reversed $337 $-1 #
color-adesk-attrib $-1 -1 $-1 $-1 $338 256 #
cone-surface $-1 -1 $-1 -17.50548650453129795 1.795129307753995818 -2.686050586656222094 0 0 1 1.100000000000000089 0 0 1 I I 0 1 1.100000000000000089 forward I I I I #
coedge $-1 -1 $-1 $345 $416 $340 $412 reversed $421 $-1 #
edge $474 -1 $-1 $351 -7.071067811865479946 $414 -0 $340 $475 forward @7 unknown #
color-adesk-attrib $-1 -1 $-1 $-1 $341 256 #
vertex $-1 -1 $-1 $412 $476 #
straight-curve $-1 -1 $-1 6.744876265827848272 -15.95451935400105725 -4.768829482684717291 0 0 1 I I #
coedge $-1 -1 $-1 $411 $345 $343 $417 reversed $421 $-1 #
edge $477 -1 $-1 $414 -4.116116523516815562 $348 0.8838834764831844382 $343 $478 forward @7 unknown #
color-adesk-attrib $-1 -1 $-1 $-1 $344 256 #
face $479 -1 $-1 $338 $421 $3 $-1 $480 reversed single #
plane-surface $-1 -1 $-1 6.744876265827841166 -15.95451935400105725 -4.768829482684717291 0 -1 0 1 0 0 forward_v I I I I #
loop $-1 -1 $-1 $-1 $411 $419 #
color-adesk-attrib $-1 -1 $-1 $-1 $346 256 #
straight-curve $-1 -1 $-1 11.74487626582784827 4.179364122482134292 -4.768829482684717291 0 1 0 I I #
point $-1 -1 $-1 11.74487626582784827 -15.95451935400105725 -4.768829482684717291 #
point $-1 -1 $-1 11.74487626582784827 -10.95451935400105725 -4.768829482684717291 #
color-adesk-attrib $-1 -1 $-1 $-1 $356 256 #
straight-curve $-1 -1 $-1 -11.75512373417215173 14.54548064599894275 -4.768829482684717291 0.7071067811865476838 0.7071067811865474617 0 I I #
point $-1 -1 $-1 -6.755123734172151728 19.54548064599894275 -4.768829482684717291 #
color-adesk-attrib $-1 -1 $-1 $-1 $361 256 #
straight-curve $-1 -1 $-1 -10.87124025768896729 19.54548064599894275 -4.768829482684717291 -1 -0 -0 I I #
color-adesk-attrib $-1 -1 $-1 $-1 $367 256 #
face $481 -1 $-1 $482 $483 $3 $-1 $484 forward single #
loop $-1 -1 $-1 $-1 $485 $367 #
plane-surface $-1 -1 $-1 7.494513495468703823 -8.204870692246004182 -1.795529482684717237 1 0 0 0 1 0 forward_v I I I I #
coedge $-1 -1 $-1 $486 $487 $488 $489 forward $368 $-1 #
coedge $-1 -1 $-1 $488 $370 $490 $491 reversed $299 $-1 #
coedge $-1 -1 $-1 $370 $488 $451 $492 reversed $299 $-1 #
coedge $-1 -1 $-1 $493 $494 $370 $439 reversed $483 $-1 #
edge $495 -1 $-1 $496 -2.188236220211242866 $497 -0.6878216209449148355 $438 $498 forward @7 unknown #
color-adesk-attrib $-1 -1 $-1 $-1 $372 256 #
straight-curve $-1 -1 $-1 -13.50548650453129618 11.79512930775399582 -1.795529482684717237 0 0 1 I I #
color-adesk-attrib $-1 -1 $-1 $-1 $374 256 #
straight-curve $-1 -1 $-1 -5.495558611146796224 11.79512930775399582 -1.768529482684717324 1 0 0 I I #
color-adesk-attrib $-1 -1 $-1 $-1 $376 256 #
straight-curve $-1 -1 $-1 -3.377495005131756045 11.79512930775399582 -3.268944081951045355 -1 0 0 I I #
point $-1 -1 $-1 -7.505486504531297953 11.79512930775399582 -3.268944081951045355 #
point $-1 -1 $-1 -7.505486504531297953 11.79512930775399582 -1.768529482684717324 #
color-adesk-attrib $-1 -1 $-1 $-1 $387 256 #
loop $-1 -1 $-1 $499 $472 $387 #
plane-surface $-1 -1 $-1 -0.4856307177622962712 4.633697964042880812 -1.768529482684717324 0 0 1 1 0 0 forward_v I I I I #
coedge $-1 -1 $-1 $500 $501 $437 $492 forward $388 $-1 #
point $-1 -1 $-1 -13.50548650453129795 11.79512930775399582 -3.268944081951045355 #
point $-1 -1 $-1 -13.50548650453129795 11.79512930775399582 -1.768529482684717324 #
coedge $-1 -1 $-1 $398 $397 $502 $503 forward $260 $-1 #
coedge $-1 -1 $-1 $504 $505 $397 $456 forward $506 $-1 #
edge $507 -1 $-1 $508 -30.07469843003168108 $464 8.325301569968315718 $397 $509 forward @7 unknown #
coedge $-1 -1 $-1 $510 $511 $398 $458 forward $512 $-1 #
edge $513 -1 $-1 $463 -27.82530156996831394 $514 10.57469843003168464 $398 $515 forward @7 unknown #
coedge $-1 -1 $-1 $516 $399 $511 $517 forward $461 $-1 #
coedge $-1 -1 $-1 $399 $516 $504 $518 reversed $461 $-1 #
loop $-1 -1 $-1 $-1 $459 $519 #
color-adesk-attrib $-1 -1 $-1 $-1 $400 256 #
vertex $-1 -1 $-1 $400 $520 #
vertex $-1 -1 $-1 $400 $521 #
straight-curve $-1 -1 $-1 1.872504994868253725 -17.40487069224603189 -3.268944081951045355 -1 0 0 I I #
face $522 -1 $-1 $523 $524 $3 $-1 $525 forward single #
point $-1 -1 $-1 -4.005486504531297953 1.795129307753995374 -3.268944081951045355 #
coedge $-1 -1 $-1 $468 $468 $526 $527 reversed $405 $-1 #
color-adesk-attrib $-1 -1 $-1 $-1 $406 256 #
face $528 -1 $-1 $529 $530 $3 $-1 $531 reversed single #
cone-surface $-1 -1 $-1 17.49451349546870205 1.795129307753995818 3.37847118241190536 0 0 1 1.100000000000000089 0 0 1 I I 0 1 1.100000000000000089 forward I I I I #
coedge $-1 -1 $-1 $472 $472 $408 $473 forward $449 $-1 #
edge $532 -1 $-1 $533 -3.141592653589793116 $533 3.141592653589793116 $472 $534 forward @7 unknown #
color-adesk-attrib $-1 -1 $-1 $-1 $412 256 #
straight-curve $-1 -1 $-1 6.744876265827848272 -15.95451935400105725 -4.768829482684717291 -0.7071067811865470176 -0.7071067811865480168 -0 I I #
point $-1 -1 $-1 6.744876265827848272 -15.95451935400105725 -4.768829482684717291 #
color-adesk-attrib $-1 -1 $-1 $-1 $417 256 #
straight-curve $-1 -1 $-1 10.86099278934465673 -15.95451935400105725 -4.768829482684717291 1 0 0 I I #
color-adesk-attrib $-1 -1 $-1 $-1 $419 256 #
plane-surface $-1 -1 $-1 9.97710931286147229 -14.18675240103469548 -4.768829482684717291 0 0 1 1 0 0 forward_v I I I I #
color-adesk-attrib $-1 -1 $-1 $-1 $432 256 #
face $535 -1 $-1 $536 $506 $3 $-1 $537 forward single #
loop $-1 -1 $-1 $-1 $538 $432 #
plane-surface $-1 -1 $-1 13.49451349546870738 -8.204870692246004182 -1.795529482684717237 0 1 -0 -1 0 0 forward_v I I I I #
coedge $-1 -1 $-1 $539 $540 $541 $542 forward $433 $-1 #
coedge $-1 -1 $-1 $541 $435 $543 $544 reversed $368 $-1 #
coedge $-1 -1 $-1 $435 $541 $500 $545 reversed $368 $-1 #
coedge $-1 -1 $-1 $437 $436 $435 $489 reversed $299 $-1 #
edge $546 -1 $-1 $547 -1.473414599266328118 $548 0.02699999999999991296 $435 $549 forward @7 unknown #
coedge $-1 -1 $-1 $550 $543 $436 $491 forward $551 $-1 #
edge $552 -1 $-1 $548 1.169284328144428287 $497 21.16928432814442829 $436 $553 forward @7 unknown #
edge $554 -1 $-1 $496 -18.62530156996828623 $547 1.374698430031713769 $451 $555 forward @7 unknown #
coedge $-1 -1 $-1 $538 $438 $501 $556 reversed $483 $-1 #
coedge $-1 -1 $-1 $438 $538 $550 $557 reversed $483 $-1 #
color-adesk-attrib $-1 -1 $-1 $-1 $439 256 #
vertex $-1 -1 $-1 $439 $558 #
vertex $-1 -1 $-1 $439 $559 #
straight-curve $-1 -1 $-1 13.4945134954687056 -8.204870692246004182 -1.080707861739802489 0 0 1 I I #
loop $-1 -1 $-1 $560 $526 $387 #
coedge $-1 -1 $-1 $561 $451 $487 $545 forward $388 $-1 #
coedge $-1 -1 $-1 $451 $561 $493 $556 forward $388 $-1 #
coedge $-1 -1 $-1 $562 $563 $454 $503 reversed $564 $-1 #
edge $565 -1 $-1 $508 -23.37799149939954546 $514 19.62200850060045454 $454 $566 forward @7 unknown #
coedge $-1 -1 $-1 $567 $455 $460 $518 forward $506 $-1 #
coedge $-1 -1 $-1 $455 $567 $562 $568 reversed $506 $-1 #
loop $-1 -1 $-1 $-1 $504 $482 #
color-adesk-attrib $-1 -1 $-1 $-1 $456 256 #
vertex $-1 -1 $-1 $503 $569 #
straight-curve $-1 -1 $-1 -21.50548650453130506 -9.079569122277717952 -3.268944081951045355 -1.224646799147353207e-16 -1 0 I I #
coedge $-1 -1 $-1 $570 $457 $563 $571 forward $512 $-1 #
coedge $-1 -1 $-1 $457 $570 $459 $517 reversed $512 $-1 #
loop $-1 -1 $-1 $-1 $510 $572 #
color-adesk-attrib $-1 -1 $-1 $-1 $458 256 #
vertex $-1 -1 $-1 $503 $573 #
straight-curve $-1 -1 $-1 21.49451349546870915 10.42043087772228027 -3.268944081951045355 1.224646799147353207e-16 1 0 I I #
coedge $-1 -1 $-1 $460 $459 $574 $575 reversed $461 $-1 #
edge $576 -1 $-1 $463 -1.47341459926632834 $577 0.02699999999999991296 $459 $578 forward @7 unknown #
edge $579 -1 $-1 $464 -2.04256094944974631 $580 -0.5421463501834180576 $460 $581 forward @7 unknown #
face $582 -1 $-1 $387 $461 $3 $-1 $583 forward single #
point $-1 -1 $-1 21.49451349546870915 -17.40487069224603545 -3.268944081951045355 #
point $-1 -1 $-1 -21.50548650453130506 -17.40487069224602834 -3.268944081951045355 #
color-adesk-attrib $-1 -1 $-1 $-1 $466 256 #
face $584 -1 $-1 $585 $586 $3 $-1 $587 forward single #
loop $-1 -1 $-1 $401 $588 $466 #
cone-surface $-1 -1 $-1 -0.005486504531297953235 1.795129307753995818 -4.018829482684717291 0 -1.224646799147353207e-16 -1 4 0 0 1 I I 0 1 4 forward I I I I #
coedge $-1 -1 $-1 $526 $526 $468 $527 forward $499 $-1 #
edge $589 -1 $-1 $590 -3.141592653589793116 $590 3.141592653589793116 $526 $591 forward @7 unknown #
color-adesk-attrib $-1 -1 $-1 $-1 $470 256 #
face $592 -1 $-1 $466 $593 $3 $-1 $594 reversed single #
loop $-1 -1 $-1 $595 $596 $470 #
cone-surface $-1 -1 $-1 -0.005486504531297953235 1.795129307753995818 4.047366947330166553 0 0 1 1.100000000000000089 0 0 1 I I 0 1 1.100000000000000089 forward I I I I #
color-adesk-attrib $-1 -1 $-1 $-1 $473 256 #
vertex $-1 -1 $-1 $473 $597 #
ellipse-curve $-1 -1 $-1 -17.50548650453129795 1.795129307753995818 -1.768529482684717324 -0 -0 -1 1.100000000000000089 0 0 1 I I #
color-adesk-attrib $-1 -1 $-1 $-1 $482 256 #
face $598 -1 $-1 $572 $564 $3 $-1 $599 forward single #
plane-surface $-1 -1 $-1 -21.50548650453130151 20.99512930775396669 -1.795529482684717237 -1 1.224646799147353207e-16 0 -1.224646799147353207e-16 -1 -0 forward_v I I I I #
coedge $-1 -1 $-1 $494 $493 $600 $601 forward $483 $-1 #
coedge $-1 -1 $-1 $600 $485 $602 $603 reversed $433 $-1 #
coedge $-1 -1 $-1 $485 $600 $561 $604 reversed $433 $-1 #
coedge $-1 -1 $-1 $487 $486 $485 $542 reversed $368 $-1 #
edge $605 -1 $-1 $606 -1.473414599266328118 $607 0.02699999999999991296 $485 $608 forward @7 unknown #
coedge $-1 -1 $-1 $490 $602 $486 $544 forward $551 $-1 #
edge $609 -1 $-1 $607 2.490072106615500047 $548 8.490072106615505376 $486 $610 forward @7 unknown #
edge $611 -1 $-1 $547 -6.372008500600463421 $606 -0.3720085006004580919 $500 $612 forward @7 unknown #
color-adesk-attrib $-1 -1 $-1 $-1 $489 256 #
vertex $-1 -1 $-1 $545 $613 #
vertex $-1 -1 $-1 $489 $614 #
straight-curve $-1 -1 $-1 13.49451349546870915 11.79512930775399582 -1.795529482684717237 0 0 1 I I #
coedge $-1 -1 $-1 $602 $490 $494 $557 forward $551 $-1 #
loop $-1 -1 $-1 $615 $550 $387 #
color-adesk-attrib $-1 -1 $-1 $-1 $491 256 #
straight-curve $-1 -1 $-1 13.49451349546870915 12.9644136358984241 -1.768529482684717324 -1.224646799147353207e-16 -1 0 I I #
color-adesk-attrib $-1 -1 $-1 $-1 $492 256 #
straight-curve $-1 -1 $-1 13.49451349546870738 10.42043087772228205 -3.268944081951045355 1.224646799147353207e-16 1 0 I I #
edge $616 -1 $-1 $617 0.3720085006004580919 $496 6.372008500600461645 $501 $618 forward @7 unknown #
edge $619 -1 $-1 $497 -8.4900721066155036 $620 -2.490072106615500047 $494 $621 forward @7 unknown #
point $-1 -1 $-1 13.4945134954687056 -8.204870692246004182 -3.268944081951045355 #
point $-1 -1 $-1 13.49451349546870738 -8.204870692246004182 -1.768529482684717324 #
loop $-1 -1 $-1 $551 $622 $387 #
coedge $-1 -1 $-1 $501 $500 $540 $604 forward $388 $-1 #
coedge $-1 -1 $-1 $623 $502 $505 $568 forward $564 $-1 #
coedge $-1 -1 $-1 $502 $623 $510 $571 reversed $564 $-1 #
loop $-1 -1 $-1 $-1 $562 $536 #
color-adesk-attrib $-1 -1 $-1 $-1 $503 256 #
straight-curve $-1 -1 $-1 1.872504994868253725 20.99512930775396669 -3.268944081951045355 1 0 0 I I #
coedge $-1 -1 $-1 $505 $504 $624 $625 reversed $506 $-1 #
edge $626 -1 $-1 $508 -1.47341459926632834 $627 0.02699999999999991296 $562 $628 forward @7 unknown #
point $-1 -1 $-1 -21.50548650453129085 20.99512930775397024 -3.268944081951045355 #
coedge $-1 -1 $-1 $511 $510 $629 $630 reversed $512 $-1 #
edge $631 -1 $-1 $514 -1.47341459926632834 $632 0.02699999999999991296 $510 $633 forward @7 unknown #
face $634 -1 $-1 $519 $512 $3 $-1 $635 forward single #
point $-1 -1 $-1 21.49451349546870915 20.99512930775396313 -3.268944081951045355 #
coedge $-1 -1 $-1 $629 $624 $516 $575 forward $615 $-1 #
edge $636 -1 $-1 $580 -21.25992789338451772 $577 21.74007210661549649 $516 $637 forward @7 unknown #
color-adesk-attrib $-1 -1 $-1 $-1 $517 256 #
vertex $-1 -1 $-1 $517 $638 #
straight-curve $-1 -1 $-1 21.49451349546870915 -17.40487069224603545 -1.795529482684717237 0 0 1 I I #
color-adesk-attrib $-1 -1 $-1 $-1 $518 256 #
vertex $-1 -1 $-1 $518 $639 #
straight-curve $-1 -1 $-1 -21.50548650453130506 -17.40487069224603545 -1.226383132501299045 0 0 1 I I #
color-adesk-attrib $-1 -1 $-1 $-1 $519 256 #
plane-surface $-1 -1 $-1 -21.50548650453130506 -17.40487069224603189 -1.795529482684717237 0 -1 0 1 0 0 forward_v I I I I #
color-adesk-attrib $-1 -1 $-1 $-1 $523 256 #
face $640 -1 $-1 $63 $641 $3 $-1 $642 forward single #
loop $-1 -1 $-1 $643 $644 $523 #
plane-surface $-1 -1 $-1 -0.005486504531297953235 1.795129307753995818 -3.268829482684717291 0 1.224646799147353207e-16 1 -1 -0 0 forward_v I I I I #
coedge $-1 -1 $-1 $588 $588 $645 $646 reversed $524 $-1 #
color-adesk-attrib $-1 -1 $-1 $-1 $527 256 #
vertex $-1 -1 $-1 $527 $647 #
ellipse-curve $-1 -1 $-1 17.49451349546870205 1.795129307753995818 -1.768529482684717102 -0 -0 -1 1.100000000000000089 0 0 1 I I #
color-adesk-attrib $-1 -1 $-1 $-1 $529 256 #
loop $-1 -1 $-1 $648 $649 $529 #
cone-surface $-1 -1 $-1 -0.005486504531297953235 1.795129307753995818 4.0292711443580842 0 0 1 3 0 0 1 I I 0 1 3 forward I I I I #
loop $-1 -1 $-1 $-1 $650 $470 #
coedge $-1 -1 $-1 $596 $596 $644 $651 reversed $530 $-1 #
point $-1 -1 $-1 -18.60548650453129937 1.79512930775399604 -1.768529482684717324 #
color-adesk-attrib $-1 -1 $-1 $-1 $536 256 #
plane-surface $-1 -1 $-1 21.49451349546870915 20.99512930775396669 -1.795529482684717237 0 1 -0 -1 0 0 forward_v I I I I #
coedge $-1 -1 $-1 $540 $539 $538 $601 reversed $433 $-1 #
edge $652 -1 $-1 $617 -1.473414599266328118 $620 0.02699999999999991296 $538 $653 forward @7 unknown #
coedge $-1 -1 $-1 $543 $550 $539 $603 forward $551 $-1 #
edge $654 -1 $-1 $620 -11.4192843281444425 $607 8.580715671855557503 $539 $655 forward @7 unknown #
edge $656 -1 $-1 $606 -11.12469843003169956 $617 8.875301569968300441 $561 $657 forward @7 unknown #
color-adesk-attrib $-1 -1 $-1 $-1 $542 256 #
vertex $-1 -1 $-1 $604 $658 #
vertex $-1 -1 $-1 $542 $659 #
straight-curve $-1 -1 $-1 7.494513495468703823 11.79512930775399582 -1.795529482684717237 0 0 1 I I #
color-adesk-attrib $-1 -1 $-1 $-1 $544 256 #
straight-curve $-1 -1 $-1 5.004441388853203776 11.79512930775399582 -1.768529482684717324 1 0 0 I I #
color-adesk-attrib $-1 -1 $-1 $-1 $545 256 #
straight-curve $-1 -1 $-1 7.122504994868243955 11.79512930775399582 -3.268944081951045355 -1 0 0 I I #
point $-1 -1 $-1 13.49451349546870738 11.79512930775399582 -3.268944081951045355 #
point $-1 -1 $-1 13.49451349546870915 11.79512930775399582 -1.768529482684717324 #
loop $-1 -1 $-1 $315 $574 $387 #
color-adesk-attrib $-1 -1 $-1 $-1 $556 256 #
vertex $-1 -1 $-1 $556 $660 #
straight-curve $-1 -1 $-1 7.122504994868243955 -8.204870692246004182 -3.268944081951045355 1 0 0 I I #
color-adesk-attrib $-1 -1 $-1 $-1 $557 256 #
vertex $-1 -1 $-1 $601 $661 #
straight-curve $-1 -1 $-1 5.004441388853203776 -8.204870692246004182 -1.768529482684717324 -1 0 0 I I #
coedge $-1 -1 $-1 $622 $622 $649 $662 forward $560 $-1 #
coedge $-1 -1 $-1 $563 $562 $663 $664 reversed $564 $-1 #
coedge $-1 -1 $-1 $574 $663 $567 $625 forward $615 $-1 #
edge $665 -1 $-1 $627 -27.53071567185554258 $580 10.869284328144456 $567 $666 forward @7 unknown #
color-adesk-attrib $-1 -1 $-1 $-1 $568 256 #
vertex $-1 -1 $-1 $568 $667 #
straight-curve $-1 -1 $-1 -21.50548650453129085 20.99512930775397024 -1.795529482684717237 0 0 1 I I #
coedge $-1 -1 $-1 $663 $574 $570 $630 forward $615 $-1 #
edge $668 -1 $-1 $577 -30.369284328144456 $632 8.030715671855542581 $570 $669 forward @7 unknown #
color-adesk-attrib $-1 -1 $-1 $-1 $571 256 #
vertex $-1 -1 $-1 $571 $670 #
straight-curve $-1 -1 $-1 21.49451349546870915 20.99512930775396313 -1.795529482684717237 0 0 1 I I #
color-adesk-attrib $-1 -1 $-1 $-1 $572 256 #
plane-surface $-1 -1 $-1 21.4945134954687056 -17.40487069224603545 -1.795529482684717237 1 -1.224646799147353207e-16 0 1.224646799147353207e-16 1 -0 forward_v I I I I #
color-adesk-attrib $-1 -1 $-1 $-1 $575 256 #
straight-curve $-1 -1 $-1 -0.2455586111467864541 -17.40487069224603189 -1.768529482684717324 1 0 0 I I #
point $-1 -1 $-1 21.49451349546870915 -17.40487069224603545 -1.768529482684717324 #
point $-1 -1 $-1 -21.50548650453130506 -17.40487069224602834 -1.768529482684717324 #
color-adesk-attrib $-1 -1 $-1 $-1 $585 256 #
loop $-1 -1 $-1 $671 $672 $585 #
plane-surface $-1 -1 $-1 -0.005486504531297953235 1.795129307753995818 -4.768829482684717291 0 -1.224646799147353207e-16 -1 1 0 0 forward_v I I I I #
loop $-1 -1 $-1 $-1 $673 $523 #
coedge $-1 -1 $-1 $644 $644 $596 $651 forward $586 $-1 #
coedge $-1 -1 $-1 $645 $645 $588 $646 forward $671 $-1 #
edge $674 -1 $-1 $675 0 $675 6.283185307179586232 $645 $676 forward @7 unknown #
point $-1 -1 $-1 16.39451349546870063 1.79512930775399604 -1.768529482684717102 #
loop $-1 -1 $-1 $-1 $677 $529 #
coedge $-1 -1 $-1 $649 $649 $622 $662 reversed $593 $-1 #
coedge $-1 -1 $-1 $650 $650 $672 $678 reversed $595 $-1 #
edge $679 -1 $-1 $680 -3.141592653589793116 $680 3.141592653589793116 $644 $681 forward @7 unknown #
color-adesk-attrib $-1 -1 $-1 $-1 $601 256 #
straight-curve $-1 -1 $-1 7.494513495468703823 -8.204870692246004182 -1.795529482684717237 0 0 1 I I #
color-adesk-attrib $-1 -1 $-1 $-1 $603 256 #
straight-curve $-1 -1 $-1 7.494513495468703823 3.214413635898438315 -1.768529482684717324 0 1 0 I I #
color-adesk-attrib $-1 -1 $-1 $-1 $604 256 #
straight-curve $-1 -1 $-1 7.494513495468702047 0.670430877722296259 -3.268944081951045355 0 -1 0 I I #
point $-1 -1 $-1 7.494513495468702047 11.79512930775399582 -3.268944081951045355 #
point $-1 -1 $-1 7.494513495468703823 11.79512930775399582 -1.768529482684717324 #
point $-1 -1 $-1 7.494513495468702047 -8.204870692246004182 -3.268944081951045355 #
point $-1 -1 $-1 7.494513495468703823 -8.204870692246004182 -1.768529482684717324 #
edge $682 -1 $-1 $683 -3.141592653589793116 $683 3.141592653589793116 $622 $684 forward @7 unknown #
coedge $-1 -1 $-1 $624 $629 $623 $664 forward $615 $-1 #
edge $685 -1 $-1 $632 -21.74007210661549649 $627 21.25992789338450351 $623 $686 forward @7 unknown #
color-adesk-attrib $-1 -1 $-1 $-1 $625 256 #
straight-curve $-1 -1 $-1 -21.50548650453130506 -6.535586364101575896 -1.768529482684717324 -1.224646799147353207e-16 -1 -0 I I #
point $-1 -1 $-1 -21.50548650453129085 20.99512930775397024 -1.768529482684717324 #
color-adesk-attrib $-1 -1 $-1 $-1 $630 256 #
straight-curve $-1 -1 $-1 21.49451349546870915 12.96441363589842233 -1.768529482684717324 1.224646799147353207e-16 1 0 I I #
point $-1 -1 $-1 21.49451349546870915 20.99512930775396313 -1.768529482684717324 #
loop $-1 -1 $-1 $-1 $645 $585 #
coedge $-1 -1 $-1 $672 $672 $650 $678 forward $641 $-1 #
coedge $-1 -1 $-1 $673 $673 $677 $687 reversed $643 $-1 #
color-adesk-attrib $-1 -1 $-1 $-1 $646 256 #
vertex $-1 -1 $-1 $646 $688 #
ellipse-curve $-1 -1 $-1 -0.005486504531297953235 1.795129307753995818 -4.768829482684717291 0 -1.224646799147353207e-16 -1 4 0 0 1 I I #
coedge $-1 -1 $-1 $677 $677 $673 $687 forward $648 $-1 #
edge $689 -1 $-1 $690 -3.141592653589793116 $690 3.141592653589793116 $672 $691 forward @7 unknown #
color-adesk-attrib $-1 -1 $-1 $-1 $651 256 #
vertex $-1 -1 $-1 $651 $692 #
ellipse-curve $-1 -1 $-1 -0.005486504531297953235 1.795129307753995818 -3.268829482684717291 -0 -1.224646799147353207e-16 -1 1.100000000000000089 0 0 1 I I #
color-adesk-attrib $-1 -1 $-1 $-1 $662 256 #
vertex $-1 -1 $-1 $662 $693 #
ellipse-curve $-1 -1 $-1 -0.005486504531297953235 1.795129307753995818 -1.768529482684717102 -0 -0 -1 3 0 0 1 I I #
color-adesk-attrib $-1 -1 $-1 $-1 $664 256 #
straight-curve $-1 -1 $-1 -0.2455586111467864541 20.99512930775396669 -1.768529482684717324 -1 0 0 I I #
edge $694 -1 $-1 $695 0 $695 6.283185307179586232 $673 $696 forward @7 unknown #
point $-1 -1 $-1 3.994513495468702047 1.795129307753995818 -4.768829482684717291 #
color-adesk-attrib $-1 -1 $-1 $-1 $678 256 #
vertex $-1 -1 $-1 $678 $697 #
ellipse-curve $-1 -1 $-1 -0.005486504531297953235 1.795129307753995818 -4.768829482684717291 -0 1.224646799147353207e-16 1 1.100000000000000089 0 0 1 I I #
point $-1 -1 $-1 -1.105486504531298042 1.79512930775399604 -3.268829482684717291 #
point $-1 -1 $-1 -3.005486504531297953 1.795129307753996262 -1.768529482684717102 #
color-adesk-attrib $-1 -1 $-1 $-1 $687 256 #
vertex $-1 -1 $-1 $687 $698 #
ellipse-curve $-1 -1 $-1 -0.005486504531297953235 1.795129307753995818 -3.268829482684717291 0 0 -1 3 0 0 1 I I #
point $-1 -1 $-1 -1.105486504531298042 1.795129307753995596 -4.768829482684717291 #
point $-1 -1 $-1 2.994513495468702047 1.795129307753995818 -3.268829482684717291 #
