ISO-10303-21;
HEADER;
FILE_DESCRIPTION((''),'2;1');
FILE_NAME('MAIN_FSR_COVER','2025-01-27T14:00:21',('iw87ukax'),(''),
'CREO PARAMETRIC BY PTC INC, 2019010','CREO PARAMETRIC BY PTC INC, 2019010','');
FILE_SCHEMA(('CONFIG_CONTROL_DESIGN'));
ENDSEC;
DATA;
#1=DIRECTION('',(1.E0,0.E0,0.E0));
#2=VECTOR('',#1,4.3E1);
#3=CARTESIAN_POINT('',(0.E0,0.E0,0.E0));
#4=LINE('',#3,#2);
#5=DIRECTION('',(0.E0,1.E0,0.E0));
#6=VECTOR('',#5,3.85E1);
#7=CARTESIAN_POINT('',(4.3E1,0.E0,0.E0));
#8=LINE('',#7,#6);
#9=DIRECTION('',(-1.E0,0.E0,0.E0));
#10=VECTOR('',#9,4.3E1);
#11=CARTESIAN_POINT('',(4.3E1,3.85E1,0.E0));
#12=LINE('',#11,#10);
#13=DIRECTION('',(0.E0,-1.E0,0.E0));
#14=VECTOR('',#13,3.85E1);
#15=CARTESIAN_POINT('',(0.E0,3.85E1,0.E0));
#16=LINE('',#15,#14);
#17=DIRECTION('',(0.E0,1.E0,0.E0));
#18=VECTOR('',#17,2.E1);
#19=CARTESIAN_POINT('',(3.5E1,9.E0,0.E0));
#20=LINE('',#19,#18);
#21=DIRECTION('',(1.E0,0.E0,0.E0));
#22=VECTOR('',#21,6.E0);
#23=CARTESIAN_POINT('',(2.9E1,9.E0,0.E0));
#24=LINE('',#23,#22);
#25=DIRECTION('',(0.E0,-1.E0,0.E0));
#26=VECTOR('',#25,2.E1);
#27=CARTESIAN_POINT('',(2.9E1,2.9E1,0.E0));
#28=LINE('',#27,#26);
#29=DIRECTION('',(-1.E0,0.E0,0.E0));
#30=VECTOR('',#29,6.E0);
#31=CARTESIAN_POINT('',(3.5E1,2.9E1,0.E0));
#32=LINE('',#31,#30);
#33=DIRECTION('',(1.E0,0.E0,0.E0));
#34=VECTOR('',#33,6.E0);
#35=CARTESIAN_POINT('',(8.E0,9.E0,0.E0));
#36=LINE('',#35,#34);
#37=DIRECTION('',(0.E0,-1.E0,0.E0));
#38=VECTOR('',#37,2.E1);
#39=CARTESIAN_POINT('',(8.E0,2.9E1,0.E0));
#40=LINE('',#39,#38);
#41=DIRECTION('',(-1.E0,0.E0,0.E0));
#42=VECTOR('',#41,6.E0);
#43=CARTESIAN_POINT('',(1.4E1,2.9E1,0.E0));
#44=LINE('',#43,#42);
#45=DIRECTION('',(0.E0,1.E0,0.E0));
#46=VECTOR('',#45,2.E1);
#47=CARTESIAN_POINT('',(1.4E1,9.E0,0.E0));
#48=LINE('',#47,#46);
#49=CARTESIAN_POINT('',(2.15E1,1.925E1,0.E0));
#50=DIRECTION('',(0.E0,0.E0,1.E0));
#51=DIRECTION('',(-1.E0,0.E0,0.E0));
#52=AXIS2_PLACEMENT_3D('',#49,#50,#51);
#54=CARTESIAN_POINT('',(2.15E1,1.925E1,0.E0));
#55=DIRECTION('',(0.E0,0.E0,1.E0));
#56=DIRECTION('',(1.E0,0.E0,0.E0));
#57=AXIS2_PLACEMENT_3D('',#54,#55,#56);
#59=CARTESIAN_POINT('',(3.895E1,1.975E1,0.E0));
#60=DIRECTION('',(0.E0,0.E0,1.E0));
#61=DIRECTION('',(-1.E0,0.E0,0.E0));
#62=AXIS2_PLACEMENT_3D('',#59,#60,#61);
#64=CARTESIAN_POINT('',(3.895E1,1.975E1,0.E0));
#65=DIRECTION('',(0.E0,0.E0,1.E0));
#66=DIRECTION('',(1.E0,0.E0,0.E0));
#67=AXIS2_PLACEMENT_3D('',#64,#65,#66);
#69=CARTESIAN_POINT('',(4.05E0,1.975E1,0.E0));
#70=DIRECTION('',(0.E0,0.E0,1.E0));
#71=DIRECTION('',(-1.E0,0.E0,0.E0));
#72=AXIS2_PLACEMENT_3D('',#69,#70,#71);
#74=CARTESIAN_POINT('',(4.05E0,1.975E1,0.E0));
#75=DIRECTION('',(0.E0,0.E0,1.E0));
#76=DIRECTION('',(1.E0,0.E0,0.E0));
#77=AXIS2_PLACEMENT_3D('',#74,#75,#76);
#79=DIRECTION('',(1.E0,0.E0,0.E0));
#80=VECTOR('',#79,1.3E1);
#81=CARTESIAN_POINT('',(0.E0,0.E0,2.6E0));
#82=LINE('',#81,#80);
#83=DIRECTION('',(0.E0,0.E0,1.E0));
#84=VECTOR('',#83,1.1E0);
#85=CARTESIAN_POINT('',(3.E1,0.E0,1.5E0));
#86=LINE('',#85,#84);
#87=DIRECTION('',(1.E0,0.E0,0.E0));
#88=VECTOR('',#87,1.3E1);
#89=CARTESIAN_POINT('',(3.E1,0.E0,2.6E0));
#90=LINE('',#89,#88);
#91=DIRECTION('',(0.E0,0.E0,1.E0));
#92=VECTOR('',#91,2.6E0);
#93=CARTESIAN_POINT('',(0.E0,0.E0,0.E0));
#94=LINE('',#93,#92);
#95=DIRECTION('',(0.E0,-1.E0,0.E0));
#96=VECTOR('',#95,4.E0);
#97=CARTESIAN_POINT('',(8.5E0,4.5E0,2.6E0));
#98=LINE('',#97,#96);
#99=DIRECTION('',(1.E0,0.E0,0.E0));
#100=VECTOR('',#99,4.E0);
#101=CARTESIAN_POINT('',(8.5E0,5.E-1,2.6E0));
#102=LINE('',#101,#100);
#103=DIRECTION('',(-7.071067811865E-1,7.071067811865E-1,0.E0));
#104=VECTOR('',#103,7.071067811865E-1);
#105=CARTESIAN_POINT('',(1.3E1,0.E0,2.6E0));
#106=LINE('',#105,#104);
#107=DIRECTION('',(0.E0,-1.E0,0.E0));
#108=VECTOR('',#107,3.85E1);
#109=CARTESIAN_POINT('',(0.E0,3.85E1,2.6E0));
#110=LINE('',#109,#108);
#111=DIRECTION('',(7.071067811865E-1,7.071067811865E-1,0.E0));
#112=VECTOR('',#111,7.071067811865E-1);
#113=CARTESIAN_POINT('',(1.25E1,3.8E1,2.6E0));
#114=LINE('',#113,#112);
#115=DIRECTION('',(-1.E0,0.E0,0.E0));
#116=VECTOR('',#115,4.E0);
#117=CARTESIAN_POINT('',(1.25E1,3.8E1,2.6E0));
#118=LINE('',#117,#116);
#119=DIRECTION('',(0.E0,-1.E0,0.E0));
#120=VECTOR('',#119,4.E0);
#121=CARTESIAN_POINT('',(8.5E0,3.8E1,2.6E0));
#122=LINE('',#121,#120);
#123=DIRECTION('',(7.071067811865E-1,7.071067811865E-1,0.E0));
#124=VECTOR('',#123,7.071067811865E-1);
#125=CARTESIAN_POINT('',(8.E0,3.35E1,2.6E0));
#126=LINE('',#125,#124);
#127=DIRECTION('',(0.E0,1.E0,0.E0));
#128=VECTOR('',#127,2.85E1);
#129=CARTESIAN_POINT('',(8.E0,5.E0,2.6E0));
#130=LINE('',#129,#128);
#131=DIRECTION('',(-7.071067811865E-1,7.071067811865E-1,0.E0));
#132=VECTOR('',#131,7.071067811865E-1);
#133=CARTESIAN_POINT('',(8.5E0,4.5E0,2.6E0));
#134=LINE('',#133,#132);
#135=DIRECTION('',(1.E0,0.E0,0.E0));
#136=VECTOR('',#135,4.E0);
#137=CARTESIAN_POINT('',(3.05E1,5.E-1,2.6E0));
#138=LINE('',#137,#136);
#139=DIRECTION('',(0.E0,1.E0,0.E0));
#140=VECTOR('',#139,4.E0);
#141=CARTESIAN_POINT('',(3.45E1,5.E-1,2.6E0));
#142=LINE('',#141,#140);
#143=DIRECTION('',(-7.071067811865E-1,-7.071067811865E-1,0.E0));
#144=VECTOR('',#143,7.071067811865E-1);
#145=CARTESIAN_POINT('',(3.5E1,5.E0,2.6E0));
#146=LINE('',#145,#144);
#147=DIRECTION('',(0.E0,-1.E0,0.E0));
#148=VECTOR('',#147,2.85E1);
#149=CARTESIAN_POINT('',(3.5E1,3.35E1,2.6E0));
#150=LINE('',#149,#148);
#151=DIRECTION('',(7.071067811865E-1,-7.071067811865E-1,0.E0));
#152=VECTOR('',#151,7.071067811865E-1);
#153=CARTESIAN_POINT('',(3.45E1,3.4E1,2.6E0));
#154=LINE('',#153,#152);
#155=DIRECTION('',(0.E0,1.E0,0.E0));
#156=VECTOR('',#155,4.E0);
#157=CARTESIAN_POINT('',(3.45E1,3.4E1,2.6E0));
#158=LINE('',#157,#156);
#159=DIRECTION('',(-1.E0,0.E0,0.E0));
#160=VECTOR('',#159,4.E0);
#161=CARTESIAN_POINT('',(3.45E1,3.8E1,2.6E0));
#162=LINE('',#161,#160);
#163=DIRECTION('',(7.071067811865E-1,-7.071067811865E-1,0.E0));
#164=VECTOR('',#163,7.071067811865E-1);
#165=CARTESIAN_POINT('',(3.E1,3.85E1,2.6E0));
#166=LINE('',#165,#164);
#167=DIRECTION('',(0.E0,1.E0,0.E0));
#168=VECTOR('',#167,3.85E1);
#169=CARTESIAN_POINT('',(4.3E1,0.E0,2.6E0));
#170=LINE('',#169,#168);
#171=DIRECTION('',(-7.071067811865E-1,-7.071067811865E-1,0.E0));
#172=VECTOR('',#171,7.071067811865E-1);
#173=CARTESIAN_POINT('',(3.05E1,5.E-1,2.6E0));
#174=LINE('',#173,#172);
#175=CARTESIAN_POINT('',(3.895E1,1.975E1,2.6E0));
#176=DIRECTION('',(0.E0,0.E0,1.E0));
#177=DIRECTION('',(-1.E0,0.E0,0.E0));
#178=AXIS2_PLACEMENT_3D('',#175,#176,#177);
#180=CARTESIAN_POINT('',(3.895E1,1.975E1,2.6E0));
#181=DIRECTION('',(0.E0,0.E0,1.E0));
#182=DIRECTION('',(1.E0,0.E0,0.E0));
#183=AXIS2_PLACEMENT_3D('',#180,#181,#182);
#185=CARTESIAN_POINT('',(4.05E0,1.975E1,2.6E0));
#186=DIRECTION('',(0.E0,0.E0,1.E0));
#187=DIRECTION('',(-1.E0,0.E0,0.E0));
#188=AXIS2_PLACEMENT_3D('',#185,#186,#187);
#190=CARTESIAN_POINT('',(4.05E0,1.975E1,2.6E0));
#191=DIRECTION('',(0.E0,0.E0,1.E0));
#192=DIRECTION('',(1.E0,0.E0,0.E0));
#193=AXIS2_PLACEMENT_3D('',#190,#191,#192);
#195=DIRECTION('',(0.E0,0.E0,1.E0));
#196=VECTOR('',#195,2.15E0);
#197=CARTESIAN_POINT('',(8.5E0,4.5E0,2.6E0));
#198=LINE('',#197,#196);
#199=DIRECTION('',(0.E0,0.E0,1.E0));
#200=VECTOR('',#199,2.15E0);
#201=CARTESIAN_POINT('',(1.25E1,5.E-1,2.6E0));
#202=LINE('',#201,#200);
#203=DIRECTION('',(0.E0,0.E0,1.E0));
#204=VECTOR('',#203,1.1E0);
#205=CARTESIAN_POINT('',(1.3E1,0.E0,1.5E0));
#206=LINE('',#205,#204);
#207=DIRECTION('',(0.E0,0.E0,1.E0));
#208=VECTOR('',#207,2.15E0);
#209=CARTESIAN_POINT('',(8.5E0,5.E-1,2.6E0));
#210=LINE('',#209,#208);
#211=DIRECTION('',(0.E0,-1.E0,0.E0));
#212=VECTOR('',#211,4.E0);
#213=CARTESIAN_POINT('',(8.5E0,4.5E0,4.75E0));
#214=LINE('',#213,#212);
#215=DIRECTION('',(-7.071067811865E-1,7.071067811865E-1,0.E0));
#216=VECTOR('',#215,5.656854249492E0);
#217=CARTESIAN_POINT('',(1.25E1,5.E-1,4.75E0));
#218=LINE('',#217,#216);
#219=DIRECTION('',(1.E0,0.E0,0.E0));
#220=VECTOR('',#219,4.E0);
#221=CARTESIAN_POINT('',(8.5E0,5.E-1,4.75E0));
#222=LINE('',#221,#220);
#223=DIRECTION('',(1.E0,0.E0,0.E0));
#224=VECTOR('',#223,4.E0);
#225=CARTESIAN_POINT('',(3.05E1,5.E-1,4.75E0));
#226=LINE('',#225,#224);
#227=DIRECTION('',(-7.071067811865E-1,-7.071067811865E-1,0.E0));
#228=VECTOR('',#227,5.656854249492E0);
#229=CARTESIAN_POINT('',(3.45E1,4.5E0,4.75E0));
#230=LINE('',#229,#228);
#231=DIRECTION('',(0.E0,1.E0,0.E0));
#232=VECTOR('',#231,4.E0);
#233=CARTESIAN_POINT('',(3.45E1,5.E-1,4.75E0));
#234=LINE('',#233,#232);
#235=DIRECTION('',(7.071067811865E-1,7.071067811865E-1,0.E0));
#236=VECTOR('',#235,5.656854249492E0);
#237=CARTESIAN_POINT('',(8.5E0,3.4E1,4.75E0));
#238=LINE('',#237,#236);
#239=DIRECTION('',(0.E0,-1.E0,0.E0));
#240=VECTOR('',#239,4.E0);
#241=CARTESIAN_POINT('',(8.5E0,3.8E1,4.75E0));
#242=LINE('',#241,#240);
#243=DIRECTION('',(-1.E0,0.E0,0.E0));
#244=VECTOR('',#243,4.E0);
#245=CARTESIAN_POINT('',(1.25E1,3.8E1,4.75E0));
#246=LINE('',#245,#244);
#247=DIRECTION('',(7.071067811865E-1,-7.071067811865E-1,0.E0));
#248=VECTOR('',#247,5.656854249492E0);
#249=CARTESIAN_POINT('',(3.05E1,3.8E1,4.75E0));
#250=LINE('',#249,#248);
#251=DIRECTION('',(-1.E0,0.E0,0.E0));
#252=VECTOR('',#251,4.E0);
#253=CARTESIAN_POINT('',(3.45E1,3.8E1,4.75E0));
#254=LINE('',#253,#252);
#255=DIRECTION('',(0.E0,1.E0,0.E0));
#256=VECTOR('',#255,4.E0);
#257=CARTESIAN_POINT('',(3.45E1,3.4E1,4.75E0));
#258=LINE('',#257,#256);
#259=DIRECTION('',(0.E0,0.E0,1.E0));
#260=VECTOR('',#259,2.15E0);
#261=CARTESIAN_POINT('',(3.05E1,5.E-1,2.6E0));
#262=LINE('',#261,#260);
#263=DIRECTION('',(0.E0,0.E0,1.E0));
#264=VECTOR('',#263,2.15E0);
#265=CARTESIAN_POINT('',(3.45E1,4.5E0,2.6E0));
#266=LINE('',#265,#264);
#267=DIRECTION('',(0.E0,0.E0,1.E0));
#268=VECTOR('',#267,1.1E0);
#269=CARTESIAN_POINT('',(3.5E1,5.E0,1.5E0));
#270=LINE('',#269,#268);
#271=DIRECTION('',(0.E0,0.E0,1.E0));
#272=VECTOR('',#271,2.15E0);
#273=CARTESIAN_POINT('',(3.45E1,5.E-1,2.6E0));
#274=LINE('',#273,#272);
#275=CARTESIAN_POINT('',(2.15E1,1.925E1,1.5E0));
#276=DIRECTION('',(0.E0,0.E0,1.E0));
#277=DIRECTION('',(-1.E0,0.E0,0.E0));
#278=AXIS2_PLACEMENT_3D('',#275,#276,#277);
#280=CARTESIAN_POINT('',(2.15E1,1.925E1,1.5E0));
#281=DIRECTION('',(0.E0,0.E0,1.E0));
#282=DIRECTION('',(1.E0,0.E0,0.E0));
#283=AXIS2_PLACEMENT_3D('',#280,#281,#282);
#285=DIRECTION('',(-1.E0,0.E0,0.E0));
#286=VECTOR('',#285,6.E0);
#287=CARTESIAN_POINT('',(3.5E1,2.9E1,1.5E0));
#288=LINE('',#287,#286);
#289=DIRECTION('',(0.E0,-1.E0,0.E0));
#290=VECTOR('',#289,2.E1);
#291=CARTESIAN_POINT('',(2.9E1,2.9E1,1.5E0));
#292=LINE('',#291,#290);
#293=DIRECTION('',(-1.E0,0.E0,0.E0));
#294=VECTOR('',#293,6.E0);
#295=CARTESIAN_POINT('',(3.5E1,9.E0,1.5E0));
#296=LINE('',#295,#294);
#297=DIRECTION('',(0.E0,-1.E0,0.E0));
#298=VECTOR('',#297,4.E0);
#299=CARTESIAN_POINT('',(3.5E1,9.E0,1.5E0));
#300=LINE('',#299,#298);
#301=DIRECTION('',(-7.071067811865E-1,-7.071067811865E-1,0.E0));
#302=VECTOR('',#301,7.071067811865E0);
#303=CARTESIAN_POINT('',(3.5E1,5.E0,1.5E0));
#304=LINE('',#303,#302);
#305=DIRECTION('',(1.E0,0.E0,0.E0));
#306=VECTOR('',#305,1.7E1);
#307=CARTESIAN_POINT('',(1.3E1,0.E0,1.5E0));
#308=LINE('',#307,#306);
#309=DIRECTION('',(-7.071067811865E-1,7.071067811865E-1,0.E0));
#310=VECTOR('',#309,7.071067811865E0);
#311=CARTESIAN_POINT('',(1.3E1,0.E0,1.5E0));
#312=LINE('',#311,#310);
#313=DIRECTION('',(0.E0,1.E0,0.E0));
#314=VECTOR('',#313,4.E0);
#315=CARTESIAN_POINT('',(8.E0,5.E0,1.5E0));
#316=LINE('',#315,#314);
#317=DIRECTION('',(1.E0,0.E0,0.E0));
#318=VECTOR('',#317,6.E0);
#319=CARTESIAN_POINT('',(8.E0,9.E0,1.5E0));
#320=LINE('',#319,#318);
#321=DIRECTION('',(0.E0,1.E0,0.E0));
#322=VECTOR('',#321,2.E1);
#323=CARTESIAN_POINT('',(1.4E1,9.E0,1.5E0));
#324=LINE('',#323,#322);
#325=DIRECTION('',(1.E0,0.E0,0.E0));
#326=VECTOR('',#325,6.E0);
#327=CARTESIAN_POINT('',(8.E0,2.9E1,1.5E0));
#328=LINE('',#327,#326);
#329=DIRECTION('',(0.E0,1.E0,0.E0));
#330=VECTOR('',#329,4.5E0);
#331=CARTESIAN_POINT('',(8.E0,2.9E1,1.5E0));
#332=LINE('',#331,#330);
#333=DIRECTION('',(7.071067811865E-1,7.071067811865E-1,0.E0));
#334=VECTOR('',#333,7.071067811865E0);
#335=CARTESIAN_POINT('',(8.E0,3.35E1,1.5E0));
#336=LINE('',#335,#334);
#337=DIRECTION('',(-1.E0,0.E0,0.E0));
#338=VECTOR('',#337,1.7E1);
#339=CARTESIAN_POINT('',(3.E1,3.85E1,1.5E0));
#340=LINE('',#339,#338);
#341=DIRECTION('',(7.071067811865E-1,-7.071067811865E-1,0.E0));
#342=VECTOR('',#341,7.071067811865E0);
#343=CARTESIAN_POINT('',(3.E1,3.85E1,1.5E0));
#344=LINE('',#343,#342);
#345=DIRECTION('',(0.E0,-1.E0,0.E0));
#346=VECTOR('',#345,4.5E0);
#347=CARTESIAN_POINT('',(3.5E1,3.35E1,1.5E0));
#348=LINE('',#347,#346);
#349=DIRECTION('',(0.E0,0.E0,1.E0));
#350=VECTOR('',#349,3.25E0);
#351=CARTESIAN_POINT('',(1.75E1,1.925E1,1.5E0));
#352=LINE('',#351,#350);
#353=DIRECTION('',(0.E0,0.E0,1.E0));
#354=VECTOR('',#353,3.25E0);
#355=CARTESIAN_POINT('',(2.55E1,1.925E1,1.5E0));
#356=LINE('',#355,#354);
#357=CARTESIAN_POINT('',(2.15E1,1.925E1,4.75E0));
#358=DIRECTION('',(0.E0,0.E0,1.E0));
#359=DIRECTION('',(-1.E0,0.E0,0.E0));
#360=AXIS2_PLACEMENT_3D('',#357,#358,#359);
#362=CARTESIAN_POINT('',(2.15E1,1.925E1,4.75E0));
#363=DIRECTION('',(0.E0,0.E0,1.E0));
#364=DIRECTION('',(1.E0,0.E0,0.E0));
#365=AXIS2_PLACEMENT_3D('',#362,#363,#364);
#367=CARTESIAN_POINT('',(2.15E1,1.925E1,4.75E0));
#368=DIRECTION('',(0.E0,0.E0,1.E0));
#369=DIRECTION('',(-1.E0,0.E0,0.E0));
#370=AXIS2_PLACEMENT_3D('',#367,#368,#369);
#372=CARTESIAN_POINT('',(2.15E1,1.925E1,4.75E0));
#373=DIRECTION('',(0.E0,0.E0,1.E0));
#374=DIRECTION('',(1.E0,0.E0,0.E0));
#375=AXIS2_PLACEMENT_3D('',#372,#373,#374);
#377=DIRECTION('',(0.E0,0.E0,-1.E0));
#378=VECTOR('',#377,4.75E0);
#379=CARTESIAN_POINT('',(2.04E1,1.925E1,4.75E0));
#380=LINE('',#379,#378);
#381=DIRECTION('',(0.E0,0.E0,-1.E0));
#382=VECTOR('',#381,4.75E0);
#383=CARTESIAN_POINT('',(2.26E1,1.925E1,4.75E0));
#384=LINE('',#383,#382);
#385=DIRECTION('',(0.E0,0.E0,-1.E0));
#386=VECTOR('',#385,1.5E0);
#387=CARTESIAN_POINT('',(3.5E1,2.9E1,1.5E0));
#388=LINE('',#387,#386);
#389=DIRECTION('',(0.E0,0.E0,-1.E0));
#390=VECTOR('',#389,1.5E0);
#391=CARTESIAN_POINT('',(2.9E1,2.9E1,1.5E0));
#392=LINE('',#391,#390);
#393=DIRECTION('',(0.E0,0.E0,-1.E0));
#394=VECTOR('',#393,1.5E0);
#395=CARTESIAN_POINT('',(2.9E1,9.E0,1.5E0));
#396=LINE('',#395,#394);
#397=DIRECTION('',(0.E0,0.E0,-1.E0));
#398=VECTOR('',#397,1.5E0);
#399=CARTESIAN_POINT('',(3.5E1,9.E0,1.5E0));
#400=LINE('',#399,#398);
#401=DIRECTION('',(0.E0,0.E0,1.E0));
#402=VECTOR('',#401,1.1E0);
#403=CARTESIAN_POINT('',(3.5E1,3.35E1,1.5E0));
#404=LINE('',#403,#402);
#405=DIRECTION('',(0.E0,0.E0,1.E0));
#406=VECTOR('',#405,2.15E0);
#407=CARTESIAN_POINT('',(3.05E1,3.8E1,2.6E0));
#408=LINE('',#407,#406);
#409=DIRECTION('',(0.E0,0.E0,1.E0));
#410=VECTOR('',#409,1.1E0);
#411=CARTESIAN_POINT('',(3.E1,3.85E1,1.5E0));
#412=LINE('',#411,#410);
#413=DIRECTION('',(0.E0,0.E0,1.E0));
#414=VECTOR('',#413,2.15E0);
#415=CARTESIAN_POINT('',(3.45E1,3.8E1,2.6E0));
#416=LINE('',#415,#414);
#417=DIRECTION('',(0.E0,0.E0,1.E0));
#418=VECTOR('',#417,2.15E0);
#419=CARTESIAN_POINT('',(3.45E1,3.4E1,2.6E0));
#420=LINE('',#419,#418);
#421=DIRECTION('',(0.E0,0.E0,1.E0));
#422=VECTOR('',#421,1.1E0);
#423=CARTESIAN_POINT('',(1.3E1,3.85E1,1.5E0));
#424=LINE('',#423,#422);
#425=DIRECTION('',(-1.E0,0.E0,0.E0));
#426=VECTOR('',#425,1.3E1);
#427=CARTESIAN_POINT('',(1.3E1,3.85E1,2.6E0));
#428=LINE('',#427,#426);
#429=DIRECTION('',(0.E0,0.E0,-1.E0));
#430=VECTOR('',#429,2.6E0);
#431=CARTESIAN_POINT('',(0.E0,3.85E1,2.6E0));
#432=LINE('',#431,#430);
#433=DIRECTION('',(-1.E0,0.E0,0.E0));
#434=VECTOR('',#433,1.3E1);
#435=CARTESIAN_POINT('',(4.3E1,3.85E1,2.6E0));
#436=LINE('',#435,#434);
#437=DIRECTION('',(0.E0,0.E0,1.E0));
#438=VECTOR('',#437,2.15E0);
#439=CARTESIAN_POINT('',(8.5E0,3.4E1,2.6E0));
#440=LINE('',#439,#438);
#441=DIRECTION('',(0.E0,0.E0,1.E0));
#442=VECTOR('',#441,1.1E0);
#443=CARTESIAN_POINT('',(8.E0,3.35E1,1.5E0));
#444=LINE('',#443,#442);
#445=DIRECTION('',(0.E0,0.E0,1.E0));
#446=VECTOR('',#445,2.15E0);
#447=CARTESIAN_POINT('',(8.5E0,3.8E1,2.6E0));
#448=LINE('',#447,#446);
#449=DIRECTION('',(0.E0,0.E0,1.E0));
#450=VECTOR('',#449,2.15E0);
#451=CARTESIAN_POINT('',(1.25E1,3.8E1,2.6E0));
#452=LINE('',#451,#450);
#453=DIRECTION('',(0.E0,0.E0,-1.E0));
#454=VECTOR('',#453,1.5E0);
#455=CARTESIAN_POINT('',(8.E0,2.9E1,1.5E0));
#456=LINE('',#455,#454);
#457=DIRECTION('',(0.E0,0.E0,1.E0));
#458=VECTOR('',#457,1.1E0);
#459=CARTESIAN_POINT('',(8.E0,5.E0,1.5E0));
#460=LINE('',#459,#458);
#461=DIRECTION('',(0.E0,0.E0,-1.E0));
#462=VECTOR('',#461,1.5E0);
#463=CARTESIAN_POINT('',(1.4E1,2.9E1,1.5E0));
#464=LINE('',#463,#462);
#465=DIRECTION('',(0.E0,0.E0,-1.E0));
#466=VECTOR('',#465,1.5E0);
#467=CARTESIAN_POINT('',(1.4E1,9.E0,1.5E0));
#468=LINE('',#467,#466);
#469=DIRECTION('',(0.E0,0.E0,-1.E0));
#470=VECTOR('',#469,1.5E0);
#471=CARTESIAN_POINT('',(8.E0,9.E0,1.5E0));
#472=LINE('',#471,#470);
#473=DIRECTION('',(0.E0,0.E0,1.E0));
#474=VECTOR('',#473,2.6E0);
#475=CARTESIAN_POINT('',(4.3E1,0.E0,0.E0));
#476=LINE('',#475,#474);
#477=DIRECTION('',(0.E0,0.E0,-1.E0));
#478=VECTOR('',#477,2.6E0);
#479=CARTESIAN_POINT('',(4.3E1,3.85E1,2.6E0));
#480=LINE('',#479,#478);
#481=DIRECTION('',(0.E0,0.E0,-1.E0));
#482=VECTOR('',#481,2.6E0);
#483=CARTESIAN_POINT('',(3.785E1,1.975E1,2.6E0));
#484=LINE('',#483,#482);
#485=DIRECTION('',(0.E0,0.E0,-1.E0));
#486=VECTOR('',#485,2.6E0);
#487=CARTESIAN_POINT('',(4.005E1,1.975E1,2.6E0));
#488=LINE('',#487,#486);
#489=DIRECTION('',(0.E0,0.E0,-1.E0));
#490=VECTOR('',#489,2.6E0);
#491=CARTESIAN_POINT('',(2.95E0,1.975E1,2.6E0));
#492=LINE('',#491,#490);
#493=DIRECTION('',(0.E0,0.E0,-1.E0));
#494=VECTOR('',#493,2.6E0);
#495=CARTESIAN_POINT('',(5.15E0,1.975E1,2.6E0));
#496=LINE('',#495,#494);
#497=CARTESIAN_POINT('',(0.E0,0.E0,0.E0));
#498=CARTESIAN_POINT('',(4.3E1,0.E0,0.E0));
#499=VERTEX_POINT('',#497);
#500=VERTEX_POINT('',#498);
#501=CARTESIAN_POINT('',(4.3E1,3.85E1,0.E0));
#502=VERTEX_POINT('',#501);
#503=CARTESIAN_POINT('',(0.E0,3.85E1,0.E0));
#504=VERTEX_POINT('',#503);
#505=CARTESIAN_POINT('',(0.E0,3.85E1,2.6E0));
#506=CARTESIAN_POINT('',(0.E0,0.E0,2.6E0));
#507=VERTEX_POINT('',#505);
#508=VERTEX_POINT('',#506);
#509=CARTESIAN_POINT('',(1.3E1,0.E0,1.5E0));
#510=CARTESIAN_POINT('',(3.E1,0.E0,1.5E0));
#511=VERTEX_POINT('',#509);
#512=VERTEX_POINT('',#510);
#513=CARTESIAN_POINT('',(3.E1,3.85E1,1.5E0));
#514=CARTESIAN_POINT('',(1.3E1,3.85E1,1.5E0));
#515=VERTEX_POINT('',#513);
#516=VERTEX_POINT('',#514);
#517=CARTESIAN_POINT('',(8.E0,5.E0,2.6E0));
#518=CARTESIAN_POINT('',(8.E0,3.35E1,2.6E0));
#519=VERTEX_POINT('',#517);
#520=VERTEX_POINT('',#518);
#521=CARTESIAN_POINT('',(3.5E1,3.35E1,2.6E0));
#522=CARTESIAN_POINT('',(3.5E1,5.E0,2.6E0));
#523=VERTEX_POINT('',#521);
#524=VERTEX_POINT('',#522);
#525=CARTESIAN_POINT('',(4.3E1,0.E0,2.6E0));
#526=CARTESIAN_POINT('',(4.3E1,3.85E1,2.6E0));
#527=VERTEX_POINT('',#525);
#528=VERTEX_POINT('',#526);
#529=CARTESIAN_POINT('',(8.E0,5.E0,1.5E0));
#530=VERTEX_POINT('',#529);
#531=CARTESIAN_POINT('',(8.E0,3.35E1,1.5E0));
#532=VERTEX_POINT('',#531);
#533=CARTESIAN_POINT('',(3.5E1,3.35E1,1.5E0));
#534=VERTEX_POINT('',#533);
#535=CARTESIAN_POINT('',(3.5E1,5.E0,1.5E0));
#536=VERTEX_POINT('',#535);
#537=CARTESIAN_POINT('',(1.3E1,0.E0,2.6E0));
#538=VERTEX_POINT('',#537);
#539=CARTESIAN_POINT('',(1.3E1,3.85E1,2.6E0));
#540=VERTEX_POINT('',#539);
#541=CARTESIAN_POINT('',(3.E1,3.85E1,2.6E0));
#542=VERTEX_POINT('',#541);
#543=CARTESIAN_POINT('',(3.E1,0.E0,2.6E0));
#544=VERTEX_POINT('',#543);
#545=CARTESIAN_POINT('',(8.5E0,4.5E0,4.75E0));
#546=CARTESIAN_POINT('',(8.5E0,5.E-1,4.75E0));
#547=VERTEX_POINT('',#545);
#548=VERTEX_POINT('',#546);
#549=CARTESIAN_POINT('',(1.25E1,5.E-1,4.75E0));
#550=VERTEX_POINT('',#549);
#551=CARTESIAN_POINT('',(3.05E1,5.E-1,4.75E0));
#552=CARTESIAN_POINT('',(3.45E1,5.E-1,4.75E0));
#553=VERTEX_POINT('',#551);
#554=VERTEX_POINT('',#552);
#555=CARTESIAN_POINT('',(3.45E1,4.5E0,4.75E0));
#556=VERTEX_POINT('',#555);
#557=CARTESIAN_POINT('',(8.5E0,3.4E1,4.75E0));
#558=CARTESIAN_POINT('',(1.25E1,3.8E1,4.75E0));
#559=VERTEX_POINT('',#557);
#560=VERTEX_POINT('',#558);
#561=CARTESIAN_POINT('',(8.5E0,3.8E1,4.75E0));
#562=VERTEX_POINT('',#561);
#563=CARTESIAN_POINT('',(3.05E1,3.8E1,4.75E0));
#564=CARTESIAN_POINT('',(3.45E1,3.4E1,4.75E0));
#565=VERTEX_POINT('',#563);
#566=VERTEX_POINT('',#564);
#567=CARTESIAN_POINT('',(3.45E1,3.8E1,4.75E0));
#568=VERTEX_POINT('',#567);
#569=CARTESIAN_POINT('',(8.5E0,4.5E0,2.6E0));
#570=CARTESIAN_POINT('',(8.5E0,5.E-1,2.6E0));
#571=VERTEX_POINT('',#569);
#572=VERTEX_POINT('',#570);
#573=CARTESIAN_POINT('',(1.25E1,5.E-1,2.6E0));
#574=VERTEX_POINT('',#573);
#575=CARTESIAN_POINT('',(3.05E1,5.E-1,2.6E0));
#576=CARTESIAN_POINT('',(3.45E1,5.E-1,2.6E0));
#577=VERTEX_POINT('',#575);
#578=VERTEX_POINT('',#576);
#579=CARTESIAN_POINT('',(3.45E1,4.5E0,2.6E0));
#580=VERTEX_POINT('',#579);
#581=CARTESIAN_POINT('',(1.25E1,3.8E1,2.6E0));
#582=CARTESIAN_POINT('',(8.5E0,3.8E1,2.6E0));
#583=VERTEX_POINT('',#581);
#584=VERTEX_POINT('',#582);
#585=CARTESIAN_POINT('',(8.5E0,3.4E1,2.6E0));
#586=VERTEX_POINT('',#585);
#587=CARTESIAN_POINT('',(3.45E1,3.4E1,2.6E0));
#588=CARTESIAN_POINT('',(3.45E1,3.8E1,2.6E0));
#589=VERTEX_POINT('',#587);
#590=VERTEX_POINT('',#588);
#591=CARTESIAN_POINT('',(3.05E1,3.8E1,2.6E0));
#592=VERTEX_POINT('',#591);
#593=CARTESIAN_POINT('',(1.75E1,1.925E1,4.75E0));
#594=CARTESIAN_POINT('',(2.55E1,1.925E1,4.75E0));
#595=VERTEX_POINT('',#593);
#596=VERTEX_POINT('',#594);
#597=CARTESIAN_POINT('',(1.75E1,1.925E1,1.5E0));
#598=CARTESIAN_POINT('',(2.55E1,1.925E1,1.5E0));
#599=VERTEX_POINT('',#597);
#600=VERTEX_POINT('',#598);
#601=CARTESIAN_POINT('',(3.5E1,9.E0,0.E0));
#602=CARTESIAN_POINT('',(3.5E1,2.9E1,0.E0));
#603=VERTEX_POINT('',#601);
#604=VERTEX_POINT('',#602);
#605=CARTESIAN_POINT('',(2.9E1,2.9E1,0.E0));
#606=VERTEX_POINT('',#605);
#607=CARTESIAN_POINT('',(2.9E1,9.E0,0.E0));
#608=VERTEX_POINT('',#607);
#609=CARTESIAN_POINT('',(8.E0,9.E0,0.E0));
#610=CARTESIAN_POINT('',(1.4E1,9.E0,0.E0));
#611=VERTEX_POINT('',#609);
#612=VERTEX_POINT('',#610);
#613=CARTESIAN_POINT('',(1.4E1,2.9E1,0.E0));
#614=VERTEX_POINT('',#613);
#615=CARTESIAN_POINT('',(8.E0,2.9E1,0.E0));
#616=VERTEX_POINT('',#615);
#617=CARTESIAN_POINT('',(3.5E1,2.9E1,1.5E0));
#618=CARTESIAN_POINT('',(2.9E1,2.9E1,1.5E0));
#619=VERTEX_POINT('',#617);
#620=VERTEX_POINT('',#618);
#621=CARTESIAN_POINT('',(2.9E1,9.E0,1.5E0));
#622=VERTEX_POINT('',#621);
#623=CARTESIAN_POINT('',(3.5E1,9.E0,1.5E0));
#624=VERTEX_POINT('',#623);
#625=CARTESIAN_POINT('',(8.E0,9.E0,1.5E0));
#626=CARTESIAN_POINT('',(1.4E1,9.E0,1.5E0));
#627=VERTEX_POINT('',#625);
#628=VERTEX_POINT('',#626);
#629=CARTESIAN_POINT('',(1.4E1,2.9E1,1.5E0));
#630=VERTEX_POINT('',#629);
#631=CARTESIAN_POINT('',(8.E0,2.9E1,1.5E0));
#632=VERTEX_POINT('',#631);
#633=CARTESIAN_POINT('',(2.04E1,1.925E1,0.E0));
#634=CARTESIAN_POINT('',(2.26E1,1.925E1,0.E0));
#635=VERTEX_POINT('',#633);
#636=VERTEX_POINT('',#634);
#637=CARTESIAN_POINT('',(3.785E1,1.975E1,0.E0));
#638=CARTESIAN_POINT('',(4.005E1,1.975E1,0.E0));
#639=VERTEX_POINT('',#637);
#640=VERTEX_POINT('',#638);
#641=CARTESIAN_POINT('',(2.95E0,1.975E1,0.E0));
#642=CARTESIAN_POINT('',(5.15E0,1.975E1,0.E0));
#643=VERTEX_POINT('',#641);
#644=VERTEX_POINT('',#642);
#645=CARTESIAN_POINT('',(3.785E1,1.975E1,2.6E0));
#646=CARTESIAN_POINT('',(4.005E1,1.975E1,2.6E0));
#647=VERTEX_POINT('',#645);
#648=VERTEX_POINT('',#646);
#649=CARTESIAN_POINT('',(2.95E0,1.975E1,2.6E0));
#650=CARTESIAN_POINT('',(5.15E0,1.975E1,2.6E0));
#651=VERTEX_POINT('',#649);
#652=VERTEX_POINT('',#650);
#653=CARTESIAN_POINT('',(2.04E1,1.925E1,4.75E0));
#654=CARTESIAN_POINT('',(2.26E1,1.925E1,4.75E0));
#655=VERTEX_POINT('',#653);
#656=VERTEX_POINT('',#654);
#657=CARTESIAN_POINT('',(0.E0,0.E0,0.E0));
#658=DIRECTION('',(0.E0,0.E0,1.E0));
#659=DIRECTION('',(1.E0,0.E0,0.E0));
#660=AXIS2_PLACEMENT_3D('',#657,#658,#659);
#661=PLANE('',#660);
#663=ORIENTED_EDGE('',*,*,#662,.T.);
#665=ORIENTED_EDGE('',*,*,#664,.T.);
#667=ORIENTED_EDGE('',*,*,#666,.T.);
#669=ORIENTED_EDGE('',*,*,#668,.T.);
#670=EDGE_LOOP('',(#663,#665,#667,#669));
#671=FACE_OUTER_BOUND('',#670,.F.);
#673=ORIENTED_EDGE('',*,*,#672,.F.);
#675=ORIENTED_EDGE('',*,*,#674,.F.);
#677=ORIENTED_EDGE('',*,*,#676,.F.);
#679=ORIENTED_EDGE('',*,*,#678,.F.);
#680=EDGE_LOOP('',(#673,#675,#677,#679));
#681=FACE_BOUND('',#680,.F.);
#683=ORIENTED_EDGE('',*,*,#682,.F.);
#685=ORIENTED_EDGE('',*,*,#684,.F.);
#687=ORIENTED_EDGE('',*,*,#686,.F.);
#689=ORIENTED_EDGE('',*,*,#688,.F.);
#690=EDGE_LOOP('',(#683,#685,#687,#689));
#691=FACE_BOUND('',#690,.F.);
#693=ORIENTED_EDGE('',*,*,#692,.F.);
#695=ORIENTED_EDGE('',*,*,#694,.F.);
#696=EDGE_LOOP('',(#693,#695));
#697=FACE_BOUND('',#696,.F.);
#699=ORIENTED_EDGE('',*,*,#698,.F.);
#701=ORIENTED_EDGE('',*,*,#700,.F.);
#702=EDGE_LOOP('',(#699,#701));
#703=FACE_BOUND('',#702,.F.);
#705=ORIENTED_EDGE('',*,*,#704,.F.);
#707=ORIENTED_EDGE('',*,*,#706,.F.);
#708=EDGE_LOOP('',(#705,#707));
#709=FACE_BOUND('',#708,.F.);
#710=ADVANCED_FACE('',(#671,#681,#691,#697,#703,#709),#661,.F.);
#711=CARTESIAN_POINT('',(0.E0,0.E0,0.E0));
#712=DIRECTION('',(0.E0,-1.E0,0.E0));
#713=DIRECTION('',(1.E0,0.E0,0.E0));
#714=AXIS2_PLACEMENT_3D('',#711,#712,#713);
#715=PLANE('',#714);
#717=ORIENTED_EDGE('',*,*,#716,.T.);
#719=ORIENTED_EDGE('',*,*,#718,.F.);
#721=ORIENTED_EDGE('',*,*,#720,.T.);
#723=ORIENTED_EDGE('',*,*,#722,.T.);
#725=ORIENTED_EDGE('',*,*,#724,.T.);
#727=ORIENTED_EDGE('',*,*,#726,.F.);
#728=ORIENTED_EDGE('',*,*,#662,.F.);
#730=ORIENTED_EDGE('',*,*,#729,.T.);
#731=EDGE_LOOP('',(#717,#719,#721,#723,#725,#727,#728,#730));
#732=FACE_OUTER_BOUND('',#731,.F.);
#733=ADVANCED_FACE('',(#732),#715,.T.);
#734=CARTESIAN_POINT('',(0.E0,0.E0,2.6E0));
#735=DIRECTION('',(0.E0,0.E0,1.E0));
#736=DIRECTION('',(1.E0,0.E0,0.E0));
#737=AXIS2_PLACEMENT_3D('',#734,#735,#736);
#738=PLANE('',#737);
#740=ORIENTED_EDGE('',*,*,#739,.T.);
#742=ORIENTED_EDGE('',*,*,#741,.T.);
#744=ORIENTED_EDGE('',*,*,#743,.F.);
#745=ORIENTED_EDGE('',*,*,#716,.F.);
#747=ORIENTED_EDGE('',*,*,#746,.F.);
#749=ORIENTED_EDGE('',*,*,#748,.F.);
#751=ORIENTED_EDGE('',*,*,#750,.F.);
#753=ORIENTED_EDGE('',*,*,#752,.T.);
#755=ORIENTED_EDGE('',*,*,#754,.T.);
#757=ORIENTED_EDGE('',*,*,#756,.F.);
#759=ORIENTED_EDGE('',*,*,#758,.F.);
#761=ORIENTED_EDGE('',*,*,#760,.F.);
#762=EDGE_LOOP('',(#740,#742,#744,#745,#747,#749,#751,#753,#755,#757,#759,
#761));
#763=FACE_OUTER_BOUND('',#762,.F.);
#765=ORIENTED_EDGE('',*,*,#764,.T.);
#767=ORIENTED_EDGE('',*,*,#766,.T.);
#768=EDGE_LOOP('',(#765,#767));
#769=FACE_BOUND('',#768,.F.);
#770=ADVANCED_FACE('',(#763,#769),#738,.T.);
#771=CARTESIAN_POINT('',(0.E0,0.E0,2.6E0));
#772=DIRECTION('',(0.E0,0.E0,1.E0));
#773=DIRECTION('',(1.E0,0.E0,0.E0));
#774=AXIS2_PLACEMENT_3D('',#771,#772,#773);
#775=PLANE('',#774);
#777=ORIENTED_EDGE('',*,*,#776,.T.);
#779=ORIENTED_EDGE('',*,*,#778,.T.);
#781=ORIENTED_EDGE('',*,*,#780,.F.);
#783=ORIENTED_EDGE('',*,*,#782,.F.);
#785=ORIENTED_EDGE('',*,*,#784,.F.);
#787=ORIENTED_EDGE('',*,*,#786,.T.);
#789=ORIENTED_EDGE('',*,*,#788,.T.);
#791=ORIENTED_EDGE('',*,*,#790,.F.);
#793=ORIENTED_EDGE('',*,*,#792,.F.);
#795=ORIENTED_EDGE('',*,*,#794,.F.);
#796=ORIENTED_EDGE('',*,*,#724,.F.);
#798=ORIENTED_EDGE('',*,*,#797,.F.);
#799=EDGE_LOOP('',(#777,#779,#781,#783,#785,#787,#789,#791,#793,#795,#796,
#798));
#800=FACE_OUTER_BOUND('',#799,.F.);
#802=ORIENTED_EDGE('',*,*,#801,.T.);
#804=ORIENTED_EDGE('',*,*,#803,.T.);
#805=EDGE_LOOP('',(#802,#804));
#806=FACE_BOUND('',#805,.F.);
#807=ADVANCED_FACE('',(#800,#806),#775,.T.);
#808=CARTESIAN_POINT('',(8.5E0,4.5E0,2.6E0));
#809=DIRECTION('',(-1.E0,0.E0,0.E0));
#810=DIRECTION('',(0.E0,-1.E0,0.E0));
#811=AXIS2_PLACEMENT_3D('',#808,#809,#810);
#812=PLANE('',#811);
#813=ORIENTED_EDGE('',*,*,#739,.F.);
#815=ORIENTED_EDGE('',*,*,#814,.T.);
#817=ORIENTED_EDGE('',*,*,#816,.T.);
#819=ORIENTED_EDGE('',*,*,#818,.F.);
#820=EDGE_LOOP('',(#813,#815,#817,#819));
#821=FACE_OUTER_BOUND('',#820,.F.);
#822=ADVANCED_FACE('',(#821),#812,.T.);
#823=CARTESIAN_POINT('',(1.3E1,0.E0,1.5E0));
#824=DIRECTION('',(7.071067811865E-1,7.071067811865E-1,0.E0));
#825=DIRECTION('',(-7.071067811865E-1,7.071067811865E-1,0.E0));
#826=AXIS2_PLACEMENT_3D('',#823,#824,#825);
#827=PLANE('',#826);
#828=ORIENTED_EDGE('',*,*,#743,.T.);
#830=ORIENTED_EDGE('',*,*,#829,.T.);
#832=ORIENTED_EDGE('',*,*,#831,.T.);
#833=ORIENTED_EDGE('',*,*,#814,.F.);
#834=ORIENTED_EDGE('',*,*,#760,.T.);
#836=ORIENTED_EDGE('',*,*,#835,.F.);
#838=ORIENTED_EDGE('',*,*,#837,.F.);
#839=ORIENTED_EDGE('',*,*,#718,.T.);
#840=EDGE_LOOP('',(#828,#830,#832,#833,#834,#836,#838,#839));
#841=FACE_OUTER_BOUND('',#840,.F.);
#842=ADVANCED_FACE('',(#841),#827,.T.);
#843=CARTESIAN_POINT('',(8.5E0,5.E-1,2.6E0));
#844=DIRECTION('',(0.E0,-1.E0,0.E0));
#845=DIRECTION('',(1.E0,0.E0,0.E0));
#846=AXIS2_PLACEMENT_3D('',#843,#844,#845);
#847=PLANE('',#846);
#848=ORIENTED_EDGE('',*,*,#741,.F.);
#849=ORIENTED_EDGE('',*,*,#818,.T.);
#851=ORIENTED_EDGE('',*,*,#850,.T.);
#852=ORIENTED_EDGE('',*,*,#829,.F.);
#853=EDGE_LOOP('',(#848,#849,#851,#852));
#854=FACE_OUTER_BOUND('',#853,.F.);
#855=ADVANCED_FACE('',(#854),#847,.T.);
#856=CARTESIAN_POINT('',(0.E0,0.E0,4.75E0));
#857=DIRECTION('',(0.E0,0.E0,1.E0));
#858=DIRECTION('',(1.E0,0.E0,0.E0));
#859=AXIS2_PLACEMENT_3D('',#856,#857,#858);
#860=PLANE('',#859);
#861=ORIENTED_EDGE('',*,*,#816,.F.);
#862=ORIENTED_EDGE('',*,*,#831,.F.);
#863=ORIENTED_EDGE('',*,*,#850,.F.);
#864=EDGE_LOOP('',(#861,#862,#863));
#865=FACE_OUTER_BOUND('',#864,.F.);
#866=ADVANCED_FACE('',(#865),#860,.T.);
#867=CARTESIAN_POINT('',(0.E0,0.E0,4.75E0));
#868=DIRECTION('',(0.E0,0.E0,1.E0));
#869=DIRECTION('',(1.E0,0.E0,0.E0));
#870=AXIS2_PLACEMENT_3D('',#867,#868,#869);
#871=PLANE('',#870);
#873=ORIENTED_EDGE('',*,*,#872,.F.);
#875=ORIENTED_EDGE('',*,*,#874,.F.);
#877=ORIENTED_EDGE('',*,*,#876,.F.);
#878=EDGE_LOOP('',(#873,#875,#877));
#879=FACE_OUTER_BOUND('',#878,.F.);
#880=ADVANCED_FACE('',(#879),#871,.T.);
#881=CARTESIAN_POINT('',(0.E0,0.E0,4.75E0));
#882=DIRECTION('',(0.E0,0.E0,1.E0));
#883=DIRECTION('',(1.E0,0.E0,0.E0));
#884=AXIS2_PLACEMENT_3D('',#881,#882,#883);
#885=PLANE('',#884);
#887=ORIENTED_EDGE('',*,*,#886,.F.);
#889=ORIENTED_EDGE('',*,*,#888,.F.);
#891=ORIENTED_EDGE('',*,*,#890,.F.);
#892=EDGE_LOOP('',(#887,#889,#891));
#893=FACE_OUTER_BOUND('',#892,.F.);
#894=ADVANCED_FACE('',(#893),#885,.T.);
#895=CARTESIAN_POINT('',(0.E0,0.E0,4.75E0));
#896=DIRECTION('',(0.E0,0.E0,1.E0));
#897=DIRECTION('',(1.E0,0.E0,0.E0));
#898=AXIS2_PLACEMENT_3D('',#895,#896,#897);
#899=PLANE('',#898);
#901=ORIENTED_EDGE('',*,*,#900,.F.);
#903=ORIENTED_EDGE('',*,*,#902,.F.);
#905=ORIENTED_EDGE('',*,*,#904,.F.);
#906=EDGE_LOOP('',(#901,#903,#905));
#907=FACE_OUTER_BOUND('',#906,.F.);
#908=ADVANCED_FACE('',(#907),#899,.T.);
#909=CARTESIAN_POINT('',(3.05E1,5.E-1,2.6E0));
#910=DIRECTION('',(0.E0,-1.E0,0.E0));
#911=DIRECTION('',(1.E0,0.E0,0.E0));
#912=AXIS2_PLACEMENT_3D('',#909,#910,#911);
#913=PLANE('',#912);
#914=ORIENTED_EDGE('',*,*,#776,.F.);
#916=ORIENTED_EDGE('',*,*,#915,.T.);
#917=ORIENTED_EDGE('',*,*,#872,.T.);
#919=ORIENTED_EDGE('',*,*,#918,.F.);
#920=EDGE_LOOP('',(#914,#916,#917,#919));
#921=FACE_OUTER_BOUND('',#920,.F.);
#922=ADVANCED_FACE('',(#921),#913,.T.);
#923=CARTESIAN_POINT('',(3.5E1,5.E0,1.5E0));
#924=DIRECTION('',(-7.071067811865E-1,7.071067811865E-1,0.E0));
#925=DIRECTION('',(-7.071067811865E-1,-7.071067811865E-1,0.E0));
#926=AXIS2_PLACEMENT_3D('',#923,#924,#925);
#927=PLANE('',#926);
#928=ORIENTED_EDGE('',*,*,#780,.T.);
#930=ORIENTED_EDGE('',*,*,#929,.T.);
#931=ORIENTED_EDGE('',*,*,#874,.T.);
#932=ORIENTED_EDGE('',*,*,#915,.F.);
#933=ORIENTED_EDGE('',*,*,#797,.T.);
#934=ORIENTED_EDGE('',*,*,#722,.F.);
#936=ORIENTED_EDGE('',*,*,#935,.F.);
#938=ORIENTED_EDGE('',*,*,#937,.T.);
#939=EDGE_LOOP('',(#928,#930,#931,#932,#933,#934,#936,#938));
#940=FACE_OUTER_BOUND('',#939,.F.);
#941=ADVANCED_FACE('',(#940),#927,.T.);
#942=CARTESIAN_POINT('',(3.45E1,5.E-1,2.6E0));
#943=DIRECTION('',(1.E0,0.E0,0.E0));
#944=DIRECTION('',(0.E0,1.E0,0.E0));
#945=AXIS2_PLACEMENT_3D('',#942,#943,#944);
#946=PLANE('',#945);
#947=ORIENTED_EDGE('',*,*,#778,.F.);
#948=ORIENTED_EDGE('',*,*,#918,.T.);
#949=ORIENTED_EDGE('',*,*,#876,.T.);
#950=ORIENTED_EDGE('',*,*,#929,.F.);
#951=EDGE_LOOP('',(#947,#948,#949,#950));
#952=FACE_OUTER_BOUND('',#951,.F.);
#953=ADVANCED_FACE('',(#952),#946,.T.);
#954=CARTESIAN_POINT('',(0.E0,0.E0,1.5E0));
#955=DIRECTION('',(0.E0,0.E0,1.E0));
#956=DIRECTION('',(1.E0,0.E0,0.E0));
#957=AXIS2_PLACEMENT_3D('',#954,#955,#956);
#958=PLANE('',#957);
#960=ORIENTED_EDGE('',*,*,#959,.T.);
#962=ORIENTED_EDGE('',*,*,#961,.T.);
#964=ORIENTED_EDGE('',*,*,#963,.F.);
#966=ORIENTED_EDGE('',*,*,#965,.T.);
#967=ORIENTED_EDGE('',*,*,#935,.T.);
#968=ORIENTED_EDGE('',*,*,#720,.F.);
#969=ORIENTED_EDGE('',*,*,#837,.T.);
#971=ORIENTED_EDGE('',*,*,#970,.T.);
#973=ORIENTED_EDGE('',*,*,#972,.T.);
#975=ORIENTED_EDGE('',*,*,#974,.T.);
#977=ORIENTED_EDGE('',*,*,#976,.F.);
#979=ORIENTED_EDGE('',*,*,#978,.T.);
#981=ORIENTED_EDGE('',*,*,#980,.T.);
#983=ORIENTED_EDGE('',*,*,#982,.F.);
#985=ORIENTED_EDGE('',*,*,#984,.T.);
#987=ORIENTED_EDGE('',*,*,#986,.T.);
#988=EDGE_LOOP('',(#960,#962,#964,#966,#967,#968,#969,#971,#973,#975,#977,#979,
#981,#983,#985,#987));
#989=FACE_OUTER_BOUND('',#988,.F.);
#991=ORIENTED_EDGE('',*,*,#990,.T.);
#993=ORIENTED_EDGE('',*,*,#992,.T.);
#994=EDGE_LOOP('',(#991,#993));
#995=FACE_BOUND('',#994,.F.);
#996=ADVANCED_FACE('',(#989,#995),#958,.T.);
#997=CARTESIAN_POINT('',(2.15E1,1.925E1,1.5E0));
#998=DIRECTION('',(0.E0,0.E0,1.E0));
#999=DIRECTION('',(-1.E0,0.E0,0.E0));
#1000=AXIS2_PLACEMENT_3D('',#997,#998,#999);
#1001=CYLINDRICAL_SURFACE('',#1000,4.E0);
#1002=ORIENTED_EDGE('',*,*,#990,.F.);
#1004=ORIENTED_EDGE('',*,*,#1003,.T.);
#1006=ORIENTED_EDGE('',*,*,#1005,.T.);
#1008=ORIENTED_EDGE('',*,*,#1007,.F.);
#1009=EDGE_LOOP('',(#1002,#1004,#1006,#1008));
#1010=FACE_OUTER_BOUND('',#1009,.F.);
#1011=ADVANCED_FACE('',(#1010),#1001,.T.);
#1012=CARTESIAN_POINT('',(2.15E1,1.925E1,1.5E0));
#1013=DIRECTION('',(0.E0,0.E0,1.E0));
#1014=DIRECTION('',(-1.E0,0.E0,0.E0));
#1015=AXIS2_PLACEMENT_3D('',#1012,#1013,#1014);
#1016=CYLINDRICAL_SURFACE('',#1015,4.E0);
#1017=ORIENTED_EDGE('',*,*,#992,.F.);
#1018=ORIENTED_EDGE('',*,*,#1007,.T.);
#1020=ORIENTED_EDGE('',*,*,#1019,.T.);
#1021=ORIENTED_EDGE('',*,*,#1003,.F.);
#1022=EDGE_LOOP('',(#1017,#1018,#1020,#1021));
#1023=FACE_OUTER_BOUND('',#1022,.F.);
#1024=ADVANCED_FACE('',(#1023),#1016,.T.);
#1025=CARTESIAN_POINT('',(0.E0,0.E0,4.75E0));
#1026=DIRECTION('',(0.E0,0.E0,1.E0));
#1027=DIRECTION('',(-1.E0,0.E0,0.E0));
#1028=AXIS2_PLACEMENT_3D('',#1025,#1026,#1027);
#1029=PLANE('',#1028);
#1030=ORIENTED_EDGE('',*,*,#1005,.F.);
#1031=ORIENTED_EDGE('',*,*,#1019,.F.);
#1032=EDGE_LOOP('',(#1030,#1031));
#1033=FACE_OUTER_BOUND('',#1032,.F.);
#1035=ORIENTED_EDGE('',*,*,#1034,.T.);
#1037=ORIENTED_EDGE('',*,*,#1036,.T.);
#1038=EDGE_LOOP('',(#1035,#1037));
#1039=FACE_BOUND('',#1038,.F.);
#1040=ADVANCED_FACE('',(#1033,#1039),#1029,.T.);
#1041=CARTESIAN_POINT('',(2.15E1,1.925E1,4.75E0));
#1042=DIRECTION('',(0.E0,0.E0,1.E0));
#1043=DIRECTION('',(-1.E0,0.E0,0.E0));
#1044=AXIS2_PLACEMENT_3D('',#1041,#1042,#1043);
#1045=CYLINDRICAL_SURFACE('',#1044,1.1E0);
#1046=ORIENTED_EDGE('',*,*,#692,.T.);
#1048=ORIENTED_EDGE('',*,*,#1047,.F.);
#1049=ORIENTED_EDGE('',*,*,#1034,.F.);
#1051=ORIENTED_EDGE('',*,*,#1050,.T.);
#1052=EDGE_LOOP('',(#1046,#1048,#1049,#1051));
#1053=FACE_OUTER_BOUND('',#1052,.F.);
#1054=ADVANCED_FACE('',(#1053),#1045,.F.);
#1055=CARTESIAN_POINT('',(2.15E1,1.925E1,4.75E0));
#1056=DIRECTION('',(0.E0,0.E0,1.E0));
#1057=DIRECTION('',(-1.E0,0.E0,0.E0));
#1058=AXIS2_PLACEMENT_3D('',#1055,#1056,#1057);
#1059=CYLINDRICAL_SURFACE('',#1058,1.1E0);
#1060=ORIENTED_EDGE('',*,*,#694,.T.);
#1061=ORIENTED_EDGE('',*,*,#1050,.F.);
#1062=ORIENTED_EDGE('',*,*,#1036,.F.);
#1063=ORIENTED_EDGE('',*,*,#1047,.T.);
#1064=EDGE_LOOP('',(#1060,#1061,#1062,#1063));
#1065=FACE_OUTER_BOUND('',#1064,.F.);
#1066=ADVANCED_FACE('',(#1065),#1059,.F.);
#1067=CARTESIAN_POINT('',(3.5E1,2.9E1,1.5E0));
#1068=DIRECTION('',(0.E0,1.E0,0.E0));
#1069=DIRECTION('',(-1.E0,0.E0,0.E0));
#1070=AXIS2_PLACEMENT_3D('',#1067,#1068,#1069);
#1071=PLANE('',#1070);
#1072=ORIENTED_EDGE('',*,*,#678,.T.);
#1074=ORIENTED_EDGE('',*,*,#1073,.F.);
#1075=ORIENTED_EDGE('',*,*,#959,.F.);
#1077=ORIENTED_EDGE('',*,*,#1076,.T.);
#1078=EDGE_LOOP('',(#1072,#1074,#1075,#1077));
#1079=FACE_OUTER_BOUND('',#1078,.F.);
#1080=ADVANCED_FACE('',(#1079),#1071,.F.);
#1081=CARTESIAN_POINT('',(2.9E1,2.9E1,1.5E0));
#1082=DIRECTION('',(-1.E0,0.E0,0.E0));
#1083=DIRECTION('',(0.E0,-1.E0,0.E0));
#1084=AXIS2_PLACEMENT_3D('',#1081,#1082,#1083);
#1085=PLANE('',#1084);
#1086=ORIENTED_EDGE('',*,*,#676,.T.);
#1088=ORIENTED_EDGE('',*,*,#1087,.F.);
#1089=ORIENTED_EDGE('',*,*,#961,.F.);
#1090=ORIENTED_EDGE('',*,*,#1073,.T.);
#1091=EDGE_LOOP('',(#1086,#1088,#1089,#1090));
#1092=FACE_OUTER_BOUND('',#1091,.F.);
#1093=ADVANCED_FACE('',(#1092),#1085,.F.);
#1094=CARTESIAN_POINT('',(2.9E1,9.E0,1.5E0));
#1095=DIRECTION('',(0.E0,-1.E0,0.E0));
#1096=DIRECTION('',(1.E0,0.E0,0.E0));
#1097=AXIS2_PLACEMENT_3D('',#1094,#1095,#1096);
#1098=PLANE('',#1097);
#1099=ORIENTED_EDGE('',*,*,#674,.T.);
#1101=ORIENTED_EDGE('',*,*,#1100,.F.);
#1102=ORIENTED_EDGE('',*,*,#963,.T.);
#1103=ORIENTED_EDGE('',*,*,#1087,.T.);
#1104=EDGE_LOOP('',(#1099,#1101,#1102,#1103));
#1105=FACE_OUTER_BOUND('',#1104,.F.);
#1106=ADVANCED_FACE('',(#1105),#1098,.F.);
#1107=CARTESIAN_POINT('',(3.5E1,3.35E1,1.5E0));
#1108=DIRECTION('',(-1.E0,0.E0,0.E0));
#1109=DIRECTION('',(0.E0,-1.E0,0.E0));
#1110=AXIS2_PLACEMENT_3D('',#1107,#1108,#1109);
#1111=PLANE('',#1110);
#1112=ORIENTED_EDGE('',*,*,#965,.F.);
#1113=ORIENTED_EDGE('',*,*,#1100,.T.);
#1114=ORIENTED_EDGE('',*,*,#672,.T.);
#1115=ORIENTED_EDGE('',*,*,#1076,.F.);
#1116=ORIENTED_EDGE('',*,*,#986,.F.);
#1118=ORIENTED_EDGE('',*,*,#1117,.T.);
#1119=ORIENTED_EDGE('',*,*,#782,.T.);
#1120=ORIENTED_EDGE('',*,*,#937,.F.);
#1121=EDGE_LOOP('',(#1112,#1113,#1114,#1115,#1116,#1118,#1119,#1120));
#1122=FACE_OUTER_BOUND('',#1121,.F.);
#1123=ADVANCED_FACE('',(#1122),#1111,.T.);
#1124=CARTESIAN_POINT('',(3.E1,3.85E1,1.5E0));
#1125=DIRECTION('',(-7.071067811865E-1,-7.071067811865E-1,0.E0));
#1126=DIRECTION('',(7.071067811865E-1,-7.071067811865E-1,0.E0));
#1127=AXIS2_PLACEMENT_3D('',#1124,#1125,#1126);
#1128=PLANE('',#1127);
#1129=ORIENTED_EDGE('',*,*,#790,.T.);
#1131=ORIENTED_EDGE('',*,*,#1130,.T.);
#1132=ORIENTED_EDGE('',*,*,#900,.T.);
#1134=ORIENTED_EDGE('',*,*,#1133,.F.);
#1135=ORIENTED_EDGE('',*,*,#784,.T.);
#1136=ORIENTED_EDGE('',*,*,#1117,.F.);
#1137=ORIENTED_EDGE('',*,*,#984,.F.);
#1139=ORIENTED_EDGE('',*,*,#1138,.T.);
#1140=EDGE_LOOP('',(#1129,#1131,#1132,#1134,#1135,#1136,#1137,#1139));
#1141=FACE_OUTER_BOUND('',#1140,.F.);
#1142=ADVANCED_FACE('',(#1141),#1128,.T.);
#1143=CARTESIAN_POINT('',(3.45E1,3.8E1,2.6E0));
#1144=DIRECTION('',(0.E0,1.E0,0.E0));
#1145=DIRECTION('',(-1.E0,0.E0,0.E0));
#1146=AXIS2_PLACEMENT_3D('',#1143,#1144,#1145);
#1147=PLANE('',#1146);
#1148=ORIENTED_EDGE('',*,*,#788,.F.);
#1150=ORIENTED_EDGE('',*,*,#1149,.T.);
#1151=ORIENTED_EDGE('',*,*,#902,.T.);
#1152=ORIENTED_EDGE('',*,*,#1130,.F.);
#1153=EDGE_LOOP('',(#1148,#1150,#1151,#1152));
#1154=FACE_OUTER_BOUND('',#1153,.F.);
#1155=ADVANCED_FACE('',(#1154),#1147,.T.);
#1156=CARTESIAN_POINT('',(3.45E1,3.4E1,2.6E0));
#1157=DIRECTION('',(1.E0,0.E0,0.E0));
#1158=DIRECTION('',(0.E0,1.E0,0.E0));
#1159=AXIS2_PLACEMENT_3D('',#1156,#1157,#1158);
#1160=PLANE('',#1159);
#1161=ORIENTED_EDGE('',*,*,#786,.F.);
#1162=ORIENTED_EDGE('',*,*,#1133,.T.);
#1163=ORIENTED_EDGE('',*,*,#904,.T.);
#1164=ORIENTED_EDGE('',*,*,#1149,.F.);
#1165=EDGE_LOOP('',(#1161,#1162,#1163,#1164));
#1166=FACE_OUTER_BOUND('',#1165,.F.);
#1167=ADVANCED_FACE('',(#1166),#1160,.T.);
#1168=CARTESIAN_POINT('',(4.3E1,3.85E1,0.E0));
#1169=DIRECTION('',(0.E0,1.E0,0.E0));
#1170=DIRECTION('',(-1.E0,0.E0,0.E0));
#1171=AXIS2_PLACEMENT_3D('',#1168,#1169,#1170);
#1172=PLANE('',#1171);
#1173=ORIENTED_EDGE('',*,*,#982,.T.);
#1175=ORIENTED_EDGE('',*,*,#1174,.T.);
#1176=ORIENTED_EDGE('',*,*,#748,.T.);
#1178=ORIENTED_EDGE('',*,*,#1177,.T.);
#1179=ORIENTED_EDGE('',*,*,#666,.F.);
#1181=ORIENTED_EDGE('',*,*,#1180,.F.);
#1182=ORIENTED_EDGE('',*,*,#792,.T.);
#1183=ORIENTED_EDGE('',*,*,#1138,.F.);
#1184=EDGE_LOOP('',(#1173,#1175,#1176,#1178,#1179,#1181,#1182,#1183));
#1185=FACE_OUTER_BOUND('',#1184,.F.);
#1186=ADVANCED_FACE('',(#1185),#1172,.T.);
#1187=CARTESIAN_POINT('',(8.E0,3.35E1,1.5E0));
#1188=DIRECTION('',(7.071067811865E-1,-7.071067811865E-1,0.E0));
#1189=DIRECTION('',(7.071067811865E-1,7.071067811865E-1,0.E0));
#1190=AXIS2_PLACEMENT_3D('',#1187,#1188,#1189);
#1191=PLANE('',#1190);
#1192=ORIENTED_EDGE('',*,*,#756,.T.);
#1194=ORIENTED_EDGE('',*,*,#1193,.T.);
#1195=ORIENTED_EDGE('',*,*,#886,.T.);
#1197=ORIENTED_EDGE('',*,*,#1196,.F.);
#1198=ORIENTED_EDGE('',*,*,#750,.T.);
#1199=ORIENTED_EDGE('',*,*,#1174,.F.);
#1200=ORIENTED_EDGE('',*,*,#980,.F.);
#1202=ORIENTED_EDGE('',*,*,#1201,.T.);
#1203=EDGE_LOOP('',(#1192,#1194,#1195,#1197,#1198,#1199,#1200,#1202));
#1204=FACE_OUTER_BOUND('',#1203,.F.);
#1205=ADVANCED_FACE('',(#1204),#1191,.T.);
#1206=CARTESIAN_POINT('',(8.5E0,3.8E1,2.6E0));
#1207=DIRECTION('',(-1.E0,0.E0,0.E0));
#1208=DIRECTION('',(0.E0,-1.E0,0.E0));
#1209=AXIS2_PLACEMENT_3D('',#1206,#1207,#1208);
#1210=PLANE('',#1209);
#1211=ORIENTED_EDGE('',*,*,#754,.F.);
#1213=ORIENTED_EDGE('',*,*,#1212,.T.);
#1214=ORIENTED_EDGE('',*,*,#888,.T.);
#1215=ORIENTED_EDGE('',*,*,#1193,.F.);
#1216=EDGE_LOOP('',(#1211,#1213,#1214,#1215));
#1217=FACE_OUTER_BOUND('',#1216,.F.);
#1218=ADVANCED_FACE('',(#1217),#1210,.T.);
#1219=CARTESIAN_POINT('',(1.25E1,3.8E1,2.6E0));
#1220=DIRECTION('',(0.E0,1.E0,0.E0));
#1221=DIRECTION('',(-1.E0,0.E0,0.E0));
#1222=AXIS2_PLACEMENT_3D('',#1219,#1220,#1221);
#1223=PLANE('',#1222);
#1224=ORIENTED_EDGE('',*,*,#752,.F.);
#1225=ORIENTED_EDGE('',*,*,#1196,.T.);
#1226=ORIENTED_EDGE('',*,*,#890,.T.);
#1227=ORIENTED_EDGE('',*,*,#1212,.F.);
#1228=EDGE_LOOP('',(#1224,#1225,#1226,#1227));
#1229=FACE_OUTER_BOUND('',#1228,.F.);
#1230=ADVANCED_FACE('',(#1229),#1223,.T.);
#1231=CARTESIAN_POINT('',(8.E0,5.E0,1.5E0));
#1232=DIRECTION('',(1.E0,0.E0,0.E0));
#1233=DIRECTION('',(0.E0,1.E0,0.E0));
#1234=AXIS2_PLACEMENT_3D('',#1231,#1232,#1233);
#1235=PLANE('',#1234);
#1236=ORIENTED_EDGE('',*,*,#978,.F.);
#1238=ORIENTED_EDGE('',*,*,#1237,.T.);
#1239=ORIENTED_EDGE('',*,*,#684,.T.);
#1241=ORIENTED_EDGE('',*,*,#1240,.F.);
#1242=ORIENTED_EDGE('',*,*,#970,.F.);
#1243=ORIENTED_EDGE('',*,*,#835,.T.);
#1244=ORIENTED_EDGE('',*,*,#758,.T.);
#1245=ORIENTED_EDGE('',*,*,#1201,.F.);
#1246=EDGE_LOOP('',(#1236,#1238,#1239,#1241,#1242,#1243,#1244,#1245));
#1247=FACE_OUTER_BOUND('',#1246,.F.);
#1248=ADVANCED_FACE('',(#1247),#1235,.T.);
#1249=CARTESIAN_POINT('',(1.4E1,2.9E1,1.5E0));
#1250=DIRECTION('',(0.E0,1.E0,0.E0));
#1251=DIRECTION('',(-1.E0,0.E0,0.E0));
#1252=AXIS2_PLACEMENT_3D('',#1249,#1250,#1251);
#1253=PLANE('',#1252);
#1254=ORIENTED_EDGE('',*,*,#686,.T.);
#1255=ORIENTED_EDGE('',*,*,#1237,.F.);
#1256=ORIENTED_EDGE('',*,*,#976,.T.);
#1258=ORIENTED_EDGE('',*,*,#1257,.T.);
#1259=EDGE_LOOP('',(#1254,#1255,#1256,#1258));
#1260=FACE_OUTER_BOUND('',#1259,.F.);
#1261=ADVANCED_FACE('',(#1260),#1253,.F.);
#1262=CARTESIAN_POINT('',(1.4E1,9.E0,1.5E0));
#1263=DIRECTION('',(1.E0,0.E0,0.E0));
#1264=DIRECTION('',(0.E0,1.E0,0.E0));
#1265=AXIS2_PLACEMENT_3D('',#1262,#1263,#1264);
#1266=PLANE('',#1265);
#1267=ORIENTED_EDGE('',*,*,#688,.T.);
#1268=ORIENTED_EDGE('',*,*,#1257,.F.);
#1269=ORIENTED_EDGE('',*,*,#974,.F.);
#1271=ORIENTED_EDGE('',*,*,#1270,.T.);
#1272=EDGE_LOOP('',(#1267,#1268,#1269,#1271));
#1273=FACE_OUTER_BOUND('',#1272,.F.);
#1274=ADVANCED_FACE('',(#1273),#1266,.F.);
#1275=CARTESIAN_POINT('',(8.E0,9.E0,1.5E0));
#1276=DIRECTION('',(0.E0,-1.E0,0.E0));
#1277=DIRECTION('',(1.E0,0.E0,0.E0));
#1278=AXIS2_PLACEMENT_3D('',#1275,#1276,#1277);
#1279=PLANE('',#1278);
#1280=ORIENTED_EDGE('',*,*,#682,.T.);
#1281=ORIENTED_EDGE('',*,*,#1270,.F.);
#1282=ORIENTED_EDGE('',*,*,#972,.F.);
#1283=ORIENTED_EDGE('',*,*,#1240,.T.);
#1284=EDGE_LOOP('',(#1280,#1281,#1282,#1283));
#1285=FACE_OUTER_BOUND('',#1284,.F.);
#1286=ADVANCED_FACE('',(#1285),#1279,.F.);
#1287=CARTESIAN_POINT('',(0.E0,3.85E1,0.E0));
#1288=DIRECTION('',(-1.E0,0.E0,0.E0));
#1289=DIRECTION('',(0.E0,-1.E0,0.E0));
#1290=AXIS2_PLACEMENT_3D('',#1287,#1288,#1289);
#1291=PLANE('',#1290);
#1292=ORIENTED_EDGE('',*,*,#1177,.F.);
#1293=ORIENTED_EDGE('',*,*,#746,.T.);
#1294=ORIENTED_EDGE('',*,*,#729,.F.);
#1295=ORIENTED_EDGE('',*,*,#668,.F.);
#1296=EDGE_LOOP('',(#1292,#1293,#1294,#1295));
#1297=FACE_OUTER_BOUND('',#1296,.F.);
#1298=ADVANCED_FACE('',(#1297),#1291,.T.);
#1299=CARTESIAN_POINT('',(4.3E1,0.E0,0.E0));
#1300=DIRECTION('',(1.E0,0.E0,0.E0));
#1301=DIRECTION('',(0.E0,1.E0,0.E0));
#1302=AXIS2_PLACEMENT_3D('',#1299,#1300,#1301);
#1303=PLANE('',#1302);
#1304=ORIENTED_EDGE('',*,*,#726,.T.);
#1305=ORIENTED_EDGE('',*,*,#794,.T.);
#1306=ORIENTED_EDGE('',*,*,#1180,.T.);
#1307=ORIENTED_EDGE('',*,*,#664,.F.);
#1308=EDGE_LOOP('',(#1304,#1305,#1306,#1307));
#1309=FACE_OUTER_BOUND('',#1308,.F.);
#1310=ADVANCED_FACE('',(#1309),#1303,.T.);
#1311=CARTESIAN_POINT('',(3.895E1,1.975E1,4.75E0));
#1312=DIRECTION('',(0.E0,0.E0,1.E0));
#1313=DIRECTION('',(-1.E0,0.E0,0.E0));
#1314=AXIS2_PLACEMENT_3D('',#1311,#1312,#1313);
#1315=CYLINDRICAL_SURFACE('',#1314,1.1E0);
#1316=ORIENTED_EDGE('',*,*,#698,.T.);
#1318=ORIENTED_EDGE('',*,*,#1317,.F.);
#1319=ORIENTED_EDGE('',*,*,#801,.F.);
#1321=ORIENTED_EDGE('',*,*,#1320,.T.);
#1322=EDGE_LOOP('',(#1316,#1318,#1319,#1321));
#1323=FACE_OUTER_BOUND('',#1322,.F.);
#1324=ADVANCED_FACE('',(#1323),#1315,.F.);
#1325=CARTESIAN_POINT('',(3.895E1,1.975E1,4.75E0));
#1326=DIRECTION('',(0.E0,0.E0,1.E0));
#1327=DIRECTION('',(-1.E0,0.E0,0.E0));
#1328=AXIS2_PLACEMENT_3D('',#1325,#1326,#1327);
#1329=CYLINDRICAL_SURFACE('',#1328,1.1E0);
#1330=ORIENTED_EDGE('',*,*,#700,.T.);
#1331=ORIENTED_EDGE('',*,*,#1320,.F.);
#1332=ORIENTED_EDGE('',*,*,#803,.F.);
#1333=ORIENTED_EDGE('',*,*,#1317,.T.);
#1334=EDGE_LOOP('',(#1330,#1331,#1332,#1333));
#1335=FACE_OUTER_BOUND('',#1334,.F.);
#1336=ADVANCED_FACE('',(#1335),#1329,.F.);
#1337=CARTESIAN_POINT('',(4.05E0,1.975E1,4.75E0));
#1338=DIRECTION('',(0.E0,0.E0,1.E0));
#1339=DIRECTION('',(-1.E0,0.E0,0.E0));
#1340=AXIS2_PLACEMENT_3D('',#1337,#1338,#1339);
#1341=CYLINDRICAL_SURFACE('',#1340,1.1E0);
#1342=ORIENTED_EDGE('',*,*,#704,.T.);
#1344=ORIENTED_EDGE('',*,*,#1343,.F.);
#1345=ORIENTED_EDGE('',*,*,#764,.F.);
#1347=ORIENTED_EDGE('',*,*,#1346,.T.);
#1348=EDGE_LOOP('',(#1342,#1344,#1345,#1347));
#1349=FACE_OUTER_BOUND('',#1348,.F.);
#1350=ADVANCED_FACE('',(#1349),#1341,.F.);
#1351=CARTESIAN_POINT('',(4.05E0,1.975E1,4.75E0));
#1352=DIRECTION('',(0.E0,0.E0,1.E0));
#1353=DIRECTION('',(-1.E0,0.E0,0.E0));
#1354=AXIS2_PLACEMENT_3D('',#1351,#1352,#1353);
#1355=CYLINDRICAL_SURFACE('',#1354,1.1E0);
#1356=ORIENTED_EDGE('',*,*,#706,.T.);
#1357=ORIENTED_EDGE('',*,*,#1346,.F.);
#1358=ORIENTED_EDGE('',*,*,#766,.F.);
#1359=ORIENTED_EDGE('',*,*,#1343,.T.);
#1360=EDGE_LOOP('',(#1356,#1357,#1358,#1359));
#1361=FACE_OUTER_BOUND('',#1360,.F.);
#1362=ADVANCED_FACE('',(#1361),#1355,.F.);
#1363=CLOSED_SHELL('',(#710,#733,#770,#807,#822,#842,#855,#866,#880,#894,#908,
#922,#941,#953,#996,#1011,#1024,#1040,#1054,#1066,#1080,#1093,#1106,#1123,#1142,
#1155,#1167,#1186,#1205,#1218,#1230,#1248,#1261,#1274,#1286,#1298,#1310,#1324,
#1336,#1350,#1362));
#1364=MANIFOLD_SOLID_BREP('',#1363);
#1365=DIMENSIONAL_EXPONENTS(1.E0,0.E0,0.E0,0.E0,0.E0,0.E0,0.E0);
#1367=LENGTH_MEASURE_WITH_UNIT(LENGTH_MEASURE(2.54E1),#1366);
#1368=(CONVERSION_BASED_UNIT('INCH',#1367)LENGTH_UNIT()NAMED_UNIT(#1365));
#1369=DIMENSIONAL_EXPONENTS(0.E0,0.E0,0.E0,0.E0,0.E0,0.E0,0.E0);
#1371=PLANE_ANGLE_MEASURE_WITH_UNIT(PLANE_ANGLE_MEASURE(1.745329251994E-2),
#1370);
#1372=(CONVERSION_BASED_UNIT('DEGREE',#1371)NAMED_UNIT(*)PLANE_ANGLE_UNIT());
#1374=UNCERTAINTY_MEASURE_WITH_UNIT(LENGTH_MEASURE(5.790979364810E-3),#1368,
'closure',
'Maximum model space distance between geometric entities at asserted connectivities');
#1375=(GEOMETRIC_REPRESENTATION_CONTEXT(3)GLOBAL_UNCERTAINTY_ASSIGNED_CONTEXT((
#1374))GLOBAL_UNIT_ASSIGNED_CONTEXT((#1368,#1372,#1373))REPRESENTATION_CONTEXT(
'ID1','3'));
#1377=APPLICATION_CONTEXT(
'CONFIGURATION CONTROLLED 3D DESIGNS OF MECHANICAL PARTS AND ASSEMBLIES');
#1378=APPLICATION_PROTOCOL_DEFINITION('international standard',
'config_control_design',1994,#1377);
#1379=DESIGN_CONTEXT('',#1377,'design');
#1380=MECHANICAL_CONTEXT('',#1377,'mechanical');
#1381=PRODUCT('MAIN_FSR_COVER','MAIN_FSR_COVER','NOT SPECIFIED',(#1380));
#1382=PRODUCT_DEFINITION_FORMATION_WITH_SPECIFIED_SOURCE('1','LAST_VERSION',
#1381,.MADE.);
#1386=PRODUCT_CATEGORY('part','');
#1387=PRODUCT_RELATED_PRODUCT_CATEGORY('detail','',(#1381));
#1388=PRODUCT_CATEGORY_RELATIONSHIP('','',#1386,#1387);
#1389=SECURITY_CLASSIFICATION_LEVEL('unclassified');
#1390=SECURITY_CLASSIFICATION('','',#1389);
#1391=CC_DESIGN_SECURITY_CLASSIFICATION(#1390,(#1382));
#1392=APPROVAL_STATUS('approved');
#1393=APPROVAL(#1392,'');
#1394=CC_DESIGN_APPROVAL(#1393,(#1390,#1382,#1383));
#1395=CALENDAR_DATE(125,27,1);
#1396=COORDINATED_UNIVERSAL_TIME_OFFSET(1,0,.AHEAD.);
#1397=LOCAL_TIME(14,0,2.1E1,#1396);
#1398=DATE_AND_TIME(#1395,#1397);
#1399=APPROVAL_DATE_TIME(#1398,#1393);
#1400=DATE_TIME_ROLE('creation_date');
#1401=CC_DESIGN_DATE_AND_TIME_ASSIGNMENT(#1398,#1400,(#1383));
#1402=DATE_TIME_ROLE('classification_date');
#1403=CC_DESIGN_DATE_AND_TIME_ASSIGNMENT(#1398,#1402,(#1390));
#1404=PERSON('UNSPECIFIED','UNSPECIFIED',$,$,$,$);
#1405=ORGANIZATION('UNSPECIFIED','UNSPECIFIED','UNSPECIFIED');
#1406=PERSON_AND_ORGANIZATION(#1404,#1405);
#1407=APPROVAL_ROLE('approver');
#1408=APPROVAL_PERSON_ORGANIZATION(#1406,#1393,#1407);
#1409=PERSON_AND_ORGANIZATION_ROLE('creator');
#1410=CC_DESIGN_PERSON_AND_ORGANIZATION_ASSIGNMENT(#1406,#1409,(#1382,#1383));
#1411=PERSON_AND_ORGANIZATION_ROLE('design_supplier');
#1412=CC_DESIGN_PERSON_AND_ORGANIZATION_ASSIGNMENT(#1406,#1411,(#1382));
#1413=PERSON_AND_ORGANIZATION_ROLE('classification_officer');
#1414=CC_DESIGN_PERSON_AND_ORGANIZATION_ASSIGNMENT(#1406,#1413,(#1390));
#1415=PERSON_AND_ORGANIZATION_ROLE('design_owner');
#1416=CC_DESIGN_PERSON_AND_ORGANIZATION_ASSIGNMENT(#1406,#1415,(#1381));
#53=CIRCLE('',#52,1.1E0);
#58=CIRCLE('',#57,1.1E0);
#63=CIRCLE('',#62,1.1E0);
#68=CIRCLE('',#67,1.1E0);
#73=CIRCLE('',#72,1.1E0);
#78=CIRCLE('',#77,1.1E0);
#179=CIRCLE('',#178,1.1E0);
#184=CIRCLE('',#183,1.1E0);
#189=CIRCLE('',#188,1.1E0);
#194=CIRCLE('',#193,1.1E0);
#279=CIRCLE('',#278,4.E0);
#284=CIRCLE('',#283,4.E0);
#361=CIRCLE('',#360,4.E0);
#366=CIRCLE('',#365,4.E0);
#371=CIRCLE('',#370,1.1E0);
#376=CIRCLE('',#375,1.1E0);
#662=EDGE_CURVE('',#499,#500,#4,.T.);
#664=EDGE_CURVE('',#500,#502,#8,.T.);
#666=EDGE_CURVE('',#502,#504,#12,.T.);
#668=EDGE_CURVE('',#504,#499,#16,.T.);
#672=EDGE_CURVE('',#603,#604,#20,.T.);
#674=EDGE_CURVE('',#608,#603,#24,.T.);
#676=EDGE_CURVE('',#606,#608,#28,.T.);
#678=EDGE_CURVE('',#604,#606,#32,.T.);
#682=EDGE_CURVE('',#611,#612,#36,.T.);
#684=EDGE_CURVE('',#616,#611,#40,.T.);
#686=EDGE_CURVE('',#614,#616,#44,.T.);
#688=EDGE_CURVE('',#612,#614,#48,.T.);
#692=EDGE_CURVE('',#635,#636,#53,.T.);
#694=EDGE_CURVE('',#636,#635,#58,.T.);
#698=EDGE_CURVE('',#639,#640,#63,.T.);
#700=EDGE_CURVE('',#640,#639,#68,.T.);
#704=EDGE_CURVE('',#643,#644,#73,.T.);
#706=EDGE_CURVE('',#644,#643,#78,.T.);
#716=EDGE_CURVE('',#508,#538,#82,.T.);
#718=EDGE_CURVE('',#511,#538,#206,.T.);
#720=EDGE_CURVE('',#511,#512,#308,.T.);
#722=EDGE_CURVE('',#512,#544,#86,.T.);
#724=EDGE_CURVE('',#544,#527,#90,.T.);
#726=EDGE_CURVE('',#500,#527,#476,.T.);
#729=EDGE_CURVE('',#499,#508,#94,.T.);
#739=EDGE_CURVE('',#571,#572,#98,.T.);
#741=EDGE_CURVE('',#572,#574,#102,.T.);
#743=EDGE_CURVE('',#538,#574,#106,.T.);
#746=EDGE_CURVE('',#507,#508,#110,.T.);
#748=EDGE_CURVE('',#540,#507,#428,.T.);
#750=EDGE_CURVE('',#583,#540,#114,.T.);
#752=EDGE_CURVE('',#583,#584,#118,.T.);
#754=EDGE_CURVE('',#584,#586,#122,.T.);
#756=EDGE_CURVE('',#520,#586,#126,.T.);
#758=EDGE_CURVE('',#519,#520,#130,.T.);
#760=EDGE_CURVE('',#571,#519,#134,.T.);
#764=EDGE_CURVE('',#651,#652,#189,.T.);
#766=EDGE_CURVE('',#652,#651,#194,.T.);
#776=EDGE_CURVE('',#577,#578,#138,.T.);
#778=EDGE_CURVE('',#578,#580,#142,.T.);
#780=EDGE_CURVE('',#524,#580,#146,.T.);
#782=EDGE_CURVE('',#523,#524,#150,.T.);
#784=EDGE_CURVE('',#589,#523,#154,.T.);
#786=EDGE_CURVE('',#589,#590,#158,.T.);
#788=EDGE_CURVE('',#590,#592,#162,.T.);
#790=EDGE_CURVE('',#542,#592,#166,.T.);
#792=EDGE_CURVE('',#528,#542,#436,.T.);
#794=EDGE_CURVE('',#527,#528,#170,.T.);
#797=EDGE_CURVE('',#577,#544,#174,.T.);
#801=EDGE_CURVE('',#647,#648,#179,.T.);
#803=EDGE_CURVE('',#648,#647,#184,.T.);
#814=EDGE_CURVE('',#571,#547,#198,.T.);
#816=EDGE_CURVE('',#547,#548,#214,.T.);
#818=EDGE_CURVE('',#572,#548,#210,.T.);
#829=EDGE_CURVE('',#574,#550,#202,.T.);
#831=EDGE_CURVE('',#550,#547,#218,.T.);
#835=EDGE_CURVE('',#530,#519,#460,.T.);
#837=EDGE_CURVE('',#511,#530,#312,.T.);
#850=EDGE_CURVE('',#548,#550,#222,.T.);
#872=EDGE_CURVE('',#553,#554,#226,.T.);
#874=EDGE_CURVE('',#556,#553,#230,.T.);
#876=EDGE_CURVE('',#554,#556,#234,.T.);
#886=EDGE_CURVE('',#559,#560,#238,.T.);
#888=EDGE_CURVE('',#562,#559,#242,.T.);
#890=EDGE_CURVE('',#560,#562,#246,.T.);
#900=EDGE_CURVE('',#565,#566,#250,.T.);
#902=EDGE_CURVE('',#568,#565,#254,.T.);
#904=EDGE_CURVE('',#566,#568,#258,.T.);
#915=EDGE_CURVE('',#577,#553,#262,.T.);
#918=EDGE_CURVE('',#578,#554,#274,.T.);
#929=EDGE_CURVE('',#580,#556,#266,.T.);
#935=EDGE_CURVE('',#536,#512,#304,.T.);
#937=EDGE_CURVE('',#536,#524,#270,.T.);
#959=EDGE_CURVE('',#619,#620,#288,.T.);
#961=EDGE_CURVE('',#620,#622,#292,.T.);
#963=EDGE_CURVE('',#624,#622,#296,.T.);
#965=EDGE_CURVE('',#624,#536,#300,.T.);
#970=EDGE_CURVE('',#530,#627,#316,.T.);
#972=EDGE_CURVE('',#627,#628,#320,.T.);
#974=EDGE_CURVE('',#628,#630,#324,.T.);
#976=EDGE_CURVE('',#632,#630,#328,.T.);
#978=EDGE_CURVE('',#632,#532,#332,.T.);
#980=EDGE_CURVE('',#532,#516,#336,.T.);
#982=EDGE_CURVE('',#515,#516,#340,.T.);
#984=EDGE_CURVE('',#515,#534,#344,.T.);
#986=EDGE_CURVE('',#534,#619,#348,.T.);
#990=EDGE_CURVE('',#599,#600,#279,.T.);
#992=EDGE_CURVE('',#600,#599,#284,.T.);
#1003=EDGE_CURVE('',#599,#595,#352,.T.);
#1005=EDGE_CURVE('',#595,#596,#361,.T.);
#1007=EDGE_CURVE('',#600,#596,#356,.T.);
#1019=EDGE_CURVE('',#596,#595,#366,.T.);
#1034=EDGE_CURVE('',#655,#656,#371,.T.);
#1036=EDGE_CURVE('',#656,#655,#376,.T.);
#1047=EDGE_CURVE('',#656,#636,#384,.T.);
#1050=EDGE_CURVE('',#655,#635,#380,.T.);
#1073=EDGE_CURVE('',#620,#606,#392,.T.);
#1076=EDGE_CURVE('',#619,#604,#388,.T.);
#1087=EDGE_CURVE('',#622,#608,#396,.T.);
#1100=EDGE_CURVE('',#624,#603,#400,.T.);
#1117=EDGE_CURVE('',#534,#523,#404,.T.);
#1130=EDGE_CURVE('',#592,#565,#408,.T.);
#1133=EDGE_CURVE('',#589,#566,#420,.T.);
#1138=EDGE_CURVE('',#515,#542,#412,.T.);
#1149=EDGE_CURVE('',#590,#568,#416,.T.);
#1174=EDGE_CURVE('',#516,#540,#424,.T.);
#1177=EDGE_CURVE('',#507,#504,#432,.T.);
#1180=EDGE_CURVE('',#528,#502,#480,.T.);
#1193=EDGE_CURVE('',#586,#559,#440,.T.);
#1196=EDGE_CURVE('',#583,#560,#452,.T.);
#1201=EDGE_CURVE('',#532,#520,#444,.T.);
#1212=EDGE_CURVE('',#584,#562,#448,.T.);
#1237=EDGE_CURVE('',#632,#616,#456,.T.);
#1240=EDGE_CURVE('',#627,#611,#472,.T.);
#1257=EDGE_CURVE('',#630,#614,#464,.T.);
#1270=EDGE_CURVE('',#628,#612,#468,.T.);
#1317=EDGE_CURVE('',#648,#640,#488,.T.);
#1320=EDGE_CURVE('',#647,#639,#484,.T.);
#1343=EDGE_CURVE('',#652,#644,#496,.T.);
#1346=EDGE_CURVE('',#651,#643,#492,.T.);
#1366=(LENGTH_UNIT()NAMED_UNIT(*)SI_UNIT(.MILLI.,.METRE.));
#1370=(NAMED_UNIT(*)PLANE_ANGLE_UNIT()SI_UNIT($,.RADIAN.));
#1373=(NAMED_UNIT(*)SI_UNIT($,.STERADIAN.)SOLID_ANGLE_UNIT());
#1376=ADVANCED_BREP_SHAPE_REPRESENTATION('',(#1364),#1375);
#1383=PRODUCT_DEFINITION('design','',#1382,#1379);
#1384=PRODUCT_DEFINITION_SHAPE('','SHAPE FOR MAIN_FSR_COVER.',#1383);
#1385=SHAPE_DEFINITION_REPRESENTATION(#1384,#1376);
ENDSEC;
END-ISO-10303-21;
