500 0 1 0 
58 PRO/ENGINEER BY PARAMETRIC TECHNOLOGY CORPORATION, 2019010 8 ACIS 7.0 24
Mon Jan 27 14:00:31 2025 
25.399999999999999 0.0057909793648104986 1e-10 
-0 body $-1 $1 $-1 $2 #
-1 lump $-1 $-1 $3 $0 #
-2 transform $-1 1 0 0 0 1 0 0 0 1 0 0 0 1 rotate no_reflect no_shear #
-3 shell $-1 $-1 $-1 $4 $-1 $1 #
-4 face $-1 $5 $6 $3 $-1 $7 reversed single #
-5 face $-1 $8 $9 $3 $-1 $10 forward single #
-6 loop $-1 $11 $12 $4 #
-7 plane-surface $-1 0 0 0 0 0 1 1 0 0 forward_v F -0.85999999999999999 F
43.859999999999999 F -0.77000000000000002 F 39.270000000000003 #
-8 face $-1 $13 $14 $3 $-1 $15 forward single #
-9 loop $-1 $-1 $16 $5 #
-10 plane-surface $-1 0 0 0 0 -1 0 1 0 0 forward_v F -0.85999999999999999 F
43.859999999999999 F -0.069494532159012329 F 2.6694945321590118 #
-11 loop $-1 $17 $18 $4 #
-12 coedge $-1 $19 $20 $21 $22 reversed $6 $-1 #
-13 face $-1 $23 $24 $3 $-1 $25 forward single #
-14 loop $-1 $26 $27 $8 #
-15 plane-surface $-1 0 0 2.5999999999999996 0 0 1 1 0 0 forward_v F
-0.85999999999999999 F 43.859999999999999 F -0.77000000000000002 F
39.270000000000003 #
-16 coedge $-1 $28 $29 $30 $31 reversed $9 $-1 #
-17 loop $-1 $32 $33 $4 #
-18 coedge $-1 $34 $35 $36 $37 forward $11 $-1 #
-19 coedge $-1 $38 $12 $39 $40 reversed $6 $-1 #
-20 coedge $-1 $12 $38 $28 $41 reversed $6 $-1 #
-21 coedge $-1 $30 $42 $12 $22 forward $43 $-1 #
-22 edge $44 $45 0 $46 1 $21 $47 forward 7 unknown #
-23 face $-1 $48 $49 $3 $-1 $50 forward single #
-24 loop $-1 $51 $52 $13 #
-25 plane-surface $-1 0 0 2.5999999999999996 0 0 1 1 0 0 forward_v F
-0.85999999999999999 F 43.859999999999999 F -0.77000000000000002 F
39.270000000000003 #
-26 loop $-1 $-1 $53 $8 #
-27 coedge $-1 $54 $55 $56 $57 forward $14 $-1 #
-28 coedge $-1 $58 $16 $20 $41 forward $9 $-1 #
-29 coedge $-1 $16 $59 $60 $61 reversed $9 $-1 #
-30 coedge $-1 $62 $21 $16 $31 forward $43 $-1 #
-31 edge $63 $46 0 $64 1 $30 $65 forward 7 unknown #
-32 loop $-1 $66 $67 $4 #
-33 coedge $-1 $68 $69 $70 $71 forward $17 $-1 #
-34 coedge $-1 $72 $18 $73 $74 forward $11 $-1 #
-35 coedge $-1 $18 $72 $75 $76 forward $11 $-1 #
-36 coedge $-1 $77 $78 $18 $37 reversed $79 $-1 #
-37 edge $80 $81 0 $82 1 $36 $83 forward 7 unknown #
-38 coedge $-1 $20 $19 $84 $85 reversed $6 $-1 #
-39 coedge $-1 $86 $87 $19 $40 forward $88 $-1 #
-40 edge $89 $90 0 $45 1 $39 $91 forward 7 unknown #
-41 edge $92 $46 0 $93 1 $28 $94 forward 7 unknown #
-42 coedge $-1 $21 $62 $86 $95 forward $43 $-1 #
-43 loop $-1 $-1 $21 $96 #
-44 ptlist-eye-attrib $-1 $-1 $-1 $22 #
-45 vertex $-1 $40 $97 #
-46 vertex $-1 $41 $98 #
-47 straight-curve $-1 0 38.5 0 0 -38.5 0 F 0 F 1 #
-48 face $-1 $99 $100 $3 $-1 $101 forward single #
-49 loop $-1 $-1 $102 $23 #
-50 plane-surface $-1 8.5 4.5 2.5999999999999996 -1 0 0 0 -1 0 forward_v F
-0.080000000000000446 F 4.0800000000000001 F -0.069494532159012329 F
2.219494532159012 #
-51 loop $-1 $-1 $103 $13 #
-52 coedge $-1 $104 $105 $106 $107 forward $24 $-1 #
-53 coedge $-1 $108 $108 $109 $110 reversed $26 $-1 #
-54 coedge $-1 $111 $27 $112 $113 forward $14 $-1 #
-55 coedge $-1 $27 $114 $115 $116 reversed $14 $-1 #
-56 coedge $-1 $117 $118 $27 $57 reversed $100 $-1 #
-57 edge $119 $120 0 $121 1 $56 $122 forward 7 unknown #
-58 coedge $-1 $123 $28 $124 $125 forward $9 $-1 #
-59 coedge $-1 $29 $126 $127 $128 forward $9 $-1 #
-60 coedge $-1 $129 $130 $29 $61 forward $14 $-1 #
-61 edge $131 $64 0 $132 1 $60 $133 forward 7 unknown #
-62 coedge $-1 $42 $30 $130 $134 reversed $43 $-1 #
-63 ptlist-eye-attrib $-1 $-1 $-1 $31 #
-64 vertex $-1 $61 $135 #
-65 straight-curve $-1 0 0 0 0 0 2.5999999999999996 F 0 F 1 #
-66 loop $-1 $136 $137 $4 #
-67 coedge $-1 $138 $138 $139 $140 forward $32 $-1 #
-68 coedge $-1 $141 $33 $142 $143 forward $17 $-1 #
-69 coedge $-1 $33 $141 $144 $145 forward $17 $-1 #
-70 coedge $-1 $146 $147 $33 $71 reversed $148 $-1 #
-71 edge $149 $150 0 $151 1 $70 $152 forward 7 unknown #
-72 coedge $-1 $35 $34 $153 $154 forward $11 $-1 #
-73 coedge $-1 $155 $156 $34 $74 reversed $157 $-1 #
-74 edge $158 $82 0 $159 1 $73 $160 forward 7 unknown #
-75 coedge $-1 $161 $162 $35 $76 reversed $163 $-1 #
-76 edge $164 $165 0 $81 1 $75 $166 forward 7 unknown #
-77 coedge $-1 $167 $36 $162 $168 reversed $79 $-1 #
-78 coedge $-1 $36 $167 $155 $169 forward $79 $-1 #
-79 loop $-1 $-1 $77 $170 #
-80 ptlist-eye-attrib $-1 $-1 $-1 $37 #
-81 vertex $-1 $76 $171 #
-82 vertex $-1 $74 $172 #
-83 straight-curve $-1 35 29 0 -6 0 0 F 0 F 1 #
-84 coedge $-1 $173 $124 $38 $85 forward $174 $-1 #
-85 edge $175 $93 0 $90 1 $84 $176 forward 7 unknown #
-86 coedge $-1 $177 $39 $42 $95 reversed $88 $-1 #
-87 coedge $-1 $39 $178 $173 $179 forward $88 $-1 #
-88 loop $-1 $-1 $180 $181 #
-89 ptlist-eye-attrib $-1 $-1 $-1 $40 #
-90 vertex $-1 $85 $182 #
-91 straight-curve $-1 43 38.5 0 -43 0 0 F 0 F 1 #
-92 ptlist-eye-attrib $-1 $-1 $-1 $41 #
-93 vertex $-1 $41 $183 #
-94 straight-curve $-1 0 0 0 43 0 0 F 0 F 1 #
-95 edge $184 $185 0 $45 1 $42 $186 forward 7 unknown #
-96 face $-1 $187 $43 $3 $-1 $188 forward single #
-97 point $-1 0 38.5 0 #
-98 point $-1 0 0 0 #
-99 face $-1 $189 $190 $3 $-1 $191 forward single #
-100 loop $-1 $-1 $127 $48 #
-101 plane-surface $-1 13 0 1.5 0.70710678118654746 0.70710678118654768 0
-0.70710678118654768 0.70710678118654746 0 forward_v F -0.14142135623730956 F
7.2124891681027865 F -0.069494532159012329 F 3.3194945321590117 #
-102 coedge $-1 $192 $115 $193 $194 forward $49 $-1 #
-103 coedge $-1 $195 $195 $196 $197 reversed $51 $-1 #
-104 coedge $-1 $198 $52 $123 $199 forward $24 $-1 #
-105 coedge $-1 $52 $200 $201 $202 reversed $24 $-1 #
-106 coedge $-1 $203 $204 $52 $107 reversed $205 $-1 #
-107 edge $206 $207 0 $208 1 $106 $209 forward 7 unknown #
-108 coedge $-1 $53 $53 $210 $211 reversed $26 $-1 #
-109 coedge $-1 $212 $213 $53 $110 forward $214 $-1 #
-110 edge $215 $216 0 $217 3.1415926535897931 $109 $218 forward 7 unknown #
-111 coedge $-1 $219 $54 $220 $221 forward $14 $-1 #
-112 coedge $-1 $222 $223 $54 $113 reversed $224 $-1 #
-113 edge $225 $121 0 $226 1 $112 $227 forward 7 unknown #
-114 coedge $-1 $55 $129 $228 $229 reversed $14 $-1 #
-115 coedge $-1 $102 $230 $55 $116 forward $49 $-1 #
-116 edge $231 $120 0 $232 1 $115 $233 forward 7 unknown #
-117 coedge $-1 $234 $56 $230 $235 forward $100 $-1 #
-118 coedge $-1 $56 $236 $222 $237 forward $100 $-1 #
-119 ptlist-eye-attrib $-1 $-1 $-1 $57 #
-120 vertex $-1 $116 $238 #
-121 vertex $-1 $113 $239 #
-122 straight-curve $-1 8.5 4.4999999999999991 2.5999999999999996
-0.50000000000000178 0.50000000000000089 0 F 0 F 1 #
-123 coedge $-1 $240 $58 $104 $199 reversed $9 $-1 #
-124 coedge $-1 $84 $241 $58 $125 reversed $174 $-1 #
-125 edge $242 $93 0 $243 1 $124 $244 forward 7 unknown #
-126 coedge $-1 $59 $240 $245 $246 reversed $9 $-1 #
-127 coedge $-1 $236 $247 $59 $128 reversed $100 $-1 #
-128 edge $248 $249 0 $132 1 $127 $250 forward 7 unknown #
-129 coedge $-1 $114 $60 $247 $251 forward $14 $-1 #
-130 coedge $-1 $60 $252 $62 $134 forward $14 $-1 #
-131 ptlist-eye-attrib $-1 $-1 $-1 $61 #
-132 vertex $-1 $61 $253 #
-133 straight-curve $-1 0 0 2.5999999999999996 13 0 0 F 0 F 1 #
-134 edge $254 $185 0 $64 1 $62 $255 forward 7 unknown #
-135 point $-1 0 0 2.5999999999999996 #
-136 loop $-1 $-1 $256 $4 #
-137 coedge $-1 $257 $257 $258 $259 forward $66 $-1 #
-138 coedge $-1 $67 $67 $260 $261 forward $32 $-1 #
-139 coedge $-1 $262 $263 $67 $140 reversed $264 $-1 #
-140 edge $265 $266 0 $267 3.1415926535897931 $139 $268 forward 7 unknown #
-141 coedge $-1 $69 $68 $269 $270 forward $17 $-1 #
-142 coedge $-1 $271 $272 $68 $143 reversed $273 $-1 #
-143 edge $274 $151 0 $275 1 $142 $276 forward 7 unknown #
-144 coedge $-1 $277 $278 $69 $145 reversed $279 $-1 #
-145 edge $280 $281 0 $150 1 $144 $282 forward 7 unknown #
-146 coedge $-1 $283 $70 $278 $284 reversed $148 $-1 #
-147 coedge $-1 $70 $283 $271 $285 forward $148 $-1 #
-148 loop $-1 $-1 $146 $286 #
-149 ptlist-eye-attrib $-1 $-1 $-1 $71 #
-150 vertex $-1 $145 $287 #
-151 vertex $-1 $143 $288 #
-152 straight-curve $-1 14 9 0 0 20 0 F 0 F 1 #
-153 coedge $-1 $289 $290 $72 $154 reversed $291 $-1 #
-154 edge $292 $159 0 $165 1 $153 $293 forward 7 unknown #
-155 coedge $-1 $294 $73 $78 $169 reversed $157 $-1 #
-156 coedge $-1 $73 $294 $289 $295 forward $157 $-1 #
-157 loop $-1 $-1 $155 $296 #
-158 ptlist-eye-attrib $-1 $-1 $-1 $74 #
-159 vertex $-1 $154 $297 #
-160 straight-curve $-1 29 29 0 0 -20 0 F 0 F 1 #
-161 coedge $-1 $298 $75 $290 $299 reversed $163 $-1 #
-162 coedge $-1 $75 $300 $77 $168 forward $163 $-1 #
-163 loop $-1 $-1 $301 $302 #
-164 ptlist-eye-attrib $-1 $-1 $-1 $76 #
-165 vertex $-1 $76 $303 #
-166 straight-curve $-1 35 9 0 0 20 0 F 0 F 1 #
-167 coedge $-1 $78 $77 $304 $305 forward $79 $-1 #
-168 edge $306 $307 0 $81 1 $162 $308 forward 7 unknown #
-169 edge $309 $310 0 $82 1 $155 $311 forward 7 unknown #
-170 face $-1 $296 $79 $3 $-1 $312 reversed single #
-171 point $-1 35 29 0 #
-172 point $-1 29 29 0 #
-173 coedge $-1 $241 $84 $87 $179 reversed $174 $-1 #
-174 loop $-1 $-1 $84 $187 #
-175 ptlist-eye-attrib $-1 $-1 $-1 $85 #
-176 straight-curve $-1 43 0 0 0 38.5 0 F 0 F 1 #
-177 coedge $-1 $313 $86 $252 $314 reversed $88 $-1 #
-178 coedge $-1 $87 $180 $315 $316 reversed $88 $-1 #
-179 edge $317 $318 0 $90 1 $173 $319 forward 7 unknown #
-180 coedge $-1 $178 $320 $321 $322 forward $88 $-1 #
-181 face $-1 $323 $88 $3 $-1 $324 forward single #
-182 point $-1 43 38.5 0 #
-183 point $-1 43 0 0 #
-184 ptlist-eye-attrib $-1 $-1 $-1 $95 #
-185 vertex $-1 $134 $325 #
-186 straight-curve $-1 0 38.5 2.5999999999999996 0 0 -2.5999999999999996 F 0 F
1 #
-187 face $-1 $326 $174 $3 $-1 $327 forward single #
-188 plane-surface $-1 0 38.5 0 -1 0 0 0 -1 0 forward_v F -0.77000000000000002
F 39.270000000000003 F -0.069494532159012329 F 2.6694945321590118 #
-189 face $-1 $328 $329 $3 $-1 $330 forward single #
-190 loop $-1 $-1 $331 $99 #
-191 plane-surface $-1 8.5 0.5 2.5999999999999996 0 -1 0 1 0 0 forward_v F
-0.079999999999999988 F 4.0799999999999992 F -0.069494532159012329 F
2.219494532159012 #
-192 coedge $-1 $230 $102 $332 $333 reversed $49 $-1 #
-193 coedge $-1 $228 $334 $102 $194 reversed $190 $-1 #
-194 edge $335 $232 0 $336 1 $193 $337 forward 7 unknown #
-195 coedge $-1 $103 $103 $338 $339 reversed $51 $-1 #
-196 coedge $-1 $340 $341 $103 $197 forward $342 $-1 #
-197 edge $343 $344 0 $345 3.1415926535897931 $196 $346 forward 7 unknown #
-198 coedge $-1 $315 $104 $241 $347 forward $24 $-1 #
-199 edge $348 $208 0 $243 1 $104 $349 forward 7 unknown #
-200 coedge $-1 $105 $350 $351 $352 reversed $24 $-1 #
-201 coedge $-1 $353 $354 $105 $202 forward $355 $-1 #
-202 edge $356 $207 0 $357 1 $201 $358 forward 7 unknown #
-203 coedge $-1 $359 $106 $354 $360 forward $205 $-1 #
-204 coedge $-1 $106 $361 $240 $362 forward $205 $-1 #
-205 loop $-1 $-1 $363 $364 #
-206 ptlist-eye-attrib $-1 $-1 $-1 $107 #
-207 vertex $-1 $202 $365 #
-208 vertex $-1 $362 $366 #
-209 straight-curve $-1 30.5 0.5 2.5999999999999996 -0.5 -0.49999999999999972 0
F 0 F 1 #
-210 coedge $-1 $367 $368 $108 $211 forward $369 $-1 #
-211 edge $370 $217 0 $216 3.1415926535897931 $210 $371 forward 7 unknown #
-212 coedge $-1 $372 $109 $368 $373 forward $214 $-1 #
-213 coedge $-1 $109 $372 $367 $374 reversed $214 $-1 #
-214 loop $-1 $-1 $213 $375 #
-215 ptlist-eye-attrib $-1 $-1 $-1 $110 #
-216 vertex $-1 $211 $376 #
-217 vertex $-1 $211 $377 #
-218 ellipse-curve $-1 4.0499999999999998 19.75 2.6000000000000005 0 0 1
1.0999999999999996 0 0 1 F 0 F 3.1415926535897931 #
-219 coedge $-1 $378 $111 $379 $380 reversed $14 $-1 #
-220 coedge $-1 $381 $382 $111 $221 reversed $383 $-1 #
-221 edge $384 $226 0 $385 1 $220 $386 forward 7 unknown #
-222 coedge $-1 $387 $112 $118 $237 reversed $224 $-1 #
-223 coedge $-1 $112 $388 $381 $389 forward $224 $-1 #
-224 loop $-1 $-1 $223 $390 #
-225 ptlist-eye-attrib $-1 $-1 $-1 $113 #
-226 vertex $-1 $221 $391 #
-227 straight-curve $-1 7.9999999999999982 5 2.5999999999999996 0 28.5 0 F 0 F
1 #
-228 coedge $-1 $331 $193 $114 $229 forward $190 $-1 #
-229 edge $392 $232 0 $393 1 $228 $394 forward 7 unknown #
-230 coedge $-1 $115 $192 $117 $235 reversed $49 $-1 #
-231 ptlist-eye-attrib $-1 $-1 $-1 $116 #
-232 vertex $-1 $116 $395 #
-233 straight-curve $-1 8.5 4.5 2.5999999999999996 0 -4 0 F 0 F 1 #
-234 coedge $-1 $396 $117 $397 $398 reversed $100 $-1 #
-235 edge $399 $120 0 $400 1 $117 $401 forward 7 unknown #
-236 coedge $-1 $118 $127 $402 $403 forward $100 $-1 #
-237 edge $404 $405 0 $121 1 $222 $406 forward 7 unknown #
-238 point $-1 8.5 4.5 2.5999999999999996 #
-239 point $-1 7.9999999999999982 5 2.5999999999999996 #
-240 coedge $-1 $126 $123 $204 $362 reversed $9 $-1 #
-241 coedge $-1 $124 $173 $198 $347 reversed $174 $-1 #
-242 ptlist-eye-attrib $-1 $-1 $-1 $125 #
-243 vertex $-1 $199 $407 #
-244 straight-curve $-1 43 0 0 0 0 2.5999999999999996 F 0 F 1 #
-245 coedge $-1 $408 $402 $126 $246 forward $409 $-1 #
-246 edge $410 $249 0 $411 1 $245 $412 forward 7 unknown #
-247 coedge $-1 $127 $396 $129 $251 reversed $100 $-1 #
-248 ptlist-eye-attrib $-1 $-1 $-1 $128 #
-249 vertex $-1 $128 $413 #
-250 straight-curve $-1 13 0 1.5 0 0 1.0999999999999996 F 0 F 1 #
-251 edge $414 $132 0 $393 1 $247 $415 forward 7 unknown #
-252 coedge $-1 $130 $416 $177 $314 forward $14 $-1 #
-253 point $-1 13 0 2.5999999999999996 #
-254 ptlist-eye-attrib $-1 $-1 $-1 $134 #
-255 straight-curve $-1 0 38.5 2.5999999999999996 0 -38.5 0 F 0 F 1 #
-256 coedge $-1 $417 $417 $372 $418 forward $136 $-1 #
-257 coedge $-1 $137 $137 $419 $420 forward $66 $-1 #
-258 coedge $-1 $341 $340 $137 $259 reversed $342 $-1 #
-259 edge $421 $422 0 $423 3.1415926535897931 $258 $424 forward 7 unknown #
-260 coedge $-1 $425 $426 $138 $261 reversed $427 $-1 #
-261 edge $428 $267 0 $266 3.1415926535897931 $260 $429 forward 7 unknown #
-262 coedge $-1 $430 $139 $426 $431 reversed $264 $-1 #
-263 coedge $-1 $139 $430 $425 $432 forward $264 $-1 #
-264 loop $-1 $-1 $262 $433 #
-265 ptlist-eye-attrib $-1 $-1 $-1 $140 #
-266 vertex $-1 $261 $434 #
-267 vertex $-1 $261 $435 #
-268 ellipse-curve $-1 21.5 19.25 0 0 0 1 1.1000000000000014 0 0 1 F 0 F
3.1415926535897931 #
-269 coedge $-1 $436 $437 $141 $270 reversed $224 $-1 #
-270 edge $438 $275 0 $281 1 $269 $439 forward 7 unknown #
-271 coedge $-1 $440 $142 $147 $285 reversed $273 $-1 #
-272 coedge $-1 $142 $440 $436 $441 forward $273 $-1 #
-273 loop $-1 $-1 $271 $442 #
-274 ptlist-eye-attrib $-1 $-1 $-1 $143 #
-275 vertex $-1 $270 $443 #
-276 straight-curve $-1 14 29 0 -6 0 0 F 0 F 1 #
-277 coedge $-1 $444 $144 $437 $445 reversed $279 $-1 #
-278 coedge $-1 $144 $444 $146 $284 forward $279 $-1 #
-279 loop $-1 $-1 $277 $446 #
-280 ptlist-eye-attrib $-1 $-1 $-1 $145 #
-281 vertex $-1 $145 $447 #
-282 straight-curve $-1 8 9 0 6 0 0 F 0 F 1 #
-283 coedge $-1 $147 $146 $448 $449 forward $148 $-1 #
-284 edge $450 $451 0 $150 1 $278 $452 forward 7 unknown #
-285 edge $453 $454 0 $151 1 $147 $455 forward 7 unknown #
-286 face $-1 $446 $148 $3 $-1 $456 reversed single #
-287 point $-1 14 9 0 #
-288 point $-1 14 29 0 #
-289 coedge $-1 $457 $153 $156 $295 reversed $291 $-1 #
-290 coedge $-1 $153 $457 $161 $299 forward $291 $-1 #
-291 loop $-1 $-1 $289 $458 #
-292 ptlist-eye-attrib $-1 $-1 $-1 $154 #
-293 straight-curve $-1 29 9 0 6 0 0 F 0 F 1 #
-294 coedge $-1 $156 $155 $459 $460 forward $157 $-1 #
-295 edge $461 $462 0 $159 1 $289 $463 forward 7 unknown #
-296 face $-1 $458 $157 $3 $-1 $464 reversed single #
-297 point $-1 29 9 0 #
-298 coedge $-1 $301 $161 $465 $466 forward $163 $-1 #
-299 edge $467 $468 0 $165 1 $161 $469 forward 7 unknown #
-300 coedge $-1 $162 $470 $471 $472 forward $163 $-1 #
-301 coedge $-1 $473 $298 $363 $474 forward $163 $-1 #
-302 face $-1 $475 $163 $3 $-1 $476 forward single #
-303 point $-1 35 9 0 #
-304 coedge $-1 $471 $459 $167 $305 reversed $409 $-1 #
-305 edge $477 $307 0 $310 1 $167 $478 forward 7 unknown #
-306 ptlist-eye-attrib $-1 $-1 $-1 $168 #
-307 vertex $-1 $305 $479 #
-308 straight-curve $-1 35 29 1.5 0 0 -1.5 F 0 F 1 #
-309 ptlist-eye-attrib $-1 $-1 $-1 $169 #
-310 vertex $-1 $305 $480 #
-311 straight-curve $-1 29 29 1.5 0 0 -1.5 F 0 F 1 #
-312 plane-surface $-1 35 29 1.5 0 1 0 -1 0 0 forward_v F -0.12 F
6.1200000000000001 F -1.5694945321590124 F 0.069494532159012329 #
-313 coedge $-1 $320 $177 $481 $482 reversed $88 $-1 #
-314 edge $483 $484 0 $185 1 $177 $485 forward 7 unknown #
-315 coedge $-1 $486 $198 $178 $316 forward $24 $-1 #
-316 edge $487 $318 0 $488 1 $178 $489 forward 7 unknown #
-317 ptlist-eye-attrib $-1 $-1 $-1 $179 #
-318 vertex $-1 $316 $490 #
-319 straight-curve $-1 43 38.5 2.5999999999999996 0 0 -2.5999999999999996 F 0
F 1 #
-320 coedge $-1 $180 $313 $491 $492 reversed $88 $-1 #
-321 coedge $-1 $493 $494 $180 $322 reversed $495 $-1 #
-322 edge $496 $497 0 $488 1 $180 $498 forward 7 unknown #
-323 face $-1 $499 $383 $3 $-1 $500 forward single #
-324 plane-surface $-1 43 38.5 0 0 1 0 -1 0 0 forward_v F -0.85999999999999999
F 43.859999999999999 F -0.069494532159012329 F 2.6694945321590118 #
-325 point $-1 0 38.5 2.5999999999999996 #
-326 face $-1 $501 $502 $3 $-1 $503 reversed single #
-327 plane-surface $-1 43 0 0 1 0 0 0 1 0 forward_v F -0.77000000000000002 F
39.270000000000003 F -0.069494532159012329 F 2.6694945321590118 #
-328 face $-1 $504 $505 $3 $-1 $506 forward single #
-329 loop $-1 $-1 $507 $189 #
-330 plane-surface $-1 0 0 4.75 0 0 1 1 0 0 forward_v F 7.9800000000000004 F
35.020000000000003 F -0.25 F 38.75 #
-331 coedge $-1 $334 $228 $396 $508 forward $190 $-1 #
-332 coedge $-1 $507 $397 $192 $333 forward $329 $-1 #
-333 edge $509 $400 0 $336 1 $332 $510 forward 7 unknown #
-334 coedge $-1 $193 $331 $507 $511 reversed $190 $-1 #
-335 ptlist-eye-attrib $-1 $-1 $-1 $194 #
-336 vertex $-1 $333 $512 #
-337 straight-curve $-1 8.5 0.5 2.5999999999999996 0 0 2.1500000000000004 F 0 F
1 #
-338 coedge $-1 $513 $514 $195 $339 forward $502 $-1 #
-339 edge $515 $345 0 $344 3.1415926535897931 $338 $516 forward 7 unknown #
-340 coedge $-1 $258 $196 $514 $517 forward $342 $-1 #
-341 coedge $-1 $196 $258 $513 $518 reversed $342 $-1 #
-342 loop $-1 $-1 $341 $501 #
-343 ptlist-eye-attrib $-1 $-1 $-1 $197 #
-344 vertex $-1 $339 $519 #
-345 vertex $-1 $339 $520 #
-346 ellipse-curve $-1 38.950000000000003 19.75 2.6000000000000005 0 0 1
1.1000000000000014 0 0 1 F 0 F 3.1415926535897931 #
-347 edge $521 $243 0 $318 1 $241 $522 forward 7 unknown #
-348 ptlist-eye-attrib $-1 $-1 $-1 $199 #
-349 straight-curve $-1 30 2.9605947323337506e-16 2.5999999999999996 13
-2.9605947323337506e-16 0 F 0 F 1 #
-350 coedge $-1 $200 $523 $524 $525 forward $24 $-1 #
-351 coedge $-1 $526 $527 $200 $352 forward $528 $-1 #
-352 edge $529 $357 0 $530 1 $351 $531 forward 7 unknown #
-353 coedge $-1 $532 $201 $527 $533 forward $355 $-1 #
-354 coedge $-1 $201 $532 $203 $360 reversed $355 $-1 #
-355 loop $-1 $-1 $353 $534 #
-356 ptlist-eye-attrib $-1 $-1 $-1 $202 #
-357 vertex $-1 $202 $535 #
-358 straight-curve $-1 30.5 0.5 2.5999999999999996 4 0 0 F 0 F 1 #
-359 coedge $-1 $536 $203 $537 $538 reversed $205 $-1 #
-360 edge $539 $207 0 $540 1 $203 $541 forward 7 unknown #
-361 coedge $-1 $204 $363 $408 $542 forward $205 $-1 #
-362 edge $543 $411 0 $208 1 $204 $544 forward 7 unknown #
-363 coedge $-1 $361 $524 $301 $474 reversed $205 $-1 #
-364 face $-1 $545 $205 $3 $-1 $546 forward single #
-365 point $-1 30.5 0.5 2.5999999999999996 #
-366 point $-1 30 2.9605947323337506e-16 2.5999999999999996 #
-367 coedge $-1 $547 $210 $213 $374 forward $369 $-1 #
-368 coedge $-1 $210 $547 $212 $373 reversed $369 $-1 #
-369 loop $-1 $-1 $368 $548 #
-370 ptlist-eye-attrib $-1 $-1 $-1 $211 #
-371 ellipse-curve $-1 4.0499999999999998 19.75 2.6000000000000005 0 0 1
-1.0999999999999996 0 0 1 F 0 F 3.1415926535897931 #
-372 coedge $-1 $213 $212 $256 $418 reversed $214 $-1 #
-373 edge $549 $217 0 $550 1 $212 $551 forward 7 unknown #
-374 edge $552 $216 0 $553 1 $213 $554 forward 7 unknown #
-375 face $-1 $-1 $214 $3 $-1 $555 reversed single #
-376 point $-1 5.1499999999999995 19.75 2.6000000000000005 #
-377 point $-1 2.9500000000000002 19.75 2.6000000000000005 #
-378 coedge $-1 $416 $219 $556 $557 reversed $14 $-1 #
-379 coedge $-1 $558 $559 $219 $380 forward $560 $-1 #
-380 edge $561 $562 0 $385 1 $379 $563 forward 7 unknown #
-381 coedge $-1 $564 $220 $223 $389 reversed $383 $-1 #
-382 coedge $-1 $220 $565 $558 $566 reversed $383 $-1 #
-383 loop $-1 $-1 $381 $323 #
-384 ptlist-eye-attrib $-1 $-1 $-1 $221 #
-385 vertex $-1 $380 $567 #
-386 straight-curve $-1 7.9999999999999982 33.5 2.5999999999999996
0.50000000000000178 0.5 0 F 0 F 1 #
-387 coedge $-1 $437 $222 $568 $569 forward $224 $-1 #
-388 coedge $-1 $223 $436 $570 $571 forward $224 $-1 #
-389 edge $572 $573 0 $226 1 $223 $574 forward 7 unknown #
-390 face $-1 $442 $224 $3 $-1 $575 forward single #
-391 point $-1 7.9999999999999982 33.5 2.5999999999999996 #
-392 ptlist-eye-attrib $-1 $-1 $-1 $229 #
-393 vertex $-1 $229 $576 #
-394 straight-curve $-1 8.5 0.5 2.5999999999999996 4 2.2204460492503131e-16 0 F
0 F 1 #
-395 point $-1 8.5 0.5 2.5999999999999996 #
-396 coedge $-1 $247 $234 $331 $508 reversed $100 $-1 #
-397 coedge $-1 $332 $507 $234 $398 forward $329 $-1 #
-398 edge $577 $578 0 $400 1 $397 $579 forward 7 unknown #
-399 ptlist-eye-attrib $-1 $-1 $-1 $235 #
-400 vertex $-1 $235 $580 #
-401 straight-curve $-1 8.5 4.5 2.5999999999999996 0 0 2.1500000000000004 F 0 F
1 #
-402 coedge $-1 $245 $568 $236 $403 reversed $409 $-1 #
-403 edge $581 $249 0 $405 1 $402 $582 forward 7 unknown #
-404 ptlist-eye-attrib $-1 $-1 $-1 $237 #
-405 vertex $-1 $237 $583 #
-406 straight-curve $-1 7.9999999999999982 5 1.5 0 0 1.0999999999999996 F 0 F 1
#
-407 point $-1 43 0 2.5999999999999996 #
-408 coedge $-1 $465 $245 $361 $542 reversed $409 $-1 #
-409 loop $-1 $584 $471 $585 #
-410 ptlist-eye-attrib $-1 $-1 $-1 $246 #
-411 vertex $-1 $246 $586 #
-412 straight-curve $-1 13 0 1.5 17 0 0 F 0 F 1 #
-413 point $-1 13 0 1.5 #
-414 ptlist-eye-attrib $-1 $-1 $-1 $251 #
-415 straight-curve $-1 13 0 2.5999999999999996 -0.5 0.50000000000000022 0 F 0
F 1 #
-416 coedge $-1 $252 $378 $587 $588 forward $14 $-1 #
-417 coedge $-1 $256 $256 $547 $589 forward $136 $-1 #
-418 edge $590 $553 0 $550 3.1415926535897931 $372 $591 forward 7 unknown #
-419 coedge $-1 $514 $513 $257 $420 reversed $502 $-1 #
-420 edge $592 $423 0 $422 3.1415926535897931 $419 $593 forward 7 unknown #
-421 ptlist-eye-attrib $-1 $-1 $-1 $259 #
-422 vertex $-1 $420 $594 #
-423 vertex $-1 $420 $595 #
-424 ellipse-curve $-1 38.950000000000003 19.75 0 0 0 1 1.1000000000000014 0 0
1 F 0 F 3.1415926535897931 #
-425 coedge $-1 $596 $260 $263 $432 reversed $427 $-1 #
-426 coedge $-1 $260 $596 $262 $431 forward $427 $-1 #
-427 loop $-1 $-1 $425 $597 #
-428 ptlist-eye-attrib $-1 $-1 $-1 $261 #
-429 ellipse-curve $-1 21.5 19.25 0 0 0 1 -1.1000000000000014 0 0 1 F 0 F
3.1415926535897931 #
-430 coedge $-1 $263 $262 $598 $599 forward $264 $-1 #
-431 edge $600 $601 0 $266 1 $262 $602 forward 7 unknown #
-432 edge $603 $604 0 $267 1 $263 $605 forward 7 unknown #
-433 face $-1 $170 $264 $3 $-1 $606 reversed single #
-434 point $-1 22.600000000000001 19.25 0 #
-435 point $-1 20.399999999999999 19.25 0 #
-436 coedge $-1 $388 $269 $272 $441 reversed $224 $-1 #
-437 coedge $-1 $269 $387 $277 $445 forward $224 $-1 #
-438 ptlist-eye-attrib $-1 $-1 $-1 $270 #
-439 straight-curve $-1 8 29 0 0 -20 0 F 0 F 1 #
-440 coedge $-1 $272 $271 $607 $608 reversed $273 $-1 #
-441 edge $609 $610 0 $275 1 $272 $611 forward 7 unknown #
-442 face $-1 $286 $273 $3 $-1 $612 reversed single #
-443 point $-1 8 29 0 #
-444 coedge $-1 $278 $277 $613 $614 forward $279 $-1 #
-445 edge $615 $616 0 $281 1 $277 $617 forward 7 unknown #
-446 face $-1 $96 $279 $3 $-1 $618 reversed single #
-447 point $-1 8 9 0 #
-448 coedge $-1 $613 $607 $283 $449 reversed $409 $-1 #
-449 edge $619 $451 0 $454 1 $283 $620 forward 7 unknown #
-450 ptlist-eye-attrib $-1 $-1 $-1 $284 #
-451 vertex $-1 $614 $621 #
-452 straight-curve $-1 14 9 1.5 0 0 -1.5 F 0 F 1 #
-453 ptlist-eye-attrib $-1 $-1 $-1 $285 #
-454 vertex $-1 $449 $622 #
-455 straight-curve $-1 14 29 1.5 0 0 -1.5 F 0 F 1 #
-456 plane-surface $-1 14 9 1.5 1 0 0 0 1 0 forward_v F -0.40000000000000002 F
20.399999999999999 F -1.5694945321590124 F 0.069494532159012329 #
-457 coedge $-1 $290 $289 $623 $624 reversed $291 $-1 #
-458 face $-1 $302 $291 $3 $-1 $625 reversed single #
-459 coedge $-1 $304 $623 $294 $460 reversed $409 $-1 #
-460 edge $626 $310 0 $462 1 $294 $627 forward 7 unknown #
-461 ptlist-eye-attrib $-1 $-1 $-1 $295 #
-462 vertex $-1 $460 $628 #
-463 straight-curve $-1 29 9 1.5 0 0 -1.5 F 0 F 1 #
-464 plane-surface $-1 29 29 1.5 -1 0 0 0 -1 0 forward_v F -0.40000000000000002
F 20.399999999999999 F -1.5694945321590124 F 0.069494532159012329 #
-465 coedge $-1 $623 $408 $298 $466 reversed $409 $-1 #
-466 edge $629 $468 0 $630 1 $298 $631 forward 7 unknown #
-467 ptlist-eye-attrib $-1 $-1 $-1 $299 #
-468 vertex $-1 $624 $632 #
-469 straight-curve $-1 35 9 1.5 0 0 -1.5 F 0 F 1 #
-470 coedge $-1 $300 $473 $633 $634 reversed $163 $-1 #
-471 coedge $-1 $635 $304 $300 $472 reversed $409 $-1 #
-472 edge $636 $637 0 $307 1 $300 $638 forward 7 unknown #
-473 coedge $-1 $470 $301 $523 $639 reversed $163 $-1 #
-474 edge $640 $630 0 $641 1 $301 $642 forward 7 unknown #
-475 face $-1 $643 $495 $3 $-1 $644 forward single #
-476 plane-surface $-1 35 33.5 1.5 -1 0 0 0 -1 0 forward_v F
-0.57000000000000006 F 29.07 F -1.5694945321590124 F 1.1694945321590122 #
-477 ptlist-eye-attrib $-1 $-1 $-1 $305 #
-478 straight-curve $-1 35 29 1.5 -6 0 0 F 0 F 1 #
-479 point $-1 35 29 1.5 #
-480 point $-1 29 29 1.5 #
-481 coedge $-1 $587 $564 $313 $482 forward $383 $-1 #
-482 edge $645 $646 0 $484 1 $481 $647 forward 7 unknown #
-483 ptlist-eye-attrib $-1 $-1 $-1 $314 #
-484 vertex $-1 $314 $648 #
-485 straight-curve $-1 13 38.5 2.5999999999999996 -13 0 0 F 0 F 1 #
-486 coedge $-1 $649 $315 $494 $650 forward $24 $-1 #
-487 ptlist-eye-attrib $-1 $-1 $-1 $316 #
-488 vertex $-1 $650 $651 #
-489 straight-curve $-1 43 38.5 2.5999999999999996 -13 0 0 F 0 F 1 #
-490 point $-1 43 38.5 2.5999999999999996 #
-491 coedge $-1 $652 $635 $320 $492 forward $409 $-1 #
-492 edge $653 $497 0 $646 1 $320 $654 forward 7 unknown #
-493 coedge $-1 $633 $321 $635 $655 forward $495 $-1 #
-494 coedge $-1 $321 $656 $486 $650 reversed $495 $-1 #
-495 loop $-1 $-1 $321 $475 #
-496 ptlist-eye-attrib $-1 $-1 $-1 $322 #
-497 vertex $-1 $492 $657 #
-498 straight-curve $-1 30 38.5 1.5 0 0 1.0999999999999996 F 0 F 1 #
-499 face $-1 $658 $560 $3 $-1 $659 forward single #
-500 plane-surface $-1 7.9999999999999991 33.5 1.5 0.70710678118654746
-0.70710678118654768 0 0.70710678118654768 0.70710678118654746 0 forward_v F
-0.14142135623730956 F 7.2124891681027865 F -0.069494532159012329 F
3.3194945321590117 #
-501 face $-1 $548 $342 $3 $-1 $660 reversed single #
-502 loop $-1 $-1 $514 $326 #
-503 cone-surface $-1 38.950000000000003 19.75 4.75 0 0 1 -1.0999999999999999 0
0 1 I I 0 1 1 forward I I I I #
-504 face $-1 $661 $662 $3 $-1 $663 forward single #
-505 loop $-1 $-1 $664 $328 #
-506 plane-surface $-1 0 0 4.75 0 0 1 1 0 0 forward_v F 7.9800000000000004 F
35.020000000000003 F -0.25 F 38.75 #
-507 coedge $-1 $397 $332 $334 $511 forward $329 $-1 #
-508 edge $665 $393 0 $578 1 $331 $666 forward 7 unknown #
-509 ptlist-eye-attrib $-1 $-1 $-1 $333 #
-510 straight-curve $-1 8.5 4.5 4.75 0 -4 0 F 0 F 1 #
-511 edge $667 $336 0 $578 1 $507 $668 forward 7 unknown #
-512 point $-1 8.5 0.5 4.75 #
-513 coedge $-1 $419 $338 $341 $518 forward $502 $-1 #
-514 coedge $-1 $338 $419 $340 $517 reversed $502 $-1 #
-515 ptlist-eye-attrib $-1 $-1 $-1 $339 #
-516 ellipse-curve $-1 38.950000000000003 19.75 2.6000000000000005 0 0 1
-1.1000000000000014 0 0 1 F 0 F 3.1415926535897931 #
-517 edge $669 $345 0 $423 1 $340 $670 forward 7 unknown #
-518 edge $671 $344 0 $422 1 $341 $672 forward 7 unknown #
-519 point $-1 40.050000000000004 19.75 2.6000000000000005 #
-520 point $-1 37.850000000000001 19.75 2.6000000000000005 #
-521 ptlist-eye-attrib $-1 $-1 $-1 $347 #
-522 straight-curve $-1 43 0 2.5999999999999996 0 38.5 0 F 0 F 1 #
-523 coedge $-1 $350 $673 $473 $639 forward $24 $-1 #
-524 coedge $-1 $363 $536 $350 $525 reversed $205 $-1 #
-525 edge $674 $641 0 $530 1 $524 $675 forward 7 unknown #
-526 coedge $-1 $676 $351 $536 $677 forward $528 $-1 #
-527 coedge $-1 $351 $676 $353 $533 reversed $528 $-1 #
-528 loop $-1 $-1 $526 $545 #
-529 ptlist-eye-attrib $-1 $-1 $-1 $352 #
-530 vertex $-1 $352 $678 #
-531 straight-curve $-1 34.5 0.5 2.5999999999999996 0 4 0 F 0 F 1 #
-532 coedge $-1 $354 $353 $679 $680 reversed $355 $-1 #
-533 edge $681 $357 0 $682 1 $527 $683 forward 7 unknown #
-534 face $-1 $364 $355 $3 $-1 $684 forward single #
-535 point $-1 34.5 0.5 2.5999999999999996 #
-536 coedge $-1 $524 $359 $526 $677 reversed $205 $-1 #
-537 coedge $-1 $679 $664 $359 $538 forward $505 $-1 #
-538 edge $685 $686 0 $540 1 $359 $687 forward 7 unknown #
-539 ptlist-eye-attrib $-1 $-1 $-1 $360 #
-540 vertex $-1 $680 $688 #
-541 straight-curve $-1 30.5 0.5 2.5999999999999996 0 8.8817841970012523e-16
2.1500000000000004 F 0 F 1 #
-542 edge $689 $630 0 $411 1 $408 $690 forward 7 unknown #
-543 ptlist-eye-attrib $-1 $-1 $-1 $362 #
-544 straight-curve $-1 30 0 1.5 0 2.9605947323337506e-16 1.0999999999999996 F
0 F 1 #
-545 face $-1 $585 $528 $3 $-1 $691 forward single #
-546 plane-surface $-1 35 5 1.5 -0.70710678118654746 0.70710678118654746 0
-0.70710678118654746 -0.70710678118654746 0 forward_v F -0.14142135623730953 F
7.2124891681027856 F -0.069494532159012329 F 3.3194945321590121 #
-547 coedge $-1 $368 $367 $417 $589 reversed $369 $-1 #
-548 face $-1 $375 $369 $3 $-1 $692 reversed single #
-549 ptlist-eye-attrib $-1 $-1 $-1 $373 #
-550 vertex $-1 $589 $693 #
-551 straight-curve $-1 2.9499999999999997 19.75 2.5999999999999996 0 0
-2.5999999999999992 F 0 F 1 #
-552 ptlist-eye-attrib $-1 $-1 $-1 $374 #
-553 vertex $-1 $589 $694 #
-554 straight-curve $-1 5.1499999999999986 19.75 2.5999999999999996 0 0
-2.5999999999999992 F 0 F 1 #
-555 cone-surface $-1 4.0499999999999998 19.75 4.75 0 0 1 -1.0999999999999999 0
0 1 I I 0 1 1 forward I I I I #
-556 coedge $-1 $695 $696 $378 $557 forward $697 $-1 #
-557 edge $698 $699 0 $562 1 $556 $700 forward 7 unknown #
-558 coedge $-1 $701 $379 $382 $566 forward $560 $-1 #
-559 coedge $-1 $379 $701 $695 $702 reversed $560 $-1 #
-560 loop $-1 $-1 $558 $499 #
-561 ptlist-eye-attrib $-1 $-1 $-1 $380 #
-562 vertex $-1 $557 $703 #
-563 straight-curve $-1 8.4999999999999947 38 2.5999999999999996
5.3290705182007514e-15 -4 0 F 0 F 1 #
-564 coedge $-1 $481 $381 $652 $704 forward $383 $-1 #
-565 coedge $-1 $382 $705 $706 $707 reversed $383 $-1 #
-566 edge $708 $385 0 $709 1 $558 $710 forward 7 unknown #
-567 point $-1 8.5 34 2.5999999999999996 #
-568 coedge $-1 $402 $613 $387 $569 reversed $409 $-1 #
-569 edge $711 $405 0 $616 1 $387 $712 forward 7 unknown #
-570 coedge $-1 $607 $652 $388 $571 reversed $409 $-1 #
-571 edge $713 $610 0 $573 1 $388 $714 forward 7 unknown #
-572 ptlist-eye-attrib $-1 $-1 $-1 $389 #
-573 vertex $-1 $571 $715 #
-574 straight-curve $-1 7.9999999999999982 33.5 1.5 0 0 1.0999999999999996 F 0
F 1 #
-575 plane-surface $-1 7.9999999999999991 5 1.5 1 0 0 0 1 0 forward_v F
-0.57000000000000006 F 29.07 F -1.5694945321590124 F 1.1694945321590122 #
-576 point $-1 12.5 0.50000000000000022 2.5999999999999996 #
-577 ptlist-eye-attrib $-1 $-1 $-1 $398 #
-578 vertex $-1 $508 $716 #
-579 straight-curve $-1 12.5 0.49999999999999983 4.75 -4 4 0 F 0 F 1 #
-580 point $-1 8.5 4.5 4.75 #
-581 ptlist-eye-attrib $-1 $-1 $-1 $403 #
-582 straight-curve $-1 13 0 1.5 -5.0000000000000018 5 0 F 0 F 1 #
-583 point $-1 7.9999999999999982 5 1.5 #
-584 loop $-1 $-1 $717 $585 #
-585 face $-1 $718 $409 $3 $-1 $719 forward single #
-586 point $-1 30 0 1.5 #
-587 coedge $-1 $705 $481 $416 $588 reversed $383 $-1 #
-588 edge $720 $699 0 $484 1 $587 $721 forward 7 unknown #
-589 edge $722 $550 0 $553 3.1415926535897931 $547 $723 forward 7 unknown #
-590 ptlist-eye-attrib $-1 $-1 $-1 $418 #
-591 ellipse-curve $-1 4.0499999999999998 19.75 0 0 0 1 1.0999999999999996 0 0
1 F 0 F 3.1415926535897931 #
-592 ptlist-eye-attrib $-1 $-1 $-1 $420 #
-593 ellipse-curve $-1 38.950000000000003 19.75 0 0 0 1 -1.1000000000000014 0 0
1 F 0 F 3.1415926535897931 #
-594 point $-1 40.050000000000004 19.75 0 #
-595 point $-1 37.850000000000001 19.75 0 #
-596 coedge $-1 $426 $425 $724 $725 forward $427 $-1 #
-597 face $-1 $433 $427 $3 $-1 $726 reversed single #
-598 coedge $-1 $724 $724 $430 $599 reversed $727 $-1 #
-599 edge $728 $601 0 $604 3.1415926535897931 $430 $729 forward 7 unknown #
-600 ptlist-eye-attrib $-1 $-1 $-1 $431 #
-601 vertex $-1 $725 $730 #
-602 straight-curve $-1 22.599999999999998 19.25 4.75 0 0 -4.7499999999999991 F
0 F 1 #
-603 ptlist-eye-attrib $-1 $-1 $-1 $432 #
-604 vertex $-1 $725 $731 #
-605 straight-curve $-1 20.399999999999999 19.25 4.75 0 0 -4.7499999999999991 F
0 F 1 #
-606 cone-surface $-1 21.5 19.25 4.75 0 0 1 -1.0999999999999999 0 0 1 I I 0 1 1
forward I I I I #
-607 coedge $-1 $448 $570 $440 $608 forward $409 $-1 #
-608 edge $732 $610 0 $454 1 $440 $733 forward 7 unknown #
-609 ptlist-eye-attrib $-1 $-1 $-1 $441 #
-610 vertex $-1 $608 $734 #
-611 straight-curve $-1 8 29 1.5 0 0 -1.5 F 0 F 1 #
-612 plane-surface $-1 14 29 1.5 0 1 0 -1 0 0 forward_v F -0.12 F
6.1200000000000001 F -1.5694945321590124 F 0.069494532159012329 #
-613 coedge $-1 $568 $448 $444 $614 reversed $409 $-1 #
-614 edge $735 $616 0 $451 1 $444 $736 forward 7 unknown #
-615 ptlist-eye-attrib $-1 $-1 $-1 $445 #
-616 vertex $-1 $569 $737 #
-617 straight-curve $-1 8 9 1.5 0 0 -1.5 F 0 F 1 #
-618 plane-surface $-1 8 9 1.5 0 -1 0 1 0 0 forward_v F -0.12 F
6.1200000000000001 F -1.5694945321590124 F 0.069494532159012329 #
-619 ptlist-eye-attrib $-1 $-1 $-1 $449 #
-620 straight-curve $-1 14 9 1.5 0 20 0 F 0 F 1 #
-621 point $-1 14 9 1.5 #
-622 point $-1 14 29 1.5 #
-623 coedge $-1 $459 $465 $457 $624 forward $409 $-1 #
-624 edge $738 $468 0 $462 1 $457 $739 forward 7 unknown #
-625 plane-surface $-1 29 9 1.5 0 -1 0 1 0 0 forward_v F -0.12 F
6.1200000000000001 F -1.5694945321590124 F 0.069494532159012329 #
-626 ptlist-eye-attrib $-1 $-1 $-1 $460 #
-627 straight-curve $-1 29 29 1.5 0 -20 0 F 0 F 1 #
-628 point $-1 29 9 1.5 #
-629 ptlist-eye-attrib $-1 $-1 $-1 $466 #
-630 vertex $-1 $542 $740 #
-631 straight-curve $-1 35 9 1.5 0 -4 0 F 0 F 1 #
-632 point $-1 35 9 1.5 #
-633 coedge $-1 $741 $493 $470 $634 forward $495 $-1 #
-634 edge $742 $637 0 $743 1 $633 $744 forward 7 unknown #
-635 coedge $-1 $491 $471 $493 $655 reversed $409 $-1 #
-636 ptlist-eye-attrib $-1 $-1 $-1 $472 #
-637 vertex $-1 $655 $745 #
-638 straight-curve $-1 35 33.5 1.5 0 -4.5 0 F 0 F 1 #
-639 edge $746 $743 0 $641 1 $473 $747 forward 7 unknown #
-640 ptlist-eye-attrib $-1 $-1 $-1 $474 #
-641 vertex $-1 $525 $748 #
-642 straight-curve $-1 35 5 1.5 0 0 1.0999999999999996 F 0 F 1 #
-643 face $-1 $749 $750 $3 $-1 $751 forward single #
-644 plane-surface $-1 30 38.5 1.5 -0.70710678118654746 -0.70710678118654746 0
0.70710678118654746 -0.70710678118654746 0 forward_v F -0.1414213562373095 F
7.2124891681027838 F -0.069494532159012329 F 3.3194945321590121 #
-645 ptlist-eye-attrib $-1 $-1 $-1 $482 #
-646 vertex $-1 $704 $752 #
-647 straight-curve $-1 13 38.5 1.5 0 0 1.0999999999999996 F 0 F 1 #
-648 point $-1 13 38.5 2.5999999999999996 #
-649 coedge $-1 $753 $486 $754 $755 reversed $24 $-1 #
-650 edge $756 $488 0 $757 1 $494 $758 forward 7 unknown #
-651 point $-1 30 38.5 2.5999999999999996 #
-652 coedge $-1 $570 $491 $564 $704 reversed $409 $-1 #
-653 ptlist-eye-attrib $-1 $-1 $-1 $492 #
-654 straight-curve $-1 30 38.5 1.5 -17 0 0 F 0 F 1 #
-655 edge $759 $497 0 $637 1 $493 $760 forward 7 unknown #
-656 coedge $-1 $494 $761 $762 $763 reversed $495 $-1 #
-657 point $-1 30 38.5 1.5 #
-658 face $-1 $390 $697 $3 $-1 $764 forward single #
-659 plane-surface $-1 8.5 38 2.5999999999999996 -1 0 0 0 -1 0 forward_v F
-0.080000000000000002 F 4.0800000000000001 F -0.069494532159012329 F
2.219494532159012 #
-660 cone-surface $-1 38.950000000000003 19.75 4.75 0 0 1 -1.0999999999999999 0
0 1 I I 0 1 1 forward I I I I #
-661 face $-1 $534 $765 $3 $-1 $766 forward single #
-662 loop $-1 $-1 $767 $504 #
-663 plane-surface $-1 0 0 4.75 0 0 1 1 0 0 forward_v F 7.9800000000000004 F
35.020000000000003 F -0.25 F 38.75 #
-664 coedge $-1 $537 $679 $676 $768 forward $505 $-1 #
-665 ptlist-eye-attrib $-1 $-1 $-1 $508 #
-666 straight-curve $-1 12.5 0.50000000000000022 2.5999999999999996 0
-3.8857805861880479e-16 2.1500000000000004 F 0 F 1 #
-667 ptlist-eye-attrib $-1 $-1 $-1 $511 #
-668 straight-curve $-1 8.5 0.5 4.75 4 -1.6653345369377348e-16 0 F 0 F 1 #
-669 ptlist-eye-attrib $-1 $-1 $-1 $517 #
-670 straight-curve $-1 37.849999999999994 19.75 2.5999999999999996 0 0
-2.5999999999999992 F 0 F 1 #
-671 ptlist-eye-attrib $-1 $-1 $-1 $518 #
-672 straight-curve $-1 40.050000000000004 19.75 2.5999999999999996 0 0
-2.5999999999999992 F 0 F 1 #
-673 coedge $-1 $523 $753 $741 $769 forward $24 $-1 #
-674 ptlist-eye-attrib $-1 $-1 $-1 $525 #
-675 straight-curve $-1 35 5 2.5999999999999996 -0.5 -0.5 0 F 0 F 1 #
-676 coedge $-1 $527 $526 $664 $768 reversed $528 $-1 #
-677 edge $770 $530 0 $686 1 $526 $771 forward 7 unknown #
-678 point $-1 34.5 4.5 2.5999999999999996 #
-679 coedge $-1 $664 $537 $532 $680 forward $505 $-1 #
-680 edge $772 $540 0 $682 1 $532 $773 forward 7 unknown #
-681 ptlist-eye-attrib $-1 $-1 $-1 $533 #
-682 vertex $-1 $680 $774 #
-683 straight-curve $-1 34.5 0.5 2.5999999999999996 0 0 2.1500000000000004 F 0
F 1 #
-684 plane-surface $-1 30.5 0.5 2.5999999999999996 0 -1 0 1 0 0 forward_v F
-0.08000000000000182 F 4.0800000000000001 F -0.069494532159012329 F
2.219494532159012 #
-685 ptlist-eye-attrib $-1 $-1 $-1 $538 #
-686 vertex $-1 $538 $775 #
-687 straight-curve $-1 34.5 4.5 4.75 -4 -3.9999999999999991 0 F 0 F 1 #
-688 point $-1 30.5 0.50000000000000089 4.75 #
-689 ptlist-eye-attrib $-1 $-1 $-1 $542 #
-690 straight-curve $-1 35 5 1.5 -5 -5 0 F 0 F 1 #
-691 plane-surface $-1 34.5 0.5 2.5999999999999996 1 0 0 0 1 0 forward_v F
-0.080000000000000002 F 4.0800000000000001 F -0.069494532159012329 F
2.219494532159012 #
-692 cone-surface $-1 4.0499999999999998 19.75 4.75 0 0 1 -1.0999999999999999 0
0 1 I I 0 1 1 forward I I I I #
-693 point $-1 2.9500000000000002 19.75 0 #
-694 point $-1 5.1499999999999995 19.75 0 #
-695 coedge $-1 $776 $556 $559 $702 forward $697 $-1 #
-696 coedge $-1 $556 $776 $705 $777 reversed $697 $-1 #
-697 loop $-1 $-1 $695 $658 #
-698 ptlist-eye-attrib $-1 $-1 $-1 $557 #
-699 vertex $-1 $588 $778 #
-700 straight-curve $-1 12.500000000000002 38 2.5999999999999996
-4.0000000000000071 0 0 F 0 F 1 #
-701 coedge $-1 $559 $558 $779 $780 reversed $560 $-1 #
-702 edge $781 $562 0 $782 1 $695 $783 forward 7 unknown #
-703 point $-1 8.4999999999999947 38 2.5999999999999996 #
-704 edge $784 $573 0 $646 1 $564 $785 forward 7 unknown #
-705 coedge $-1 $565 $587 $696 $777 forward $383 $-1 #
-706 coedge $-1 $767 $779 $565 $707 forward $662 $-1 #
-707 edge $786 $709 0 $787 1 $565 $788 forward 7 unknown #
-708 ptlist-eye-attrib $-1 $-1 $-1 $566 #
-709 vertex $-1 $707 $789 #
-710 straight-curve $-1 8.5 34 2.5999999999999996 0 0 2.1500000000000004 F 0 F
1 #
-711 ptlist-eye-attrib $-1 $-1 $-1 $569 #
-712 straight-curve $-1 7.9999999999999982 5 1.5 1.7763568394002505e-15 4 0 F 0
F 1 #
-713 ptlist-eye-attrib $-1 $-1 $-1 $571 #
-714 straight-curve $-1 7.9999999999999982 29 1.5 0 4.5 0 F 0 F 1 #
-715 point $-1 7.9999999999999982 33.5 1.5 #
-716 point $-1 12.5 0.49999999999999983 4.75 #
-717 coedge $-1 $790 $790 $791 $792 reversed $584 $-1 #
-718 face $-1 $793 $794 $3 $-1 $795 forward single #
-719 plane-surface $-1 0 0 1.5 0 0 1 1 0 0 forward_v F 7.4599999999999991 F
35.539999999999999 F -0.77000000000000002 F 39.270000000000003 #
-720 ptlist-eye-attrib $-1 $-1 $-1 $588 #
-721 straight-curve $-1 12.500000000000002 38 2.5999999999999996
0.49999999999999822 0.5 0 F 0 F 1 #
-722 ptlist-eye-attrib $-1 $-1 $-1 $589 #
-723 ellipse-curve $-1 4.0499999999999998 19.75 0 0 0 1 -1.0999999999999996 0 0
1 F 0 F 3.1415926535897931 #
-724 coedge $-1 $598 $598 $596 $725 reversed $727 $-1 #
-725 edge $796 $604 0 $601 3.1415926535897931 $596 $797 forward 7 unknown #
-726 cone-surface $-1 21.5 19.25 4.75 0 0 1 -1.0999999999999999 0 0 1 I I 0 1 1
forward I I I I #
-727 loop $-1 $-1 $598 $798 #
-728 ptlist-eye-attrib $-1 $-1 $-1 $599 #
-729 ellipse-curve $-1 21.5 19.25 4.75 0 0 1 1.1000000000000014 0 0 1 F 0 F
3.1415926535897931 #
-730 point $-1 22.600000000000001 19.25 4.75 #
-731 point $-1 20.399999999999999 19.25 4.75 #
-732 ptlist-eye-attrib $-1 $-1 $-1 $608 #
-733 straight-curve $-1 8 29 1.5 6 0 0 F 0 F 1 #
-734 point $-1 8 29 1.5 #
-735 ptlist-eye-attrib $-1 $-1 $-1 $614 #
-736 straight-curve $-1 8 9 1.5 6 0 0 F 0 F 1 #
-737 point $-1 8 9 1.5 #
-738 ptlist-eye-attrib $-1 $-1 $-1 $624 #
-739 straight-curve $-1 35 9 1.5 -6 0 0 F 0 F 1 #
-740 point $-1 35 5 1.5 #
-741 coedge $-1 $799 $633 $673 $769 reversed $495 $-1 #
-742 ptlist-eye-attrib $-1 $-1 $-1 $634 #
-743 vertex $-1 $639 $800 #
-744 straight-curve $-1 35 33.5 1.5 0 0 1.0999999999999996 F 0 F 1 #
-745 point $-1 35 33.5 1.5 #
-746 ptlist-eye-attrib $-1 $-1 $-1 $639 #
-747 straight-curve $-1 35 33.5 2.5999999999999996 0 -28.5 0 F 0 F 1 #
-748 point $-1 35 5 2.5999999999999996 #
-749 face $-1 $181 $801 $3 $-1 $802 forward single #
-750 loop $-1 $-1 $762 $643 #
-751 plane-surface $-1 34.5 38 2.5999999999999996 0 1 0 -1 0 0 forward_v F
-0.080000000000000002 F 4.0800000000000001 F -0.069494532159012329 F
2.219494532159012 #
-752 point $-1 13 38.5 1.5 #
-753 coedge $-1 $673 $649 $803 $804 reversed $24 $-1 #
-754 coedge $-1 $762 $805 $649 $755 forward $750 $-1 #
-755 edge $806 $807 0 $757 1 $754 $808 forward 7 unknown #
-756 ptlist-eye-attrib $-1 $-1 $-1 $650 #
-757 vertex $-1 $755 $809 #
-758 straight-curve $-1 30 38.5 2.5999999999999996 0.5 -0.5 0 F 0 F 1 #
-759 ptlist-eye-attrib $-1 $-1 $-1 $655 #
-760 straight-curve $-1 30 38.5 1.5 5 -5 0 F 0 F 1 #
-761 coedge $-1 $656 $799 $810 $811 reversed $495 $-1 #
-762 coedge $-1 $812 $754 $656 $763 forward $750 $-1 #
-763 edge $813 $757 0 $814 1 $762 $815 forward 7 unknown #
-764 plane-surface $-1 12.5 38 2.5999999999999996 0 1 0 -1 0 0 forward_v F
-0.080000000000000279 F 4.0800000000000143 F -0.069494532159012329 F
2.219494532159012 #
-765 loop $-1 $-1 $816 $661 #
-766 plane-surface $-1 0 0 4.75 0 0 1 1 0 0 forward_v F 7.9800000000000004 F
35.020000000000003 F -0.25 F 38.75 #
-767 coedge $-1 $779 $706 $776 $817 forward $662 $-1 #
-768 edge $818 $682 0 $686 1 $676 $819 forward 7 unknown #
-769 edge $820 $821 0 $743 1 $741 $822 forward 7 unknown #
-770 ptlist-eye-attrib $-1 $-1 $-1 $677 #
-771 straight-curve $-1 34.5 4.5 2.5999999999999996 0 0 2.1500000000000004 F 0
F 1 #
-772 ptlist-eye-attrib $-1 $-1 $-1 $680 #
-773 straight-curve $-1 30.5 0.50000000000000089 4.75 4 -8.8817841970012523e-16
0 F 0 F 1 #
-774 point $-1 34.5 0.5 4.75 #
-775 point $-1 34.5 4.5 4.75 #
-776 coedge $-1 $696 $695 $767 $817 reversed $697 $-1 #
-777 edge $823 $699 0 $787 1 $696 $824 forward 7 unknown #
-778 point $-1 12.500000000000002 38 2.5999999999999996 #
-779 coedge $-1 $706 $767 $701 $780 forward $662 $-1 #
-780 edge $825 $782 0 $709 1 $701 $826 forward 7 unknown #
-781 ptlist-eye-attrib $-1 $-1 $-1 $702 #
-782 vertex $-1 $780 $827 #
-783 straight-curve $-1 8.4999999999999947 38 2.5999999999999996 0 0
2.1500000000000004 F 0 F 1 #
-784 ptlist-eye-attrib $-1 $-1 $-1 $704 #
-785 straight-curve $-1 7.9999999999999982 33.5 1.5 5.0000000000000018 5 0 F 0
F 1 #
-786 ptlist-eye-attrib $-1 $-1 $-1 $707 #
-787 vertex $-1 $707 $828 #
-788 straight-curve $-1 8.5 34 4.75 4.0000000000000036 4 0 F 0 F 1 #
-789 point $-1 8.5 34 4.75 #
-790 coedge $-1 $717 $717 $829 $830 reversed $584 $-1 #
-791 coedge $-1 $831 $832 $717 $792 forward $833 $-1 #
-792 edge $834 $835 0 $836 3.1415926535897931 $791 $837 forward 7 unknown #
-793 face $-1 $798 $833 $3 $-1 $838 forward single #
-794 loop $-1 $-1 $839 $718 #
-795 cone-surface $-1 21.5 19.25 1.5 0 0 1 -4 0 0 1 I I 0 1 1 forward I I I I
#
-796 ptlist-eye-attrib $-1 $-1 $-1 $725 #
-797 ellipse-curve $-1 21.5 19.25 4.75 0 0 1 -1.1000000000000014 0 0 1 F 0 F
3.1415926535897931 #
-798 face $-1 $597 $840 $3 $-1 $841 forward single #
-799 coedge $-1 $761 $741 $842 $843 forward $495 $-1 #
-800 point $-1 35 33.5 2.5999999999999996 #
-801 loop $-1 $-1 $844 $749 #
-802 plane-surface $-1 34.5 34 2.5999999999999996 1 0 0 0 1 0 forward_v F
-0.080000000000007246 F 4.0800000000000001 F -0.069494532159012329 F
2.219494532159012 #
-803 coedge $-1 $844 $842 $753 $804 forward $801 $-1 #
-804 edge $845 $821 0 $807 1 $803 $846 forward 7 unknown #
-805 coedge $-1 $754 $812 $844 $847 reversed $750 $-1 #
-806 ptlist-eye-attrib $-1 $-1 $-1 $755 #
-807 vertex $-1 $804 $848 #
-808 straight-curve $-1 34.5 38 2.5999999999999996 -4 0 0 F 0 F 1 #
-809 point $-1 30.5 38 2.5999999999999996 #
-810 coedge $-1 $816 $849 $761 $811 forward $765 $-1 #
-811 edge $850 $814 0 $851 1 $761 $852 forward 7 unknown #
-812 coedge $-1 $805 $762 $849 $853 reversed $750 $-1 #
-813 ptlist-eye-attrib $-1 $-1 $-1 $763 #
-814 vertex $-1 $811 $854 #
-815 straight-curve $-1 30.5 38 2.5999999999999996 0 0 2.1500000000000004 F 0 F
1 #
-816 coedge $-1 $849 $810 $855 $856 forward $765 $-1 #
-817 edge $857 $787 0 $782 1 $776 $858 forward 7 unknown #
-818 ptlist-eye-attrib $-1 $-1 $-1 $768 #
-819 straight-curve $-1 34.5 0.5 4.75 0 4 0 F 0 F 1 #
-820 ptlist-eye-attrib $-1 $-1 $-1 $769 #
-821 vertex $-1 $769 $859 #
-822 straight-curve $-1 34.5 34 2.5999999999999996 0.5 -0.5 0 F 0 F 1 #
-823 ptlist-eye-attrib $-1 $-1 $-1 $777 #
-824 straight-curve $-1 12.500000000000002 38 2.5999999999999996
1.7763568394002505e-15 0 2.1500000000000004 F 0 F 1 #
-825 ptlist-eye-attrib $-1 $-1 $-1 $780 #
-826 straight-curve $-1 8.4999999999999947 38 4.75 5.3290705182007514e-15 -4 0
F 0 F 1 #
-827 point $-1 8.4999999999999947 38 4.75 #
-828 point $-1 12.500000000000004 38 4.75 #
-829 coedge $-1 $839 $860 $790 $830 forward $794 $-1 #
-830 edge $861 $836 0 $835 3.1415926535897931 $829 $862 forward 7 unknown #
-831 coedge $-1 $863 $791 $860 $864 forward $833 $-1 #
-832 coedge $-1 $791 $863 $839 $865 reversed $833 $-1 #
-833 loop $-1 $-1 $831 $793 #
-834 ptlist-eye-attrib $-1 $-1 $-1 $792 #
-835 vertex $-1 $830 $866 #
-836 vertex $-1 $830 $867 #
-837 ellipse-curve $-1 21.5 19.25 1.5 0 0 1 4 0 0 1 F 0 F 3.1415926535897931 #
-838 cone-surface $-1 21.5 19.25 1.5 0 0 1 -4 0 0 1 I I 0 1 1 forward I I I I
#
-839 coedge $-1 $868 $829 $832 $865 forward $794 $-1 #
-840 loop $-1 $727 $869 $798 #
-841 plane-surface $-1 0 0 4.75 0 0 1 -1 0 0 forward_v F -25.66 F -17.34 F
-23.416593680985446 F -15.083406319014554 #
-842 coedge $-1 $803 $855 $799 $843 reversed $801 $-1 #
-843 edge $870 $821 0 $851 1 $842 $871 forward 7 unknown #
-844 coedge $-1 $855 $803 $805 $847 forward $801 $-1 #
-845 ptlist-eye-attrib $-1 $-1 $-1 $804 #
-846 straight-curve $-1 34.5 33.999999999999993 2.5999999999999996 0
4.0000000000000071 0 F 0 F 1 #
-847 edge $872 $807 0 $873 1 $844 $874 forward 7 unknown #
-848 point $-1 34.5 38 2.5999999999999996 #
-849 coedge $-1 $810 $816 $812 $853 forward $765 $-1 #
-850 ptlist-eye-attrib $-1 $-1 $-1 $811 #
-851 vertex $-1 $811 $875 #
-852 straight-curve $-1 30.5 38 4.75 4 -4 0 F 0 F 1 #
-853 edge $876 $873 0 $814 1 $812 $877 forward 7 unknown #
-854 point $-1 30.5 38 4.75 #
-855 coedge $-1 $842 $844 $816 $856 reversed $801 $-1 #
-856 edge $878 $851 0 $873 1 $855 $879 forward 7 unknown #
-857 ptlist-eye-attrib $-1 $-1 $-1 $817 #
-858 straight-curve $-1 12.500000000000004 38 4.75 -4.0000000000000089 0 0 F 0
F 1 #
-859 point $-1 34.5 33.999999999999993 2.5999999999999996 #
-860 coedge $-1 $829 $868 $831 $864 reversed $794 $-1 #
-861 ptlist-eye-attrib $-1 $-1 $-1 $830 #
-862 ellipse-curve $-1 21.5 19.25 1.5 0 0 1 -4 0 0 1 F 0 F 3.1415926535897931
#
-863 coedge $-1 $832 $831 $869 $880 reversed $833 $-1 #
-864 edge $881 $836 0 $882 1 $831 $883 forward 7 unknown #
-865 edge $884 $835 0 $885 1 $832 $886 forward 7 unknown #
-866 point $-1 25.5 19.25 1.5 #
-867 point $-1 17.5 19.25 1.5 #
-868 coedge $-1 $860 $839 $887 $888 reversed $794 $-1 #
-869 coedge $-1 $887 $887 $863 $880 forward $840 $-1 #
-870 ptlist-eye-attrib $-1 $-1 $-1 $843 #
-871 straight-curve $-1 34.5 34 2.5999999999999996 0 0 2.1500000000000004 F 0 F
1 #
-872 ptlist-eye-attrib $-1 $-1 $-1 $847 #
-873 vertex $-1 $853 $889 #
-874 straight-curve $-1 34.5 38 2.5999999999999996 0 0 2.1500000000000004 F 0 F
1 #
-875 point $-1 34.5 34 4.75 #
-876 ptlist-eye-attrib $-1 $-1 $-1 $853 #
-877 straight-curve $-1 34.5 38 4.75 -4 0 0 F 0 F 1 #
-878 ptlist-eye-attrib $-1 $-1 $-1 $856 #
-879 straight-curve $-1 34.5 34 4.75 0 4 0 F 0 F 1 #
-880 edge $890 $885 0 $882 3.1415926535897931 $869 $891 forward 7 unknown #
-881 ptlist-eye-attrib $-1 $-1 $-1 $864 #
-882 vertex $-1 $864 $892 #
-883 straight-curve $-1 17.5 19.25 1.5 0 0 3.25 F 0 F 1 #
-884 ptlist-eye-attrib $-1 $-1 $-1 $865 #
-885 vertex $-1 $888 $893 #
-886 straight-curve $-1 25.5 19.25 1.5 0 0 3.25 F 0 F 1 #
-887 coedge $-1 $869 $869 $868 $888 forward $840 $-1 #
-888 edge $894 $882 0 $885 3.1415926535897931 $887 $895 forward 7 unknown #
-889 point $-1 34.5 38 4.75 #
-890 ptlist-eye-attrib $-1 $-1 $-1 $880 #
-891 ellipse-curve $-1 21.5 19.25 4.75 0 0 1 4 0 0 1 F 0 F 3.1415926535897931
#
-892 point $-1 17.5 19.25 4.75 #
-893 point $-1 25.5 19.25 4.75 #
-894 ptlist-eye-attrib $-1 $-1 $-1 $888 #
-895 ellipse-curve $-1 21.5 19.25 4.75 0 0 1 -4 0 0 1 F 0 F 3.1415926535897931
#
End-of-ACIS-data
