500 0 1 0 
58 PRO/ENGINEER BY PARAMETRIC TECHNOLOGY CORPORATION, 2019010 8 ACIS 7.0 24
Mon Jan 27 13:59:01 2025 
1 0.0063004542813608483 1e-10 
-0 body $-1 $1 $-1 $2 #
-1 lump $-1 $-1 $3 $0 #
-2 transform $-1 1 0 0 0 1 0 0 0 1 0 0 0 1 rotate no_reflect no_shear #
-3 shell $-1 $-1 $-1 $4 $-1 $1 #
-4 face $-1 $5 $6 $3 $-1 $7 forward single #
-5 face $-1 $8 $9 $3 $-1 $10 forward single #
-6 loop $-1 $11 $12 $4 #
-7 plane-surface $-1 0 200 1.7999999999999998 0 0 1 1 0 0 forward_v F
-13.779999999999999 F 13.779999999999999 F -20.02 F 20.02 #
-8 face $-1 $13 $14 $3 $-1 $15 forward single #
-9 loop $-1 $-1 $16 $5 #
-10 cone-surface $-1 0 200 3.2999999999999998 0 0 1 4 0 0 1 I I 0 1 1 forward I
I I I #
-11 loop $-1 $-1 $17 $4 #
-12 coedge $-1 $18 $19 $20 $21 forward $6 $-1 #
-13 face $-1 $22 $23 $3 $-1 $24 forward single #
-14 loop $-1 $25 $26 $8 #
-15 plane-surface $-1 0 0 3.5499999999999998 0 0 1 1 0 0 forward_v F -13.26 F
13.26 F 180.5 F 219.5 #
-16 coedge $-1 $27 $28 $29 $30 reversed $9 $-1 #
-17 coedge $-1 $31 $31 $32 $33 forward $11 $-1 #
-18 coedge $-1 $34 $12 $35 $36 forward $6 $-1 #
-19 coedge $-1 $12 $37 $38 $39 reversed $6 $-1 #
-20 coedge $-1 $40 $41 $12 $21 reversed $42 $-1 #
-21 edge $43 $44 0 $45 1 $20 $46 forward 7 unknown #
-22 face $-1 $47 $48 $3 $-1 $49 forward single #
-23 loop $-1 $-1 $50 $13 #
-24 plane-surface $-1 0 0 3.5499999999999998 0 0 1 1 0 0 forward_v F -13.26 F
13.26 F 180.5 F 219.5 #
-25 loop $-1 $-1 $51 $8 #
-26 coedge $-1 $52 $52 $28 $53 forward $14 $-1 #
-27 coedge $-1 $54 $16 $31 $55 reversed $9 $-1 #
-28 coedge $-1 $16 $54 $26 $53 reversed $9 $-1 #
-29 coedge $-1 $56 $32 $16 $30 forward $57 $-1 #
-30 edge $58 $59 0 $60 1 $29 $61 forward 7 unknown #
-31 coedge $-1 $17 $17 $27 $55 forward $11 $-1 #
-32 coedge $-1 $29 $62 $17 $33 reversed $57 $-1 #
-33 edge $63 $59 0 $64 3.1415926535897931 $32 $65 forward 7 unknown #
-34 coedge $-1 $66 $18 $67 $68 forward $6 $-1 #
-35 coedge $-1 $69 $70 $18 $36 reversed $71 $-1 #
-36 edge $72 $45 0 $73 1 $35 $74 forward 7 unknown #
-37 coedge $-1 $19 $75 $76 $77 reversed $6 $-1 #
-38 coedge $-1 $78 $79 $19 $39 forward $80 $-1 #
-39 edge $81 $44 0 $82 1 $38 $83 forward 7 unknown #
-40 coedge $-1 $84 $20 $79 $85 forward $42 $-1 #
-41 coedge $-1 $20 $84 $69 $86 reversed $42 $-1 #
-42 loop $-1 $-1 $41 $87 #
-43 ptlist-eye-attrib $-1 $-1 $-1 $21 #
-44 vertex $-1 $39 $88 #
-45 vertex $-1 $36 $89 #
-46 straight-curve $-1 -13.25 193 1.8000000000000003 0 -7.25
-2.2204460492503131e-16 F 0 F 1 #
-47 face $-1 $90 $91 $3 $-1 $92 forward single #
-48 loop $-1 $-1 $93 $22 #
-49 plane-surface $-1 0 0 3.5499999999999998 0 0 1 1 0 0 forward_v F -13.26 F
13.26 F 180.5 F 219.5 #
-50 coedge $-1 $94 $95 $96 $97 reversed $23 $-1 #
-51 coedge $-1 $98 $98 $99 $100 reversed $25 $-1 #
-52 coedge $-1 $26 $26 $56 $101 forward $14 $-1 #
-53 edge $102 $60 0 $103 3.1415926535897931 $26 $104 forward 7 unknown #
-54 coedge $-1 $28 $27 $62 $105 forward $9 $-1 #
-55 edge $106 $64 0 $59 3.1415926535897931 $27 $107 forward 7 unknown #
-56 coedge $-1 $62 $29 $52 $101 reversed $57 $-1 #
-57 loop $-1 $-1 $62 $108 #
-58 ptlist-eye-attrib $-1 $-1 $-1 $30 #
-59 vertex $-1 $55 $109 #
-60 vertex $-1 $53 $110 #
-61 straight-curve $-1 -4 200 1.8 0 0 1.7499999999999998 F 0 F 1 #
-62 coedge $-1 $32 $56 $54 $105 reversed $57 $-1 #
-63 ptlist-eye-attrib $-1 $-1 $-1 $33 #
-64 vertex $-1 $55 $111 #
-65 ellipse-curve $-1 0 200 1.7999999999999998 0 0 -1 -4 0 0 1 F 0 F
3.1415926535897931 #
-66 coedge $-1 $112 $34 $113 $114 forward $6 $-1 #
-67 coedge $-1 $115 $116 $34 $68 reversed $117 $-1 #
-68 edge $118 $73 0 $119 1 $67 $120 forward 7 unknown #
-69 coedge $-1 $121 $35 $41 $86 forward $71 $-1 #
-70 coedge $-1 $35 $122 $115 $123 forward $71 $-1 #
-71 loop $-1 $-1 $124 $125 #
-72 ptlist-eye-attrib $-1 $-1 $-1 $36 #
-73 vertex $-1 $68 $126 #
-74 straight-curve $-1 -13.25 185.75 1.8 4.9999999999999893 -5 0 F 0 F 1 #
-75 coedge $-1 $37 $127 $128 $129 forward $6 $-1 #
-76 coedge $-1 $130 $131 $37 $77 forward $132 $-1 #
-77 edge $133 $82 0 $134 1 $76 $135 forward 7 unknown #
-78 coedge $-1 $136 $38 $131 $137 forward $80 $-1 #
-79 coedge $-1 $38 $138 $40 $85 reversed $80 $-1 #
-80 loop $-1 $-1 $79 $139 #
-81 ptlist-eye-attrib $-1 $-1 $-1 $39 #
-82 vertex $-1 $39 $140 #
-83 straight-curve $-1 -13.25 193 1.8000000000000003 3.25 0 0 F 0 F 1 #
-84 coedge $-1 $41 $40 $141 $142 reversed $42 $-1 #
-85 edge $143 $44 0 $144 1 $79 $145 forward 7 unknown #
-86 edge $146 $45 0 $147 1 $41 $148 forward 7 unknown #
-87 face $-1 $149 $42 $3 $-1 $150 forward single #
-88 point $-1 -13.25 193 1.8000000000000003 #
-89 point $-1 -13.25 185.75 1.8 #
-90 face $-1 $108 $151 $3 $-1 $152 forward single #
-91 loop $-1 $-1 $153 $47 #
-92 plane-surface $-1 0 0 3.5499999999999998 0 0 1 1 0 0 forward_v F -13.26 F
13.26 F 180.5 F 219.5 #
-93 coedge $-1 $154 $155 $156 $157 reversed $48 $-1 #
-94 coedge $-1 $95 $50 $158 $159 reversed $23 $-1 #
-95 coedge $-1 $50 $94 $160 $161 reversed $23 $-1 #
-96 coedge $-1 $162 $163 $50 $97 forward $164 $-1 #
-97 edge $165 $166 0 $167 1 $96 $168 forward 7 unknown #
-98 coedge $-1 $51 $51 $169 $170 reversed $25 $-1 #
-99 coedge $-1 $171 $172 $51 $100 forward $173 $-1 #
-100 edge $174 $175 0 $176 3.1415926535897931 $99 $177 forward 7 unknown #
-101 edge $178 $103 0 $60 3.1415926535897931 $56 $179 forward 7 unknown #
-102 ptlist-eye-attrib $-1 $-1 $-1 $53 #
-103 vertex $-1 $53 $180 #
-104 ellipse-curve $-1 0 200 3.5499999999999998 0 0 1 -4 0 0 1 F 0 F
3.1415926535897931 #
-105 edge $181 $64 0 $103 1 $62 $182 forward 7 unknown #
-106 ptlist-eye-attrib $-1 $-1 $-1 $55 #
-107 ellipse-curve $-1 0 200 1.7999999999999998 0 0 -1 4 0 0 1 F 0 F
3.1415926535897931 #
-108 face $-1 $125 $57 $3 $-1 $183 forward single #
-109 point $-1 -4 200 1.7999999999999998 #
-110 point $-1 -4 200 3.5499999999999998 #
-111 point $-1 4 200 1.7999999999999998 #
-112 coedge $-1 $184 $66 $185 $186 forward $6 $-1 #
-113 coedge $-1 $187 $188 $66 $114 reversed $189 $-1 #
-114 edge $190 $119 0 $191 1 $113 $192 forward 7 unknown #
-115 coedge $-1 $193 $67 $70 $123 reversed $117 $-1 #
-116 coedge $-1 $67 $193 $187 $194 reversed $117 $-1 #
-117 loop $-1 $-1 $116 $195 #
-118 ptlist-eye-attrib $-1 $-1 $-1 $68 #
-119 vertex $-1 $114 $196 #
-120 straight-curve $-1 -8.2500000000000107 180.75 1.8 16.500000000000028 0 0 F
0 F 1 #
-121 coedge $-1 $197 $69 $198 $199 reversed $71 $-1 #
-122 coedge $-1 $70 $124 $200 $201 reversed $71 $-1 #
-123 edge $202 $203 0 $73 1 $115 $204 forward 7 unknown #
-124 coedge $-1 $122 $160 $205 $206 forward $71 $-1 #
-125 face $-1 $207 $71 $3 $-1 $208 forward single #
-126 point $-1 -8.2500000000000107 180.75 1.8 #
-127 coedge $-1 $75 $209 $210 $211 forward $6 $-1 #
-128 coedge $-1 $212 $213 $75 $129 reversed $214 $-1 #
-129 edge $215 $216 0 $134 1 $128 $217 forward 7 unknown #
-130 coedge $-1 $218 $76 $213 $219 forward $132 $-1 #
-131 coedge $-1 $76 $218 $78 $137 reversed $132 $-1 #
-132 loop $-1 $-1 $130 $220 #
-133 ptlist-eye-attrib $-1 $-1 $-1 $77 #
-134 vertex $-1 $77 $221 #
-135 straight-curve $-1 -10 193 1.8000000000000003 0 14 0 F 0 F 1 #
-136 coedge $-1 $222 $78 $223 $224 reversed $80 $-1 #
-137 edge $225 $82 0 $226 1 $131 $227 forward 7 unknown #
-138 coedge $-1 $79 $222 $228 $229 forward $80 $-1 #
-139 face $-1 $220 $80 $3 $-1 $230 reversed single #
-140 point $-1 -10 193 1.8000000000000003 #
-141 coedge $-1 $228 $198 $84 $142 forward $231 $-1 #
-142 edge $232 $147 0 $144 1 $84 $233 forward 7 unknown #
-143 ptlist-eye-attrib $-1 $-1 $-1 $85 #
-144 vertex $-1 $229 $234 #
-145 straight-curve $-1 -13.25 193 1.8000000000000003 0 0 1.1000000000000001 F
0 F 1 #
-146 ptlist-eye-attrib $-1 $-1 $-1 $86 #
-147 vertex $-1 $199 $235 #
-148 straight-curve $-1 -13.25 185.75 1.8 5.3290705182007514e-15 0
1.1000000000000003 F 0 F 1 #
-149 face $-1 $139 $236 $3 $-1 $237 forward single #
-150 plane-surface $-1 -13.25 180.75 6 1 0 0 0 1 0 forward_v F
4.4299999999999713 F 34.07 F -4.2756084757153578 F -3.0243915242846406 #
-151 loop $-1 $-1 $238 $90 #
-152 plane-surface $-1 0 0 3.5499999999999998 0 0 1 1 0 0 forward_v F -13.26 F
13.26 F 180.5 F 219.5 #
-153 coedge $-1 $239 $240 $241 $242 reversed $91 $-1 #
-154 coedge $-1 $155 $93 $243 $244 reversed $48 $-1 #
-155 coedge $-1 $93 $154 $245 $246 reversed $48 $-1 #
-156 coedge $-1 $247 $248 $93 $157 forward $249 $-1 #
-157 edge $250 $251 0 $252 1 $156 $253 forward 7 unknown #
-158 coedge $-1 $254 $205 $94 $159 forward $255 $-1 #
-159 edge $256 $257 0 $166 1 $158 $258 forward 7 unknown #
-160 coedge $-1 $124 $197 $95 $161 forward $71 $-1 #
-161 edge $259 $167 0 $257 1 $160 $260 forward 7 unknown #
-162 coedge $-1 $261 $96 $197 $262 forward $164 $-1 #
-163 coedge $-1 $96 $261 $254 $263 reversed $164 $-1 #
-164 loop $-1 $-1 $162 $207 #
-165 ptlist-eye-attrib $-1 $-1 $-1 $97 #
-166 vertex $-1 $159 $264 #
-167 vertex $-1 $161 $265 #
-168 straight-curve $-1 -12.75 181.25 3.5499999999999998 7.1054273576010019e-15
3.9999999999999432 0 F 0 F 1 #
-169 coedge $-1 $266 $267 $98 $170 forward $268 $-1 #
-170 edge $269 $176 0 $175 3.1415926535897931 $169 $270 forward 7 unknown #
-171 coedge $-1 $271 $99 $267 $272 reversed $173 $-1 #
-172 coedge $-1 $99 $271 $266 $273 forward $173 $-1 #
-173 loop $-1 $-1 $171 $274 #
-174 ptlist-eye-attrib $-1 $-1 $-1 $100 #
-175 vertex $-1 $170 $275 #
-176 vertex $-1 $170 $276 #
-177 ellipse-curve $-1 0 200 3.5499999999999998 0 0 1 -1.0999999999999999 0 0 1
F 0 F 3.1415926535897931 #
-178 ptlist-eye-attrib $-1 $-1 $-1 $101 #
-179 ellipse-curve $-1 0 200 3.5499999999999998 0 0 1 4 0 0 1 F 0 F
3.1415926535897931 #
-180 point $-1 4 200 3.5499999999999998 #
-181 ptlist-eye-attrib $-1 $-1 $-1 $105 #
-182 straight-curve $-1 4 200 1.8 0 0 1.7499999999999998 F 0 F 1 #
-183 cone-surface $-1 0 200 3.2999999999999998 0 0 1 4 0 0 1 I I 0 1 1 forward
I I I I #
-184 coedge $-1 $277 $112 $278 $279 forward $6 $-1 #
-185 coedge $-1 $280 $281 $112 $186 reversed $282 $-1 #
-186 edge $283 $191 0 $284 1 $185 $285 forward 7 unknown #
-187 coedge $-1 $286 $113 $116 $194 forward $189 $-1 #
-188 coedge $-1 $113 $287 $280 $288 forward $189 $-1 #
-189 loop $-1 $-1 $289 $290 #
-190 ptlist-eye-attrib $-1 $-1 $-1 $114 #
-191 vertex $-1 $186 $291 #
-192 straight-curve $-1 8.2500000000000178 180.75 1.8 4.9999999999999822 5 0 F
0 F 1 #
-193 coedge $-1 $116 $115 $292 $293 reversed $117 $-1 #
-194 edge $294 $119 0 $295 1 $116 $296 forward 7 unknown #
-195 face $-1 $-1 $117 $3 $-1 $297 forward single #
-196 point $-1 8.2500000000000178 180.75 1.8 #
-197 coedge $-1 $160 $121 $162 $262 reversed $71 $-1 #
-198 coedge $-1 $141 $298 $121 $199 forward $231 $-1 #
-199 edge $299 $300 0 $147 1 $198 $301 forward 7 unknown #
-200 coedge $-1 $302 $292 $122 $201 forward $231 $-1 #
-201 edge $303 $203 0 $304 1 $200 $305 forward 7 unknown #
-202 ptlist-eye-attrib $-1 $-1 $-1 $123 #
-203 vertex $-1 $123 $306 #
-204 straight-curve $-1 -8.25 180.75 2.9000000000000004 -1.0658141036401503e-14
0 -1.1000000000000003 F 0 F 1 #
-205 coedge $-1 $158 $307 $124 $206 reversed $255 $-1 #
-206 edge $308 $257 0 $304 1 $205 $309 forward 7 unknown #
-207 face $-1 $310 $164 $3 $-1 $311 reversed single #
-208 plane-surface $-1 -8.25 180.75 3.2999999999999998 0.70710678118654746
0.70710678118654746 0 -0.70710678118654746 0.70710678118654746 0 forward_v F
-0.1414213562373095 F 7.2124891681027838 F -1.5756084757153588 F
0.32560847571535878 #
-209 coedge $-1 $127 $277 $312 $313 forward $6 $-1 #
-210 coedge $-1 $314 $315 $127 $211 reversed $236 $-1 #
-211 edge $316 $317 0 $216 1 $210 $318 forward 7 unknown #
-212 coedge $-1 $319 $128 $315 $320 forward $214 $-1 #
-213 coedge $-1 $128 $321 $130 $219 reversed $214 $-1 #
-214 loop $-1 $-1 $322 $323 #
-215 ptlist-eye-attrib $-1 $-1 $-1 $129 #
-216 vertex $-1 $129 $324 #
-217 straight-curve $-1 -13.25 207 1.8000000000000003 3.25 0 0 F 0 F 1 #
-218 coedge $-1 $131 $130 $325 $326 reversed $132 $-1 #
-219 edge $327 $134 0 $328 1 $130 $329 forward 7 unknown #
-220 face $-1 $330 $132 $3 $-1 $331 reversed single #
-221 point $-1 -10 207 1.8000000000000003 #
-222 coedge $-1 $138 $136 $332 $333 forward $80 $-1 #
-223 coedge $-1 $325 $334 $136 $224 forward $335 $-1 #
-224 edge $336 $337 0 $226 1 $136 $338 forward 7 unknown #
-225 ptlist-eye-attrib $-1 $-1 $-1 $137 #
-226 vertex $-1 $326 $339 #
-227 straight-curve $-1 -10 193 1.8000000000000003 0 0 -1.4999999999999998 F 0
F 1 #
-228 coedge $-1 $340 $141 $138 $229 reversed $231 $-1 #
-229 edge $341 $342 0 $144 1 $138 $343 forward 7 unknown #
-230 plane-surface $-1 -15 193 7 0 -1 0 1 0 0 forward_v F -0.10000000000000001
F 5.0999999999999996 F -6.7756084757153578 F -4.0243915242846411 #
-231 loop $-1 $344 $345 $346 #
-232 ptlist-eye-attrib $-1 $-1 $-1 $142 #
-233 straight-curve $-1 -13.249999999999995 185.75 2.9000000000000004
-5.3290705182007514e-15 7.25 0 F 0 F 1 #
-234 point $-1 -13.25 193 2.9000000000000004 #
-235 point $-1 -13.249999999999995 185.75 2.9000000000000004 #
-236 loop $-1 $-1 $315 $149 #
-237 plane-surface $-1 -13.25 180.75 6 1 0 0 0 1 0 forward_v F
4.4299999999999713 F 34.07 F -4.2756084757153578 F -3.0243915242846406 #
-238 coedge $-1 $347 $348 $349 $350 reversed $151 $-1 #
-239 coedge $-1 $240 $153 $351 $352 reversed $91 $-1 #
-240 coedge $-1 $153 $239 $353 $354 forward $91 $-1 #
-241 coedge $-1 $355 $356 $153 $242 forward $357 $-1 #
-242 edge $358 $359 0 $360 1 $241 $361 forward 7 unknown #
-243 coedge $-1 $362 $363 $154 $244 forward $364 $-1 #
-244 edge $365 $366 0 $251 1 $243 $367 forward 7 unknown #
-245 coedge $-1 $368 $369 $155 $246 forward $370 $-1 #
-246 edge $371 $252 0 $366 1 $245 $372 forward 7 unknown #
-247 coedge $-1 $373 $156 $369 $374 forward $249 $-1 #
-248 coedge $-1 $156 $373 $362 $375 reversed $249 $-1 #
-249 loop $-1 $-1 $247 $376 #
-250 ptlist-eye-attrib $-1 $-1 $-1 $157 #
-251 vertex $-1 $244 $377 #
-252 vertex $-1 $246 $378 #
-253 straight-curve $-1 12.75 218.75 3.5499999999999998 3.5527136788005009e-15
-4 0 F 0 F 1 #
-254 coedge $-1 $307 $158 $163 $263 forward $255 $-1 #
-255 loop $-1 $-1 $254 $379 #
-256 ptlist-eye-attrib $-1 $-1 $-1 $159 #
-257 vertex $-1 $161 $380 #
-258 straight-curve $-1 -8.7499999999999947 181.25 3.5499999999999998
-4.0000000000000053 0 0 F 0 F 1 #
-259 ptlist-eye-attrib $-1 $-1 $-1 $161 #
-260 straight-curve $-1 -12.749999999999993 185.24999999999994
3.5499999999999998 3.9999999999999982 -3.9999999999999432 0 F 0 F 1 #
-261 coedge $-1 $163 $162 $298 $381 reversed $164 $-1 #
-262 edge $382 $167 0 $300 1 $162 $383 forward 7 unknown #
-263 edge $384 $166 0 $385 1 $254 $386 forward 7 unknown #
-264 point $-1 -12.75 181.25 3.5499999999999998 #
-265 point $-1 -12.749999999999993 185.24999999999994 3.5499999999999998 #
-266 coedge $-1 $387 $169 $172 $273 reversed $268 $-1 #
-267 coedge $-1 $169 $387 $171 $272 forward $268 $-1 #
-268 loop $-1 $-1 $266 $388 #
-269 ptlist-eye-attrib $-1 $-1 $-1 $170 #
-270 ellipse-curve $-1 0 200 3.5499999999999998 0 0 1 1.0999999999999999 0 0 1
F 0 F 3.1415926535897931 #
-271 coedge $-1 $172 $171 $389 $390 reversed $173 $-1 #
-272 edge $391 $392 0 $176 1 $171 $393 forward 7 unknown #
-273 edge $394 $395 0 $175 1 $172 $396 forward 7 unknown #
-274 face $-1 $397 $173 $3 $-1 $398 reversed single #
-275 point $-1 -1.0999999999999999 200 3.5499999999999998 #
-276 point $-1 1.0999999999999999 200 3.5499999999999998 #
-277 coedge $-1 $209 $184 $399 $400 forward $6 $-1 #
-278 coedge $-1 $401 $402 $184 $279 reversed $370 $-1 #
-279 edge $403 $284 0 $404 1 $278 $405 forward 7 unknown #
-280 coedge $-1 $406 $185 $188 $288 reversed $282 $-1 #
-281 coedge $-1 $185 $406 $401 $407 reversed $282 $-1 #
-282 loop $-1 $-1 $281 $408 #
-283 ptlist-eye-attrib $-1 $-1 $-1 $186 #
-284 vertex $-1 $279 $409 #
-285 straight-curve $-1 13.25 185.75 1.8 -5.3290705182007514e-15 28.5 0 F 0 F 1
#
-286 coedge $-1 $410 $187 $411 $412 reversed $189 $-1 #
-287 coedge $-1 $188 $289 $413 $414 reversed $189 $-1 #
-288 edge $415 $416 0 $191 1 $188 $417 forward 7 unknown #
-289 coedge $-1 $287 $353 $418 $419 forward $189 $-1 #
-290 face $-1 $195 $189 $3 $-1 $420 forward single #
-291 point $-1 13.25 185.75 1.8 #
-292 coedge $-1 $200 $411 $193 $293 forward $231 $-1 #
-293 edge $421 $295 0 $203 1 $193 $422 forward 7 unknown #
-294 ptlist-eye-attrib $-1 $-1 $-1 $194 #
-295 vertex $-1 $293 $423 #
-296 straight-curve $-1 8.2500000000000178 180.75 1.8 -5.3290705182007514e-15 0
1.1000000000000003 F 0 F 1 #
-297 plane-surface $-1 13.25 180.75 6 0 1 0 -1 0 0 forward_v F
4.6699999999999733 F 21.830000000000002 F -4.2756084757153578 F
-3.0243915242846406 #
-298 coedge $-1 $198 $302 $261 $381 forward $231 $-1 #
-299 ptlist-eye-attrib $-1 $-1 $-1 $199 #
-300 vertex $-1 $262 $424 #
-301 straight-curve $-1 -12.749999999999995 185.24999999999994
2.8999999999999995 -0.5 0.50000000000005684 0 F 0 F 1 #
-302 coedge $-1 $298 $200 $307 $425 forward $231 $-1 #
-303 ptlist-eye-attrib $-1 $-1 $-1 $201 #
-304 vertex $-1 $201 $426 #
-305 straight-curve $-1 -8.25 180.75 2.8999999999999995 -0.5 0.5 0 F 0 F 1 #
-306 point $-1 -8.25 180.75 2.9000000000000004 #
-307 coedge $-1 $205 $254 $302 $425 reversed $255 $-1 #
-308 ptlist-eye-attrib $-1 $-1 $-1 $206 #
-309 straight-curve $-1 -8.7499999999999947 181.25 3.5499999999999998
-5.3290705182007514e-15 0 -0.64999999999999947 F 0 F 1 #
-310 face $-1 $427 $428 $3 $-1 $429 reversed single #
-311 plane-surface $-1 -12.75 181.25 7 1 0 0 0 1 0 forward_v F -0.75 F 38.25 F
-4.1756084757153582 F -3.3743915242846407 #
-312 coedge $-1 $430 $431 $209 $313 reversed $432 $-1 #
-313 edge $433 $434 0 $317 1 $312 $435 forward 7 unknown #
-314 coedge $-1 $436 $210 $431 $437 reversed $236 $-1 #
-315 coedge $-1 $210 $436 $212 $320 reversed $236 $-1 #
-316 ptlist-eye-attrib $-1 $-1 $-1 $211 #
-317 vertex $-1 $211 $438 #
-318 straight-curve $-1 -13.25 214.25 1.8 0 -7.25 2.2204460492503131e-16 F 0 F
1 #
-319 coedge $-1 $322 $212 $439 $440 forward $214 $-1 #
-320 edge $441 $216 0 $442 1 $315 $443 forward 7 unknown #
-321 coedge $-1 $213 $322 $444 $445 reversed $214 $-1 #
-322 coedge $-1 $321 $319 $446 $447 forward $214 $-1 #
-323 face $-1 $87 $214 $3 $-1 $448 reversed single #
-324 point $-1 -13.25 207 1.8000000000000003 #
-325 coedge $-1 $444 $223 $218 $326 forward $335 $-1 #
-326 edge $449 $226 0 $328 1 $218 $450 forward 7 unknown #
-327 ptlist-eye-attrib $-1 $-1 $-1 $219 #
-328 vertex $-1 $445 $451 #
-329 straight-curve $-1 -10 207 1.8000000000000003 0 0 -1.4999999999999998 F 0
F 1 #
-330 face $-1 $452 $432 $3 $-1 $453 forward single #
-331 plane-surface $-1 -10 193 7 1 0 0 0 1 0 forward_v F -0.28000000000000003 F
14.279999999999999 F -6.7756084757153578 F -5.1243915242846407 #
-332 coedge $-1 $454 $455 $222 $333 reversed $456 $-1 #
-333 edge $457 $337 0 $342 1 $222 $458 forward 7 unknown #
-334 coedge $-1 $223 $459 $454 $460 reversed $335 $-1 #
-335 loop $-1 $461 $462 $463 #
-336 ptlist-eye-attrib $-1 $-1 $-1 $224 #
-337 vertex $-1 $224 $464 #
-338 straight-curve $-1 -15 193 0.30000000000000049 5 0 0 F 0 F 1 #
-339 point $-1 -10 193 0.30000000000000049 #
-340 coedge $-1 $465 $228 $455 $466 reversed $231 $-1 #
-341 ptlist-eye-attrib $-1 $-1 $-1 $229 #
-342 vertex $-1 $466 $467 #
-343 straight-curve $-1 -15 193 2.9000000000000004 1.75 0 0 F 0 F 1 #
-344 loop $-1 $468 $469 $346 #
-345 coedge $-1 $470 $471 $472 $473 reversed $231 $-1 #
-346 face $-1 $474 $231 $3 $-1 $475 forward single #
-347 coedge $-1 $348 $238 $476 $477 reversed $151 $-1 #
-348 coedge $-1 $238 $347 $478 $479 forward $151 $-1 #
-349 coedge $-1 $480 $481 $238 $350 forward $482 $-1 #
-350 edge $483 $484 0 $485 1 $349 $486 forward 7 unknown #
-351 coedge $-1 $487 $418 $239 $352 forward $488 $-1 #
-352 edge $489 $490 0 $359 1 $351 $491 forward 7 unknown #
-353 coedge $-1 $289 $410 $240 $354 reversed $189 $-1 #
-354 edge $492 $490 0 $360 1 $353 $493 forward 7 unknown #
-355 coedge $-1 $494 $241 $410 $495 forward $357 $-1 #
-356 coedge $-1 $241 $494 $487 $496 reversed $357 $-1 #
-357 loop $-1 $-1 $355 $427 #
-358 ptlist-eye-attrib $-1 $-1 $-1 $242 #
-359 vertex $-1 $352 $497 #
-360 vertex $-1 $354 $498 #
-361 straight-curve $-1 12.75 181.25 3.5499999999999998 -3.9999999999999751 0 0
F 0 F 1 #
-362 coedge $-1 $499 $243 $248 $375 forward $364 $-1 #
-363 coedge $-1 $243 $499 $368 $500 reversed $364 $-1 #
-364 loop $-1 $-1 $362 $501 #
-365 ptlist-eye-attrib $-1 $-1 $-1 $244 #
-366 vertex $-1 $246 $502 #
-367 straight-curve $-1 8.750000000000016 218.75 3.5499999999999998
3.999999999999984 0 0 F 0 F 1 #
-368 coedge $-1 $503 $245 $363 $500 forward $370 $-1 #
-369 coedge $-1 $245 $504 $247 $374 reversed $370 $-1 #
-370 loop $-1 $-1 $368 $505 #
-371 ptlist-eye-attrib $-1 $-1 $-1 $246 #
-372 straight-curve $-1 12.750000000000004 214.75 3.5499999999999998
-3.9999999999999876 4 0 F 0 F 1 #
-373 coedge $-1 $248 $247 $506 $507 reversed $249 $-1 #
-374 edge $508 $252 0 $509 1 $369 $510 forward 7 unknown #
-375 edge $511 $251 0 $512 1 $362 $513 forward 7 unknown #
-376 face $-1 $514 $249 $3 $-1 $515 reversed single #
-377 point $-1 12.75 218.75 3.5499999999999998 #
-378 point $-1 12.750000000000004 214.75 3.5499999999999998 #
-379 face $-1 $376 $255 $3 $-1 $516 reversed single #
-380 point $-1 -8.7499999999999947 181.25 3.5499999999999998 #
-381 edge $517 $385 0 $300 1 $298 $518 forward 7 unknown #
-382 ptlist-eye-attrib $-1 $-1 $-1 $262 #
-383 straight-curve $-1 -12.749999999999993 185.24999999999994
3.5499999999999998 -1.7763568394002505e-15 0 -0.64999999999999947 F 0 F 1 #
-384 ptlist-eye-attrib $-1 $-1 $-1 $263 #
-385 vertex $-1 $263 $519 #
-386 straight-curve $-1 -12.75 181.25 3.5499999999999998 0 0
-0.64999999999999947 F 0 F 1 #
-387 coedge $-1 $267 $266 $520 $521 reversed $268 $-1 #
-388 face $-1 $274 $268 $3 $-1 $522 reversed single #
-389 coedge $-1 $520 $520 $271 $390 forward $523 $-1 #
-390 edge $524 $395 0 $392 3.1415926535897931 $271 $525 forward 7 unknown #
-391 ptlist-eye-attrib $-1 $-1 $-1 $272 #
-392 vertex $-1 $521 $526 #
-393 straight-curve $-1 1.0999999999999996 200 0.29999999999999988 0 0 3.25 F 0
F 1 #
-394 ptlist-eye-attrib $-1 $-1 $-1 $273 #
-395 vertex $-1 $521 $527 #
-396 straight-curve $-1 -1.0999999999999996 200 0.29999999999999988 0 0 3.25 F
0 F 1 #
-397 face $-1 $528 $529 $3 $-1 $530 forward single #
-398 cone-surface $-1 0 200 3.2999999999999998 0 0 1 1.0999999999999999 0 0 1 I
I 0 1 1 forward I I I I #
-399 coedge $-1 $531 $532 $277 $400 reversed $533 $-1 #
-400 edge $534 $404 0 $434 1 $399 $535 forward 7 unknown #
-401 coedge $-1 $504 $278 $281 $407 forward $370 $-1 #
-402 coedge $-1 $278 $503 $531 $536 forward $370 $-1 #
-403 ptlist-eye-attrib $-1 $-1 $-1 $279 #
-404 vertex $-1 $400 $537 #
-405 straight-curve $-1 13.249999999999995 214.25 1.8 -4.9999999999999947 5 0 F
0 F 1 #
-406 coedge $-1 $281 $280 $538 $539 reversed $282 $-1 #
-407 edge $540 $284 0 $541 1 $281 $542 forward 7 unknown #
-408 face $-1 $290 $282 $3 $-1 $543 forward single #
-409 point $-1 13.249999999999995 214.25 1.8 #
-410 coedge $-1 $353 $286 $355 $495 reversed $189 $-1 #
-411 coedge $-1 $292 $544 $286 $412 forward $231 $-1 #
-412 edge $545 $546 0 $295 1 $286 $547 forward 7 unknown #
-413 coedge $-1 $548 $538 $287 $414 forward $231 $-1 #
-414 edge $549 $416 0 $550 1 $287 $551 forward 7 unknown #
-415 ptlist-eye-attrib $-1 $-1 $-1 $288 #
-416 vertex $-1 $414 $552 #
-417 straight-curve $-1 13.249999999999995 185.75 2.9000000000000004
5.3290705182007514e-15 0 -1.1000000000000003 F 0 F 1 #
-418 coedge $-1 $351 $553 $289 $419 reversed $488 $-1 #
-419 edge $554 $490 0 $550 1 $289 $555 forward 7 unknown #
-420 plane-surface $-1 13.25 185.75 3.2999999999999998 -0.70710678118654802
0.70710678118654702 0 -0.70710678118654702 -0.70710678118654802 0 forward_v F
-0.1414213562373095 F 7.2124891681027847 F -1.5756084757153588 F
0.32560847571535878 #
-421 ptlist-eye-attrib $-1 $-1 $-1 $293 #
-422 straight-curve $-1 8.2500000000000142 180.75 2.9000000000000004
-16.500000000000014 0 0 F 0 F 1 #
-423 point $-1 8.2500000000000142 180.75 2.9000000000000004 #
-424 point $-1 -12.749999999999995 185.24999999999994 2.8999999999999995 #
-425 edge $556 $304 0 $385 1 $302 $557 forward 7 unknown #
-426 point $-1 -8.75 181.25 2.8999999999999995 #
-427 face $-1 $379 $357 $3 $-1 $558 reversed single #
-428 loop $-1 $-1 $559 $310 #
-429 plane-surface $-1 -12.75 181.25 7 1 0 0 0 1 0 forward_v F -0.75 F 38.25 F
-4.1756084757153582 F -3.3743915242846407 #
-430 coedge $-1 $560 $312 $532 $561 forward $432 $-1 #
-431 coedge $-1 $312 $562 $314 $437 forward $432 $-1 #
-432 loop $-1 $-1 $563 $330 #
-433 ptlist-eye-attrib $-1 $-1 $-1 $313 #
-434 vertex $-1 $313 $564 #
-435 straight-curve $-1 -8.2500000000000178 219.25 1.8 -4.9999999999999822 -5 0
F 0 F 1 #
-436 coedge $-1 $315 $314 $565 $566 reversed $236 $-1 #
-437 edge $567 $568 0 $317 1 $431 $569 forward 7 unknown #
-438 point $-1 -13.25 214.25 1.8 #
-439 coedge $-1 $565 $570 $319 $440 reversed $231 $-1 #
-440 edge $571 $442 0 $572 1 $319 $573 forward 7 unknown #
-441 ptlist-eye-attrib $-1 $-1 $-1 $320 #
-442 vertex $-1 $566 $574 #
-443 straight-curve $-1 -13.25 207 1.8000000000000003 0 0 1.1000000000000001 F
0 F 1 #
-444 coedge $-1 $575 $325 $321 $445 forward $335 $-1 #
-445 edge $576 $328 0 $577 1 $321 $578 forward 7 unknown #
-446 coedge $-1 $579 $580 $322 $447 reversed $581 $-1 #
-447 edge $582 $572 0 $577 1 $322 $583 forward 7 unknown #
-448 plane-surface $-1 -10 207 7 0 1 0 -1 0 0 forward_v F -0.10000000000000001
F 5.0999999999999996 F -6.7756084757153578 F -4.0243915242846411 #
-449 ptlist-eye-attrib $-1 $-1 $-1 $326 #
-450 straight-curve $-1 -10 193 0.30000000000000049 0 14 0 F 0 F 1 #
-451 point $-1 -10 207 0.30000000000000049 #
-452 face $-1 $505 $533 $3 $-1 $584 forward single #
-453 plane-surface $-1 -13.25 214.25 3.2999999999999998 0.70710678118654735
-0.70710678118654757 0 0.70710678118654757 0.70710678118654735 0 forward_v F
-0.14142135623733446 F 7.2124891681027954 F -1.5756084757153588 F
0.32560847571535878 #
-454 coedge $-1 $585 $332 $334 $460 forward $456 $-1 #
-455 coedge $-1 $332 $585 $340 $466 forward $456 $-1 #
-456 loop $-1 $-1 $455 $586 #
-457 ptlist-eye-attrib $-1 $-1 $-1 $333 #
-458 straight-curve $-1 -15 193 0.30000000000000049 0 0 2.5999999999999996 F 0
F 1 #
-459 coedge $-1 $334 $587 $588 $589 forward $335 $-1 #
-460 edge $590 $337 0 $591 1 $454 $592 forward 7 unknown #
-461 loop $-1 $523 $593 $463 #
-462 coedge $-1 $594 $595 $596 $597 forward $335 $-1 #
-463 face $-1 $598 $335 $3 $-1 $599 reversed single #
-464 point $-1 -15 193 0.30000000000000049 #
-465 coedge $-1 $600 $340 $601 $602 forward $231 $-1 #
-466 edge $603 $604 0 $342 1 $455 $605 forward 7 unknown #
-467 point $-1 -15 193 2.9000000000000004 #
-468 loop $-1 $-1 $606 $346 #
-469 coedge $-1 $607 $607 $608 $609 reversed $344 $-1 #
-470 coedge $-1 $570 $345 $610 $611 forward $231 $-1 #
-471 coedge $-1 $345 $612 $613 $614 forward $231 $-1 #
-472 coedge $-1 $615 $616 $345 $473 forward $617 $-1 #
-473 edge $618 $619 0 $620 1 $472 $621 forward 7 unknown #
-474 face $-1 $622 $623 $3 $-1 $624 reversed single #
-475 plane-surface $-1 0 0 2.8999999999999999 0 0 1 1 0 0 forward_v F -15.6 F
15.6 F 171.40000000000001 F 228.59999999999999 #
-476 coedge $-1 $559 $625 $347 $477 forward $428 $-1 #
-477 edge $626 $627 0 $484 1 $476 $628 forward 7 unknown #
-478 coedge $-1 $563 $629 $348 $479 reversed $432 $-1 #
-479 edge $630 $627 0 $485 1 $478 $631 forward 7 unknown #
-480 coedge $-1 $632 $349 $629 $633 forward $482 $-1 #
-481 coedge $-1 $349 $632 $559 $634 reversed $482 $-1 #
-482 loop $-1 $-1 $480 $635 #
-483 ptlist-eye-attrib $-1 $-1 $-1 $350 #
-484 vertex $-1 $477 $636 #
-485 vertex $-1 $479 $637 #
-486 straight-curve $-1 -12.75 218.75 3.5499999999999998 4.0000000000000124 0 0
F 0 F 1 #
-487 coedge $-1 $553 $351 $356 $496 forward $488 $-1 #
-488 loop $-1 $-1 $487 $514 #
-489 ptlist-eye-attrib $-1 $-1 $-1 $352 #
-490 vertex $-1 $354 $638 #
-491 straight-curve $-1 12.749999999999993 185.25 3.5499999999999998
7.1054273576010019e-15 -4 0 F 0 F 1 #
-492 ptlist-eye-attrib $-1 $-1 $-1 $354 #
-493 straight-curve $-1 12.749999999999993 185.25 3.5499999999999998
-3.999999999999968 -4 0 F 0 F 1 #
-494 coedge $-1 $356 $355 $544 $639 reversed $357 $-1 #
-495 edge $640 $360 0 $546 1 $410 $641 forward 7 unknown #
-496 edge $642 $359 0 $643 1 $487 $644 forward 7 unknown #
-497 point $-1 12.75 181.25 3.5499999999999998 #
-498 point $-1 8.7500000000000249 181.25 3.5499999999999998 #
-499 coedge $-1 $363 $362 $645 $646 reversed $364 $-1 #
-500 edge $647 $366 0 $648 1 $368 $649 forward 7 unknown #
-501 face $-1 $346 $364 $3 $-1 $650 reversed single #
-502 point $-1 8.750000000000016 218.75 3.5499999999999998 #
-503 coedge $-1 $402 $368 $651 $652 reversed $370 $-1 #
-504 coedge $-1 $369 $401 $653 $654 reversed $370 $-1 #
-505 face $-1 $408 $370 $3 $-1 $655 forward single #
-506 coedge $-1 $653 $645 $373 $507 forward $231 $-1 #
-507 edge $656 $512 0 $509 1 $506 $657 forward 7 unknown #
-508 ptlist-eye-attrib $-1 $-1 $-1 $374 #
-509 vertex $-1 $507 $658 #
-510 straight-curve $-1 12.750000000000004 214.75 3.5499999999999998
-3.5527136788005009e-15 0 -0.64999999999999947 F 0 F 1 #
-511 ptlist-eye-attrib $-1 $-1 $-1 $375 #
-512 vertex $-1 $375 $659 #
-513 straight-curve $-1 12.75 218.75 3.5499999999999998 0 0
-0.64999999999999947 F 0 F 1 #
-514 face $-1 $635 $488 $3 $-1 $660 reversed single #
-515 plane-surface $-1 12.75 218.75 7 -1 0 0 0 -1 0 forward_v F -0.75 F 38.25 F
-4.1756084757153582 F -3.3743915242846407 #
-516 plane-surface $-1 12.75 181.25 7 0 1 0 -1 0 0 forward_v F
-0.51000000000000001 F 26.010000000000002 F -4.1756084757153582 F
-3.3743915242846407 #
-517 ptlist-eye-attrib $-1 $-1 $-1 $381 #
-518 straight-curve $-1 -12.75 181.25 2.9000000000000004 5.3290705182007514e-15
3.9999999999999432 0 F 0 F 1 #
-519 point $-1 -12.75 181.25 2.9000000000000004 #
-520 coedge $-1 $389 $389 $387 $521 forward $523 $-1 #
-521 edge $661 $392 0 $395 3.1415926535897931 $387 $662 forward 7 unknown #
-522 cone-surface $-1 0 200 3.2999999999999998 0 0 1 1.0999999999999999 0 0 1 I
I 0 1 1 forward I I I I #
-523 loop $-1 $663 $389 $463 #
-524 ptlist-eye-attrib $-1 $-1 $-1 $390 #
-525 ellipse-curve $-1 0 200 0.29999999999999982 0 0 1 -1.0999999999999999 0 0
1 F 0 F 3.1415926535897931 #
-526 point $-1 1.0999999999999999 200 0.29999999999999982 #
-527 point $-1 -1.0999999999999999 200 0.29999999999999982 #
-528 face $-1 $664 $665 $3 $-1 $666 forward single #
-529 loop $-1 $-1 $667 $397 #
-530 cone-surface $-1 12 224.5 15.734120000000001 0 0 -1 0 3 0 1 I I 0 1 1
forward I I I I #
-531 coedge $-1 $668 $399 $402 $536 reversed $533 $-1 #
-532 coedge $-1 $399 $668 $430 $561 reversed $533 $-1 #
-533 loop $-1 $-1 $532 $452 #
-534 ptlist-eye-attrib $-1 $-1 $-1 $400 #
-535 straight-curve $-1 8.25 219.25 1.8 -16.500000000000018 0 0 F 0 F 1 #
-536 edge $669 $670 0 $404 1 $402 $671 forward 7 unknown #
-537 point $-1 8.25 219.25 1.8 #
-538 coedge $-1 $413 $653 $406 $539 forward $231 $-1 #
-539 edge $672 $541 0 $416 1 $406 $673 forward 7 unknown #
-540 ptlist-eye-attrib $-1 $-1 $-1 $407 #
-541 vertex $-1 $539 $674 #
-542 straight-curve $-1 13.249999999999995 214.25 1.8 8.8817841970012523e-15 0
1.1000000000000003 F 0 F 1 #
-543 plane-surface $-1 13.25 219.25 6 -1 0 0 0 -1 0 forward_v F
4.4299999999999713 F 34.07 F -4.2756084757153578 F -3.0243915242846406 #
-544 coedge $-1 $411 $548 $494 $639 forward $231 $-1 #
-545 ptlist-eye-attrib $-1 $-1 $-1 $412 #
-546 vertex $-1 $639 $675 #
-547 straight-curve $-1 8.7500000000000231 181.25 2.8999999999999995
-0.50000000000001066 -0.5 0 F 0 F 1 #
-548 coedge $-1 $544 $413 $553 $676 forward $231 $-1 #
-549 ptlist-eye-attrib $-1 $-1 $-1 $414 #
-550 vertex $-1 $419 $677 #
-551 straight-curve $-1 13.249999999999995 185.75 2.8999999999999995 -0.5 -0.5
0 F 0 F 1 #
-552 point $-1 13.249999999999995 185.75 2.9000000000000004 #
-553 coedge $-1 $418 $487 $548 $676 reversed $488 $-1 #
-554 ptlist-eye-attrib $-1 $-1 $-1 $419 #
-555 straight-curve $-1 12.749999999999993 185.25 3.5499999999999998
1.7763568394002505e-15 0 -0.64999999999999947 F 0 F 1 #
-556 ptlist-eye-attrib $-1 $-1 $-1 $425 #
-557 straight-curve $-1 -8.75 181.25 2.9000000000000004 -4 0 0 F 0 F 1 #
-558 plane-surface $-1 12.75 181.25 7 0 1 0 -1 0 0 forward_v F
-0.51000000000000001 F 26.010000000000002 F -4.1756084757153582 F
-3.3743915242846407 #
-559 coedge $-1 $678 $476 $481 $634 forward $428 $-1 #
-560 coedge $-1 $629 $430 $679 $680 reversed $432 $-1 #
-561 edge $681 $434 0 $682 1 $532 $683 forward 7 unknown #
-562 coedge $-1 $431 $563 $684 $685 reversed $432 $-1 #
-563 coedge $-1 $562 $478 $625 $686 forward $432 $-1 #
-564 point $-1 -8.2500000000000178 219.25 1.8 #
-565 coedge $-1 $684 $439 $436 $566 forward $231 $-1 #
-566 edge $687 $442 0 $568 1 $436 $688 forward 7 unknown #
-567 ptlist-eye-attrib $-1 $-1 $-1 $437 #
-568 vertex $-1 $685 $689 #
-569 straight-curve $-1 -13.250000000000004 214.24999999999994
2.9000000000000004 3.5527136788005009e-15 5.6843418860808015e-14
-1.1000000000000003 F 0 F 1 #
-570 coedge $-1 $439 $470 $579 $690 reversed $231 $-1 #
-571 ptlist-eye-attrib $-1 $-1 $-1 $440 #
-572 vertex $-1 $440 $691 #
-573 straight-curve $-1 -13.25 207 2.9000000000000004 -1.75 0 0 F 0 F 1 #
-574 point $-1 -13.25 207 2.9000000000000004 #
-575 coedge $-1 $692 $444 $580 $693 forward $335 $-1 #
-576 ptlist-eye-attrib $-1 $-1 $-1 $445 #
-577 vertex $-1 $693 $694 #
-578 straight-curve $-1 -10 207 0.30000000000000049 -5 0 0 F 0 F 1 #
-579 coedge $-1 $695 $446 $570 $690 forward $581 $-1 #
-580 coedge $-1 $446 $695 $575 $693 reversed $581 $-1 #
-581 loop $-1 $-1 $580 $696 #
-582 ptlist-eye-attrib $-1 $-1 $-1 $447 #
-583 straight-curve $-1 -15 207 2.9000000000000004 0 0 -2.5999999999999996 F 0
F 1 #
-584 plane-surface $-1 -13.25 219.25 6 0 -1 0 1 0 0 forward_v F
4.6699999999999999 F 21.829999999999998 F -4.2756084757153578 F
-3.0243915242846406 #
-585 coedge $-1 $455 $454 $697 $698 reversed $456 $-1 #
-586 face $-1 $699 $456 $3 $-1 $700 forward single #
-587 coedge $-1 $459 $594 $701 $702 reversed $335 $-1 #
-588 coedge $-1 $703 $697 $459 $589 reversed $704 $-1 #
-589 edge $705 $706 0 $591 1.5707963267949179 $588 $707 forward 7 unknown #
-590 ptlist-eye-attrib $-1 $-1 $-1 $460 #
-591 vertex $-1 $460 $708 #
-592 straight-curve $-1 -15 193 0.30000000000000049 0 -17.5 0 F 0 F 1 #
-593 coedge $-1 $709 $709 $710 $711 forward $461 $-1 #
-594 coedge $-1 $587 $462 $712 $713 forward $335 $-1 #
-595 coedge $-1 $462 $714 $715 $716 forward $335 $-1 #
-596 coedge $-1 $717 $718 $462 $597 reversed $665 $-1 #
-597 edge $719 $720 0 $721 1 $596 $722 forward 7 unknown #
-598 face $-1 $723 $724 $3 $-1 $725 reversed single #
-599 plane-surface $-1 0 200 0.29999999999999999 0 0 1 1 0 0 forward_v F -15.6
F 15.6 F -28.600000000000001 F 28.600000000000001 #
-600 coedge $-1 $726 $465 $727 $728 reversed $231 $-1 #
-601 coedge $-1 $697 $703 $465 $602 reversed $704 $-1 #
-602 edge $729 $604 0 $730 1.5707963267948966 $601 $731 forward 7 unknown #
-603 ptlist-eye-attrib $-1 $-1 $-1 $466 #
-604 vertex $-1 $602 $732 #
-605 straight-curve $-1 -15 175.5 2.9000000000000004 0 17.5 0 F 0 F 1 #
-606 coedge $-1 $733 $733 $734 $735 reversed $468 $-1 #
-607 coedge $-1 $469 $469 $736 $737 reversed $344 $-1 #
-608 coedge $-1 $738 $739 $469 $609 forward $740 $-1 #
-609 edge $741 $742 0 $743 3.1415926535897931 $608 $744 forward 7 unknown #
-610 coedge $-1 $745 $746 $470 $611 reversed $747 $-1 #
-611 edge $748 $619 0 $749 1.5707963267948966 $610 $750 forward 7 unknown #
-612 coedge $-1 $471 $726 $751 $752 reversed $231 $-1 #
-613 coedge $-1 $753 $667 $471 $614 reversed $529 $-1 #
-614 edge $754 $755 0 $620 1.5707963267948966 $613 $756 forward 7 unknown #
-615 coedge $-1 $757 $472 $667 $758 forward $617 $-1 #
-616 coedge $-1 $472 $757 $745 $759 forward $617 $-1 #
-617 loop $-1 $-1 $757 $760 #
-618 ptlist-eye-attrib $-1 $-1 $-1 $473 #
-619 vertex $-1 $611 $761 #
-620 vertex $-1 $614 $762 #
-621 straight-curve $-1 -12 227.5 2.8999999999999995 24 0 0 F 0 F 1 #
-622 face $-1 $463 $763 $3 $-1 $764 reversed single #
-623 loop $-1 $-1 $765 $474 #
-624 cone-surface $-1 0 222.59988805310525 6 0 0 1 1.0999999999999999 0 0 1 I I
0 1 1 forward I I I I #
-625 coedge $-1 $476 $678 $563 $686 reversed $428 $-1 #
-626 ptlist-eye-attrib $-1 $-1 $-1 $477 #
-627 vertex $-1 $479 $766 #
-628 straight-curve $-1 -12.75 214.75 3.5499999999999998 0 4 0 F 0 F 1 #
-629 coedge $-1 $478 $560 $480 $633 reversed $432 $-1 #
-630 ptlist-eye-attrib $-1 $-1 $-1 $479 #
-631 straight-curve $-1 -12.75 214.75 3.5499999999999998 4.0000000000000124 4 0
F 0 F 1 #
-632 coedge $-1 $481 $480 $767 $768 reversed $482 $-1 #
-633 edge $769 $485 0 $770 1 $629 $771 forward 7 unknown #
-634 edge $772 $484 0 $773 1 $481 $774 forward 7 unknown #
-635 face $-1 $501 $482 $3 $-1 $775 reversed single #
-636 point $-1 -12.75 218.75 3.5499999999999998 #
-637 point $-1 -8.7499999999999876 218.75 3.5499999999999998 #
-638 point $-1 12.749999999999993 185.25 3.5499999999999998 #
-639 edge $776 $643 0 $546 1 $544 $777 forward 7 unknown #
-640 ptlist-eye-attrib $-1 $-1 $-1 $495 #
-641 straight-curve $-1 8.7500000000000249 181.25 3.5499999999999998 0 0
-0.64999999999999947 F 0 F 1 #
-642 ptlist-eye-attrib $-1 $-1 $-1 $496 #
-643 vertex $-1 $496 $778 #
-644 straight-curve $-1 12.75 181.25 3.5499999999999998 0 0
-0.64999999999999947 F 0 F 1 #
-645 coedge $-1 $506 $651 $499 $646 forward $231 $-1 #
-646 edge $779 $648 0 $512 1 $645 $780 forward 7 unknown #
-647 ptlist-eye-attrib $-1 $-1 $-1 $500 #
-648 vertex $-1 $500 $781 #
-649 straight-curve $-1 8.750000000000016 218.75 3.5499999999999998
-1.7763568394002505e-15 0 -0.64999999999999947 F 0 F 1 #
-650 plane-surface $-1 -12.75 218.75 7 0 -1 0 1 0 0 forward_v F
-0.51000000000000001 F 26.010000000000002 F -4.1756084757153582 F
-3.3743915242846407 #
-651 coedge $-1 $645 $782 $503 $652 forward $231 $-1 #
-652 edge $783 $670 0 $648 1 $503 $784 forward 7 unknown #
-653 coedge $-1 $538 $506 $504 $654 forward $231 $-1 #
-654 edge $785 $509 0 $541 1 $504 $786 forward 7 unknown #
-655 plane-surface $-1 8.25 219.25 3.2999999999999998 -0.70710678118654702
-0.70710678118654802 0 0.70710678118654802 -0.70710678118654702 0 forward_v F
-0.14142135623730467 F 7.2124891681027998 F -1.5756084757153588 F
0.32560847571535878 #
-656 ptlist-eye-attrib $-1 $-1 $-1 $507 #
-657 straight-curve $-1 12.75 218.75 2.9000000000000004 0 -4 0 F 0 F 1 #
-658 point $-1 12.75 214.75 2.8999999999999995 #
-659 point $-1 12.75 218.75 2.9000000000000004 #
-660 plane-surface $-1 12.75 218.75 7 -1 0 0 0 -1 0 forward_v F -0.75 F 38.25 F
-4.1756084757153582 F -3.3743915242846407 #
-661 ptlist-eye-attrib $-1 $-1 $-1 $521 #
-662 ellipse-curve $-1 0 200 0.29999999999999982 0 0 1 1.0999999999999999 0 0 1
F 0 F 3.1415926535897931 #
-663 loop $-1 $-1 $787 $463 #
-664 face $-1 $788 $789 $3 $-1 $790 forward single #
-665 loop $-1 $-1 $751 $528 #
-666 plane-surface $-1 15 175.5 6 1 0 0 0 1 0 forward_v F -0.97999999999998966
F 49.979999999999997 F -5.7756084757153578 F -3.0243915242846406 #
-667 coedge $-1 $613 $715 $615 $758 reversed $529 $-1 #
-668 coedge $-1 $532 $531 $782 $791 reversed $533 $-1 #
-669 ptlist-eye-attrib $-1 $-1 $-1 $536 #
-670 vertex $-1 $652 $792 #
-671 straight-curve $-1 8.2500000000000036 219.25 2.9000000000000004
-3.5527136788005009e-15 0 -1.1000000000000003 F 0 F 1 #
-672 ptlist-eye-attrib $-1 $-1 $-1 $539 #
-673 straight-curve $-1 13.250000000000004 214.25 2.9000000000000004
-8.8817841970012523e-15 -28.5 0 F 0 F 1 #
-674 point $-1 13.250000000000004 214.25 2.9000000000000004 #
-675 point $-1 8.7500000000000231 181.25 2.8999999999999995 #
-676 edge $793 $550 0 $643 1 $548 $794 forward 7 unknown #
-677 point $-1 12.749999999999995 185.25 2.8999999999999995 #
-678 coedge $-1 $625 $559 $795 $796 reversed $428 $-1 #
-679 coedge $-1 $782 $767 $560 $680 forward $231 $-1 #
-680 edge $797 $770 0 $682 1 $560 $798 forward 7 unknown #
-681 ptlist-eye-attrib $-1 $-1 $-1 $561 #
-682 vertex $-1 $791 $799 #
-683 straight-curve $-1 -8.2500000000000178 219.25 1.8 2.4868995751603507e-14 0
1.1000000000000003 F 0 F 1 #
-684 coedge $-1 $795 $565 $562 $685 forward $231 $-1 #
-685 edge $800 $568 0 $801 1 $562 $802 forward 7 unknown #
-686 edge $803 $627 0 $801 1 $563 $804 forward 7 unknown #
-687 ptlist-eye-attrib $-1 $-1 $-1 $566 #
-688 straight-curve $-1 -13.25 207 2.9000000000000004 -3.5527136788005009e-15
7.25 0 F 0 F 1 #
-689 point $-1 -13.250000000000004 214.25 2.9000000000000004 #
-690 edge $805 $572 0 $749 1 $579 $806 forward 7 unknown #
-691 point $-1 -15 207 2.9000000000000004 #
-692 coedge $-1 $714 $575 $807 $808 forward $335 $-1 #
-693 edge $809 $577 0 $810 1 $580 $811 forward 7 unknown #
-694 point $-1 -15 207 0.30000000000000049 #
-695 coedge $-1 $580 $579 $746 $812 reversed $581 $-1 #
-696 face $-1 $586 $581 $3 $-1 $813 forward single #
-697 coedge $-1 $588 $601 $585 $698 forward $704 $-1 #
-698 edge $814 $604 0 $591 1 $585 $815 forward 7 unknown #
-699 face $-1 $760 $747 $3 $-1 $816 forward single #
-700 plane-surface $-1 -15 224.5 6 -1 0 0 0 -1 0 forward_v F
-0.9799999999999901 F 49.979999999999997 F -5.7756084757153578 F
-3.0243915242846406 #
-701 coedge $-1 $817 $818 $587 $702 forward $819 $-1 #
-702 edge $820 $706 0 $821 1 $701 $822 forward 7 unknown #
-703 coedge $-1 $601 $588 $818 $823 reversed $704 $-1 #
-704 loop $-1 $-1 $703 $824 #
-705 ptlist-eye-attrib $-1 $-1 $-1 $589 #
-706 vertex $-1 $589 $825 #
-707 ellipse-curve $-1 -12 175.5 0.29999999999999893 0 0 -1
6.3948846218409017e-14 -3 0 1 F 0 F 1.5707963267949179 #
-708 point $-1 -15 175.5 0.29999999999999893 #
-709 coedge $-1 $593 $593 $826 $827 forward $461 $-1 #
-710 coedge $-1 $828 $829 $593 $711 reversed $763 $-1 #
-711 edge $830 $831 0 $832 3.1415926535897931 $593 $833 forward 7 unknown #
-712 coedge $-1 $834 $835 $594 $713 reversed $789 $-1 #
-713 edge $836 $721 0 $821 1.5707963267948859 $712 $837 forward 7 unknown #
-714 coedge $-1 $595 $692 $757 $838 reversed $335 $-1 #
-715 coedge $-1 $667 $753 $595 $716 reversed $529 $-1 #
-716 edge $839 $840 0 $720 1.5707963267949179 $715 $841 forward 7 unknown #
-717 coedge $-1 $751 $596 $753 $842 reversed $665 $-1 #
-718 coedge $-1 $596 $751 $834 $843 reversed $665 $-1 #
-719 ptlist-eye-attrib $-1 $-1 $-1 $597 #
-720 vertex $-1 $716 $844 #
-721 vertex $-1 $713 $845 #
-722 straight-curve $-1 15 224.5 0.30000000000000049 0 -49
-6.106226635438361e-16 F 0 F 1 #
-723 face $-1 $388 $740 $3 $-1 $846 reversed single #
-724 loop $-1 $-1 $847 $598 #
-725 cone-surface $-1 0 177.40011194689475 6 0 0 1 1.0999999999999999 0 0 1 I I
0 1 1 forward I I I I #
-726 coedge $-1 $612 $600 $848 $849 forward $231 $-1 #
-727 coedge $-1 $818 $817 $600 $728 forward $819 $-1 #
-728 edge $850 $851 0 $730 1 $727 $852 forward 7 unknown #
-729 ptlist-eye-attrib $-1 $-1 $-1 $602 #
-730 vertex $-1 $728 $853 #
-731 ellipse-curve $-1 -12 175.5 2.9000000000000004 0 0 1 -3 0 0 1 F 0 F
1.5707963267948966 #
-732 point $-1 -15 175.5 2.9000000000000004 #
-733 coedge $-1 $606 $606 $854 $855 reversed $468 $-1 #
-734 coedge $-1 $829 $828 $606 $735 forward $763 $-1 #
-735 edge $856 $857 0 $858 3.1415926535897931 $734 $859 forward 7 unknown #
-736 coedge $-1 $847 $860 $607 $737 forward $724 $-1 #
-737 edge $861 $743 0 $742 3.1415926535897931 $736 $862 forward 7 unknown #
-738 coedge $-1 $863 $608 $860 $864 reversed $740 $-1 #
-739 coedge $-1 $608 $863 $847 $865 forward $740 $-1 #
-740 loop $-1 $-1 $738 $723 #
-741 ptlist-eye-attrib $-1 $-1 $-1 $609 #
-742 vertex $-1 $737 $866 #
-743 vertex $-1 $737 $867 #
-744 ellipse-curve $-1 0 177.40011194689475 2.8999999999999999 0 0 1
-1.0999999999999999 0 0 1 F 0 F 3.1415926535897931 #
-745 coedge $-1 $807 $610 $616 $759 reversed $747 $-1 #
-746 coedge $-1 $610 $807 $695 $812 forward $747 $-1 #
-747 loop $-1 $-1 $745 $699 #
-748 ptlist-eye-attrib $-1 $-1 $-1 $611 #
-749 vertex $-1 $690 $868 #
-750 ellipse-curve $-1 -12 224.5 2.9000000000000004 0 0 1 0 3 0 1 F 0 F
1.5707963267948966 #
-751 coedge $-1 $718 $717 $612 $752 forward $665 $-1 #
-752 edge $869 $755 0 $870 1 $751 $871 forward 7 unknown #
-753 coedge $-1 $715 $613 $717 $842 forward $529 $-1 #
-754 ptlist-eye-attrib $-1 $-1 $-1 $614 #
-755 vertex $-1 $614 $872 #
-756 ellipse-curve $-1 12 224.5 2.9000000000000004 0 0 1 3 0 0 1 F 0 F
1.5707963267948966 #
-757 coedge $-1 $616 $615 $714 $838 forward $617 $-1 #
-758 edge $873 $620 0 $840 1 $615 $874 forward 7 unknown #
-759 edge $875 $876 0 $619 1 $616 $877 forward 7 unknown #
-760 face $-1 $323 $617 $3 $-1 $878 forward single #
-761 point $-1 -12 227.5 2.9000000000000004 #
-762 point $-1 12 227.5 2.9000000000000004 #
-763 loop $-1 $-1 $829 $622 #
-764 cone-surface $-1 0 222.59988805310525 6 0 0 1 1.0999999999999999 0 0 1 I I
0 1 1 forward I I I I #
-765 coedge $-1 $826 $854 $828 $879 reversed $623 $-1 #
-766 point $-1 -12.75 214.75 3.5499999999999998 #
-767 coedge $-1 $679 $795 $632 $768 forward $231 $-1 #
-768 edge $880 $773 0 $770 1 $767 $881 forward 7 unknown #
-769 ptlist-eye-attrib $-1 $-1 $-1 $633 #
-770 vertex $-1 $768 $882 #
-771 straight-curve $-1 -8.7499999999999876 218.75 3.5499999999999998
1.2434497875801753e-14 0 -0.64999999999999947 F 0 F 1 #
-772 ptlist-eye-attrib $-1 $-1 $-1 $634 #
-773 vertex $-1 $796 $883 #
-774 straight-curve $-1 -12.75 218.75 3.5499999999999998 0 0
-0.64999999999999947 F 0 F 1 #
-775 plane-surface $-1 -12.75 218.75 7 0 -1 0 1 0 0 forward_v F
-0.51000000000000001 F 26.010000000000002 F -4.1756084757153582 F
-3.3743915242846407 #
-776 ptlist-eye-attrib $-1 $-1 $-1 $639 #
-777 straight-curve $-1 12.75 181.25 2.9000000000000004 -3.9999999999999769 0 0
F 0 F 1 #
-778 point $-1 12.75 181.25 2.9000000000000004 #
-779 ptlist-eye-attrib $-1 $-1 $-1 $646 #
-780 straight-curve $-1 8.7500000000000142 218.75 2.9000000000000004
3.9999999999999858 0 0 F 0 F 1 #
-781 point $-1 8.7500000000000142 218.75 2.8999999999999995 #
-782 coedge $-1 $651 $679 $668 $791 forward $231 $-1 #
-783 ptlist-eye-attrib $-1 $-1 $-1 $652 #
-784 straight-curve $-1 8.2500000000000018 219.25 2.8999999999999995
0.50000000000001243 -0.5 0 F 0 F 1 #
-785 ptlist-eye-attrib $-1 $-1 $-1 $654 #
-786 straight-curve $-1 12.75 214.75 2.8999999999999995 0.50000000000000355
-0.5 0 F 0 F 1 #
-787 coedge $-1 $884 $884 $863 $885 forward $663 $-1 #
-788 face $-1 $824 $819 $3 $-1 $886 forward single #
-789 loop $-1 $-1 $835 $664 #
-790 cone-surface $-1 12 175.5 -8.4341200000000018 0 0 1 0 -3 0 1 I I 0 1 1
forward I I I I #
-791 edge $887 $682 0 $670 1 $668 $888 forward 7 unknown #
-792 point $-1 8.2500000000000036 219.25 2.9000000000000004 #
-793 ptlist-eye-attrib $-1 $-1 $-1 $676 #
-794 straight-curve $-1 12.749999999999995 185.25 2.9000000000000004
5.3290705182007514e-15 -4 0 F 0 F 1 #
-795 coedge $-1 $767 $684 $678 $796 forward $231 $-1 #
-796 edge $889 $801 0 $773 1 $795 $890 forward 7 unknown #
-797 ptlist-eye-attrib $-1 $-1 $-1 $680 #
-798 straight-curve $-1 -8.7499999999999751 218.75 2.8999999999999995
0.49999999999998224 0.5 0 F 0 F 1 #
-799 point $-1 -8.2499999999999929 219.25 2.9000000000000004 #
-800 ptlist-eye-attrib $-1 $-1 $-1 $685 #
-801 vertex $-1 $686 $891 #
-802 straight-curve $-1 -13.250000000000004 214.25 2.8999999999999995
0.50000000000000355 0.5 0 F 0 F 1 #
-803 ptlist-eye-attrib $-1 $-1 $-1 $686 #
-804 straight-curve $-1 -12.75 214.75 3.5499999999999998 0 0
-0.64999999999999947 F 0 F 1 #
-805 ptlist-eye-attrib $-1 $-1 $-1 $690 #
-806 straight-curve $-1 -15 207 2.9000000000000004 0 17.5 0 F 0 F 1 #
-807 coedge $-1 $746 $745 $692 $808 reversed $747 $-1 #
-808 edge $892 $810 0 $876 1.5707963267948859 $807 $893 forward 7 unknown #
-809 ptlist-eye-attrib $-1 $-1 $-1 $693 #
-810 vertex $-1 $808 $894 #
-811 straight-curve $-1 -15 207 0.30000000000000049 0 17.5 0 F 0 F 1 #
-812 edge $895 $810 0 $749 1 $746 $896 forward 7 unknown #
-813 plane-surface $-1 -15 224.5 6 -1 0 0 0 -1 0 forward_v F
-0.9799999999999901 F 49.979999999999997 F -5.7756084757153578 F
-3.0243915242846406 #
-814 ptlist-eye-attrib $-1 $-1 $-1 $698 #
-815 straight-curve $-1 -15 175.5 2.9000000000000004 0 0 -2.5999999999999996 F
0 F 1 #
-816 cone-surface $-1 -12 224.5 -8.4341200000000001 0 0 1 0 3 0 1 I I 0 1 1
forward I I I I #
-817 coedge $-1 $727 $701 $835 $897 forward $819 $-1 #
-818 coedge $-1 $701 $727 $703 $823 forward $819 $-1 #
-819 loop $-1 $-1 $727 $788 #
-820 ptlist-eye-attrib $-1 $-1 $-1 $702 #
-821 vertex $-1 $702 $898 #
-822 straight-curve $-1 -11.999999999999979 172.5 0.30000000000000021
23.999999999999986 0 0 F 0 F 1 #
-823 edge $899 $730 0 $706 1 $703 $900 forward 7 unknown #
-824 face $-1 $696 $704 $3 $-1 $901 forward single #
-825 point $-1 -11.999999999999936 172.5 0.29999999999999893 #
-826 coedge $-1 $902 $765 $709 $827 reversed $623 $-1 #
-827 edge $903 $832 0 $831 3.1415926535897931 $709 $904 forward 7 unknown #
-828 coedge $-1 $734 $710 $765 $879 forward $763 $-1 #
-829 coedge $-1 $710 $734 $902 $905 reversed $763 $-1 #
-830 ptlist-eye-attrib $-1 $-1 $-1 $711 #
-831 vertex $-1 $827 $906 #
-832 vertex $-1 $905 $907 #
-833 ellipse-curve $-1 0 222.59988805310525 0.29999999999999982 0 0 1
-1.0999999999999999 0 0 1 F 0 F 3.1415926535897931 #
-834 coedge $-1 $848 $712 $718 $843 forward $789 $-1 #
-835 coedge $-1 $712 $848 $817 $897 reversed $789 $-1 #
-836 ptlist-eye-attrib $-1 $-1 $-1 $713 #
-837 ellipse-curve $-1 12 175.5 0.30000000000000071 0 0 -1 3 0 0 1 F 0 F
1.5707963267948859 #
-838 edge $908 $840 0 $876 1 $757 $909 forward 7 unknown #
-839 ptlist-eye-attrib $-1 $-1 $-1 $716 #
-840 vertex $-1 $716 $910 #
-841 ellipse-curve $-1 12 224.5 0.29999999999999893 0 0 -1
-6.3948846218409017e-14 3 0 1 F 0 F 1.5707963267949179 #
-842 edge $911 $755 0 $720 1 $717 $912 forward 7 unknown #
-843 edge $913 $721 0 $870 1 $834 $914 forward 7 unknown #
-844 point $-1 15 224.5 0.29999999999999893 #
-845 point $-1 15 175.5 0.29999999999999988 #
-846 cone-surface $-1 0 177.40011194689475 6 0 0 1 1.0999999999999999 0 0 1 I I
0 1 1 forward I I I I #
-847 coedge $-1 $915 $736 $739 $865 reversed $724 $-1 #
-848 coedge $-1 $835 $834 $726 $849 reversed $789 $-1 #
-849 edge $916 $851 0 $870 1.5707963267948966 $848 $917 forward 7 unknown #
-850 ptlist-eye-attrib $-1 $-1 $-1 $728 #
-851 vertex $-1 $849 $918 #
-852 straight-curve $-1 12 172.5 2.8999999999999995 -24 0 0 F 0 F 1 #
-853 point $-1 -12 172.5 2.9000000000000004 #
-854 coedge $-1 $765 $902 $733 $855 forward $623 $-1 #
-855 edge $919 $858 0 $857 3.1415926535897931 $854 $920 forward 7 unknown #
-856 ptlist-eye-attrib $-1 $-1 $-1 $735 #
-857 vertex $-1 $855 $921 #
-858 vertex $-1 $855 $922 #
-859 ellipse-curve $-1 0 222.59988805310525 2.8999999999999999 0 0 1
-1.0999999999999999 0 0 1 F 0 F 3.1415926535897931 #
-860 coedge $-1 $736 $915 $738 $864 forward $724 $-1 #
-861 ptlist-eye-attrib $-1 $-1 $-1 $737 #
-862 ellipse-curve $-1 0 177.40011194689475 2.8999999999999999 0 0 1
1.0999999999999999 0 0 1 F 0 F 3.1415926535897931 #
-863 coedge $-1 $739 $738 $787 $885 reversed $740 $-1 #
-864 edge $923 $924 0 $743 1 $738 $925 forward 7 unknown #
-865 edge $926 $927 0 $742 1 $739 $928 forward 7 unknown #
-866 point $-1 -1.0999999999999999 177.40011194689475 2.8999999999999999 #
-867 point $-1 1.0999999999999999 177.40011194689475 2.8999999999999999 #
-868 point $-1 -15 224.5 2.9000000000000004 #
-869 ptlist-eye-attrib $-1 $-1 $-1 $752 #
-870 vertex $-1 $752 $929 #
-871 straight-curve $-1 15 224.5 2.9000000000000004 0 -49 0 F 0 F 1 #
-872 point $-1 15 224.5 2.9000000000000004 #
-873 ptlist-eye-attrib $-1 $-1 $-1 $758 #
-874 straight-curve $-1 12 227.5 2.9000000000000004 -2.1316282072803006e-14 0
-2.6000000000000001 F 0 F 1 #
-875 ptlist-eye-attrib $-1 $-1 $-1 $759 #
-876 vertex $-1 $838 $930 #
-877 straight-curve $-1 -12.000000000000009 227.5 0.30000000000000027
8.8817841970012523e-15 0 2.6000000000000001 F 0 F 1 #
-878 plane-surface $-1 0 227.5 0 0 1 0 -1 0 0 forward_v F -12.48 F 12.48 F
0.22439152428464121 F 2.9756084757153589 #
-879 edge $931 $831 0 $857 1 $828 $932 forward 7 unknown #
-880 ptlist-eye-attrib $-1 $-1 $-1 $768 #
-881 straight-curve $-1 -12.75 218.75 2.9000000000000004 4.0000000000000249 0 0
F 0 F 1 #
-882 point $-1 -8.7499999999999751 218.75 2.8999999999999995 #
-883 point $-1 -12.75 218.75 2.9000000000000004 #
-884 coedge $-1 $787 $787 $915 $933 forward $663 $-1 #
-885 edge $934 $927 0 $924 3.1415926535897931 $863 $935 forward 7 unknown #
-886 plane-surface $-1 0 172.5 0 0 -1 0 1 0 0 forward_v F -12.48 F 12.48 F
0.22439152428464121 F 2.9756084757153589 #
-887 ptlist-eye-attrib $-1 $-1 $-1 $791 #
-888 straight-curve $-1 -8.2499999999999929 219.25 2.9000000000000004
16.499999999999996 0 0 F 0 F 1 #
-889 ptlist-eye-attrib $-1 $-1 $-1 $796 #
-890 straight-curve $-1 -12.75 214.75 2.9000000000000004 0 4 0 F 0 F 1 #
-891 point $-1 -12.75 214.75 2.8999999999999995 #
-892 ptlist-eye-attrib $-1 $-1 $-1 $808 #
-893 ellipse-curve $-1 -12 224.5 0.30000000000000249 0 0 -1 -3 0 0 1 F 0 F
1.5707963267948859 #
-894 point $-1 -15 224.5 0.30000000000000049 #
-895 ptlist-eye-attrib $-1 $-1 $-1 $812 #
-896 straight-curve $-1 -15 224.5 0.30000000000000049 0 0 2.5999999999999996 F
0 F 1 #
-897 edge $936 $821 0 $851 1 $817 $937 forward 7 unknown #
-898 point $-1 12.000000000000032 172.5 0.30000000000000071 #
-899 ptlist-eye-attrib $-1 $-1 $-1 $823 #
-900 straight-curve $-1 -12 172.5 2.9000000000000004 2.1316282072803006e-14 0
-2.6000000000000001 F 0 F 1 #
-901 cone-surface $-1 -12 175.5 15.734120000000001 0 0 -1 0 -3 0 1 I I 0 1 1
forward I I I I #
-902 coedge $-1 $854 $826 $829 $905 forward $623 $-1 #
-903 ptlist-eye-attrib $-1 $-1 $-1 $827 #
-904 ellipse-curve $-1 0 222.59988805310525 0.29999999999999982 0 0 1
1.0999999999999999 0 0 1 F 0 F 3.1415926535897931 #
-905 edge $938 $832 0 $858 1 $829 $939 forward 7 unknown #
-906 point $-1 -1.0999999999999999 222.59988805310525 0.29999999999999982 #
-907 point $-1 1.0999999999999999 222.59988805310525 0.29999999999999982 #
-908 ptlist-eye-attrib $-1 $-1 $-1 $838 #
-909 straight-curve $-1 11.999999999999979 227.5 0.30000000000000021
-23.999999999999986 0 0 F 0 F 1 #
-910 point $-1 11.999999999999936 227.5 0.29999999999999893 #
-911 ptlist-eye-attrib $-1 $-1 $-1 $842 #
-912 straight-curve $-1 15 224.5 2.9000000000000004 0 0 -2.5999999999999996 F 0
F 1 #
-913 ptlist-eye-attrib $-1 $-1 $-1 $843 #
-914 straight-curve $-1 15 175.5 0.29999999999999988 0 0 2.6000000000000005 F 0
F 1 #
-915 coedge $-1 $860 $847 $884 $933 reversed $724 $-1 #
-916 ptlist-eye-attrib $-1 $-1 $-1 $849 #
-917 ellipse-curve $-1 12 175.5 2.8999999999999986 0 0 1 0 -3 0 1 F 0 F
1.5707963267948966 #
-918 point $-1 12 172.5 2.8999999999999986 #
-919 ptlist-eye-attrib $-1 $-1 $-1 $855 #
-920 ellipse-curve $-1 0 222.59988805310525 2.8999999999999999 0 0 1
1.0999999999999999 0 0 1 F 0 F 3.1415926535897931 #
-921 point $-1 -1.0999999999999999 222.59988805310525 2.8999999999999999 #
-922 point $-1 1.0999999999999999 222.59988805310525 2.8999999999999999 #
-923 ptlist-eye-attrib $-1 $-1 $-1 $864 #
-924 vertex $-1 $933 $940 #
-925 straight-curve $-1 1.0999999999999996 177.40011194689475
0.30000000000000049 0 0 2.5999999999999996 F 0 F 1 #
-926 ptlist-eye-attrib $-1 $-1 $-1 $865 #
-927 vertex $-1 $933 $941 #
-928 straight-curve $-1 -1.0999999999999996 177.40011194689475
0.30000000000000049 0 0 2.5999999999999996 F 0 F 1 #
-929 point $-1 15 175.5 2.8999999999999986 #
-930 point $-1 -12.000000000000032 227.5 0.30000000000000249 #
-931 ptlist-eye-attrib $-1 $-1 $-1 $879 #
-932 straight-curve $-1 -1.0999999999999996 222.59988805310519
0.30000000000000049 0 0 2.5999999999999996 F 0 F 1 #
-933 edge $942 $924 0 $927 3.1415926535897931 $915 $943 forward 7 unknown #
-934 ptlist-eye-attrib $-1 $-1 $-1 $885 #
-935 ellipse-curve $-1 0 177.40011194689475 0.29999999999999982 0 0 1
-1.0999999999999999 0 0 1 F 0 F 3.1415926535897931 #
-936 ptlist-eye-attrib $-1 $-1 $-1 $897 #
-937 straight-curve $-1 12.000000000000009 172.5 0.30000000000000027
-8.8817841970012523e-15 0 2.6000000000000001 F 0 F 1 #
-938 ptlist-eye-attrib $-1 $-1 $-1 $905 #
-939 straight-curve $-1 1.0999999999999996 222.59988805310519
0.30000000000000049 0 0 2.5999999999999996 F 0 F 1 #
-940 point $-1 1.0999999999999999 177.40011194689475 0.29999999999999982 #
-941 point $-1 -1.0999999999999999 177.40011194689475 0.29999999999999982 #
-942 ptlist-eye-attrib $-1 $-1 $-1 $933 #
-943 ellipse-curve $-1 0 177.40011194689475 0.29999999999999982 0 0 1
1.0999999999999999 0 0 1 F 0 F 3.1415926535897931 #
End-of-ACIS-data
