ISO-10303-21;
HEADER;
FILE_DESCRIPTION((''),'2;1');
FILE_NAME('SUB_COVER_NEW','2025-01-27T13:58:40',('iw87ukax'),(''),
'CREO PARAMETRIC BY PTC INC, 2019010','CREO PARAMETRIC BY PTC INC, 2019010','');
FILE_SCHEMA(('CONFIG_CONTROL_DESIGN'));
ENDSEC;
DATA;
#1=CARTESIAN_POINT('',(0.E0,2.E2,1.8E0));
#2=DIRECTION('',(0.E0,0.E0,-1.E0));
#3=DIRECTION('',(1.E0,0.E0,0.E0));
#4=AXIS2_PLACEMENT_3D('',#1,#2,#3);
#6=CARTESIAN_POINT('',(0.E0,2.E2,1.8E0));
#7=DIRECTION('',(0.E0,0.E0,-1.E0));
#8=DIRECTION('',(-1.E0,0.E0,0.E0));
#9=AXIS2_PLACEMENT_3D('',#6,#7,#8);
#11=DIRECTION('',(1.E0,0.E0,0.E0));
#12=VECTOR('',#11,3.25E0);
#13=CARTESIAN_POINT('',(-1.325E1,1.93E2,1.8E0));
#14=LINE('',#13,#12);
#15=DIRECTION('',(0.E0,1.E0,0.E0));
#16=VECTOR('',#15,1.4E1);
#17=CARTESIAN_POINT('',(-1.E1,1.93E2,1.8E0));
#18=LINE('',#17,#16);
#19=DIRECTION('',(1.E0,0.E0,0.E0));
#20=VECTOR('',#19,3.25E0);
#21=CARTESIAN_POINT('',(-1.325E1,2.07E2,1.8E0));
#22=LINE('',#21,#20);
#23=DIRECTION('',(0.E0,-1.E0,0.E0));
#24=VECTOR('',#23,7.25E0);
#25=CARTESIAN_POINT('',(-1.325E1,2.1425E2,1.8E0));
#26=LINE('',#25,#24);
#27=DIRECTION('',(-7.071067811865E-1,-7.071067811865E-1,0.E0));
#28=VECTOR('',#27,7.071067811865E0);
#29=CARTESIAN_POINT('',(-8.25E0,2.1925E2,1.8E0));
#30=LINE('',#29,#28);
#31=DIRECTION('',(-1.E0,0.E0,0.E0));
#32=VECTOR('',#31,1.65E1);
#33=CARTESIAN_POINT('',(8.25E0,2.1925E2,1.8E0));
#34=LINE('',#33,#32);
#35=DIRECTION('',(-7.071067811865E-1,7.071067811865E-1,0.E0));
#36=VECTOR('',#35,7.071067811865E0);
#37=CARTESIAN_POINT('',(1.325E1,2.1425E2,1.8E0));
#38=LINE('',#37,#36);
#39=DIRECTION('',(0.E0,1.E0,0.E0));
#40=VECTOR('',#39,2.85E1);
#41=CARTESIAN_POINT('',(1.325E1,1.8575E2,1.8E0));
#42=LINE('',#41,#40);
#43=DIRECTION('',(7.071067811865E-1,7.071067811865E-1,0.E0));
#44=VECTOR('',#43,7.071067811865E0);
#45=CARTESIAN_POINT('',(8.25E0,1.8075E2,1.8E0));
#46=LINE('',#45,#44);
#47=DIRECTION('',(1.E0,0.E0,0.E0));
#48=VECTOR('',#47,1.65E1);
#49=CARTESIAN_POINT('',(-8.25E0,1.8075E2,1.8E0));
#50=LINE('',#49,#48);
#51=DIRECTION('',(7.071067811865E-1,-7.071067811865E-1,0.E0));
#52=VECTOR('',#51,7.071067811865E0);
#53=CARTESIAN_POINT('',(-1.325E1,1.8575E2,1.8E0));
#54=LINE('',#53,#52);
#55=DIRECTION('',(0.E0,-1.E0,0.E0));
#56=VECTOR('',#55,7.25E0);
#57=CARTESIAN_POINT('',(-1.325E1,1.93E2,1.8E0));
#58=LINE('',#57,#56);
#59=CARTESIAN_POINT('',(0.E0,2.E2,3.55E0));
#60=DIRECTION('',(0.E0,0.E0,1.E0));
#61=DIRECTION('',(-1.E0,0.E0,0.E0));
#62=AXIS2_PLACEMENT_3D('',#59,#60,#61);
#64=DIRECTION('',(0.E0,0.E0,1.E0));
#65=VECTOR('',#64,1.75E0);
#66=CARTESIAN_POINT('',(4.E0,2.E2,1.8E0));
#67=LINE('',#66,#65);
#68=DIRECTION('',(0.E0,0.E0,1.E0));
#69=VECTOR('',#68,1.75E0);
#70=CARTESIAN_POINT('',(-4.E0,2.E2,1.8E0));
#71=LINE('',#70,#69);
#72=CARTESIAN_POINT('',(0.E0,2.E2,3.55E0));
#73=DIRECTION('',(0.E0,0.E0,1.E0));
#74=DIRECTION('',(1.E0,0.E0,0.E0));
#75=AXIS2_PLACEMENT_3D('',#72,#73,#74);
#77=DIRECTION('',(7.071067811866E-1,-7.071067811865E-1,0.E0));
#78=VECTOR('',#77,5.656854249492E0);
#79=CARTESIAN_POINT('',(-1.275E1,1.8525E2,3.55E0));
#80=LINE('',#79,#78);
#81=DIRECTION('',(0.E0,0.E0,-1.E0));
#82=VECTOR('',#81,6.5E-1);
#83=CARTESIAN_POINT('',(-1.275E1,1.8525E2,3.55E0));
#84=LINE('',#83,#82);
#85=DIRECTION('',(-7.071067811865E-1,7.071067811866E-1,0.E0));
#86=VECTOR('',#85,7.071067811866E-1);
#87=CARTESIAN_POINT('',(-1.275E1,1.8525E2,2.9E0));
#88=LINE('',#87,#86);
#89=DIRECTION('',(0.E0,0.E0,1.E0));
#90=VECTOR('',#89,1.1E0);
#91=CARTESIAN_POINT('',(-1.325E1,1.8575E2,1.8E0));
#92=LINE('',#91,#90);
#93=DIRECTION('',(0.E0,0.E0,-1.E0));
#94=VECTOR('',#93,1.1E0);
#95=CARTESIAN_POINT('',(-8.25E0,1.8075E2,2.9E0));
#96=LINE('',#95,#94);
#97=DIRECTION('',(-7.071067811865E-1,7.071067811865E-1,0.E0));
#98=VECTOR('',#97,7.071067811865E-1);
#99=CARTESIAN_POINT('',(-8.25E0,1.8075E2,2.9E0));
#100=LINE('',#99,#98);
#101=DIRECTION('',(0.E0,0.E0,-1.E0));
#102=VECTOR('',#101,6.5E-1);
#103=CARTESIAN_POINT('',(-8.75E0,1.8125E2,3.55E0));
#104=LINE('',#103,#102);
#105=DIRECTION('',(0.E0,1.E0,0.E0));
#106=VECTOR('',#105,4.E0);
#107=CARTESIAN_POINT('',(-1.275E1,1.8125E2,3.55E0));
#108=LINE('',#107,#106);
#109=DIRECTION('',(0.E0,0.E0,-1.E0));
#110=VECTOR('',#109,6.5E-1);
#111=CARTESIAN_POINT('',(-1.275E1,1.8125E2,3.55E0));
#112=LINE('',#111,#110);
#113=DIRECTION('',(0.E0,1.E0,0.E0));
#114=VECTOR('',#113,4.E0);
#115=CARTESIAN_POINT('',(-1.275E1,2.1475E2,3.55E0));
#116=LINE('',#115,#114);
#117=DIRECTION('',(-1.E0,0.E0,0.E0));
#118=VECTOR('',#117,4.E0);
#119=CARTESIAN_POINT('',(1.275E1,1.8125E2,3.55E0));
#120=LINE('',#119,#118);
#121=DIRECTION('',(0.E0,0.E0,-1.E0));
#122=VECTOR('',#121,6.5E-1);
#123=CARTESIAN_POINT('',(1.275E1,1.8125E2,3.55E0));
#124=LINE('',#123,#122);
#125=DIRECTION('',(-1.E0,0.E0,0.E0));
#126=VECTOR('',#125,4.E0);
#127=CARTESIAN_POINT('',(-8.75E0,1.8125E2,3.55E0));
#128=LINE('',#127,#126);
#129=DIRECTION('',(0.E0,-1.E0,0.E0));
#130=VECTOR('',#129,4.E0);
#131=CARTESIAN_POINT('',(1.275E1,2.1875E2,3.55E0));
#132=LINE('',#131,#130);
#133=DIRECTION('',(0.E0,0.E0,-1.E0));
#134=VECTOR('',#133,6.5E-1);
#135=CARTESIAN_POINT('',(1.275E1,2.1875E2,3.55E0));
#136=LINE('',#135,#134);
#137=DIRECTION('',(0.E0,-1.E0,0.E0));
#138=VECTOR('',#137,4.E0);
#139=CARTESIAN_POINT('',(1.275E1,1.8525E2,3.55E0));
#140=LINE('',#139,#138);
#141=DIRECTION('',(1.E0,0.E0,0.E0));
#142=VECTOR('',#141,4.E0);
#143=CARTESIAN_POINT('',(-1.275E1,2.1875E2,3.55E0));
#144=LINE('',#143,#142);
#145=DIRECTION('',(0.E0,0.E0,-1.E0));
#146=VECTOR('',#145,6.5E-1);
#147=CARTESIAN_POINT('',(-1.275E1,2.1875E2,3.55E0));
#148=LINE('',#147,#146);
#149=DIRECTION('',(1.E0,0.E0,0.E0));
#150=VECTOR('',#149,4.E0);
#151=CARTESIAN_POINT('',(8.75E0,2.1875E2,3.55E0));
#152=LINE('',#151,#150);
#153=CARTESIAN_POINT('',(1.2E1,2.245E2,2.9E0));
#154=DIRECTION('',(0.E0,0.E0,1.E0));
#155=DIRECTION('',(1.E0,0.E0,0.E0));
#156=AXIS2_PLACEMENT_3D('',#153,#154,#155);
#158=DIRECTION('',(0.E0,-1.E0,0.E0));
#159=VECTOR('',#158,4.9E1);
#160=CARTESIAN_POINT('',(1.5E1,2.245E2,2.9E0));
#161=LINE('',#160,#159);
#162=CARTESIAN_POINT('',(1.2E1,1.755E2,2.9E0));
#163=DIRECTION('',(0.E0,0.E0,1.E0));
#164=DIRECTION('',(0.E0,-1.E0,0.E0));
#165=AXIS2_PLACEMENT_3D('',#162,#163,#164);
#167=CARTESIAN_POINT('',(-1.2E1,1.755E2,2.9E0));
#168=DIRECTION('',(0.E0,0.E0,1.E0));
#169=DIRECTION('',(-1.E0,0.E0,0.E0));
#170=AXIS2_PLACEMENT_3D('',#167,#168,#169);
#172=DIRECTION('',(0.E0,1.E0,0.E0));
#173=VECTOR('',#172,1.75E1);
#174=CARTESIAN_POINT('',(-1.5E1,1.755E2,2.9E0));
#175=LINE('',#174,#173);
#176=DIRECTION('',(0.E0,1.E0,0.E0));
#177=VECTOR('',#176,4.E0);
#178=CARTESIAN_POINT('',(-1.275E1,1.8125E2,2.9E0));
#179=LINE('',#178,#177);
#180=DIRECTION('',(-1.E0,0.E0,0.E0));
#181=VECTOR('',#180,4.E0);
#182=CARTESIAN_POINT('',(-8.75E0,1.8125E2,2.9E0));
#183=LINE('',#182,#181);
#184=DIRECTION('',(-1.E0,0.E0,0.E0));
#185=VECTOR('',#184,4.E0);
#186=CARTESIAN_POINT('',(1.275E1,1.8125E2,2.9E0));
#187=LINE('',#186,#185);
#188=DIRECTION('',(0.E0,-1.E0,0.E0));
#189=VECTOR('',#188,4.E0);
#190=CARTESIAN_POINT('',(1.275E1,1.8525E2,2.9E0));
#191=LINE('',#190,#189);
#192=DIRECTION('',(0.E0,-1.E0,0.E0));
#193=VECTOR('',#192,4.E0);
#194=CARTESIAN_POINT('',(1.275E1,2.1875E2,2.9E0));
#195=LINE('',#194,#193);
#196=DIRECTION('',(1.E0,0.E0,0.E0));
#197=VECTOR('',#196,4.E0);
#198=CARTESIAN_POINT('',(8.75E0,2.1875E2,2.9E0));
#199=LINE('',#198,#197);
#200=DIRECTION('',(1.E0,0.E0,0.E0));
#201=VECTOR('',#200,4.E0);
#202=CARTESIAN_POINT('',(-1.275E1,2.1875E2,2.9E0));
#203=LINE('',#202,#201);
#204=DIRECTION('',(0.E0,1.E0,0.E0));
#205=VECTOR('',#204,4.E0);
#206=CARTESIAN_POINT('',(-1.275E1,2.1475E2,2.9E0));
#207=LINE('',#206,#205);
#208=DIRECTION('',(0.E0,1.E0,0.E0));
#209=VECTOR('',#208,1.75E1);
#210=CARTESIAN_POINT('',(-1.5E1,2.07E2,2.9E0));
#211=LINE('',#210,#209);
#212=CARTESIAN_POINT('',(-1.2E1,2.245E2,2.9E0));
#213=DIRECTION('',(0.E0,0.E0,1.E0));
#214=DIRECTION('',(0.E0,1.E0,0.E0));
#215=AXIS2_PLACEMENT_3D('',#212,#213,#214);
#217=CARTESIAN_POINT('',(0.E0,2.225998880531E2,2.9E0));
#218=DIRECTION('',(0.E0,0.E0,1.E0));
#219=DIRECTION('',(1.E0,0.E0,0.E0));
#220=AXIS2_PLACEMENT_3D('',#217,#218,#219);
#222=CARTESIAN_POINT('',(0.E0,2.225998880531E2,2.9E0));
#223=DIRECTION('',(0.E0,0.E0,1.E0));
#224=DIRECTION('',(-1.E0,0.E0,0.E0));
#225=AXIS2_PLACEMENT_3D('',#222,#223,#224);
#227=DIRECTION('',(0.E0,0.E0,1.E0));
#228=VECTOR('',#227,2.6E0);
#229=CARTESIAN_POINT('',(-1.1E0,2.225998880531E2,3.E-1));
#230=LINE('',#229,#228);
#231=DIRECTION('',(0.E0,0.E0,1.E0));
#232=VECTOR('',#231,2.6E0);
#233=CARTESIAN_POINT('',(1.1E0,2.225998880531E2,3.E-1));
#234=LINE('',#233,#232);
#235=CARTESIAN_POINT('',(0.E0,1.774001119469E2,3.E-1));
#236=DIRECTION('',(0.E0,0.E0,1.E0));
#237=DIRECTION('',(1.E0,0.E0,0.E0));
#238=AXIS2_PLACEMENT_3D('',#235,#236,#237);
#240=CARTESIAN_POINT('',(0.E0,1.774001119469E2,3.E-1));
#241=DIRECTION('',(0.E0,0.E0,1.E0));
#242=DIRECTION('',(-1.E0,0.E0,0.E0));
#243=AXIS2_PLACEMENT_3D('',#240,#241,#242);
#245=CARTESIAN_POINT('',(0.E0,2.225998880531E2,3.E-1));
#246=DIRECTION('',(0.E0,0.E0,1.E0));
#247=DIRECTION('',(1.E0,0.E0,0.E0));
#248=AXIS2_PLACEMENT_3D('',#245,#246,#247);
#250=CARTESIAN_POINT('',(0.E0,2.225998880531E2,3.E-1));
#251=DIRECTION('',(0.E0,0.E0,1.E0));
#252=DIRECTION('',(-1.E0,0.E0,0.E0));
#253=AXIS2_PLACEMENT_3D('',#250,#251,#252);
#255=CARTESIAN_POINT('',(0.E0,2.E2,3.E-1));
#256=DIRECTION('',(0.E0,0.E0,1.E0));
#257=DIRECTION('',(1.E0,0.E0,0.E0));
#258=AXIS2_PLACEMENT_3D('',#255,#256,#257);
#260=CARTESIAN_POINT('',(0.E0,2.E2,3.E-1));
#261=DIRECTION('',(0.E0,0.E0,1.E0));
#262=DIRECTION('',(-1.E0,0.E0,0.E0));
#263=AXIS2_PLACEMENT_3D('',#260,#261,#262);
#265=CARTESIAN_POINT('',(1.2E1,2.245E2,3.E-1));
#266=DIRECTION('',(0.E0,0.E0,-1.E0));
#267=DIRECTION('',(-2.131628207280E-14,1.E0,0.E0));
#268=AXIS2_PLACEMENT_3D('',#265,#266,#267);
#270=CARTESIAN_POINT('',(-1.2E1,2.245E2,3.E-1));
#271=DIRECTION('',(0.E0,0.E0,-1.E0));
#272=DIRECTION('',(-1.E0,0.E0,0.E0));
#273=AXIS2_PLACEMENT_3D('',#270,#271,#272);
#275=DIRECTION('',(0.E0,1.E0,0.E0));
#276=VECTOR('',#275,1.4E1);
#277=CARTESIAN_POINT('',(-1.E1,1.93E2,3.E-1));
#278=LINE('',#277,#276);
#279=DIRECTION('',(0.E0,-1.E0,0.E0));
#280=VECTOR('',#279,1.75E1);
#281=CARTESIAN_POINT('',(-1.5E1,1.93E2,3.E-1));
#282=LINE('',#281,#280);
#283=CARTESIAN_POINT('',(-1.2E1,1.755E2,3.E-1));
#284=DIRECTION('',(0.E0,0.E0,-1.E0));
#285=DIRECTION('',(2.131628207280E-14,-1.E0,0.E0));
#286=AXIS2_PLACEMENT_3D('',#283,#284,#285);
#288=CARTESIAN_POINT('',(1.2E1,1.755E2,3.E-1));
#289=DIRECTION('',(0.E0,0.E0,-1.E0));
#290=DIRECTION('',(1.E0,0.E0,0.E0));
#291=AXIS2_PLACEMENT_3D('',#288,#289,#290);
#293=CARTESIAN_POINT('',(0.E0,1.774001119469E2,2.9E0));
#294=DIRECTION('',(0.E0,0.E0,1.E0));
#295=DIRECTION('',(1.E0,0.E0,0.E0));
#296=AXIS2_PLACEMENT_3D('',#293,#294,#295);
#298=CARTESIAN_POINT('',(0.E0,1.774001119469E2,2.9E0));
#299=DIRECTION('',(0.E0,0.E0,1.E0));
#300=DIRECTION('',(-1.E0,0.E0,0.E0));
#301=AXIS2_PLACEMENT_3D('',#298,#299,#300);
#303=DIRECTION('',(0.E0,0.E0,1.E0));
#304=VECTOR('',#303,2.6E0);
#305=CARTESIAN_POINT('',(-1.1E0,1.774001119469E2,3.E-1));
#306=LINE('',#305,#304);
#307=DIRECTION('',(0.E0,0.E0,1.E0));
#308=VECTOR('',#307,2.6E0);
#309=CARTESIAN_POINT('',(1.1E0,1.774001119469E2,3.E-1));
#310=LINE('',#309,#308);
#311=CARTESIAN_POINT('',(0.E0,2.E2,3.55E0));
#312=DIRECTION('',(0.E0,0.E0,1.E0));
#313=DIRECTION('',(1.E0,0.E0,0.E0));
#314=AXIS2_PLACEMENT_3D('',#311,#312,#313);
#316=CARTESIAN_POINT('',(0.E0,2.E2,3.55E0));
#317=DIRECTION('',(0.E0,0.E0,1.E0));
#318=DIRECTION('',(-1.E0,0.E0,0.E0));
#319=AXIS2_PLACEMENT_3D('',#316,#317,#318);
#321=DIRECTION('',(0.E0,0.E0,1.E0));
#322=VECTOR('',#321,3.25E0);
#323=CARTESIAN_POINT('',(-1.1E0,2.E2,3.E-1));
#324=LINE('',#323,#322);
#325=DIRECTION('',(0.E0,0.E0,1.E0));
#326=VECTOR('',#325,3.25E0);
#327=CARTESIAN_POINT('',(1.1E0,2.E2,3.E-1));
#328=LINE('',#327,#326);
#329=DIRECTION('',(0.E0,0.E0,-1.E0));
#330=VECTOR('',#329,2.6E0);
#331=CARTESIAN_POINT('',(1.5E1,2.245E2,2.9E0));
#332=LINE('',#331,#330);
#333=DIRECTION('',(0.E0,-1.E0,0.E0));
#334=VECTOR('',#333,4.9E1);
#335=CARTESIAN_POINT('',(1.5E1,2.245E2,3.E-1));
#336=LINE('',#335,#334);
#337=DIRECTION('',(0.E0,0.E0,1.E0));
#338=VECTOR('',#337,2.6E0);
#339=CARTESIAN_POINT('',(1.5E1,1.755E2,3.E-1));
#340=LINE('',#339,#338);
#341=DIRECTION('',(0.E0,0.E0,1.E0));
#342=VECTOR('',#341,2.6E0);
#343=CARTESIAN_POINT('',(1.2E1,1.725E2,3.E-1));
#344=LINE('',#343,#342);
#345=DIRECTION('',(1.E0,0.E0,0.E0));
#346=VECTOR('',#345,2.4E1);
#347=CARTESIAN_POINT('',(-1.2E1,1.725E2,3.E-1));
#348=LINE('',#347,#346);
#349=DIRECTION('',(0.E0,0.E0,-1.E0));
#350=VECTOR('',#349,2.6E0);
#351=CARTESIAN_POINT('',(-1.2E1,1.725E2,2.9E0));
#352=LINE('',#351,#350);
#353=DIRECTION('',(-1.E0,0.E0,0.E0));
#354=VECTOR('',#353,2.4E1);
#355=CARTESIAN_POINT('',(1.2E1,1.725E2,2.9E0));
#356=LINE('',#355,#354);
#357=DIRECTION('',(0.E0,0.E0,1.E0));
#358=VECTOR('',#357,2.6E0);
#359=CARTESIAN_POINT('',(-1.5E1,2.245E2,3.E-1));
#360=LINE('',#359,#358);
#361=DIRECTION('',(0.E0,0.E0,-1.E0));
#362=VECTOR('',#361,2.6E0);
#363=CARTESIAN_POINT('',(-1.5E1,2.07E2,2.9E0));
#364=LINE('',#363,#362);
#365=DIRECTION('',(0.E0,1.E0,0.E0));
#366=VECTOR('',#365,1.75E1);
#367=CARTESIAN_POINT('',(-1.5E1,2.07E2,3.E-1));
#368=LINE('',#367,#366);
#369=DIRECTION('',(0.E0,0.E0,-1.E0));
#370=VECTOR('',#369,2.6E0);
#371=CARTESIAN_POINT('',(-1.5E1,1.755E2,2.9E0));
#372=LINE('',#371,#370);
#373=DIRECTION('',(0.E0,0.E0,1.E0));
#374=VECTOR('',#373,2.6E0);
#375=CARTESIAN_POINT('',(-1.5E1,1.93E2,3.E-1));
#376=LINE('',#375,#374);
#377=DIRECTION('',(0.E0,0.E0,-1.E0));
#378=VECTOR('',#377,2.6E0);
#379=CARTESIAN_POINT('',(1.2E1,2.275E2,2.9E0));
#380=LINE('',#379,#378);
#381=DIRECTION('',(1.E0,0.E0,0.E0));
#382=VECTOR('',#381,2.4E1);
#383=CARTESIAN_POINT('',(-1.2E1,2.275E2,2.9E0));
#384=LINE('',#383,#382);
#385=DIRECTION('',(0.E0,0.E0,1.E0));
#386=VECTOR('',#385,2.6E0);
#387=CARTESIAN_POINT('',(-1.2E1,2.275E2,3.E-1));
#388=LINE('',#387,#386);
#389=DIRECTION('',(-1.E0,0.E0,0.E0));
#390=VECTOR('',#389,2.4E1);
#391=CARTESIAN_POINT('',(1.2E1,2.275E2,3.E-1));
#392=LINE('',#391,#390);
#393=DIRECTION('',(-1.E0,0.E0,0.E0));
#394=VECTOR('',#393,1.75E0);
#395=CARTESIAN_POINT('',(-1.325E1,2.07E2,2.9E0));
#396=LINE('',#395,#394);
#397=DIRECTION('',(0.E0,0.E0,-1.E0));
#398=VECTOR('',#397,1.5E0);
#399=CARTESIAN_POINT('',(-1.E1,2.07E2,1.8E0));
#400=LINE('',#399,#398);
#401=DIRECTION('',(-1.E0,0.E0,0.E0));
#402=VECTOR('',#401,5.E0);
#403=CARTESIAN_POINT('',(-1.E1,2.07E2,3.E-1));
#404=LINE('',#403,#402);
#405=DIRECTION('',(0.E0,1.E0,0.E0));
#406=VECTOR('',#405,7.25E0);
#407=CARTESIAN_POINT('',(-1.325E1,1.8575E2,2.9E0));
#408=LINE('',#407,#406);
#409=DIRECTION('',(0.E0,0.E0,1.E0));
#410=VECTOR('',#409,1.1E0);
#411=CARTESIAN_POINT('',(-1.325E1,1.93E2,1.8E0));
#412=LINE('',#411,#410);
#413=DIRECTION('',(0.E0,1.E0,0.E0));
#414=VECTOR('',#413,7.25E0);
#415=CARTESIAN_POINT('',(-1.325E1,2.07E2,2.9E0));
#416=LINE('',#415,#414);
#417=DIRECTION('',(0.E0,0.E0,1.E0));
#418=VECTOR('',#417,1.1E0);
#419=CARTESIAN_POINT('',(-1.325E1,2.07E2,1.8E0));
#420=LINE('',#419,#418);
#421=DIRECTION('',(1.E0,0.E0,0.E0));
#422=VECTOR('',#421,1.75E0);
#423=CARTESIAN_POINT('',(-1.5E1,1.93E2,2.9E0));
#424=LINE('',#423,#422);
#425=DIRECTION('',(1.E0,0.E0,0.E0));
#426=VECTOR('',#425,5.E0);
#427=CARTESIAN_POINT('',(-1.5E1,1.93E2,3.E-1));
#428=LINE('',#427,#426);
#429=DIRECTION('',(0.E0,0.E0,-1.E0));
#430=VECTOR('',#429,1.5E0);
#431=CARTESIAN_POINT('',(-1.E1,1.93E2,1.8E0));
#432=LINE('',#431,#430);
#433=DIRECTION('',(7.071067811865E-1,7.071067811865E-1,0.E0));
#434=VECTOR('',#433,5.656854249492E0);
#435=CARTESIAN_POINT('',(-1.275E1,2.1475E2,3.55E0));
#436=LINE('',#435,#434);
#437=DIRECTION('',(1.912999673200E-14,0.E0,-1.E0));
#438=VECTOR('',#437,6.5E-1);
#439=CARTESIAN_POINT('',(-8.75E0,2.1875E2,3.55E0));
#440=LINE('',#439,#438);
#441=DIRECTION('',(7.071067811865E-1,7.071067811866E-1,0.E0));
#442=VECTOR('',#441,7.071067811865E-1);
#443=CARTESIAN_POINT('',(-8.75E0,2.1875E2,2.9E0));
#444=LINE('',#443,#442);
#445=DIRECTION('',(2.260817795600E-14,0.E0,1.E0));
#446=VECTOR('',#445,1.1E0);
#447=CARTESIAN_POINT('',(-8.25E0,2.1925E2,1.8E0));
#448=LINE('',#447,#446);
#449=DIRECTION('',(0.E0,5.167583532801E-14,-1.E0));
#450=VECTOR('',#449,1.1E0);
#451=CARTESIAN_POINT('',(-1.325E1,2.1425E2,2.9E0));
#452=LINE('',#451,#450);
#453=DIRECTION('',(7.071067811866E-1,7.071067811865E-1,0.E0));
#454=VECTOR('',#453,7.071067811866E-1);
#455=CARTESIAN_POINT('',(-1.325E1,2.1425E2,2.9E0));
#456=LINE('',#455,#454);
#457=DIRECTION('',(0.E0,0.E0,-1.E0));
#458=VECTOR('',#457,6.5E-1);
#459=CARTESIAN_POINT('',(-1.275E1,2.1475E2,3.55E0));
#460=LINE('',#459,#458);
#461=DIRECTION('',(1.E0,0.E0,0.E0));
#462=VECTOR('',#461,1.65E1);
#463=CARTESIAN_POINT('',(-8.25E0,2.1925E2,2.9E0));
#464=LINE('',#463,#462);
#465=DIRECTION('',(-7.071067811865E-1,7.071067811865E-1,0.E0));
#466=VECTOR('',#465,5.656854249492E0);
#467=CARTESIAN_POINT('',(1.275E1,2.1475E2,3.55E0));
#468=LINE('',#467,#466);
#469=DIRECTION('',(0.E0,0.E0,-1.E0));
#470=VECTOR('',#469,6.5E-1);
#471=CARTESIAN_POINT('',(1.275E1,2.1475E2,3.55E0));
#472=LINE('',#471,#470);
#473=DIRECTION('',(7.071067811866E-1,-7.071067811865E-1,0.E0));
#474=VECTOR('',#473,7.071067811866E-1);
#475=CARTESIAN_POINT('',(1.275E1,2.1475E2,2.9E0));
#476=LINE('',#475,#474);
#477=DIRECTION('',(0.E0,0.E0,1.E0));
#478=VECTOR('',#477,1.1E0);
#479=CARTESIAN_POINT('',(1.325E1,2.1425E2,1.8E0));
#480=LINE('',#479,#478);
#481=DIRECTION('',(0.E0,0.E0,-1.E0));
#482=VECTOR('',#481,1.1E0);
#483=CARTESIAN_POINT('',(8.25E0,2.1925E2,2.9E0));
#484=LINE('',#483,#482);
#485=DIRECTION('',(7.071067811866E-1,-7.071067811865E-1,0.E0));
#486=VECTOR('',#485,7.071067811866E-1);
#487=CARTESIAN_POINT('',(8.25E0,2.1925E2,2.9E0));
#488=LINE('',#487,#486);
#489=DIRECTION('',(0.E0,0.E0,-1.E0));
#490=VECTOR('',#489,6.5E-1);
#491=CARTESIAN_POINT('',(8.75E0,2.1875E2,3.55E0));
#492=LINE('',#491,#490);
#493=DIRECTION('',(0.E0,-1.E0,0.E0));
#494=VECTOR('',#493,2.85E1);
#495=CARTESIAN_POINT('',(1.325E1,2.1425E2,2.9E0));
#496=LINE('',#495,#494);
#497=DIRECTION('',(-7.071067811865E-1,-7.071067811866E-1,0.E0));
#498=VECTOR('',#497,5.656854249492E0);
#499=CARTESIAN_POINT('',(1.275E1,1.8525E2,3.55E0));
#500=LINE('',#499,#498);
#501=DIRECTION('',(0.E0,0.E0,-1.E0));
#502=VECTOR('',#501,6.5E-1);
#503=CARTESIAN_POINT('',(8.75E0,1.8125E2,3.55E0));
#504=LINE('',#503,#502);
#505=DIRECTION('',(-7.071067811866E-1,-7.071067811865E-1,0.E0));
#506=VECTOR('',#505,7.071067811866E-1);
#507=CARTESIAN_POINT('',(8.75E0,1.8125E2,2.9E0));
#508=LINE('',#507,#506);
#509=DIRECTION('',(0.E0,0.E0,1.E0));
#510=VECTOR('',#509,1.1E0);
#511=CARTESIAN_POINT('',(8.25E0,1.8075E2,1.8E0));
#512=LINE('',#511,#510);
#513=DIRECTION('',(0.E0,0.E0,-1.E0));
#514=VECTOR('',#513,1.1E0);
#515=CARTESIAN_POINT('',(1.325E1,1.8575E2,2.9E0));
#516=LINE('',#515,#514);
#517=DIRECTION('',(-7.071067811865E-1,-7.071067811865E-1,0.E0));
#518=VECTOR('',#517,7.071067811865E-1);
#519=CARTESIAN_POINT('',(1.325E1,1.8575E2,2.9E0));
#520=LINE('',#519,#518);
#521=DIRECTION('',(0.E0,0.E0,-1.E0));
#522=VECTOR('',#521,6.5E-1);
#523=CARTESIAN_POINT('',(1.275E1,1.8525E2,3.55E0));
#524=LINE('',#523,#522);
#525=DIRECTION('',(-1.E0,0.E0,0.E0));
#526=VECTOR('',#525,1.65E1);
#527=CARTESIAN_POINT('',(8.25E0,1.8075E2,2.9E0));
#528=LINE('',#527,#526);
#529=CARTESIAN_POINT('',(-1.325E1,1.8575E2,1.8E0));
#530=CARTESIAN_POINT('',(-8.25E0,1.8075E2,1.8E0));
#531=VERTEX_POINT('',#529);
#532=VERTEX_POINT('',#530);
#533=CARTESIAN_POINT('',(8.25E0,1.8075E2,1.8E0));
#534=VERTEX_POINT('',#533);
#535=CARTESIAN_POINT('',(1.325E1,1.8575E2,1.8E0));
#536=VERTEX_POINT('',#535);
#537=CARTESIAN_POINT('',(1.325E1,2.1425E2,1.8E0));
#538=VERTEX_POINT('',#537);
#539=CARTESIAN_POINT('',(8.25E0,2.1925E2,1.8E0));
#540=VERTEX_POINT('',#539);
#541=CARTESIAN_POINT('',(-8.25E0,2.1925E2,1.8E0));
#542=VERTEX_POINT('',#541);
#543=CARTESIAN_POINT('',(-1.325E1,2.1425E2,1.8E0));
#544=VERTEX_POINT('',#543);
#545=CARTESIAN_POINT('',(-4.E0,2.E2,1.8E0));
#546=CARTESIAN_POINT('',(4.E0,2.E2,1.8E0));
#547=VERTEX_POINT('',#545);
#548=VERTEX_POINT('',#546);
#549=CARTESIAN_POINT('',(1.1E0,2.225998880531E2,3.E-1));
#550=CARTESIAN_POINT('',(-1.1E0,2.225998880531E2,3.E-1));
#551=VERTEX_POINT('',#549);
#552=VERTEX_POINT('',#550);
#553=CARTESIAN_POINT('',(1.1E0,2.E2,3.E-1));
#554=CARTESIAN_POINT('',(-1.1E0,2.E2,3.E-1));
#555=VERTEX_POINT('',#553);
#556=VERTEX_POINT('',#554);
#557=CARTESIAN_POINT('',(1.1E0,1.774001119469E2,3.E-1));
#558=CARTESIAN_POINT('',(-1.1E0,1.774001119469E2,3.E-1));
#559=VERTEX_POINT('',#557);
#560=VERTEX_POINT('',#558);
#561=CARTESIAN_POINT('',(-1.325E1,1.93E2,1.8E0));
#562=CARTESIAN_POINT('',(-1.E1,1.93E2,1.8E0));
#563=VERTEX_POINT('',#561);
#564=VERTEX_POINT('',#562);
#565=CARTESIAN_POINT('',(-1.E1,2.07E2,1.8E0));
#566=VERTEX_POINT('',#565);
#567=CARTESIAN_POINT('',(-1.325E1,2.07E2,1.8E0));
#568=VERTEX_POINT('',#567);
#569=CARTESIAN_POINT('',(-1.E1,1.93E2,3.E-1));
#570=CARTESIAN_POINT('',(-1.E1,2.07E2,3.E-1));
#571=VERTEX_POINT('',#569);
#572=VERTEX_POINT('',#570);
#573=CARTESIAN_POINT('',(-1.5E1,2.07E2,3.E-1));
#574=VERTEX_POINT('',#573);
#575=CARTESIAN_POINT('',(-1.5E1,1.93E2,3.E-1));
#576=VERTEX_POINT('',#575);
#577=CARTESIAN_POINT('',(-1.325E1,1.8575E2,2.9E0));
#578=CARTESIAN_POINT('',(-1.325E1,1.93E2,2.9E0));
#579=VERTEX_POINT('',#577);
#580=VERTEX_POINT('',#578);
#581=CARTESIAN_POINT('',(-1.325E1,2.07E2,2.9E0));
#582=CARTESIAN_POINT('',(-1.325E1,2.1425E2,2.9E0));
#583=VERTEX_POINT('',#581);
#584=VERTEX_POINT('',#582);
#585=CARTESIAN_POINT('',(8.25E0,1.8075E2,2.9E0));
#586=CARTESIAN_POINT('',(-8.25E0,1.8075E2,2.9E0));
#587=VERTEX_POINT('',#585);
#588=VERTEX_POINT('',#586);
#589=CARTESIAN_POINT('',(1.325E1,2.1425E2,2.9E0));
#590=CARTESIAN_POINT('',(1.325E1,1.8575E2,2.9E0));
#591=VERTEX_POINT('',#589);
#592=VERTEX_POINT('',#590);
#593=CARTESIAN_POINT('',(-8.25E0,2.1925E2,2.9E0));
#594=CARTESIAN_POINT('',(8.25E0,2.1925E2,2.9E0));
#595=VERTEX_POINT('',#593);
#596=VERTEX_POINT('',#594);
#597=CARTESIAN_POINT('',(1.1E0,2.225998880531E2,2.9E0));
#598=CARTESIAN_POINT('',(-1.1E0,2.225998880531E2,2.9E0));
#599=VERTEX_POINT('',#597);
#600=VERTEX_POINT('',#598);
#601=CARTESIAN_POINT('',(1.1E0,1.774001119469E2,2.9E0));
#602=CARTESIAN_POINT('',(-1.1E0,1.774001119469E2,2.9E0));
#603=VERTEX_POINT('',#601);
#604=VERTEX_POINT('',#602);
#605=CARTESIAN_POINT('',(-1.5E1,1.93E2,2.9E0));
#606=VERTEX_POINT('',#605);
#607=CARTESIAN_POINT('',(-1.5E1,2.07E2,2.9E0));
#608=VERTEX_POINT('',#607);
#609=CARTESIAN_POINT('',(1.2E1,2.275E2,3.E-1));
#610=CARTESIAN_POINT('',(1.5E1,2.245E2,3.E-1));
#611=VERTEX_POINT('',#609);
#612=VERTEX_POINT('',#610);
#613=CARTESIAN_POINT('',(1.5E1,2.245E2,2.9E0));
#614=VERTEX_POINT('',#613);
#615=CARTESIAN_POINT('',(1.2E1,2.275E2,2.9E0));
#616=VERTEX_POINT('',#615);
#617=CARTESIAN_POINT('',(-1.2E1,2.275E2,2.9E0));
#618=CARTESIAN_POINT('',(-1.5E1,2.245E2,2.9E0));
#619=VERTEX_POINT('',#617);
#620=VERTEX_POINT('',#618);
#621=CARTESIAN_POINT('',(-1.5E1,2.245E2,3.E-1));
#622=VERTEX_POINT('',#621);
#623=CARTESIAN_POINT('',(-1.2E1,2.275E2,3.E-1));
#624=VERTEX_POINT('',#623);
#625=CARTESIAN_POINT('',(1.2E1,1.725E2,2.9E0));
#626=CARTESIAN_POINT('',(1.5E1,1.755E2,2.9E0));
#627=VERTEX_POINT('',#625);
#628=VERTEX_POINT('',#626);
#629=CARTESIAN_POINT('',(1.5E1,1.755E2,3.E-1));
#630=VERTEX_POINT('',#629);
#631=CARTESIAN_POINT('',(1.2E1,1.725E2,3.E-1));
#632=VERTEX_POINT('',#631);
#633=CARTESIAN_POINT('',(-1.2E1,1.725E2,3.E-1));
#634=CARTESIAN_POINT('',(-1.5E1,1.755E2,3.E-1));
#635=VERTEX_POINT('',#633);
#636=VERTEX_POINT('',#634);
#637=CARTESIAN_POINT('',(-1.5E1,1.755E2,2.9E0));
#638=VERTEX_POINT('',#637);
#639=CARTESIAN_POINT('',(-1.2E1,1.725E2,2.9E0));
#640=VERTEX_POINT('',#639);
#641=CARTESIAN_POINT('',(-8.75E0,1.8125E2,2.9E0));
#642=VERTEX_POINT('',#641);
#643=CARTESIAN_POINT('',(-1.275E1,1.8525E2,2.9E0));
#644=VERTEX_POINT('',#643);
#645=CARTESIAN_POINT('',(8.75E0,2.1875E2,2.9E0));
#646=VERTEX_POINT('',#645);
#647=CARTESIAN_POINT('',(1.275E1,2.1475E2,2.9E0));
#648=VERTEX_POINT('',#647);
#649=CARTESIAN_POINT('',(1.275E1,1.8525E2,2.9E0));
#650=VERTEX_POINT('',#649);
#651=CARTESIAN_POINT('',(8.75E0,1.8125E2,2.9E0));
#652=VERTEX_POINT('',#651);
#653=CARTESIAN_POINT('',(-1.275E1,2.1475E2,2.9E0));
#654=VERTEX_POINT('',#653);
#655=CARTESIAN_POINT('',(-8.75E0,2.1875E2,2.9E0));
#656=VERTEX_POINT('',#655);
#657=CARTESIAN_POINT('',(1.275E1,1.8125E2,2.9E0));
#658=VERTEX_POINT('',#657);
#659=CARTESIAN_POINT('',(-1.275E1,1.8125E2,2.9E0));
#660=VERTEX_POINT('',#659);
#661=CARTESIAN_POINT('',(-1.275E1,2.1875E2,2.9E0));
#662=VERTEX_POINT('',#661);
#663=CARTESIAN_POINT('',(1.275E1,2.1875E2,2.9E0));
#664=VERTEX_POINT('',#663);
#665=CARTESIAN_POINT('',(4.E0,2.E2,3.55E0));
#666=CARTESIAN_POINT('',(-4.E0,2.E2,3.55E0));
#667=VERTEX_POINT('',#665);
#668=VERTEX_POINT('',#666);
#669=CARTESIAN_POINT('',(-1.275E1,1.8525E2,3.55E0));
#670=CARTESIAN_POINT('',(-8.75E0,1.8125E2,3.55E0));
#671=VERTEX_POINT('',#669);
#672=VERTEX_POINT('',#670);
#673=CARTESIAN_POINT('',(1.275E1,2.1475E2,3.55E0));
#674=CARTESIAN_POINT('',(8.75E0,2.1875E2,3.55E0));
#675=VERTEX_POINT('',#673);
#676=VERTEX_POINT('',#674);
#677=CARTESIAN_POINT('',(1.275E1,1.8525E2,3.55E0));
#678=CARTESIAN_POINT('',(8.75E0,1.8125E2,3.55E0));
#679=VERTEX_POINT('',#677);
#680=VERTEX_POINT('',#678);
#681=CARTESIAN_POINT('',(-1.275E1,2.1475E2,3.55E0));
#682=CARTESIAN_POINT('',(-8.75E0,2.1875E2,3.55E0));
#683=VERTEX_POINT('',#681);
#684=VERTEX_POINT('',#682);
#685=CARTESIAN_POINT('',(1.1E0,2.E2,3.55E0));
#686=CARTESIAN_POINT('',(-1.1E0,2.E2,3.55E0));
#687=VERTEX_POINT('',#685);
#688=VERTEX_POINT('',#686);
#689=CARTESIAN_POINT('',(1.275E1,1.8125E2,3.55E0));
#690=VERTEX_POINT('',#689);
#691=CARTESIAN_POINT('',(-1.275E1,1.8125E2,3.55E0));
#692=VERTEX_POINT('',#691);
#693=CARTESIAN_POINT('',(-1.275E1,2.1875E2,3.55E0));
#694=VERTEX_POINT('',#693);
#695=CARTESIAN_POINT('',(1.275E1,2.1875E2,3.55E0));
#696=VERTEX_POINT('',#695);
#697=CARTESIAN_POINT('',(0.E0,2.E2,1.8E0));
#698=DIRECTION('',(0.E0,0.E0,1.E0));
#699=DIRECTION('',(1.E0,0.E0,0.E0));
#700=AXIS2_PLACEMENT_3D('',#697,#698,#699);
#701=PLANE('',#700);
#703=ORIENTED_EDGE('',*,*,#702,.T.);
#705=ORIENTED_EDGE('',*,*,#704,.T.);
#707=ORIENTED_EDGE('',*,*,#706,.F.);
#709=ORIENTED_EDGE('',*,*,#708,.F.);
#711=ORIENTED_EDGE('',*,*,#710,.F.);
#713=ORIENTED_EDGE('',*,*,#712,.F.);
#715=ORIENTED_EDGE('',*,*,#714,.F.);
#717=ORIENTED_EDGE('',*,*,#716,.F.);
#719=ORIENTED_EDGE('',*,*,#718,.F.);
#721=ORIENTED_EDGE('',*,*,#720,.F.);
#723=ORIENTED_EDGE('',*,*,#722,.F.);
#725=ORIENTED_EDGE('',*,*,#724,.F.);
#726=EDGE_LOOP('',(#703,#705,#707,#709,#711,#713,#715,#717,#719,#721,#723,
#725));
#727=FACE_OUTER_BOUND('',#726,.F.);
#729=ORIENTED_EDGE('',*,*,#728,.F.);
#731=ORIENTED_EDGE('',*,*,#730,.F.);
#732=EDGE_LOOP('',(#729,#731));
#733=FACE_BOUND('',#732,.F.);
#734=ADVANCED_FACE('',(#727,#733),#701,.T.);
#735=CARTESIAN_POINT('',(0.E0,2.E2,3.3E0));
#736=DIRECTION('',(0.E0,0.E0,1.E0));
#737=DIRECTION('',(1.E0,0.E0,0.E0));
#738=AXIS2_PLACEMENT_3D('',#735,#736,#737);
#739=CYLINDRICAL_SURFACE('',#738,4.E0);
#741=ORIENTED_EDGE('',*,*,#740,.T.);
#743=ORIENTED_EDGE('',*,*,#742,.F.);
#744=ORIENTED_EDGE('',*,*,#728,.T.);
#746=ORIENTED_EDGE('',*,*,#745,.T.);
#747=EDGE_LOOP('',(#741,#743,#744,#746));
#748=FACE_OUTER_BOUND('',#747,.F.);
#749=ADVANCED_FACE('',(#748),#739,.T.);
#750=CARTESIAN_POINT('',(0.E0,0.E0,3.55E0));
#751=DIRECTION('',(0.E0,0.E0,1.E0));
#752=DIRECTION('',(1.E0,0.E0,0.E0));
#753=AXIS2_PLACEMENT_3D('',#750,#751,#752);
#754=PLANE('',#753);
#756=ORIENTED_EDGE('',*,*,#755,.F.);
#757=ORIENTED_EDGE('',*,*,#740,.F.);
#758=EDGE_LOOP('',(#756,#757));
#759=FACE_OUTER_BOUND('',#758,.F.);
#761=ORIENTED_EDGE('',*,*,#760,.T.);
#763=ORIENTED_EDGE('',*,*,#762,.T.);
#764=EDGE_LOOP('',(#761,#763));
#765=FACE_BOUND('',#764,.F.);
#766=ADVANCED_FACE('',(#759,#765),#754,.T.);
#767=CARTESIAN_POINT('',(0.E0,0.E0,3.55E0));
#768=DIRECTION('',(0.E0,0.E0,1.E0));
#769=DIRECTION('',(1.E0,0.E0,0.E0));
#770=AXIS2_PLACEMENT_3D('',#767,#768,#769);
#771=PLANE('',#770);
#773=ORIENTED_EDGE('',*,*,#772,.T.);
#775=ORIENTED_EDGE('',*,*,#774,.T.);
#777=ORIENTED_EDGE('',*,*,#776,.T.);
#778=EDGE_LOOP('',(#773,#775,#777));
#779=FACE_OUTER_BOUND('',#778,.F.);
#780=ADVANCED_FACE('',(#779),#771,.T.);
#781=CARTESIAN_POINT('',(0.E0,0.E0,3.55E0));
#782=DIRECTION('',(0.E0,0.E0,1.E0));
#783=DIRECTION('',(1.E0,0.E0,0.E0));
#784=AXIS2_PLACEMENT_3D('',#781,#782,#783);
#785=PLANE('',#784);
#787=ORIENTED_EDGE('',*,*,#786,.T.);
#789=ORIENTED_EDGE('',*,*,#788,.T.);
#791=ORIENTED_EDGE('',*,*,#790,.T.);
#792=EDGE_LOOP('',(#787,#789,#791));
#793=FACE_OUTER_BOUND('',#792,.F.);
#794=ADVANCED_FACE('',(#793),#785,.T.);
#795=CARTESIAN_POINT('',(0.E0,0.E0,3.55E0));
#796=DIRECTION('',(0.E0,0.E0,1.E0));
#797=DIRECTION('',(1.E0,0.E0,0.E0));
#798=AXIS2_PLACEMENT_3D('',#795,#796,#797);
#799=PLANE('',#798);
#801=ORIENTED_EDGE('',*,*,#800,.F.);
#803=ORIENTED_EDGE('',*,*,#802,.T.);
#805=ORIENTED_EDGE('',*,*,#804,.T.);
#806=EDGE_LOOP('',(#801,#803,#805));
#807=FACE_OUTER_BOUND('',#806,.F.);
#808=ADVANCED_FACE('',(#807),#799,.T.);
#809=CARTESIAN_POINT('',(0.E0,0.E0,3.55E0));
#810=DIRECTION('',(0.E0,0.E0,1.E0));
#811=DIRECTION('',(1.E0,0.E0,0.E0));
#812=AXIS2_PLACEMENT_3D('',#809,#810,#811);
#813=PLANE('',#812);
#815=ORIENTED_EDGE('',*,*,#814,.F.);
#817=ORIENTED_EDGE('',*,*,#816,.T.);
#819=ORIENTED_EDGE('',*,*,#818,.T.);
#820=EDGE_LOOP('',(#815,#817,#819));
#821=FACE_OUTER_BOUND('',#820,.F.);
#822=ADVANCED_FACE('',(#821),#813,.T.);
#823=CARTESIAN_POINT('',(0.E0,2.E2,3.3E0));
#824=DIRECTION('',(0.E0,0.E0,1.E0));
#825=DIRECTION('',(1.E0,0.E0,0.E0));
#826=AXIS2_PLACEMENT_3D('',#823,#824,#825);
#827=CYLINDRICAL_SURFACE('',#826,4.E0);
#828=ORIENTED_EDGE('',*,*,#755,.T.);
#829=ORIENTED_EDGE('',*,*,#745,.F.);
#830=ORIENTED_EDGE('',*,*,#730,.T.);
#831=ORIENTED_EDGE('',*,*,#742,.T.);
#832=EDGE_LOOP('',(#828,#829,#830,#831));
#833=FACE_OUTER_BOUND('',#832,.F.);
#834=ADVANCED_FACE('',(#833),#827,.T.);
#835=CARTESIAN_POINT('',(-8.25E0,1.8075E2,3.3E0));
#836=DIRECTION('',(7.071067811865E-1,7.071067811865E-1,0.E0));
#837=DIRECTION('',(-7.071067811865E-1,7.071067811865E-1,0.E0));
#838=AXIS2_PLACEMENT_3D('',#835,#836,#837);
#839=PLANE('',#838);
#840=ORIENTED_EDGE('',*,*,#772,.F.);
#842=ORIENTED_EDGE('',*,*,#841,.T.);
#844=ORIENTED_EDGE('',*,*,#843,.T.);
#846=ORIENTED_EDGE('',*,*,#845,.F.);
#847=ORIENTED_EDGE('',*,*,#722,.T.);
#849=ORIENTED_EDGE('',*,*,#848,.F.);
#851=ORIENTED_EDGE('',*,*,#850,.T.);
#853=ORIENTED_EDGE('',*,*,#852,.F.);
#854=EDGE_LOOP('',(#840,#842,#844,#846,#847,#849,#851,#853));
#855=FACE_OUTER_BOUND('',#854,.F.);
#856=ADVANCED_FACE('',(#855),#839,.T.);
#857=CARTESIAN_POINT('',(-1.275E1,1.8125E2,7.E0));
#858=DIRECTION('',(1.E0,0.E0,0.E0));
#859=DIRECTION('',(0.E0,1.E0,0.E0));
#860=AXIS2_PLACEMENT_3D('',#857,#858,#859);
#861=PLANE('',#860);
#862=ORIENTED_EDGE('',*,*,#776,.F.);
#864=ORIENTED_EDGE('',*,*,#863,.T.);
#866=ORIENTED_EDGE('',*,*,#865,.T.);
#867=ORIENTED_EDGE('',*,*,#841,.F.);
#868=EDGE_LOOP('',(#862,#864,#866,#867));
#869=FACE_OUTER_BOUND('',#868,.F.);
#870=ADVANCED_FACE('',(#869),#861,.F.);
#871=CARTESIAN_POINT('',(-1.275E1,1.8125E2,7.E0));
#872=DIRECTION('',(1.E0,0.E0,0.E0));
#873=DIRECTION('',(0.E0,1.E0,0.E0));
#874=AXIS2_PLACEMENT_3D('',#871,#872,#873);
#875=PLANE('',#874);
#876=ORIENTED_EDGE('',*,*,#816,.F.);
#878=ORIENTED_EDGE('',*,*,#877,.T.);
#880=ORIENTED_EDGE('',*,*,#879,.T.);
#882=ORIENTED_EDGE('',*,*,#881,.F.);
#883=EDGE_LOOP('',(#876,#878,#880,#882));
#884=FACE_OUTER_BOUND('',#883,.F.);
#885=ADVANCED_FACE('',(#884),#875,.F.);
#886=CARTESIAN_POINT('',(1.275E1,1.8125E2,7.E0));
#887=DIRECTION('',(0.E0,1.E0,0.E0));
#888=DIRECTION('',(-1.E0,0.E0,0.E0));
#889=AXIS2_PLACEMENT_3D('',#886,#887,#888);
#890=PLANE('',#889);
#891=ORIENTED_EDGE('',*,*,#804,.F.);
#893=ORIENTED_EDGE('',*,*,#892,.T.);
#895=ORIENTED_EDGE('',*,*,#894,.T.);
#897=ORIENTED_EDGE('',*,*,#896,.F.);
#898=EDGE_LOOP('',(#891,#893,#895,#897));
#899=FACE_OUTER_BOUND('',#898,.F.);
#900=ADVANCED_FACE('',(#899),#890,.F.);
#901=CARTESIAN_POINT('',(1.275E1,1.8125E2,7.E0));
#902=DIRECTION('',(0.E0,1.E0,0.E0));
#903=DIRECTION('',(-1.E0,0.E0,0.E0));
#904=AXIS2_PLACEMENT_3D('',#901,#902,#903);
#905=PLANE('',#904);
#906=ORIENTED_EDGE('',*,*,#774,.F.);
#907=ORIENTED_EDGE('',*,*,#852,.T.);
#909=ORIENTED_EDGE('',*,*,#908,.T.);
#910=ORIENTED_EDGE('',*,*,#863,.F.);
#911=EDGE_LOOP('',(#906,#907,#909,#910));
#912=FACE_OUTER_BOUND('',#911,.F.);
#913=ADVANCED_FACE('',(#912),#905,.F.);
#914=CARTESIAN_POINT('',(1.275E1,2.1875E2,7.E0));
#915=DIRECTION('',(-1.E0,0.E0,0.E0));
#916=DIRECTION('',(0.E0,-1.E0,0.E0));
#917=AXIS2_PLACEMENT_3D('',#914,#915,#916);
#918=PLANE('',#917);
#919=ORIENTED_EDGE('',*,*,#790,.F.);
#921=ORIENTED_EDGE('',*,*,#920,.T.);
#923=ORIENTED_EDGE('',*,*,#922,.T.);
#925=ORIENTED_EDGE('',*,*,#924,.F.);
#926=EDGE_LOOP('',(#919,#921,#923,#925));
#927=FACE_OUTER_BOUND('',#926,.F.);
#928=ADVANCED_FACE('',(#927),#918,.F.);
#929=CARTESIAN_POINT('',(1.275E1,2.1875E2,7.E0));
#930=DIRECTION('',(-1.E0,0.E0,0.E0));
#931=DIRECTION('',(0.E0,-1.E0,0.E0));
#932=AXIS2_PLACEMENT_3D('',#929,#930,#931);
#933=PLANE('',#932);
#934=ORIENTED_EDGE('',*,*,#802,.F.);
#936=ORIENTED_EDGE('',*,*,#935,.T.);
#938=ORIENTED_EDGE('',*,*,#937,.T.);
#939=ORIENTED_EDGE('',*,*,#892,.F.);
#940=EDGE_LOOP('',(#934,#936,#938,#939));
#941=FACE_OUTER_BOUND('',#940,.F.);
#942=ADVANCED_FACE('',(#941),#933,.F.);
#943=CARTESIAN_POINT('',(-1.275E1,2.1875E2,7.E0));
#944=DIRECTION('',(0.E0,-1.E0,0.E0));
#945=DIRECTION('',(1.E0,0.E0,0.E0));
#946=AXIS2_PLACEMENT_3D('',#943,#944,#945);
#947=PLANE('',#946);
#948=ORIENTED_EDGE('',*,*,#818,.F.);
#949=ORIENTED_EDGE('',*,*,#881,.T.);
#951=ORIENTED_EDGE('',*,*,#950,.T.);
#953=ORIENTED_EDGE('',*,*,#952,.F.);
#954=EDGE_LOOP('',(#948,#949,#951,#953));
#955=FACE_OUTER_BOUND('',#954,.F.);
#956=ADVANCED_FACE('',(#955),#947,.F.);
#957=CARTESIAN_POINT('',(-1.275E1,2.1875E2,7.E0));
#958=DIRECTION('',(0.E0,-1.E0,0.E0));
#959=DIRECTION('',(1.E0,0.E0,0.E0));
#960=AXIS2_PLACEMENT_3D('',#957,#958,#959);
#961=PLANE('',#960);
#962=ORIENTED_EDGE('',*,*,#788,.F.);
#964=ORIENTED_EDGE('',*,*,#963,.T.);
#966=ORIENTED_EDGE('',*,*,#965,.T.);
#967=ORIENTED_EDGE('',*,*,#920,.F.);
#968=EDGE_LOOP('',(#962,#964,#966,#967));
#969=FACE_OUTER_BOUND('',#968,.F.);
#970=ADVANCED_FACE('',(#969),#961,.F.);
#971=CARTESIAN_POINT('',(0.E0,0.E0,2.9E0));
#972=DIRECTION('',(0.E0,0.E0,1.E0));
#973=DIRECTION('',(1.E0,0.E0,0.E0));
#974=AXIS2_PLACEMENT_3D('',#971,#972,#973);
#975=PLANE('',#974);
#977=ORIENTED_EDGE('',*,*,#976,.F.);
#979=ORIENTED_EDGE('',*,*,#978,.T.);
#981=ORIENTED_EDGE('',*,*,#980,.F.);
#983=ORIENTED_EDGE('',*,*,#982,.T.);
#985=ORIENTED_EDGE('',*,*,#984,.F.);
#987=ORIENTED_EDGE('',*,*,#986,.T.);
#989=ORIENTED_EDGE('',*,*,#988,.T.);
#991=ORIENTED_EDGE('',*,*,#990,.F.);
#992=ORIENTED_EDGE('',*,*,#843,.F.);
#993=ORIENTED_EDGE('',*,*,#865,.F.);
#994=ORIENTED_EDGE('',*,*,#908,.F.);
#995=ORIENTED_EDGE('',*,*,#850,.F.);
#997=ORIENTED_EDGE('',*,*,#996,.F.);
#999=ORIENTED_EDGE('',*,*,#998,.F.);
#1000=ORIENTED_EDGE('',*,*,#894,.F.);
#1001=ORIENTED_EDGE('',*,*,#937,.F.);
#1003=ORIENTED_EDGE('',*,*,#1002,.F.);
#1005=ORIENTED_EDGE('',*,*,#1004,.F.);
#1007=ORIENTED_EDGE('',*,*,#1006,.F.);
#1008=ORIENTED_EDGE('',*,*,#922,.F.);
#1009=ORIENTED_EDGE('',*,*,#965,.F.);
#1011=ORIENTED_EDGE('',*,*,#1010,.F.);
#1013=ORIENTED_EDGE('',*,*,#1012,.F.);
#1015=ORIENTED_EDGE('',*,*,#1014,.F.);
#1016=ORIENTED_EDGE('',*,*,#950,.F.);
#1017=ORIENTED_EDGE('',*,*,#879,.F.);
#1019=ORIENTED_EDGE('',*,*,#1018,.F.);
#1021=ORIENTED_EDGE('',*,*,#1020,.F.);
#1023=ORIENTED_EDGE('',*,*,#1022,.T.);
#1025=ORIENTED_EDGE('',*,*,#1024,.T.);
#1027=ORIENTED_EDGE('',*,*,#1026,.F.);
#1029=ORIENTED_EDGE('',*,*,#1028,.T.);
#1030=EDGE_LOOP('',(#977,#979,#981,#983,#985,#987,#989,#991,#992,#993,#994,#995,
#997,#999,#1000,#1001,#1003,#1005,#1007,#1008,#1009,#1011,#1013,#1015,#1016,
#1017,#1019,#1021,#1023,#1025,#1027,#1029));
#1031=FACE_OUTER_BOUND('',#1030,.F.);
#1033=ORIENTED_EDGE('',*,*,#1032,.T.);
#1035=ORIENTED_EDGE('',*,*,#1034,.T.);
#1036=EDGE_LOOP('',(#1033,#1035));
#1037=FACE_BOUND('',#1036,.F.);
#1039=ORIENTED_EDGE('',*,*,#1038,.T.);
#1041=ORIENTED_EDGE('',*,*,#1040,.T.);
#1042=EDGE_LOOP('',(#1039,#1041));
#1043=FACE_BOUND('',#1042,.F.);
#1044=ADVANCED_FACE('',(#1031,#1037,#1043),#975,.T.);
#1045=CARTESIAN_POINT('',(0.E0,2.225998880531E2,6.E0));
#1046=DIRECTION('',(0.E0,0.E0,1.E0));
#1047=DIRECTION('',(1.E0,0.E0,0.E0));
#1048=AXIS2_PLACEMENT_3D('',#1045,#1046,#1047);
#1049=CYLINDRICAL_SURFACE('',#1048,1.1E0);
#1050=ORIENTED_EDGE('',*,*,#1038,.F.);
#1052=ORIENTED_EDGE('',*,*,#1051,.F.);
#1054=ORIENTED_EDGE('',*,*,#1053,.T.);
#1056=ORIENTED_EDGE('',*,*,#1055,.T.);
#1057=EDGE_LOOP('',(#1050,#1052,#1054,#1056));
#1058=FACE_OUTER_BOUND('',#1057,.F.);
#1059=ADVANCED_FACE('',(#1058),#1049,.F.);
#1060=CARTESIAN_POINT('',(0.E0,2.225998880531E2,6.E0));
#1061=DIRECTION('',(0.E0,0.E0,1.E0));
#1062=DIRECTION('',(1.E0,0.E0,0.E0));
#1063=AXIS2_PLACEMENT_3D('',#1060,#1061,#1062);
#1064=CYLINDRICAL_SURFACE('',#1063,1.1E0);
#1065=ORIENTED_EDGE('',*,*,#1040,.F.);
#1066=ORIENTED_EDGE('',*,*,#1055,.F.);
#1068=ORIENTED_EDGE('',*,*,#1067,.T.);
#1069=ORIENTED_EDGE('',*,*,#1051,.T.);
#1070=EDGE_LOOP('',(#1065,#1066,#1068,#1069));
#1071=FACE_OUTER_BOUND('',#1070,.F.);
#1072=ADVANCED_FACE('',(#1071),#1064,.F.);
#1073=CARTESIAN_POINT('',(0.E0,2.E2,3.E-1));
#1074=DIRECTION('',(0.E0,0.E0,1.E0));
#1075=DIRECTION('',(1.E0,0.E0,0.E0));
#1076=AXIS2_PLACEMENT_3D('',#1073,#1074,#1075);
#1077=PLANE('',#1076);
#1079=ORIENTED_EDGE('',*,*,#1078,.F.);
#1081=ORIENTED_EDGE('',*,*,#1080,.T.);
#1083=ORIENTED_EDGE('',*,*,#1082,.F.);
#1085=ORIENTED_EDGE('',*,*,#1084,.F.);
#1087=ORIENTED_EDGE('',*,*,#1086,.F.);
#1089=ORIENTED_EDGE('',*,*,#1088,.F.);
#1091=ORIENTED_EDGE('',*,*,#1090,.F.);
#1093=ORIENTED_EDGE('',*,*,#1092,.T.);
#1095=ORIENTED_EDGE('',*,*,#1094,.F.);
#1097=ORIENTED_EDGE('',*,*,#1096,.T.);
#1099=ORIENTED_EDGE('',*,*,#1098,.F.);
#1101=ORIENTED_EDGE('',*,*,#1100,.F.);
#1102=EDGE_LOOP('',(#1079,#1081,#1083,#1085,#1087,#1089,#1091,#1093,#1095,#1097,
#1099,#1101));
#1103=FACE_OUTER_BOUND('',#1102,.F.);
#1104=ORIENTED_EDGE('',*,*,#1053,.F.);
#1105=ORIENTED_EDGE('',*,*,#1067,.F.);
#1106=EDGE_LOOP('',(#1104,#1105));
#1107=FACE_BOUND('',#1106,.F.);
#1109=ORIENTED_EDGE('',*,*,#1108,.F.);
#1111=ORIENTED_EDGE('',*,*,#1110,.F.);
#1112=EDGE_LOOP('',(#1109,#1111));
#1113=FACE_BOUND('',#1112,.F.);
#1115=ORIENTED_EDGE('',*,*,#1114,.F.);
#1117=ORIENTED_EDGE('',*,*,#1116,.F.);
#1118=EDGE_LOOP('',(#1115,#1117));
#1119=FACE_BOUND('',#1118,.F.);
#1120=ADVANCED_FACE('',(#1103,#1107,#1113,#1119),#1077,.F.);
#1121=CARTESIAN_POINT('',(0.E0,1.774001119469E2,6.E0));
#1122=DIRECTION('',(0.E0,0.E0,1.E0));
#1123=DIRECTION('',(1.E0,0.E0,0.E0));
#1124=AXIS2_PLACEMENT_3D('',#1121,#1122,#1123);
#1125=CYLINDRICAL_SURFACE('',#1124,1.1E0);
#1126=ORIENTED_EDGE('',*,*,#1032,.F.);
#1128=ORIENTED_EDGE('',*,*,#1127,.F.);
#1129=ORIENTED_EDGE('',*,*,#1114,.T.);
#1131=ORIENTED_EDGE('',*,*,#1130,.T.);
#1132=EDGE_LOOP('',(#1126,#1128,#1129,#1131));
#1133=FACE_OUTER_BOUND('',#1132,.F.);
#1134=ADVANCED_FACE('',(#1133),#1125,.F.);
#1135=CARTESIAN_POINT('',(0.E0,1.774001119469E2,6.E0));
#1136=DIRECTION('',(0.E0,0.E0,1.E0));
#1137=DIRECTION('',(1.E0,0.E0,0.E0));
#1138=AXIS2_PLACEMENT_3D('',#1135,#1136,#1137);
#1139=CYLINDRICAL_SURFACE('',#1138,1.1E0);
#1140=ORIENTED_EDGE('',*,*,#1034,.F.);
#1141=ORIENTED_EDGE('',*,*,#1130,.F.);
#1142=ORIENTED_EDGE('',*,*,#1116,.T.);
#1143=ORIENTED_EDGE('',*,*,#1127,.T.);
#1144=EDGE_LOOP('',(#1140,#1141,#1142,#1143));
#1145=FACE_OUTER_BOUND('',#1144,.F.);
#1146=ADVANCED_FACE('',(#1145),#1139,.F.);
#1147=CARTESIAN_POINT('',(0.E0,2.E2,3.3E0));
#1148=DIRECTION('',(0.E0,0.E0,1.E0));
#1149=DIRECTION('',(1.E0,0.E0,0.E0));
#1150=AXIS2_PLACEMENT_3D('',#1147,#1148,#1149);
#1151=CYLINDRICAL_SURFACE('',#1150,1.1E0);
#1152=ORIENTED_EDGE('',*,*,#760,.F.);
#1154=ORIENTED_EDGE('',*,*,#1153,.F.);
#1155=ORIENTED_EDGE('',*,*,#1108,.T.);
#1157=ORIENTED_EDGE('',*,*,#1156,.T.);
#1158=EDGE_LOOP('',(#1152,#1154,#1155,#1157));
#1159=FACE_OUTER_BOUND('',#1158,.F.);
#1160=ADVANCED_FACE('',(#1159),#1151,.F.);
#1161=CARTESIAN_POINT('',(0.E0,2.E2,3.3E0));
#1162=DIRECTION('',(0.E0,0.E0,1.E0));
#1163=DIRECTION('',(1.E0,0.E0,0.E0));
#1164=AXIS2_PLACEMENT_3D('',#1161,#1162,#1163);
#1165=CYLINDRICAL_SURFACE('',#1164,1.1E0);
#1166=ORIENTED_EDGE('',*,*,#762,.F.);
#1167=ORIENTED_EDGE('',*,*,#1156,.F.);
#1168=ORIENTED_EDGE('',*,*,#1110,.T.);
#1169=ORIENTED_EDGE('',*,*,#1153,.T.);
#1170=EDGE_LOOP('',(#1166,#1167,#1168,#1169));
#1171=FACE_OUTER_BOUND('',#1170,.F.);
#1172=ADVANCED_FACE('',(#1171),#1165,.F.);
#1173=CARTESIAN_POINT('',(1.2E1,2.245E2,1.573412E1));
#1174=DIRECTION('',(0.E0,0.E0,-1.E0));
#1175=DIRECTION('',(0.E0,1.E0,0.E0));
#1176=AXIS2_PLACEMENT_3D('',#1173,#1174,#1175);
#1177=CYLINDRICAL_SURFACE('',#1176,3.E0);
#1178=ORIENTED_EDGE('',*,*,#1078,.T.);
#1180=ORIENTED_EDGE('',*,*,#1179,.F.);
#1181=ORIENTED_EDGE('',*,*,#976,.T.);
#1183=ORIENTED_EDGE('',*,*,#1182,.T.);
#1184=EDGE_LOOP('',(#1178,#1180,#1181,#1183));
#1185=FACE_OUTER_BOUND('',#1184,.F.);
#1186=ADVANCED_FACE('',(#1185),#1177,.T.);
#1187=CARTESIAN_POINT('',(1.5E1,1.755E2,6.E0));
#1188=DIRECTION('',(1.E0,0.E0,0.E0));
#1189=DIRECTION('',(0.E0,1.E0,0.E0));
#1190=AXIS2_PLACEMENT_3D('',#1187,#1188,#1189);
#1191=PLANE('',#1190);
#1192=ORIENTED_EDGE('',*,*,#1179,.T.);
#1193=ORIENTED_EDGE('',*,*,#1100,.T.);
#1195=ORIENTED_EDGE('',*,*,#1194,.T.);
#1196=ORIENTED_EDGE('',*,*,#978,.F.);
#1197=EDGE_LOOP('',(#1192,#1193,#1195,#1196));
#1198=FACE_OUTER_BOUND('',#1197,.F.);
#1199=ADVANCED_FACE('',(#1198),#1191,.T.);
#1200=CARTESIAN_POINT('',(1.2E1,1.755E2,-8.43412E0));
#1201=DIRECTION('',(0.E0,0.E0,1.E0));
#1202=DIRECTION('',(0.E0,-1.E0,0.E0));
#1203=AXIS2_PLACEMENT_3D('',#1200,#1201,#1202);
#1204=CYLINDRICAL_SURFACE('',#1203,3.E0);
#1205=ORIENTED_EDGE('',*,*,#980,.T.);
#1206=ORIENTED_EDGE('',*,*,#1194,.F.);
#1207=ORIENTED_EDGE('',*,*,#1098,.T.);
#1209=ORIENTED_EDGE('',*,*,#1208,.T.);
#1210=EDGE_LOOP('',(#1205,#1206,#1207,#1209));
#1211=FACE_OUTER_BOUND('',#1210,.F.);
#1212=ADVANCED_FACE('',(#1211),#1204,.T.);
#1213=CARTESIAN_POINT('',(0.E0,1.725E2,0.E0));
#1214=DIRECTION('',(0.E0,-1.E0,0.E0));
#1215=DIRECTION('',(1.E0,0.E0,0.E0));
#1216=AXIS2_PLACEMENT_3D('',#1213,#1214,#1215);
#1217=PLANE('',#1216);
#1218=ORIENTED_EDGE('',*,*,#1208,.F.);
#1219=ORIENTED_EDGE('',*,*,#1096,.F.);
#1221=ORIENTED_EDGE('',*,*,#1220,.F.);
#1222=ORIENTED_EDGE('',*,*,#982,.F.);
#1223=EDGE_LOOP('',(#1218,#1219,#1221,#1222));
#1224=FACE_OUTER_BOUND('',#1223,.F.);
#1225=ADVANCED_FACE('',(#1224),#1217,.T.);
#1226=CARTESIAN_POINT('',(-1.2E1,1.755E2,1.573412E1));
#1227=DIRECTION('',(0.E0,0.E0,-1.E0));
#1228=DIRECTION('',(0.E0,-1.E0,0.E0));
#1229=AXIS2_PLACEMENT_3D('',#1226,#1227,#1228);
#1230=CYLINDRICAL_SURFACE('',#1229,3.E0);
#1231=ORIENTED_EDGE('',*,*,#1094,.T.);
#1233=ORIENTED_EDGE('',*,*,#1232,.F.);
#1234=ORIENTED_EDGE('',*,*,#984,.T.);
#1235=ORIENTED_EDGE('',*,*,#1220,.T.);
#1236=EDGE_LOOP('',(#1231,#1233,#1234,#1235));
#1237=FACE_OUTER_BOUND('',#1236,.F.);
#1238=ADVANCED_FACE('',(#1237),#1230,.T.);
#1239=CARTESIAN_POINT('',(-1.5E1,2.245E2,6.E0));
#1240=DIRECTION('',(-1.E0,0.E0,0.E0));
#1241=DIRECTION('',(0.E0,-1.E0,0.E0));
#1242=AXIS2_PLACEMENT_3D('',#1239,#1240,#1241);
#1243=PLANE('',#1242);
#1245=ORIENTED_EDGE('',*,*,#1244,.T.);
#1246=ORIENTED_EDGE('',*,*,#1024,.F.);
#1248=ORIENTED_EDGE('',*,*,#1247,.T.);
#1249=ORIENTED_EDGE('',*,*,#1084,.T.);
#1250=EDGE_LOOP('',(#1245,#1246,#1248,#1249));
#1251=FACE_OUTER_BOUND('',#1250,.F.);
#1252=ADVANCED_FACE('',(#1251),#1243,.T.);
#1253=CARTESIAN_POINT('',(-1.5E1,2.245E2,6.E0));
#1254=DIRECTION('',(-1.E0,0.E0,0.E0));
#1255=DIRECTION('',(0.E0,-1.E0,0.E0));
#1256=AXIS2_PLACEMENT_3D('',#1253,#1254,#1255);
#1257=PLANE('',#1256);
#1258=ORIENTED_EDGE('',*,*,#1232,.T.);
#1259=ORIENTED_EDGE('',*,*,#1092,.F.);
#1261=ORIENTED_EDGE('',*,*,#1260,.T.);
#1262=ORIENTED_EDGE('',*,*,#986,.F.);
#1263=EDGE_LOOP('',(#1258,#1259,#1261,#1262));
#1264=FACE_OUTER_BOUND('',#1263,.F.);
#1265=ADVANCED_FACE('',(#1264),#1257,.T.);
#1266=CARTESIAN_POINT('',(-1.2E1,2.245E2,-8.43412E0));
#1267=DIRECTION('',(0.E0,0.E0,1.E0));
#1268=DIRECTION('',(0.E0,1.E0,0.E0));
#1269=AXIS2_PLACEMENT_3D('',#1266,#1267,#1268);
#1270=CYLINDRICAL_SURFACE('',#1269,3.E0);
#1271=ORIENTED_EDGE('',*,*,#1026,.T.);
#1272=ORIENTED_EDGE('',*,*,#1244,.F.);
#1273=ORIENTED_EDGE('',*,*,#1082,.T.);
#1275=ORIENTED_EDGE('',*,*,#1274,.T.);
#1276=EDGE_LOOP('',(#1271,#1272,#1273,#1275));
#1277=FACE_OUTER_BOUND('',#1276,.F.);
#1278=ADVANCED_FACE('',(#1277),#1270,.T.);
#1279=CARTESIAN_POINT('',(0.E0,2.275E2,0.E0));
#1280=DIRECTION('',(0.E0,1.E0,0.E0));
#1281=DIRECTION('',(-1.E0,0.E0,0.E0));
#1282=AXIS2_PLACEMENT_3D('',#1279,#1280,#1281);
#1283=PLANE('',#1282);
#1284=ORIENTED_EDGE('',*,*,#1182,.F.);
#1285=ORIENTED_EDGE('',*,*,#1028,.F.);
#1286=ORIENTED_EDGE('',*,*,#1274,.F.);
#1287=ORIENTED_EDGE('',*,*,#1080,.F.);
#1288=EDGE_LOOP('',(#1284,#1285,#1286,#1287));
#1289=FACE_OUTER_BOUND('',#1288,.F.);
#1290=ADVANCED_FACE('',(#1289),#1283,.T.);
#1291=CARTESIAN_POINT('',(-1.E1,2.07E2,7.E0));
#1292=DIRECTION('',(0.E0,1.E0,0.E0));
#1293=DIRECTION('',(-1.E0,0.E0,0.E0));
#1294=AXIS2_PLACEMENT_3D('',#1291,#1292,#1293);
#1295=PLANE('',#1294);
#1296=ORIENTED_EDGE('',*,*,#1022,.F.);
#1298=ORIENTED_EDGE('',*,*,#1297,.F.);
#1299=ORIENTED_EDGE('',*,*,#706,.T.);
#1301=ORIENTED_EDGE('',*,*,#1300,.T.);
#1302=ORIENTED_EDGE('',*,*,#1086,.T.);
#1303=ORIENTED_EDGE('',*,*,#1247,.F.);
#1304=EDGE_LOOP('',(#1296,#1298,#1299,#1301,#1302,#1303));
#1305=FACE_OUTER_BOUND('',#1304,.F.);
#1306=ADVANCED_FACE('',(#1305),#1295,.F.);
#1307=CARTESIAN_POINT('',(-1.325E1,1.8075E2,6.E0));
#1308=DIRECTION('',(1.E0,0.E0,0.E0));
#1309=DIRECTION('',(0.E0,1.E0,0.E0));
#1310=AXIS2_PLACEMENT_3D('',#1307,#1308,#1309);
#1311=PLANE('',#1310);
#1312=ORIENTED_EDGE('',*,*,#990,.T.);
#1314=ORIENTED_EDGE('',*,*,#1313,.F.);
#1315=ORIENTED_EDGE('',*,*,#724,.T.);
#1316=ORIENTED_EDGE('',*,*,#845,.T.);
#1317=EDGE_LOOP('',(#1312,#1314,#1315,#1316));
#1318=FACE_OUTER_BOUND('',#1317,.F.);
#1319=ADVANCED_FACE('',(#1318),#1311,.T.);
#1320=CARTESIAN_POINT('',(-1.325E1,1.8075E2,6.E0));
#1321=DIRECTION('',(1.E0,0.E0,0.E0));
#1322=DIRECTION('',(0.E0,1.E0,0.E0));
#1323=AXIS2_PLACEMENT_3D('',#1320,#1321,#1322);
#1324=PLANE('',#1323);
#1325=ORIENTED_EDGE('',*,*,#1020,.T.);
#1327=ORIENTED_EDGE('',*,*,#1326,.T.);
#1328=ORIENTED_EDGE('',*,*,#708,.T.);
#1329=ORIENTED_EDGE('',*,*,#1297,.T.);
#1330=EDGE_LOOP('',(#1325,#1327,#1328,#1329));
#1331=FACE_OUTER_BOUND('',#1330,.F.);
#1332=ADVANCED_FACE('',(#1331),#1324,.T.);
#1333=CARTESIAN_POINT('',(-1.5E1,1.93E2,7.E0));
#1334=DIRECTION('',(0.E0,-1.E0,0.E0));
#1335=DIRECTION('',(1.E0,0.E0,0.E0));
#1336=AXIS2_PLACEMENT_3D('',#1333,#1334,#1335);
#1337=PLANE('',#1336);
#1338=ORIENTED_EDGE('',*,*,#988,.F.);
#1339=ORIENTED_EDGE('',*,*,#1260,.F.);
#1340=ORIENTED_EDGE('',*,*,#1090,.T.);
#1342=ORIENTED_EDGE('',*,*,#1341,.F.);
#1343=ORIENTED_EDGE('',*,*,#702,.F.);
#1344=ORIENTED_EDGE('',*,*,#1313,.T.);
#1345=EDGE_LOOP('',(#1338,#1339,#1340,#1342,#1343,#1344));
#1346=FACE_OUTER_BOUND('',#1345,.F.);
#1347=ADVANCED_FACE('',(#1346),#1337,.F.);
#1348=CARTESIAN_POINT('',(-1.E1,1.93E2,7.E0));
#1349=DIRECTION('',(1.E0,0.E0,0.E0));
#1350=DIRECTION('',(0.E0,1.E0,0.E0));
#1351=AXIS2_PLACEMENT_3D('',#1348,#1349,#1350);
#1352=PLANE('',#1351);
#1353=ORIENTED_EDGE('',*,*,#704,.F.);
#1354=ORIENTED_EDGE('',*,*,#1341,.T.);
#1355=ORIENTED_EDGE('',*,*,#1088,.T.);
#1356=ORIENTED_EDGE('',*,*,#1300,.F.);
#1357=EDGE_LOOP('',(#1353,#1354,#1355,#1356));
#1358=FACE_OUTER_BOUND('',#1357,.F.);
#1359=ADVANCED_FACE('',(#1358),#1352,.F.);
#1360=CARTESIAN_POINT('',(-1.325E1,2.1425E2,3.3E0));
#1361=DIRECTION('',(7.071067811865E-1,-7.071067811865E-1,0.E0));
#1362=DIRECTION('',(7.071067811865E-1,7.071067811865E-1,0.E0));
#1363=AXIS2_PLACEMENT_3D('',#1360,#1361,#1362);
#1364=PLANE('',#1363);
#1365=ORIENTED_EDGE('',*,*,#814,.T.);
#1366=ORIENTED_EDGE('',*,*,#952,.T.);
#1367=ORIENTED_EDGE('',*,*,#1014,.T.);
#1369=ORIENTED_EDGE('',*,*,#1368,.F.);
#1370=ORIENTED_EDGE('',*,*,#710,.T.);
#1371=ORIENTED_EDGE('',*,*,#1326,.F.);
#1372=ORIENTED_EDGE('',*,*,#1018,.T.);
#1373=ORIENTED_EDGE('',*,*,#877,.F.);
#1374=EDGE_LOOP('',(#1365,#1366,#1367,#1369,#1370,#1371,#1372,#1373));
#1375=FACE_OUTER_BOUND('',#1374,.F.);
#1376=ADVANCED_FACE('',(#1375),#1364,.T.);
#1377=CARTESIAN_POINT('',(-1.325E1,2.1925E2,6.E0));
#1378=DIRECTION('',(0.E0,-1.E0,0.E0));
#1379=DIRECTION('',(1.E0,0.E0,0.E0));
#1380=AXIS2_PLACEMENT_3D('',#1377,#1378,#1379);
#1381=PLANE('',#1380);
#1382=ORIENTED_EDGE('',*,*,#1012,.T.);
#1384=ORIENTED_EDGE('',*,*,#1383,.T.);
#1385=ORIENTED_EDGE('',*,*,#712,.T.);
#1386=ORIENTED_EDGE('',*,*,#1368,.T.);
#1387=EDGE_LOOP('',(#1382,#1384,#1385,#1386));
#1388=FACE_OUTER_BOUND('',#1387,.F.);
#1389=ADVANCED_FACE('',(#1388),#1381,.T.);
#1390=CARTESIAN_POINT('',(8.25E0,2.1925E2,3.3E0));
#1391=DIRECTION('',(-7.071067811865E-1,-7.071067811865E-1,0.E0));
#1392=DIRECTION('',(7.071067811865E-1,-7.071067811865E-1,0.E0));
#1393=AXIS2_PLACEMENT_3D('',#1390,#1391,#1392);
#1394=PLANE('',#1393);
#1395=ORIENTED_EDGE('',*,*,#786,.F.);
#1396=ORIENTED_EDGE('',*,*,#924,.T.);
#1397=ORIENTED_EDGE('',*,*,#1006,.T.);
#1399=ORIENTED_EDGE('',*,*,#1398,.F.);
#1400=ORIENTED_EDGE('',*,*,#714,.T.);
#1401=ORIENTED_EDGE('',*,*,#1383,.F.);
#1402=ORIENTED_EDGE('',*,*,#1010,.T.);
#1403=ORIENTED_EDGE('',*,*,#963,.F.);
#1404=EDGE_LOOP('',(#1395,#1396,#1397,#1399,#1400,#1401,#1402,#1403));
#1405=FACE_OUTER_BOUND('',#1404,.F.);
#1406=ADVANCED_FACE('',(#1405),#1394,.T.);
#1407=CARTESIAN_POINT('',(1.325E1,2.1925E2,6.E0));
#1408=DIRECTION('',(-1.E0,0.E0,0.E0));
#1409=DIRECTION('',(0.E0,-1.E0,0.E0));
#1410=AXIS2_PLACEMENT_3D('',#1407,#1408,#1409);
#1411=PLANE('',#1410);
#1412=ORIENTED_EDGE('',*,*,#1004,.T.);
#1414=ORIENTED_EDGE('',*,*,#1413,.T.);
#1415=ORIENTED_EDGE('',*,*,#716,.T.);
#1416=ORIENTED_EDGE('',*,*,#1398,.T.);
#1417=EDGE_LOOP('',(#1412,#1414,#1415,#1416));
#1418=FACE_OUTER_BOUND('',#1417,.F.);
#1419=ADVANCED_FACE('',(#1418),#1411,.T.);
#1420=CARTESIAN_POINT('',(1.325E1,1.8575E2,3.3E0));
#1421=DIRECTION('',(-7.071067811865E-1,7.071067811865E-1,0.E0));
#1422=DIRECTION('',(-7.071067811865E-1,-7.071067811865E-1,0.E0));
#1423=AXIS2_PLACEMENT_3D('',#1420,#1421,#1422);
#1424=PLANE('',#1423);
#1425=ORIENTED_EDGE('',*,*,#800,.T.);
#1426=ORIENTED_EDGE('',*,*,#896,.T.);
#1427=ORIENTED_EDGE('',*,*,#998,.T.);
#1429=ORIENTED_EDGE('',*,*,#1428,.F.);
#1430=ORIENTED_EDGE('',*,*,#718,.T.);
#1431=ORIENTED_EDGE('',*,*,#1413,.F.);
#1432=ORIENTED_EDGE('',*,*,#1002,.T.);
#1433=ORIENTED_EDGE('',*,*,#935,.F.);
#1434=EDGE_LOOP('',(#1425,#1426,#1427,#1429,#1430,#1431,#1432,#1433));
#1435=FACE_OUTER_BOUND('',#1434,.F.);
#1436=ADVANCED_FACE('',(#1435),#1424,.T.);
#1437=CARTESIAN_POINT('',(1.325E1,1.8075E2,6.E0));
#1438=DIRECTION('',(0.E0,1.E0,0.E0));
#1439=DIRECTION('',(-1.E0,0.E0,0.E0));
#1440=AXIS2_PLACEMENT_3D('',#1437,#1438,#1439);
#1441=PLANE('',#1440);
#1442=ORIENTED_EDGE('',*,*,#996,.T.);
#1443=ORIENTED_EDGE('',*,*,#848,.T.);
#1444=ORIENTED_EDGE('',*,*,#720,.T.);
#1445=ORIENTED_EDGE('',*,*,#1428,.T.);
#1446=EDGE_LOOP('',(#1442,#1443,#1444,#1445));
#1447=FACE_OUTER_BOUND('',#1446,.F.);
#1448=ADVANCED_FACE('',(#1447),#1441,.T.);
#1449=CLOSED_SHELL('',(#734,#749,#766,#780,#794,#808,#822,#834,#856,#870,#885,
#900,#913,#928,#942,#956,#970,#1044,#1059,#1072,#1120,#1134,#1146,#1160,#1172,
#1186,#1199,#1212,#1225,#1238,#1252,#1265,#1278,#1290,#1306,#1319,#1332,#1347,
#1359,#1376,#1389,#1406,#1419,#1436,#1448));
#1450=MANIFOLD_SOLID_BREP('',#1449);
#1452=DIMENSIONAL_EXPONENTS(0.E0,0.E0,0.E0,0.E0,0.E0,0.E0,0.E0);
#1454=PLANE_ANGLE_MEASURE_WITH_UNIT(PLANE_ANGLE_MEASURE(1.745329251994E-2),
#1453);
#1455=(CONVERSION_BASED_UNIT('DEGREE',#1454)NAMED_UNIT(*)PLANE_ANGLE_UNIT());
#1457=UNCERTAINTY_MEASURE_WITH_UNIT(LENGTH_MEASURE(6.300454281361E-3),#1451,
'closure',
'Maximum model space distance between geometric entities at asserted connectivities');
#1458=(GEOMETRIC_REPRESENTATION_CONTEXT(3)GLOBAL_UNCERTAINTY_ASSIGNED_CONTEXT((
#1457))GLOBAL_UNIT_ASSIGNED_CONTEXT((#1451,#1455,#1456))REPRESENTATION_CONTEXT(
'ID1','3'));
#1460=APPLICATION_CONTEXT(
'CONFIGURATION CONTROLLED 3D DESIGNS OF MECHANICAL PARTS AND ASSEMBLIES');
#1461=APPLICATION_PROTOCOL_DEFINITION('international standard',
'config_control_design',1994,#1460);
#1462=DESIGN_CONTEXT('',#1460,'design');
#1463=MECHANICAL_CONTEXT('',#1460,'mechanical');
#1464=PRODUCT('SUB_COVER_NEW','SUB_COVER_NEW','NOT SPECIFIED',(#1463));
#1465=PRODUCT_DEFINITION_FORMATION_WITH_SPECIFIED_SOURCE('1','LAST_VERSION',
#1464,.MADE.);
#1469=PRODUCT_CATEGORY('part','');
#1470=PRODUCT_RELATED_PRODUCT_CATEGORY('detail','',(#1464));
#1471=PRODUCT_CATEGORY_RELATIONSHIP('','',#1469,#1470);
#1472=SECURITY_CLASSIFICATION_LEVEL('unclassified');
#1473=SECURITY_CLASSIFICATION('','',#1472);
#1474=CC_DESIGN_SECURITY_CLASSIFICATION(#1473,(#1465));
#1475=APPROVAL_STATUS('approved');
#1476=APPROVAL(#1475,'');
#1477=CC_DESIGN_APPROVAL(#1476,(#1473,#1465,#1466));
#1478=CALENDAR_DATE(125,27,1);
#1479=COORDINATED_UNIVERSAL_TIME_OFFSET(1,0,.AHEAD.);
#1480=LOCAL_TIME(13,58,4.E1,#1479);
#1481=DATE_AND_TIME(#1478,#1480);
#1482=APPROVAL_DATE_TIME(#1481,#1476);
#1483=DATE_TIME_ROLE('creation_date');
#1484=CC_DESIGN_DATE_AND_TIME_ASSIGNMENT(#1481,#1483,(#1466));
#1485=DATE_TIME_ROLE('classification_date');
#1486=CC_DESIGN_DATE_AND_TIME_ASSIGNMENT(#1481,#1485,(#1473));
#1487=PERSON('UNSPECIFIED','UNSPECIFIED',$,$,$,$);
#1488=ORGANIZATION('UNSPECIFIED','UNSPECIFIED','UNSPECIFIED');
#1489=PERSON_AND_ORGANIZATION(#1487,#1488);
#1490=APPROVAL_ROLE('approver');
#1491=APPROVAL_PERSON_ORGANIZATION(#1489,#1476,#1490);
#1492=PERSON_AND_ORGANIZATION_ROLE('creator');
#1493=CC_DESIGN_PERSON_AND_ORGANIZATION_ASSIGNMENT(#1489,#1492,(#1465,#1466));
#1494=PERSON_AND_ORGANIZATION_ROLE('design_supplier');
#1495=CC_DESIGN_PERSON_AND_ORGANIZATION_ASSIGNMENT(#1489,#1494,(#1465));
#1496=PERSON_AND_ORGANIZATION_ROLE('classification_officer');
#1497=CC_DESIGN_PERSON_AND_ORGANIZATION_ASSIGNMENT(#1489,#1496,(#1473));
#1498=PERSON_AND_ORGANIZATION_ROLE('design_owner');
#1499=CC_DESIGN_PERSON_AND_ORGANIZATION_ASSIGNMENT(#1489,#1498,(#1464));
#5=CIRCLE('',#4,4.E0);
#10=CIRCLE('',#9,4.E0);
#63=CIRCLE('',#62,4.E0);
#76=CIRCLE('',#75,4.E0);
#157=CIRCLE('',#156,3.E0);
#166=CIRCLE('',#165,3.E0);
#171=CIRCLE('',#170,3.E0);
#216=CIRCLE('',#215,3.E0);
#221=CIRCLE('',#220,1.1E0);
#226=CIRCLE('',#225,1.1E0);
#239=CIRCLE('',#238,1.1E0);
#244=CIRCLE('',#243,1.1E0);
#249=CIRCLE('',#248,1.1E0);
#254=CIRCLE('',#253,1.1E0);
#259=CIRCLE('',#258,1.1E0);
#264=CIRCLE('',#263,1.1E0);
#269=CIRCLE('',#268,3.E0);
#274=CIRCLE('',#273,3.E0);
#287=CIRCLE('',#286,3.E0);
#292=CIRCLE('',#291,3.E0);
#297=CIRCLE('',#296,1.1E0);
#302=CIRCLE('',#301,1.1E0);
#315=CIRCLE('',#314,1.1E0);
#320=CIRCLE('',#319,1.1E0);
#702=EDGE_CURVE('',#563,#564,#14,.T.);
#704=EDGE_CURVE('',#564,#566,#18,.T.);
#706=EDGE_CURVE('',#568,#566,#22,.T.);
#708=EDGE_CURVE('',#544,#568,#26,.T.);
#710=EDGE_CURVE('',#542,#544,#30,.T.);
#712=EDGE_CURVE('',#540,#542,#34,.T.);
#714=EDGE_CURVE('',#538,#540,#38,.T.);
#716=EDGE_CURVE('',#536,#538,#42,.T.);
#718=EDGE_CURVE('',#534,#536,#46,.T.);
#720=EDGE_CURVE('',#532,#534,#50,.T.);
#722=EDGE_CURVE('',#531,#532,#54,.T.);
#724=EDGE_CURVE('',#563,#531,#58,.T.);
#728=EDGE_CURVE('',#548,#547,#5,.T.);
#730=EDGE_CURVE('',#547,#548,#10,.T.);
#740=EDGE_CURVE('',#668,#667,#63,.T.);
#742=EDGE_CURVE('',#548,#667,#67,.T.);
#745=EDGE_CURVE('',#547,#668,#71,.T.);
#755=EDGE_CURVE('',#667,#668,#76,.T.);
#760=EDGE_CURVE('',#687,#688,#315,.T.);
#762=EDGE_CURVE('',#688,#687,#320,.T.);
#772=EDGE_CURVE('',#671,#672,#80,.T.);
#774=EDGE_CURVE('',#672,#692,#128,.T.);
#776=EDGE_CURVE('',#692,#671,#108,.T.);
#786=EDGE_CURVE('',#675,#676,#468,.T.);
#788=EDGE_CURVE('',#676,#696,#152,.T.);
#790=EDGE_CURVE('',#696,#675,#132,.T.);
#800=EDGE_CURVE('',#679,#680,#500,.T.);
#802=EDGE_CURVE('',#679,#690,#140,.T.);
#804=EDGE_CURVE('',#690,#680,#120,.T.);
#814=EDGE_CURVE('',#683,#684,#436,.T.);
#816=EDGE_CURVE('',#683,#694,#116,.T.);
#818=EDGE_CURVE('',#694,#684,#144,.T.);
#841=EDGE_CURVE('',#671,#644,#84,.T.);
#843=EDGE_CURVE('',#644,#579,#88,.T.);
#845=EDGE_CURVE('',#531,#579,#92,.T.);
#848=EDGE_CURVE('',#588,#532,#96,.T.);
#850=EDGE_CURVE('',#588,#642,#100,.T.);
#852=EDGE_CURVE('',#672,#642,#104,.T.);
#863=EDGE_CURVE('',#692,#660,#112,.T.);
#865=EDGE_CURVE('',#660,#644,#179,.T.);
#877=EDGE_CURVE('',#683,#654,#460,.T.);
#879=EDGE_CURVE('',#654,#662,#207,.T.);
#881=EDGE_CURVE('',#694,#662,#148,.T.);
#892=EDGE_CURVE('',#690,#658,#124,.T.);
#894=EDGE_CURVE('',#658,#652,#187,.T.);
#896=EDGE_CURVE('',#680,#652,#504,.T.);
#908=EDGE_CURVE('',#642,#660,#183,.T.);
#920=EDGE_CURVE('',#696,#664,#136,.T.);
#922=EDGE_CURVE('',#664,#648,#195,.T.);
#924=EDGE_CURVE('',#675,#648,#472,.T.);
#935=EDGE_CURVE('',#679,#650,#524,.T.);
#937=EDGE_CURVE('',#650,#658,#191,.T.);
#950=EDGE_CURVE('',#662,#656,#203,.T.);
#952=EDGE_CURVE('',#684,#656,#440,.T.);
#963=EDGE_CURVE('',#676,#646,#492,.T.);
#965=EDGE_CURVE('',#646,#664,#199,.T.);
#976=EDGE_CURVE('',#614,#616,#157,.T.);
#978=EDGE_CURVE('',#614,#628,#161,.T.);
#980=EDGE_CURVE('',#627,#628,#166,.T.);
#982=EDGE_CURVE('',#627,#640,#356,.T.);
#984=EDGE_CURVE('',#638,#640,#171,.T.);
#986=EDGE_CURVE('',#638,#606,#175,.T.);
#988=EDGE_CURVE('',#606,#580,#424,.T.);
#990=EDGE_CURVE('',#579,#580,#408,.T.);
#996=EDGE_CURVE('',#587,#588,#528,.T.);
#998=EDGE_CURVE('',#652,#587,#508,.T.);
#1002=EDGE_CURVE('',#592,#650,#520,.T.);
#1004=EDGE_CURVE('',#591,#592,#496,.T.);
#1006=EDGE_CURVE('',#648,#591,#476,.T.);
#1010=EDGE_CURVE('',#596,#646,#488,.T.);
#1012=EDGE_CURVE('',#595,#596,#464,.T.);
#1014=EDGE_CURVE('',#656,#595,#444,.T.);
#1018=EDGE_CURVE('',#584,#654,#456,.T.);
#1020=EDGE_CURVE('',#583,#584,#416,.T.);
#1022=EDGE_CURVE('',#583,#608,#396,.T.);
#1024=EDGE_CURVE('',#608,#620,#211,.T.);
#1026=EDGE_CURVE('',#619,#620,#216,.T.);
#1028=EDGE_CURVE('',#619,#616,#384,.T.);
#1032=EDGE_CURVE('',#603,#604,#297,.T.);
#1034=EDGE_CURVE('',#604,#603,#302,.T.);
#1038=EDGE_CURVE('',#599,#600,#221,.T.);
#1040=EDGE_CURVE('',#600,#599,#226,.T.);
#1051=EDGE_CURVE('',#551,#599,#234,.T.);
#1053=EDGE_CURVE('',#551,#552,#249,.T.);
#1055=EDGE_CURVE('',#552,#600,#230,.T.);
#1067=EDGE_CURVE('',#552,#551,#254,.T.);
#1078=EDGE_CURVE('',#611,#612,#269,.T.);
#1080=EDGE_CURVE('',#611,#624,#392,.T.);
#1082=EDGE_CURVE('',#622,#624,#274,.T.);
#1084=EDGE_CURVE('',#574,#622,#368,.T.);
#1086=EDGE_CURVE('',#572,#574,#404,.T.);
#1088=EDGE_CURVE('',#571,#572,#278,.T.);
#1090=EDGE_CURVE('',#576,#571,#428,.T.);
#1092=EDGE_CURVE('',#576,#636,#282,.T.);
#1094=EDGE_CURVE('',#635,#636,#287,.T.);
#1096=EDGE_CURVE('',#635,#632,#348,.T.);
#1098=EDGE_CURVE('',#630,#632,#292,.T.);
#1100=EDGE_CURVE('',#612,#630,#336,.T.);
#1108=EDGE_CURVE('',#555,#556,#259,.T.);
#1110=EDGE_CURVE('',#556,#555,#264,.T.);
#1114=EDGE_CURVE('',#559,#560,#239,.T.);
#1116=EDGE_CURVE('',#560,#559,#244,.T.);
#1127=EDGE_CURVE('',#559,#603,#310,.T.);
#1130=EDGE_CURVE('',#560,#604,#306,.T.);
#1153=EDGE_CURVE('',#555,#687,#328,.T.);
#1156=EDGE_CURVE('',#556,#688,#324,.T.);
#1179=EDGE_CURVE('',#614,#612,#332,.T.);
#1182=EDGE_CURVE('',#616,#611,#380,.T.);
#1194=EDGE_CURVE('',#630,#628,#340,.T.);
#1208=EDGE_CURVE('',#632,#627,#344,.T.);
#1220=EDGE_CURVE('',#640,#635,#352,.T.);
#1232=EDGE_CURVE('',#638,#636,#372,.T.);
#1244=EDGE_CURVE('',#622,#620,#360,.T.);
#1247=EDGE_CURVE('',#608,#574,#364,.T.);
#1260=EDGE_CURVE('',#576,#606,#376,.T.);
#1274=EDGE_CURVE('',#624,#619,#388,.T.);
#1297=EDGE_CURVE('',#568,#583,#420,.T.);
#1300=EDGE_CURVE('',#566,#572,#400,.T.);
#1313=EDGE_CURVE('',#563,#580,#412,.T.);
#1326=EDGE_CURVE('',#584,#544,#452,.T.);
#1341=EDGE_CURVE('',#564,#571,#432,.T.);
#1368=EDGE_CURVE('',#542,#595,#448,.T.);
#1383=EDGE_CURVE('',#596,#540,#484,.T.);
#1398=EDGE_CURVE('',#538,#591,#480,.T.);
#1413=EDGE_CURVE('',#592,#536,#516,.T.);
#1428=EDGE_CURVE('',#534,#587,#512,.T.);
#1451=(LENGTH_UNIT()NAMED_UNIT(*)SI_UNIT(.MILLI.,.METRE.));
#1453=(NAMED_UNIT(*)PLANE_ANGLE_UNIT()SI_UNIT($,.RADIAN.));
#1456=(NAMED_UNIT(*)SI_UNIT($,.STERADIAN.)SOLID_ANGLE_UNIT());
#1459=ADVANCED_BREP_SHAPE_REPRESENTATION('',(#1450),#1458);
#1466=PRODUCT_DEFINITION('design','',#1465,#1462);
#1467=PRODUCT_DEFINITION_SHAPE('','SHAPE FOR SUB_COVER_NEW.',#1466);
#1468=SHAPE_DEFINITION_REPRESENTATION(#1467,#1459);
ENDSEC;
END-ISO-10303-21;
