ISO-10303-21;
HEADER;
FILE_DESCRIPTION((''),'2;1');
FILE_NAME('SUB_FORCE_TRANSMITTER','2025-01-27T13:50:11',('iw87ukax'),(''),
'CREO PARAMETRIC BY PTC INC, 2019010','CREO PARAMETRIC BY PTC INC, 2019010','');
FILE_SCHEMA(('CONFIG_CONTROL_DESIGN'));
ENDSEC;
DATA;
#1=DIRECTION('',(0.E0,0.E0,1.E0));
#2=VECTOR('',#1,2.458501408400E0);
#3=CARTESIAN_POINT('',(1.5E2,3.6E1,4.985916003171E-4));
#4=LINE('',#3,#2);
#5=DIRECTION('',(-1.E0,0.E0,0.E0));
#6=VECTOR('',#5,2.600004107289E1);
#7=CARTESIAN_POINT('',(1.760000410729E2,3.6E1,4.985916003140E-4));
#8=LINE('',#7,#6);
#9=DIRECTION('',(8.112107670582E-5,0.E0,-9.999999967097E-1));
#10=VECTOR('',#9,9.128277610968E-1);
#11=CARTESIAN_POINT('',(1.759999670233E2,3.6E1,9.133263496936E-1));
#12=LINE('',#11,#10);
#13=DIRECTION('',(4.790763610151E-5,0.E0,-9.999999988524E-1));
#14=VECTOR('',#13,1.545673652080E0);
#15=CARTESIAN_POINT('',(1.759998929737E2,3.6E1,2.459E0));
#16=LINE('',#15,#14);
#17=CARTESIAN_POINT('',(1.5E2,1.799951319931E1,1.630157889407E2));
#18=DIRECTION('',(1.E0,0.E0,0.E0));
#19=DIRECTION('',(0.E0,-1.114088541403E-1,-9.937746561566E-1));
#20=AXIS2_PLACEMENT_3D('',#17,#18,#19);
#22=DIRECTION('',(0.E0,0.E0,1.E0));
#23=VECTOR('',#22,2.458392258117E0);
#24=CARTESIAN_POINT('',(1.5E2,-2.E0,4.985916003171E-4));
#25=LINE('',#24,#23);
#26=DIRECTION('',(0.E0,1.E0,0.E0));
#27=VECTOR('',#26,3.8E1);
#28=CARTESIAN_POINT('',(1.5E2,-2.E0,4.985916003171E-4));
#29=LINE('',#28,#27);
#30=DIRECTION('',(-1.E0,0.E0,0.E0));
#31=VECTOR('',#30,2.600004107289E1);
#32=CARTESIAN_POINT('',(1.760000410729E2,-2.E0,4.985916003141E-4));
#33=LINE('',#32,#31);
#34=DIRECTION('',(0.E0,1.E0,0.E0));
#35=VECTOR('',#34,3.8E1);
#36=CARTESIAN_POINT('',(1.760000410729E2,-2.E0,4.985916003141E-4));
#37=LINE('',#36,#35);
#38=DIRECTION('',(8.112107676809E-5,0.E0,-9.999999967097E-1));
#39=VECTOR('',#38,9.128277610968E-1);
#40=CARTESIAN_POINT('',(1.759999670233E2,-2.E0,9.133263496936E-1));
#41=LINE('',#40,#39);
#42=CARTESIAN_POINT('',(1.759998929737E2,1.799951319931E1,1.630157889407E2));
#43=DIRECTION('',(-1.E0,0.E0,0.E0));
#44=DIRECTION('',(0.E0,1.114148802929E-1,-9.937739805657E-1));
#45=AXIS2_PLACEMENT_3D('',#42,#43,#44);
#47=DIRECTION('',(0.E0,1.E0,0.E0));
#48=VECTOR('',#47,3.8E1);
#49=CARTESIAN_POINT('',(1.759999670233E2,-2.E0,9.133263496936E-1));
#50=LINE('',#49,#48);
#51=DIRECTION('',(4.791101941679E-5,0.E0,-9.999999988523E-1));
#52=VECTOR('',#51,1.545564501798E0);
#53=CARTESIAN_POINT('',(1.759998929737E2,-2.E0,2.458890849718E0));
#54=LINE('',#53,#52);
#55=DIRECTION('',(0.E0,1.E0,0.E0));
#56=VECTOR('',#55,2.E0);
#57=CARTESIAN_POINT('',(1.759998929737E2,-2.E0,2.458890849718E0));
#58=LINE('',#57,#56);
#59=DIRECTION('',(1.E0,0.E0,0.E0));
#60=VECTOR('',#59,2.599989297374E1);
#61=CARTESIAN_POINT('',(1.5E2,-2.E0,2.458890849718E0));
#62=LINE('',#61,#60);
#63=DIRECTION('',(0.E0,-1.E0,0.E0));
#64=VECTOR('',#63,2.E0);
#65=CARTESIAN_POINT('',(1.5E2,2.515695526902E-13,2.458890849718E0));
#66=LINE('',#65,#64);
#67=DIRECTION('',(-1.E0,0.E0,0.E0));
#68=VECTOR('',#67,2.599989297374E1);
#69=CARTESIAN_POINT('',(1.759998929737E2,3.6E1,2.459E0));
#70=LINE('',#69,#68);
#71=DIRECTION('',(1.E0,0.E0,0.E0));
#72=VECTOR('',#71,2.599989297374E1);
#73=CARTESIAN_POINT('',(1.5E2,2.515695526902E-13,2.458890849718E0));
#74=LINE('',#73,#72);
#75=CARTESIAN_POINT('',(1.5E2,3.6E1,4.985916003171E-4));
#76=CARTESIAN_POINT('',(1.5E2,3.6E1,2.459E0));
#77=VERTEX_POINT('',#75);
#78=VERTEX_POINT('',#76);
#79=CARTESIAN_POINT('',(1.5E2,7.425171588693E-13,2.458890849718E0));
#80=VERTEX_POINT('',#79);
#81=CARTESIAN_POINT('',(1.759998929737E2,3.6E1,2.459E0));
#82=VERTEX_POINT('',#81);
#83=CARTESIAN_POINT('',(1.760000410729E2,3.6E1,4.985916003140E-4));
#84=VERTEX_POINT('',#83);
#85=CARTESIAN_POINT('',(1.759998929737E2,2.378154515274E-13,2.458890849718E0));
#86=VERTEX_POINT('',#85);
#87=CARTESIAN_POINT('',(1.759999670233E2,3.6E1,9.133263496936E-1));
#88=VERTEX_POINT('',#87);
#89=CARTESIAN_POINT('',(1.5E2,-2.E0,4.985916003171E-4));
#90=VERTEX_POINT('',#89);
#91=CARTESIAN_POINT('',(1.759998929737E2,-2.E0,2.458890849718E0));
#92=VERTEX_POINT('',#91);
#93=CARTESIAN_POINT('',(1.5E2,-2.E0,2.458890849718E0));
#94=VERTEX_POINT('',#93);
#95=CARTESIAN_POINT('',(1.760000410729E2,-2.E0,4.985916003141E-4));
#96=VERTEX_POINT('',#95);
#97=CARTESIAN_POINT('',(1.759999670233E2,-2.E0,9.133263496936E-1));
#98=VERTEX_POINT('',#97);
#99=CARTESIAN_POINT('',(1.756939340466E2,3.6E1,-6.143970201436E0));
#100=DIRECTION('',(0.E0,1.E0,0.E0));
#101=DIRECTION('',(0.E0,0.E0,-1.E0));
#102=AXIS2_PLACEMENT_3D('',#99,#100,#101);
#103=PLANE('',#102);
#105=ORIENTED_EDGE('',*,*,#104,.F.);
#107=ORIENTED_EDGE('',*,*,#106,.F.);
#109=ORIENTED_EDGE('',*,*,#108,.F.);
#111=ORIENTED_EDGE('',*,*,#110,.F.);
#113=ORIENTED_EDGE('',*,*,#112,.T.);
#114=EDGE_LOOP('',(#105,#107,#109,#111,#113));
#115=FACE_OUTER_BOUND('',#114,.F.);
#116=ADVANCED_FACE('',(#115),#103,.T.);
#117=CARTESIAN_POINT('',(1.5E2,0.E0,2.458890849718E0));
#118=DIRECTION('',(-1.E0,0.E0,0.E0));
#119=DIRECTION('',(0.E0,0.E0,-1.E0));
#120=AXIS2_PLACEMENT_3D('',#117,#118,#119);
#121=PLANE('',#120);
#123=ORIENTED_EDGE('',*,*,#122,.T.);
#124=ORIENTED_EDGE('',*,*,#104,.T.);
#126=ORIENTED_EDGE('',*,*,#125,.F.);
#128=ORIENTED_EDGE('',*,*,#127,.T.);
#130=ORIENTED_EDGE('',*,*,#129,.F.);
#131=EDGE_LOOP('',(#123,#124,#126,#128,#130));
#132=FACE_OUTER_BOUND('',#131,.F.);
#133=ADVANCED_FACE('',(#132),#121,.T.);
#134=CARTESIAN_POINT('',(1.5E2,0.E0,4.985916003173E-4));
#135=DIRECTION('',(0.E0,0.E0,-1.E0));
#136=DIRECTION('',(1.E0,0.E0,0.E0));
#137=AXIS2_PLACEMENT_3D('',#134,#135,#136);
#138=PLANE('',#137);
#140=ORIENTED_EDGE('',*,*,#139,.T.);
#141=ORIENTED_EDGE('',*,*,#106,.T.);
#142=ORIENTED_EDGE('',*,*,#122,.F.);
#144=ORIENTED_EDGE('',*,*,#143,.F.);
#145=EDGE_LOOP('',(#140,#141,#142,#144));
#146=FACE_OUTER_BOUND('',#145,.F.);
#147=ADVANCED_FACE('',(#146),#138,.T.);
#148=CARTESIAN_POINT('',(1.760000410729E2,0.E0,4.985916003144E-4));
#149=DIRECTION('',(1.E0,0.E0,0.E0));
#150=DIRECTION('',(0.E0,0.E0,1.E0));
#151=AXIS2_PLACEMENT_3D('',#148,#149,#150);
#152=PLANE('',#151);
#154=ORIENTED_EDGE('',*,*,#153,.T.);
#155=ORIENTED_EDGE('',*,*,#108,.T.);
#156=ORIENTED_EDGE('',*,*,#139,.F.);
#158=ORIENTED_EDGE('',*,*,#157,.F.);
#159=EDGE_LOOP('',(#154,#155,#156,#158));
#160=FACE_OUTER_BOUND('',#159,.F.);
#161=ADVANCED_FACE('',(#160),#152,.T.);
#162=CARTESIAN_POINT('',(1.759998929737E2,0.E0,9.133263496936E-1));
#163=DIRECTION('',(1.E0,0.E0,0.E0));
#164=DIRECTION('',(0.E0,0.E0,1.E0));
#165=AXIS2_PLACEMENT_3D('',#162,#163,#164);
#166=PLANE('',#165);
#168=ORIENTED_EDGE('',*,*,#167,.T.);
#170=ORIENTED_EDGE('',*,*,#169,.F.);
#171=ORIENTED_EDGE('',*,*,#110,.T.);
#172=ORIENTED_EDGE('',*,*,#153,.F.);
#174=ORIENTED_EDGE('',*,*,#173,.F.);
#175=EDGE_LOOP('',(#168,#170,#171,#172,#174));
#176=FACE_OUTER_BOUND('',#175,.F.);
#177=ADVANCED_FACE('',(#176),#166,.T.);
#178=CARTESIAN_POINT('',(1.759998929737E2,0.E0,2.458890849718E0));
#179=DIRECTION('',(0.E0,0.E0,1.E0));
#180=DIRECTION('',(-1.E0,0.E0,0.E0));
#181=AXIS2_PLACEMENT_3D('',#178,#179,#180);
#182=PLANE('',#181);
#184=ORIENTED_EDGE('',*,*,#183,.T.);
#185=ORIENTED_EDGE('',*,*,#167,.F.);
#187=ORIENTED_EDGE('',*,*,#186,.F.);
#188=ORIENTED_EDGE('',*,*,#127,.F.);
#189=EDGE_LOOP('',(#184,#185,#187,#188));
#190=FACE_OUTER_BOUND('',#189,.F.);
#191=ADVANCED_FACE('',(#190),#182,.T.);
#192=CARTESIAN_POINT('',(1.489998929737E2,1.799951319931E1,1.630157889407E2));
#193=DIRECTION('',(1.E0,0.E0,0.E0));
#194=DIRECTION('',(0.E0,-1.145066413060E-1,-9.934224826814E-1));
#195=AXIS2_PLACEMENT_3D('',#192,#193,#194);
#196=CYLINDRICAL_SURFACE('',#195,1.615626813345E2);
#197=ORIENTED_EDGE('',*,*,#125,.T.);
#198=ORIENTED_EDGE('',*,*,#112,.F.);
#199=ORIENTED_EDGE('',*,*,#169,.T.);
#200=ORIENTED_EDGE('',*,*,#183,.F.);
#201=EDGE_LOOP('',(#197,#198,#199,#200));
#202=FACE_OUTER_BOUND('',#201,.F.);
#203=ADVANCED_FACE('',(#202),#196,.F.);
#204=CARTESIAN_POINT('',(1.630000165148E2,-2.E0,1.229690699061E0));
#205=DIRECTION('',(0.E0,-1.E0,0.E0));
#206=DIRECTION('',(0.E0,0.E0,-1.E0));
#207=AXIS2_PLACEMENT_3D('',#204,#205,#206);
#208=PLANE('',#207);
#209=ORIENTED_EDGE('',*,*,#129,.T.);
#210=ORIENTED_EDGE('',*,*,#186,.T.);
#211=ORIENTED_EDGE('',*,*,#173,.T.);
#212=ORIENTED_EDGE('',*,*,#157,.T.);
#213=ORIENTED_EDGE('',*,*,#143,.T.);
#214=EDGE_LOOP('',(#209,#210,#211,#212,#213));
#215=FACE_OUTER_BOUND('',#214,.F.);
#216=ADVANCED_FACE('',(#215),#208,.T.);
#217=CLOSED_SHELL('',(#116,#133,#147,#161,#177,#191,#203,#216));
#218=MANIFOLD_SOLID_BREP('',#217);
#220=DIMENSIONAL_EXPONENTS(0.E0,0.E0,0.E0,0.E0,0.E0,0.E0,0.E0);
#222=PLANE_ANGLE_MEASURE_WITH_UNIT(PLANE_ANGLE_MEASURE(1.745329251994E-2),#221);
#223=(CONVERSION_BASED_UNIT('DEGREE',#222)NAMED_UNIT(*)PLANE_ANGLE_UNIT());
#225=UNCERTAINTY_MEASURE_WITH_UNIT(LENGTH_MEASURE(4.610728629620E-3),#219,
'closure',
'Maximum model space distance between geometric entities at asserted connectivities');
#226=(GEOMETRIC_REPRESENTATION_CONTEXT(3)GLOBAL_UNCERTAINTY_ASSIGNED_CONTEXT((
#225))GLOBAL_UNIT_ASSIGNED_CONTEXT((#219,#223,#224))REPRESENTATION_CONTEXT
('ID1','3'));
#228=APPLICATION_CONTEXT(
'CONFIGURATION CONTROLLED 3D DESIGNS OF MECHANICAL PARTS AND ASSEMBLIES');
#229=APPLICATION_PROTOCOL_DEFINITION('international standard',
'config_control_design',1994,#228);
#230=DESIGN_CONTEXT('',#228,'design');
#231=MECHANICAL_CONTEXT('',#228,'mechanical');
#232=PRODUCT('SUB_FORCE_TRANSMITTER','SUB_FORCE_TRANSMITTER','NOT SPECIFIED',(
#231));
#233=PRODUCT_DEFINITION_FORMATION_WITH_SPECIFIED_SOURCE('1','LAST_VERSION',#232,
.MADE.);
#237=PRODUCT_CATEGORY('part','');
#238=PRODUCT_RELATED_PRODUCT_CATEGORY('detail','',(#232));
#239=PRODUCT_CATEGORY_RELATIONSHIP('','',#237,#238);
#240=SECURITY_CLASSIFICATION_LEVEL('unclassified');
#241=SECURITY_CLASSIFICATION('','',#240);
#242=CC_DESIGN_SECURITY_CLASSIFICATION(#241,(#233));
#243=APPROVAL_STATUS('approved');
#244=APPROVAL(#243,'');
#245=CC_DESIGN_APPROVAL(#244,(#241,#233,#234));
#246=CALENDAR_DATE(125,27,1);
#247=COORDINATED_UNIVERSAL_TIME_OFFSET(1,0,.AHEAD.);
#248=LOCAL_TIME(13,50,1.1E1,#247);
#249=DATE_AND_TIME(#246,#248);
#250=APPROVAL_DATE_TIME(#249,#244);
#251=DATE_TIME_ROLE('creation_date');
#252=CC_DESIGN_DATE_AND_TIME_ASSIGNMENT(#249,#251,(#234));
#253=DATE_TIME_ROLE('classification_date');
#254=CC_DESIGN_DATE_AND_TIME_ASSIGNMENT(#249,#253,(#241));
#255=PERSON('UNSPECIFIED','UNSPECIFIED',$,$,$,$);
#256=ORGANIZATION('UNSPECIFIED','UNSPECIFIED','UNSPECIFIED');
#257=PERSON_AND_ORGANIZATION(#255,#256);
#258=APPROVAL_ROLE('approver');
#259=APPROVAL_PERSON_ORGANIZATION(#257,#244,#258);
#260=PERSON_AND_ORGANIZATION_ROLE('creator');
#261=CC_DESIGN_PERSON_AND_ORGANIZATION_ASSIGNMENT(#257,#260,(#233,#234));
#262=PERSON_AND_ORGANIZATION_ROLE('design_supplier');
#263=CC_DESIGN_PERSON_AND_ORGANIZATION_ASSIGNMENT(#257,#262,(#233));
#264=PERSON_AND_ORGANIZATION_ROLE('classification_officer');
#265=CC_DESIGN_PERSON_AND_ORGANIZATION_ASSIGNMENT(#257,#264,(#241));
#266=PERSON_AND_ORGANIZATION_ROLE('design_owner');
#267=CC_DESIGN_PERSON_AND_ORGANIZATION_ASSIGNMENT(#257,#266,(#232));
#21=CIRCLE('',#20,1.615626813345E2);
#46=CIRCLE('',#45,1.615626813345E2);
#104=EDGE_CURVE('',#77,#78,#4,.T.);
#106=EDGE_CURVE('',#84,#77,#8,.T.);
#108=EDGE_CURVE('',#88,#84,#12,.T.);
#110=EDGE_CURVE('',#82,#88,#16,.T.);
#112=EDGE_CURVE('',#82,#78,#70,.T.);
#122=EDGE_CURVE('',#90,#77,#29,.T.);
#125=EDGE_CURVE('',#80,#78,#21,.T.);
#127=EDGE_CURVE('',#80,#94,#66,.T.);
#129=EDGE_CURVE('',#90,#94,#25,.T.);
#139=EDGE_CURVE('',#96,#84,#37,.T.);
#143=EDGE_CURVE('',#96,#90,#33,.T.);
#153=EDGE_CURVE('',#98,#88,#50,.T.);
#157=EDGE_CURVE('',#98,#96,#41,.T.);
#167=EDGE_CURVE('',#92,#86,#58,.T.);
#169=EDGE_CURVE('',#82,#86,#46,.T.);
#173=EDGE_CURVE('',#92,#98,#54,.T.);
#183=EDGE_CURVE('',#80,#86,#74,.T.);
#186=EDGE_CURVE('',#94,#92,#62,.T.);
#219=(LENGTH_UNIT()NAMED_UNIT(*)SI_UNIT(.MILLI.,.METRE.));
#221=(NAMED_UNIT(*)PLANE_ANGLE_UNIT()SI_UNIT($,.RADIAN.));
#224=(NAMED_UNIT(*)SI_UNIT($,.STERADIAN.)SOLID_ANGLE_UNIT());
#227=ADVANCED_BREP_SHAPE_REPRESENTATION('',(#218),#226);
#234=PRODUCT_DEFINITION('design','',#233,#230);
#235=PRODUCT_DEFINITION_SHAPE('','SHAPE FOR SUB_FORCE_TRANSMITTER.',#234);
#236=SHAPE_DEFINITION_REPRESENTATION(#235,#227);
ENDSEC;
END-ISO-10303-21;
